%TF.GenerationSoftware,KiCad,Pcbnew,(5.1.10)-1*%
%TF.CreationDate,2021-11-13T17:44:38+00:00*%
%TF.ProjectId,voltmitten,766f6c74-6d69-4747-9465-6e2e6b696361,01*%
%TF.SameCoordinates,Original*%
%TF.FileFunction,Soldermask,Top*%
%TF.FilePolarity,Negative*%
%FSLAX46Y46*%
G04 Gerber Fmt 4.6, Leading zero omitted, Abs format (unit mm)*
G04 Created by KiCad (PCBNEW (5.1.10)-1) date 2021-11-13 17:44:38*
%MOMM*%
%LPD*%
G01*
G04 APERTURE LIST*
%ADD10C,0.100000*%
%ADD11O,1.350000X1.350000*%
%ADD12C,0.500000*%
%ADD13R,1.700000X1.700000*%
%ADD14O,1.700000X1.700000*%
%ADD15C,2.200000*%
%ADD16C,2.640000*%
%ADD17R,0.650000X0.400000*%
%ADD18R,1.701800X0.558800*%
%ADD19R,5.867400X5.461000*%
%ADD20R,9.750000X12.200000*%
%ADD21R,3.500000X1.600000*%
%ADD22R,2.500000X1.430000*%
%ADD23O,1.700000X1.350000*%
%ADD24O,1.500000X1.100000*%
%ADD25R,1.650000X0.400000*%
%ADD26R,1.500000X2.000000*%
%ADD27R,0.700000X1.825000*%
%ADD28R,2.000000X1.350000*%
%ADD29R,0.900000X0.800000*%
%ADD30C,2.000000*%
%ADD31R,1.200000X0.400000*%
%ADD32C,1.508000*%
%ADD33R,1.508000X1.508000*%
G04 APERTURE END LIST*
D10*
G36*
X130870000Y-109420000D02*
G01*
X89870000Y-109420000D01*
X89870000Y-89920000D01*
X130870000Y-89920000D01*
X130870000Y-109420000D01*
G37*
X130870000Y-109420000D02*
X89870000Y-109420000D01*
X89870000Y-89920000D01*
X130870000Y-89920000D01*
X130870000Y-109420000D01*
G36*
X132370000Y-117920000D02*
G01*
X134870000Y-117920000D01*
X134870000Y-133920000D01*
X89870000Y-133920000D01*
X89870000Y-114420000D01*
X132370000Y-114420000D01*
X132370000Y-117920000D01*
G37*
X132370000Y-117920000D02*
X134870000Y-117920000D01*
X134870000Y-133920000D01*
X89870000Y-133920000D01*
X89870000Y-114420000D01*
X132370000Y-114420000D01*
X132370000Y-117920000D01*
G36*
X132370000Y-68920000D02*
G01*
X134870000Y-68920000D01*
X134870000Y-84920000D01*
X89870000Y-84920000D01*
X89870000Y-65420000D01*
X132370000Y-65420000D01*
X132370000Y-68920000D01*
G37*
X132370000Y-68920000D02*
X134870000Y-68920000D01*
X134870000Y-84920000D01*
X89870000Y-84920000D01*
X89870000Y-65420000D01*
X132370000Y-65420000D01*
X132370000Y-68920000D01*
G36*
X130870000Y-60420000D02*
G01*
X89870000Y-60420000D01*
X89870000Y-40920000D01*
X130870000Y-40920000D01*
X130870000Y-60420000D01*
G37*
X130870000Y-60420000D02*
X89870000Y-60420000D01*
X89870000Y-40920000D01*
X130870000Y-40920000D01*
X130870000Y-60420000D01*
%TO.C,R7*%
G36*
G01*
X231732500Y-110907500D02*
X231732500Y-110432500D01*
G75*
G02*
X231970000Y-110195000I237500J0D01*
G01*
X232470000Y-110195000D01*
G75*
G02*
X232707500Y-110432500I0J-237500D01*
G01*
X232707500Y-110907500D01*
G75*
G02*
X232470000Y-111145000I-237500J0D01*
G01*
X231970000Y-111145000D01*
G75*
G02*
X231732500Y-110907500I0J237500D01*
G01*
G37*
G36*
G01*
X233557500Y-110907500D02*
X233557500Y-110432500D01*
G75*
G02*
X233795000Y-110195000I237500J0D01*
G01*
X234295000Y-110195000D01*
G75*
G02*
X234532500Y-110432500I0J-237500D01*
G01*
X234532500Y-110907500D01*
G75*
G02*
X234295000Y-111145000I-237500J0D01*
G01*
X233795000Y-111145000D01*
G75*
G02*
X233557500Y-110907500I0J237500D01*
G01*
G37*
%TD*%
D11*
%TO.C,TP-B1*%
X152870000Y-97670000D03*
%TD*%
%TO.C,TP-C1*%
X152870000Y-102420000D03*
%TD*%
%TO.C,TP-A1*%
X149870000Y-91420000D03*
%TD*%
%TO.C,TP-B2*%
X152870000Y-99920000D03*
%TD*%
%TO.C,TP-A2*%
X149870000Y-93670000D03*
%TD*%
%TO.C,TP+A2*%
X151370000Y-131420000D03*
%TD*%
%TO.C,TP-C2*%
X151370000Y-106920000D03*
%TD*%
%TO.C,TP+A1*%
X152870000Y-126920000D03*
%TD*%
%TO.C,TP+C2*%
X153120000Y-117920000D03*
%TD*%
%TO.C,TP+C1*%
X149620000Y-115920000D03*
%TD*%
%TO.C,TP+B1*%
X152870000Y-122170000D03*
%TD*%
%TO.C,TP+B2*%
X152870000Y-124420000D03*
%TD*%
D12*
%TO.C,REF\u002A\u002A*%
X176070000Y-110720000D03*
X176870000Y-110720000D03*
X177670000Y-110720000D03*
X178470000Y-110720000D03*
X176070000Y-113120000D03*
X176870000Y-113120000D03*
X177670000Y-113120000D03*
X178470000Y-113120000D03*
%TD*%
D13*
%TO.C,J-1*%
X168600000Y-105640000D03*
D14*
X168600000Y-108180000D03*
%TD*%
D10*
%TO.C,JP-2*%
G36*
X162448427Y-102543833D02*
G01*
X163403021Y-103498427D01*
X162448427Y-104453021D01*
X161493833Y-103498427D01*
X162448427Y-102543833D01*
G37*
G36*
G01*
X161511510Y-101606916D02*
X161511510Y-101606916D01*
G75*
G02*
X161511510Y-102561510I-477297J-477297D01*
G01*
X161511510Y-102561510D01*
G75*
G02*
X160556916Y-102561510I-477297J477297D01*
G01*
X160556916Y-102561510D01*
G75*
G02*
X160556916Y-101606916I477297J477297D01*
G01*
X160556916Y-101606916D01*
G75*
G02*
X161511510Y-101606916I477297J-477297D01*
G01*
G37*
G36*
G01*
X160097297Y-100192703D02*
X160097297Y-100192703D01*
G75*
G02*
X160097297Y-101147297I-477297J-477297D01*
G01*
X160097297Y-101147297D01*
G75*
G02*
X159142703Y-101147297I-477297J477297D01*
G01*
X159142703Y-101147297D01*
G75*
G02*
X159142703Y-100192703I477297J477297D01*
G01*
X159142703Y-100192703D01*
G75*
G02*
X160097297Y-100192703I477297J-477297D01*
G01*
G37*
%TD*%
D12*
%TO.C,REF\u002A\u002A*%
X98570000Y-110720000D03*
X99370000Y-110720000D03*
X100170000Y-110720000D03*
X100970000Y-110720000D03*
X98570000Y-113120000D03*
X99370000Y-113120000D03*
X100170000Y-113120000D03*
X100970000Y-113120000D03*
%TD*%
D10*
%TO.C,JP-1*%
G36*
X154621573Y-96546167D02*
G01*
X153666979Y-95591573D01*
X154621573Y-94636979D01*
X155576167Y-95591573D01*
X154621573Y-96546167D01*
G37*
G36*
G01*
X155558490Y-97483084D02*
X155558490Y-97483084D01*
G75*
G02*
X155558490Y-96528490I477297J477297D01*
G01*
X155558490Y-96528490D01*
G75*
G02*
X156513084Y-96528490I477297J-477297D01*
G01*
X156513084Y-96528490D01*
G75*
G02*
X156513084Y-97483084I-477297J-477297D01*
G01*
X156513084Y-97483084D01*
G75*
G02*
X155558490Y-97483084I-477297J477297D01*
G01*
G37*
G36*
G01*
X156972703Y-98897297D02*
X156972703Y-98897297D01*
G75*
G02*
X156972703Y-97942703I477297J477297D01*
G01*
X156972703Y-97942703D01*
G75*
G02*
X157927297Y-97942703I477297J-477297D01*
G01*
X157927297Y-97942703D01*
G75*
G02*
X157927297Y-98897297I-477297J-477297D01*
G01*
X157927297Y-98897297D01*
G75*
G02*
X156972703Y-98897297I-477297J477297D01*
G01*
G37*
%TD*%
%TO.C,JP+2*%
G36*
X162448427Y-127043833D02*
G01*
X163403021Y-127998427D01*
X162448427Y-128953021D01*
X161493833Y-127998427D01*
X162448427Y-127043833D01*
G37*
G36*
G01*
X161511510Y-126106916D02*
X161511510Y-126106916D01*
G75*
G02*
X161511510Y-127061510I-477297J-477297D01*
G01*
X161511510Y-127061510D01*
G75*
G02*
X160556916Y-127061510I-477297J477297D01*
G01*
X160556916Y-127061510D01*
G75*
G02*
X160556916Y-126106916I477297J477297D01*
G01*
X160556916Y-126106916D01*
G75*
G02*
X161511510Y-126106916I477297J-477297D01*
G01*
G37*
G36*
G01*
X160097297Y-124692703D02*
X160097297Y-124692703D01*
G75*
G02*
X160097297Y-125647297I-477297J-477297D01*
G01*
X160097297Y-125647297D01*
G75*
G02*
X159142703Y-125647297I-477297J477297D01*
G01*
X159142703Y-125647297D01*
G75*
G02*
X159142703Y-124692703I477297J477297D01*
G01*
X159142703Y-124692703D01*
G75*
G02*
X160097297Y-124692703I477297J-477297D01*
G01*
G37*
%TD*%
D13*
%TO.C,J+1*%
X171140000Y-130140000D03*
D14*
X171140000Y-132680000D03*
%TD*%
D10*
%TO.C,JP+1*%
G36*
X154621573Y-121046167D02*
G01*
X153666979Y-120091573D01*
X154621573Y-119136979D01*
X155576167Y-120091573D01*
X154621573Y-121046167D01*
G37*
G36*
G01*
X155558490Y-121983084D02*
X155558490Y-121983084D01*
G75*
G02*
X155558490Y-121028490I477297J477297D01*
G01*
X155558490Y-121028490D01*
G75*
G02*
X156513084Y-121028490I477297J-477297D01*
G01*
X156513084Y-121028490D01*
G75*
G02*
X156513084Y-121983084I-477297J-477297D01*
G01*
X156513084Y-121983084D01*
G75*
G02*
X155558490Y-121983084I-477297J477297D01*
G01*
G37*
G36*
G01*
X156972703Y-123397297D02*
X156972703Y-123397297D01*
G75*
G02*
X156972703Y-122442703I477297J477297D01*
G01*
X156972703Y-122442703D01*
G75*
G02*
X157927297Y-122442703I477297J-477297D01*
G01*
X157927297Y-122442703D01*
G75*
G02*
X157927297Y-123397297I-477297J-477297D01*
G01*
X157927297Y-123397297D01*
G75*
G02*
X156972703Y-123397297I-477297J477297D01*
G01*
G37*
%TD*%
D12*
%TO.C,REF\u002A\u002A*%
X138570000Y-110720000D03*
X139370000Y-110720000D03*
X140170000Y-110720000D03*
X140970000Y-110720000D03*
X138570000Y-113120000D03*
X139370000Y-113120000D03*
X140170000Y-113120000D03*
X140970000Y-113120000D03*
%TD*%
D10*
%TO.C,JSA+1*%
G36*
X170433969Y-117956051D02*
G01*
X171636051Y-116753969D01*
X172838133Y-117956051D01*
X171636051Y-119158133D01*
X170433969Y-117956051D01*
G37*
G36*
G01*
X169238959Y-115558959D02*
X169238959Y-115558959D01*
G75*
G02*
X170441041Y-115558959I601041J-601041D01*
G01*
X170441041Y-115558959D01*
G75*
G02*
X170441041Y-116761041I-601041J-601041D01*
G01*
X170441041Y-116761041D01*
G75*
G02*
X169238959Y-116761041I-601041J601041D01*
G01*
X169238959Y-116761041D01*
G75*
G02*
X169238959Y-115558959I601041J601041D01*
G01*
G37*
G36*
G01*
X169238959Y-119151061D02*
X169238959Y-119151061D01*
G75*
G02*
X170441041Y-119151061I601041J-601041D01*
G01*
X170441041Y-119151061D01*
G75*
G02*
X170441041Y-120353143I-601041J-601041D01*
G01*
X170441041Y-120353143D01*
G75*
G02*
X169238959Y-120353143I-601041J601041D01*
G01*
X169238959Y-120353143D01*
G75*
G02*
X169238959Y-119151061I601041J601041D01*
G01*
G37*
G36*
G01*
X167442908Y-117355010D02*
X167442908Y-117355010D01*
G75*
G02*
X168644990Y-117355010I601041J-601041D01*
G01*
X168644990Y-117355010D01*
G75*
G02*
X168644990Y-118557092I-601041J-601041D01*
G01*
X168644990Y-118557092D01*
G75*
G02*
X167442908Y-118557092I-601041J601041D01*
G01*
X167442908Y-118557092D01*
G75*
G02*
X167442908Y-117355010I601041J601041D01*
G01*
G37*
G36*
G01*
X167442908Y-120947112D02*
X167442908Y-120947112D01*
G75*
G02*
X168644990Y-120947112I601041J-601041D01*
G01*
X168644990Y-120947112D01*
G75*
G02*
X168644990Y-122149194I-601041J-601041D01*
G01*
X168644990Y-122149194D01*
G75*
G02*
X167442908Y-122149194I-601041J601041D01*
G01*
X167442908Y-122149194D01*
G75*
G02*
X167442908Y-120947112I601041J601041D01*
G01*
G37*
G36*
G01*
X165646856Y-119151061D02*
X165646856Y-119151061D01*
G75*
G02*
X166848938Y-119151061I601041J-601041D01*
G01*
X166848938Y-119151061D01*
G75*
G02*
X166848938Y-120353143I-601041J-601041D01*
G01*
X166848938Y-120353143D01*
G75*
G02*
X165646856Y-120353143I-601041J601041D01*
G01*
X165646856Y-120353143D01*
G75*
G02*
X165646856Y-119151061I601041J601041D01*
G01*
G37*
G36*
G01*
X165646856Y-122743164D02*
X165646856Y-122743164D01*
G75*
G02*
X166848938Y-122743164I601041J-601041D01*
G01*
X166848938Y-122743164D01*
G75*
G02*
X166848938Y-123945246I-601041J-601041D01*
G01*
X166848938Y-123945246D01*
G75*
G02*
X165646856Y-123945246I-601041J601041D01*
G01*
X165646856Y-123945246D01*
G75*
G02*
X165646856Y-122743164I601041J601041D01*
G01*
G37*
G36*
G01*
X163850805Y-120947112D02*
X163850805Y-120947112D01*
G75*
G02*
X165052887Y-120947112I601041J-601041D01*
G01*
X165052887Y-120947112D01*
G75*
G02*
X165052887Y-122149194I-601041J-601041D01*
G01*
X165052887Y-122149194D01*
G75*
G02*
X163850805Y-122149194I-601041J601041D01*
G01*
X163850805Y-122149194D01*
G75*
G02*
X163850805Y-120947112I601041J601041D01*
G01*
G37*
G36*
G01*
X163850805Y-124539215D02*
X163850805Y-124539215D01*
G75*
G02*
X165052887Y-124539215I601041J-601041D01*
G01*
X165052887Y-124539215D01*
G75*
G02*
X165052887Y-125741297I-601041J-601041D01*
G01*
X165052887Y-125741297D01*
G75*
G02*
X163850805Y-125741297I-601041J601041D01*
G01*
X163850805Y-125741297D01*
G75*
G02*
X163850805Y-124539215I601041J601041D01*
G01*
G37*
G36*
G01*
X162054754Y-122743164D02*
X162054754Y-122743164D01*
G75*
G02*
X163256836Y-122743164I601041J-601041D01*
G01*
X163256836Y-122743164D01*
G75*
G02*
X163256836Y-123945246I-601041J-601041D01*
G01*
X163256836Y-123945246D01*
G75*
G02*
X162054754Y-123945246I-601041J601041D01*
G01*
X162054754Y-123945246D01*
G75*
G02*
X162054754Y-122743164I601041J601041D01*
G01*
G37*
%TD*%
%TO.C,C-1*%
G36*
G01*
X145832500Y-96657500D02*
X145832500Y-96182500D01*
G75*
G02*
X146070000Y-95945000I237500J0D01*
G01*
X146670000Y-95945000D01*
G75*
G02*
X146907500Y-96182500I0J-237500D01*
G01*
X146907500Y-96657500D01*
G75*
G02*
X146670000Y-96895000I-237500J0D01*
G01*
X146070000Y-96895000D01*
G75*
G02*
X145832500Y-96657500I0J237500D01*
G01*
G37*
G36*
G01*
X147557500Y-96657500D02*
X147557500Y-96182500D01*
G75*
G02*
X147795000Y-95945000I237500J0D01*
G01*
X148395000Y-95945000D01*
G75*
G02*
X148632500Y-96182500I0J-237500D01*
G01*
X148632500Y-96657500D01*
G75*
G02*
X148395000Y-96895000I-237500J0D01*
G01*
X147795000Y-96895000D01*
G75*
G02*
X147557500Y-96657500I0J237500D01*
G01*
G37*
%TD*%
D12*
%TO.C,REF\u002A\u002A*%
X63570000Y-110720000D03*
X64370000Y-110720000D03*
X65170000Y-110720000D03*
X65970000Y-110720000D03*
X63570000Y-113120000D03*
X64370000Y-113120000D03*
X65170000Y-113120000D03*
X65970000Y-113120000D03*
%TD*%
D10*
%TO.C,JSA-1*%
G36*
X170433969Y-93456051D02*
G01*
X171636051Y-92253969D01*
X172838133Y-93456051D01*
X171636051Y-94658133D01*
X170433969Y-93456051D01*
G37*
G36*
G01*
X169238959Y-91058959D02*
X169238959Y-91058959D01*
G75*
G02*
X170441041Y-91058959I601041J-601041D01*
G01*
X170441041Y-91058959D01*
G75*
G02*
X170441041Y-92261041I-601041J-601041D01*
G01*
X170441041Y-92261041D01*
G75*
G02*
X169238959Y-92261041I-601041J601041D01*
G01*
X169238959Y-92261041D01*
G75*
G02*
X169238959Y-91058959I601041J601041D01*
G01*
G37*
G36*
G01*
X169238959Y-94651061D02*
X169238959Y-94651061D01*
G75*
G02*
X170441041Y-94651061I601041J-601041D01*
G01*
X170441041Y-94651061D01*
G75*
G02*
X170441041Y-95853143I-601041J-601041D01*
G01*
X170441041Y-95853143D01*
G75*
G02*
X169238959Y-95853143I-601041J601041D01*
G01*
X169238959Y-95853143D01*
G75*
G02*
X169238959Y-94651061I601041J601041D01*
G01*
G37*
G36*
G01*
X167442908Y-92855010D02*
X167442908Y-92855010D01*
G75*
G02*
X168644990Y-92855010I601041J-601041D01*
G01*
X168644990Y-92855010D01*
G75*
G02*
X168644990Y-94057092I-601041J-601041D01*
G01*
X168644990Y-94057092D01*
G75*
G02*
X167442908Y-94057092I-601041J601041D01*
G01*
X167442908Y-94057092D01*
G75*
G02*
X167442908Y-92855010I601041J601041D01*
G01*
G37*
G36*
G01*
X167442908Y-96447112D02*
X167442908Y-96447112D01*
G75*
G02*
X168644990Y-96447112I601041J-601041D01*
G01*
X168644990Y-96447112D01*
G75*
G02*
X168644990Y-97649194I-601041J-601041D01*
G01*
X168644990Y-97649194D01*
G75*
G02*
X167442908Y-97649194I-601041J601041D01*
G01*
X167442908Y-97649194D01*
G75*
G02*
X167442908Y-96447112I601041J601041D01*
G01*
G37*
G36*
G01*
X165646856Y-94651061D02*
X165646856Y-94651061D01*
G75*
G02*
X166848938Y-94651061I601041J-601041D01*
G01*
X166848938Y-94651061D01*
G75*
G02*
X166848938Y-95853143I-601041J-601041D01*
G01*
X166848938Y-95853143D01*
G75*
G02*
X165646856Y-95853143I-601041J601041D01*
G01*
X165646856Y-95853143D01*
G75*
G02*
X165646856Y-94651061I601041J601041D01*
G01*
G37*
G36*
G01*
X165646856Y-98243164D02*
X165646856Y-98243164D01*
G75*
G02*
X166848938Y-98243164I601041J-601041D01*
G01*
X166848938Y-98243164D01*
G75*
G02*
X166848938Y-99445246I-601041J-601041D01*
G01*
X166848938Y-99445246D01*
G75*
G02*
X165646856Y-99445246I-601041J601041D01*
G01*
X165646856Y-99445246D01*
G75*
G02*
X165646856Y-98243164I601041J601041D01*
G01*
G37*
G36*
G01*
X163850805Y-96447112D02*
X163850805Y-96447112D01*
G75*
G02*
X165052887Y-96447112I601041J-601041D01*
G01*
X165052887Y-96447112D01*
G75*
G02*
X165052887Y-97649194I-601041J-601041D01*
G01*
X165052887Y-97649194D01*
G75*
G02*
X163850805Y-97649194I-601041J601041D01*
G01*
X163850805Y-97649194D01*
G75*
G02*
X163850805Y-96447112I601041J601041D01*
G01*
G37*
G36*
G01*
X163850805Y-100039215D02*
X163850805Y-100039215D01*
G75*
G02*
X165052887Y-100039215I601041J-601041D01*
G01*
X165052887Y-100039215D01*
G75*
G02*
X165052887Y-101241297I-601041J-601041D01*
G01*
X165052887Y-101241297D01*
G75*
G02*
X163850805Y-101241297I-601041J601041D01*
G01*
X163850805Y-101241297D01*
G75*
G02*
X163850805Y-100039215I601041J601041D01*
G01*
G37*
G36*
G01*
X162054754Y-98243164D02*
X162054754Y-98243164D01*
G75*
G02*
X163256836Y-98243164I601041J-601041D01*
G01*
X163256836Y-98243164D01*
G75*
G02*
X163256836Y-99445246I-601041J-601041D01*
G01*
X163256836Y-99445246D01*
G75*
G02*
X162054754Y-99445246I-601041J601041D01*
G01*
X162054754Y-99445246D01*
G75*
G02*
X162054754Y-98243164I601041J601041D01*
G01*
G37*
%TD*%
%TO.C,C-2*%
G36*
G01*
X145832500Y-90657500D02*
X145832500Y-90182500D01*
G75*
G02*
X146070000Y-89945000I237500J0D01*
G01*
X146670000Y-89945000D01*
G75*
G02*
X146907500Y-90182500I0J-237500D01*
G01*
X146907500Y-90657500D01*
G75*
G02*
X146670000Y-90895000I-237500J0D01*
G01*
X146070000Y-90895000D01*
G75*
G02*
X145832500Y-90657500I0J237500D01*
G01*
G37*
G36*
G01*
X147557500Y-90657500D02*
X147557500Y-90182500D01*
G75*
G02*
X147795000Y-89945000I237500J0D01*
G01*
X148395000Y-89945000D01*
G75*
G02*
X148632500Y-90182500I0J-237500D01*
G01*
X148632500Y-90657500D01*
G75*
G02*
X148395000Y-90895000I-237500J0D01*
G01*
X147795000Y-90895000D01*
G75*
G02*
X147557500Y-90657500I0J237500D01*
G01*
G37*
%TD*%
D15*
%TO.C,REF\u002A\u002A*%
X73870000Y-118100000D03*
%TD*%
%TO.C,REF\u002A\u002A*%
X182370000Y-118100000D03*
%TD*%
D16*
%TO.C,J+2*%
X67010000Y-130340000D03*
X67010000Y-126200000D03*
X67010000Y-122060000D03*
X67010000Y-117920000D03*
X62870000Y-130340000D03*
X62870000Y-126200000D03*
X62870000Y-122060000D03*
G36*
G01*
X61550000Y-118990000D02*
X61550000Y-116850000D01*
G75*
G02*
X61800000Y-116600000I250000J0D01*
G01*
X63940000Y-116600000D01*
G75*
G02*
X64190000Y-116850000I0J-250000D01*
G01*
X64190000Y-118990000D01*
G75*
G02*
X63940000Y-119240000I-250000J0D01*
G01*
X61800000Y-119240000D01*
G75*
G02*
X61550000Y-118990000I0J250000D01*
G01*
G37*
%TD*%
%TO.C,R+1*%
G36*
G01*
X154057500Y-114657500D02*
X154057500Y-114182500D01*
G75*
G02*
X154295000Y-113945000I237500J0D01*
G01*
X154795000Y-113945000D01*
G75*
G02*
X155032500Y-114182500I0J-237500D01*
G01*
X155032500Y-114657500D01*
G75*
G02*
X154795000Y-114895000I-237500J0D01*
G01*
X154295000Y-114895000D01*
G75*
G02*
X154057500Y-114657500I0J237500D01*
G01*
G37*
G36*
G01*
X155882500Y-114657500D02*
X155882500Y-114182500D01*
G75*
G02*
X156120000Y-113945000I237500J0D01*
G01*
X156620000Y-113945000D01*
G75*
G02*
X156857500Y-114182500I0J-237500D01*
G01*
X156857500Y-114657500D01*
G75*
G02*
X156620000Y-114895000I-237500J0D01*
G01*
X156120000Y-114895000D01*
G75*
G02*
X155882500Y-114657500I0J237500D01*
G01*
G37*
%TD*%
%TO.C,R+2*%
G36*
G01*
X148932500Y-119182500D02*
X148932500Y-119657500D01*
G75*
G02*
X148695000Y-119895000I-237500J0D01*
G01*
X148195000Y-119895000D01*
G75*
G02*
X147957500Y-119657500I0J237500D01*
G01*
X147957500Y-119182500D01*
G75*
G02*
X148195000Y-118945000I237500J0D01*
G01*
X148695000Y-118945000D01*
G75*
G02*
X148932500Y-119182500I0J-237500D01*
G01*
G37*
G36*
G01*
X147107500Y-119182500D02*
X147107500Y-119657500D01*
G75*
G02*
X146870000Y-119895000I-237500J0D01*
G01*
X146370000Y-119895000D01*
G75*
G02*
X146132500Y-119657500I0J237500D01*
G01*
X146132500Y-119182500D01*
G75*
G02*
X146370000Y-118945000I237500J0D01*
G01*
X146870000Y-118945000D01*
G75*
G02*
X147107500Y-119182500I0J-237500D01*
G01*
G37*
%TD*%
%TO.C,J-2*%
X67010000Y-105840000D03*
X67010000Y-101700000D03*
X67010000Y-97560000D03*
X67010000Y-93420000D03*
X62870000Y-105840000D03*
X62870000Y-101700000D03*
X62870000Y-97560000D03*
G36*
G01*
X61550000Y-94490000D02*
X61550000Y-92350000D01*
G75*
G02*
X61800000Y-92100000I250000J0D01*
G01*
X63940000Y-92100000D01*
G75*
G02*
X64190000Y-92350000I0J-250000D01*
G01*
X64190000Y-94490000D01*
G75*
G02*
X63940000Y-94740000I-250000J0D01*
G01*
X61800000Y-94740000D01*
G75*
G02*
X61550000Y-94490000I0J250000D01*
G01*
G37*
%TD*%
D15*
%TO.C,REF\u002A\u002A*%
X182370000Y-93600000D03*
%TD*%
%TO.C,R+A1*%
G36*
G01*
X151132500Y-127432500D02*
X151607500Y-127432500D01*
G75*
G02*
X151845000Y-127670000I0J-237500D01*
G01*
X151845000Y-128170000D01*
G75*
G02*
X151607500Y-128407500I-237500J0D01*
G01*
X151132500Y-128407500D01*
G75*
G02*
X150895000Y-128170000I0J237500D01*
G01*
X150895000Y-127670000D01*
G75*
G02*
X151132500Y-127432500I237500J0D01*
G01*
G37*
G36*
G01*
X151132500Y-129257500D02*
X151607500Y-129257500D01*
G75*
G02*
X151845000Y-129495000I0J-237500D01*
G01*
X151845000Y-129995000D01*
G75*
G02*
X151607500Y-130232500I-237500J0D01*
G01*
X151132500Y-130232500D01*
G75*
G02*
X150895000Y-129995000I0J237500D01*
G01*
X150895000Y-129495000D01*
G75*
G02*
X151132500Y-129257500I237500J0D01*
G01*
G37*
%TD*%
%TO.C,R-2*%
G36*
G01*
X148770000Y-108682500D02*
X148770000Y-109157500D01*
G75*
G02*
X148532500Y-109395000I-237500J0D01*
G01*
X148032500Y-109395000D01*
G75*
G02*
X147795000Y-109157500I0J237500D01*
G01*
X147795000Y-108682500D01*
G75*
G02*
X148032500Y-108445000I237500J0D01*
G01*
X148532500Y-108445000D01*
G75*
G02*
X148770000Y-108682500I0J-237500D01*
G01*
G37*
G36*
G01*
X146945000Y-108682500D02*
X146945000Y-109157500D01*
G75*
G02*
X146707500Y-109395000I-237500J0D01*
G01*
X146207500Y-109395000D01*
G75*
G02*
X145970000Y-109157500I0J237500D01*
G01*
X145970000Y-108682500D01*
G75*
G02*
X146207500Y-108445000I237500J0D01*
G01*
X146707500Y-108445000D01*
G75*
G02*
X146945000Y-108682500I0J-237500D01*
G01*
G37*
%TD*%
D17*
%TO.C,U-2*%
X146420000Y-92770000D03*
X146420000Y-94070000D03*
X146420000Y-93420000D03*
X148320000Y-94070000D03*
X148320000Y-92770000D03*
%TD*%
D15*
%TO.C,REF\u002A\u002A*%
X73870000Y-93600000D03*
%TD*%
%TO.C,REF\u002A\u002A*%
X73870000Y-130100000D03*
%TD*%
%TO.C,R-C1*%
G36*
G01*
X151607500Y-105732500D02*
X151132500Y-105732500D01*
G75*
G02*
X150895000Y-105495000I0J237500D01*
G01*
X150895000Y-104995000D01*
G75*
G02*
X151132500Y-104757500I237500J0D01*
G01*
X151607500Y-104757500D01*
G75*
G02*
X151845000Y-104995000I0J-237500D01*
G01*
X151845000Y-105495000D01*
G75*
G02*
X151607500Y-105732500I-237500J0D01*
G01*
G37*
G36*
G01*
X151607500Y-103907500D02*
X151132500Y-103907500D01*
G75*
G02*
X150895000Y-103670000I0J237500D01*
G01*
X150895000Y-103170000D01*
G75*
G02*
X151132500Y-102932500I237500J0D01*
G01*
X151607500Y-102932500D01*
G75*
G02*
X151845000Y-103170000I0J-237500D01*
G01*
X151845000Y-103670000D01*
G75*
G02*
X151607500Y-103907500I-237500J0D01*
G01*
G37*
%TD*%
%TO.C,U-1*%
G36*
G01*
X172867500Y-101370000D02*
X173142500Y-101370000D01*
G75*
G02*
X173280000Y-101507500I0J-137500D01*
G01*
X173280000Y-102832500D01*
G75*
G02*
X173142500Y-102970000I-137500J0D01*
G01*
X172867500Y-102970000D01*
G75*
G02*
X172730000Y-102832500I0J137500D01*
G01*
X172730000Y-101507500D01*
G75*
G02*
X172867500Y-101370000I137500J0D01*
G01*
G37*
G36*
G01*
X171597500Y-101370000D02*
X171872500Y-101370000D01*
G75*
G02*
X172010000Y-101507500I0J-137500D01*
G01*
X172010000Y-102832500D01*
G75*
G02*
X171872500Y-102970000I-137500J0D01*
G01*
X171597500Y-102970000D01*
G75*
G02*
X171460000Y-102832500I0J137500D01*
G01*
X171460000Y-101507500D01*
G75*
G02*
X171597500Y-101370000I137500J0D01*
G01*
G37*
G36*
G01*
X171597500Y-107870000D02*
X171872500Y-107870000D01*
G75*
G02*
X172010000Y-108007500I0J-137500D01*
G01*
X172010000Y-109332500D01*
G75*
G02*
X171872500Y-109470000I-137500J0D01*
G01*
X171597500Y-109470000D01*
G75*
G02*
X171460000Y-109332500I0J137500D01*
G01*
X171460000Y-108007500D01*
G75*
G02*
X171597500Y-107870000I137500J0D01*
G01*
G37*
G36*
G01*
X172867500Y-107870000D02*
X173142500Y-107870000D01*
G75*
G02*
X173280000Y-108007500I0J-137500D01*
G01*
X173280000Y-109332500D01*
G75*
G02*
X173142500Y-109470000I-137500J0D01*
G01*
X172867500Y-109470000D01*
G75*
G02*
X172730000Y-109332500I0J137500D01*
G01*
X172730000Y-108007500D01*
G75*
G02*
X172867500Y-107870000I137500J0D01*
G01*
G37*
%TD*%
D10*
%TO.C,JSB+1*%
G36*
X177986051Y-123226031D02*
G01*
X176783969Y-122023949D01*
X177986051Y-120821867D01*
X179188133Y-122023949D01*
X177986051Y-123226031D01*
G37*
G36*
G01*
X175588959Y-124421041D02*
X175588959Y-124421041D01*
G75*
G02*
X175588959Y-123218959I601041J601041D01*
G01*
X175588959Y-123218959D01*
G75*
G02*
X176791041Y-123218959I601041J-601041D01*
G01*
X176791041Y-123218959D01*
G75*
G02*
X176791041Y-124421041I-601041J-601041D01*
G01*
X176791041Y-124421041D01*
G75*
G02*
X175588959Y-124421041I-601041J601041D01*
G01*
G37*
G36*
G01*
X179181061Y-124421041D02*
X179181061Y-124421041D01*
G75*
G02*
X179181061Y-123218959I601041J601041D01*
G01*
X179181061Y-123218959D01*
G75*
G02*
X180383143Y-123218959I601041J-601041D01*
G01*
X180383143Y-123218959D01*
G75*
G02*
X180383143Y-124421041I-601041J-601041D01*
G01*
X180383143Y-124421041D01*
G75*
G02*
X179181061Y-124421041I-601041J601041D01*
G01*
G37*
G36*
G01*
X177385010Y-126217092D02*
X177385010Y-126217092D01*
G75*
G02*
X177385010Y-125015010I601041J601041D01*
G01*
X177385010Y-125015010D01*
G75*
G02*
X178587092Y-125015010I601041J-601041D01*
G01*
X178587092Y-125015010D01*
G75*
G02*
X178587092Y-126217092I-601041J-601041D01*
G01*
X178587092Y-126217092D01*
G75*
G02*
X177385010Y-126217092I-601041J601041D01*
G01*
G37*
G36*
G01*
X180977112Y-126217092D02*
X180977112Y-126217092D01*
G75*
G02*
X180977112Y-125015010I601041J601041D01*
G01*
X180977112Y-125015010D01*
G75*
G02*
X182179194Y-125015010I601041J-601041D01*
G01*
X182179194Y-125015010D01*
G75*
G02*
X182179194Y-126217092I-601041J-601041D01*
G01*
X182179194Y-126217092D01*
G75*
G02*
X180977112Y-126217092I-601041J601041D01*
G01*
G37*
G36*
G01*
X179181061Y-128013144D02*
X179181061Y-128013144D01*
G75*
G02*
X179181061Y-126811062I601041J601041D01*
G01*
X179181061Y-126811062D01*
G75*
G02*
X180383143Y-126811062I601041J-601041D01*
G01*
X180383143Y-126811062D01*
G75*
G02*
X180383143Y-128013144I-601041J-601041D01*
G01*
X180383143Y-128013144D01*
G75*
G02*
X179181061Y-128013144I-601041J601041D01*
G01*
G37*
G36*
G01*
X182773164Y-128013144D02*
X182773164Y-128013144D01*
G75*
G02*
X182773164Y-126811062I601041J601041D01*
G01*
X182773164Y-126811062D01*
G75*
G02*
X183975246Y-126811062I601041J-601041D01*
G01*
X183975246Y-126811062D01*
G75*
G02*
X183975246Y-128013144I-601041J-601041D01*
G01*
X183975246Y-128013144D01*
G75*
G02*
X182773164Y-128013144I-601041J601041D01*
G01*
G37*
G36*
G01*
X180977112Y-129809195D02*
X180977112Y-129809195D01*
G75*
G02*
X180977112Y-128607113I601041J601041D01*
G01*
X180977112Y-128607113D01*
G75*
G02*
X182179194Y-128607113I601041J-601041D01*
G01*
X182179194Y-128607113D01*
G75*
G02*
X182179194Y-129809195I-601041J-601041D01*
G01*
X182179194Y-129809195D01*
G75*
G02*
X180977112Y-129809195I-601041J601041D01*
G01*
G37*
G36*
G01*
X184569215Y-129809195D02*
X184569215Y-129809195D01*
G75*
G02*
X184569215Y-128607113I601041J601041D01*
G01*
X184569215Y-128607113D01*
G75*
G02*
X185771297Y-128607113I601041J-601041D01*
G01*
X185771297Y-128607113D01*
G75*
G02*
X185771297Y-129809195I-601041J-601041D01*
G01*
X185771297Y-129809195D01*
G75*
G02*
X184569215Y-129809195I-601041J601041D01*
G01*
G37*
G36*
G01*
X182773164Y-131605246D02*
X182773164Y-131605246D01*
G75*
G02*
X182773164Y-130403164I601041J601041D01*
G01*
X182773164Y-130403164D01*
G75*
G02*
X183975246Y-130403164I601041J-601041D01*
G01*
X183975246Y-130403164D01*
G75*
G02*
X183975246Y-131605246I-601041J-601041D01*
G01*
X183975246Y-131605246D01*
G75*
G02*
X182773164Y-131605246I-601041J601041D01*
G01*
G37*
%TD*%
%TO.C,JSB-1*%
G36*
X177986051Y-98726031D02*
G01*
X176783969Y-97523949D01*
X177986051Y-96321867D01*
X179188133Y-97523949D01*
X177986051Y-98726031D01*
G37*
G36*
G01*
X175588959Y-99921041D02*
X175588959Y-99921041D01*
G75*
G02*
X175588959Y-98718959I601041J601041D01*
G01*
X175588959Y-98718959D01*
G75*
G02*
X176791041Y-98718959I601041J-601041D01*
G01*
X176791041Y-98718959D01*
G75*
G02*
X176791041Y-99921041I-601041J-601041D01*
G01*
X176791041Y-99921041D01*
G75*
G02*
X175588959Y-99921041I-601041J601041D01*
G01*
G37*
G36*
G01*
X179181061Y-99921041D02*
X179181061Y-99921041D01*
G75*
G02*
X179181061Y-98718959I601041J601041D01*
G01*
X179181061Y-98718959D01*
G75*
G02*
X180383143Y-98718959I601041J-601041D01*
G01*
X180383143Y-98718959D01*
G75*
G02*
X180383143Y-99921041I-601041J-601041D01*
G01*
X180383143Y-99921041D01*
G75*
G02*
X179181061Y-99921041I-601041J601041D01*
G01*
G37*
G36*
G01*
X177385010Y-101717092D02*
X177385010Y-101717092D01*
G75*
G02*
X177385010Y-100515010I601041J601041D01*
G01*
X177385010Y-100515010D01*
G75*
G02*
X178587092Y-100515010I601041J-601041D01*
G01*
X178587092Y-100515010D01*
G75*
G02*
X178587092Y-101717092I-601041J-601041D01*
G01*
X178587092Y-101717092D01*
G75*
G02*
X177385010Y-101717092I-601041J601041D01*
G01*
G37*
G36*
G01*
X180977112Y-101717092D02*
X180977112Y-101717092D01*
G75*
G02*
X180977112Y-100515010I601041J601041D01*
G01*
X180977112Y-100515010D01*
G75*
G02*
X182179194Y-100515010I601041J-601041D01*
G01*
X182179194Y-100515010D01*
G75*
G02*
X182179194Y-101717092I-601041J-601041D01*
G01*
X182179194Y-101717092D01*
G75*
G02*
X180977112Y-101717092I-601041J601041D01*
G01*
G37*
G36*
G01*
X179181061Y-103513144D02*
X179181061Y-103513144D01*
G75*
G02*
X179181061Y-102311062I601041J601041D01*
G01*
X179181061Y-102311062D01*
G75*
G02*
X180383143Y-102311062I601041J-601041D01*
G01*
X180383143Y-102311062D01*
G75*
G02*
X180383143Y-103513144I-601041J-601041D01*
G01*
X180383143Y-103513144D01*
G75*
G02*
X179181061Y-103513144I-601041J601041D01*
G01*
G37*
G36*
G01*
X182773164Y-103513144D02*
X182773164Y-103513144D01*
G75*
G02*
X182773164Y-102311062I601041J601041D01*
G01*
X182773164Y-102311062D01*
G75*
G02*
X183975246Y-102311062I601041J-601041D01*
G01*
X183975246Y-102311062D01*
G75*
G02*
X183975246Y-103513144I-601041J-601041D01*
G01*
X183975246Y-103513144D01*
G75*
G02*
X182773164Y-103513144I-601041J601041D01*
G01*
G37*
G36*
G01*
X180977112Y-105309195D02*
X180977112Y-105309195D01*
G75*
G02*
X180977112Y-104107113I601041J601041D01*
G01*
X180977112Y-104107113D01*
G75*
G02*
X182179194Y-104107113I601041J-601041D01*
G01*
X182179194Y-104107113D01*
G75*
G02*
X182179194Y-105309195I-601041J-601041D01*
G01*
X182179194Y-105309195D01*
G75*
G02*
X180977112Y-105309195I-601041J601041D01*
G01*
G37*
G36*
G01*
X184569215Y-105309195D02*
X184569215Y-105309195D01*
G75*
G02*
X184569215Y-104107113I601041J601041D01*
G01*
X184569215Y-104107113D01*
G75*
G02*
X185771297Y-104107113I601041J-601041D01*
G01*
X185771297Y-104107113D01*
G75*
G02*
X185771297Y-105309195I-601041J-601041D01*
G01*
X185771297Y-105309195D01*
G75*
G02*
X184569215Y-105309195I-601041J601041D01*
G01*
G37*
G36*
G01*
X182773164Y-107105246D02*
X182773164Y-107105246D01*
G75*
G02*
X182773164Y-105903164I601041J601041D01*
G01*
X182773164Y-105903164D01*
G75*
G02*
X183975246Y-105903164I601041J-601041D01*
G01*
X183975246Y-105903164D01*
G75*
G02*
X183975246Y-107105246I-601041J-601041D01*
G01*
X183975246Y-107105246D01*
G75*
G02*
X182773164Y-107105246I-601041J601041D01*
G01*
G37*
%TD*%
D18*
%TO.C,U+1*%
X146072300Y-126470000D03*
X146072300Y-125619999D03*
X146072300Y-124770001D03*
X146072300Y-123920000D03*
X146072300Y-123069999D03*
X146072300Y-122220001D03*
X146072300Y-121370000D03*
D19*
X138858700Y-123920000D03*
%TD*%
D20*
%TO.C,Q-1*%
X136795000Y-101920000D03*
D21*
X147070000Y-104460000D03*
X147070000Y-99380000D03*
%TD*%
%TO.C,R+C1*%
G36*
G01*
X151132500Y-115520000D02*
X151607500Y-115520000D01*
G75*
G02*
X151845000Y-115757500I0J-237500D01*
G01*
X151845000Y-116257500D01*
G75*
G02*
X151607500Y-116495000I-237500J0D01*
G01*
X151132500Y-116495000D01*
G75*
G02*
X150895000Y-116257500I0J237500D01*
G01*
X150895000Y-115757500D01*
G75*
G02*
X151132500Y-115520000I237500J0D01*
G01*
G37*
G36*
G01*
X151132500Y-117345000D02*
X151607500Y-117345000D01*
G75*
G02*
X151845000Y-117582500I0J-237500D01*
G01*
X151845000Y-118082500D01*
G75*
G02*
X151607500Y-118320000I-237500J0D01*
G01*
X151132500Y-118320000D01*
G75*
G02*
X150895000Y-118082500I0J237500D01*
G01*
X150895000Y-117582500D01*
G75*
G02*
X151132500Y-117345000I237500J0D01*
G01*
G37*
%TD*%
%TO.C,R-3*%
G36*
G01*
X145970000Y-107157500D02*
X145970000Y-106682500D01*
G75*
G02*
X146207500Y-106445000I237500J0D01*
G01*
X146707500Y-106445000D01*
G75*
G02*
X146945000Y-106682500I0J-237500D01*
G01*
X146945000Y-107157500D01*
G75*
G02*
X146707500Y-107395000I-237500J0D01*
G01*
X146207500Y-107395000D01*
G75*
G02*
X145970000Y-107157500I0J237500D01*
G01*
G37*
G36*
G01*
X147795000Y-107157500D02*
X147795000Y-106682500D01*
G75*
G02*
X148032500Y-106445000I237500J0D01*
G01*
X148532500Y-106445000D01*
G75*
G02*
X148770000Y-106682500I0J-237500D01*
G01*
X148770000Y-107157500D01*
G75*
G02*
X148532500Y-107395000I-237500J0D01*
G01*
X148032500Y-107395000D01*
G75*
G02*
X147795000Y-107157500I0J237500D01*
G01*
G37*
%TD*%
%TO.C,R+B1*%
G36*
G01*
X151132500Y-121432500D02*
X151607500Y-121432500D01*
G75*
G02*
X151845000Y-121670000I0J-237500D01*
G01*
X151845000Y-122170000D01*
G75*
G02*
X151607500Y-122407500I-237500J0D01*
G01*
X151132500Y-122407500D01*
G75*
G02*
X150895000Y-122170000I0J237500D01*
G01*
X150895000Y-121670000D01*
G75*
G02*
X151132500Y-121432500I237500J0D01*
G01*
G37*
G36*
G01*
X151132500Y-123257500D02*
X151607500Y-123257500D01*
G75*
G02*
X151845000Y-123495000I0J-237500D01*
G01*
X151845000Y-123995000D01*
G75*
G02*
X151607500Y-124232500I-237500J0D01*
G01*
X151132500Y-124232500D01*
G75*
G02*
X150895000Y-123995000I0J237500D01*
G01*
X150895000Y-123495000D01*
G75*
G02*
X151132500Y-123257500I237500J0D01*
G01*
G37*
%TD*%
D16*
%TO.C,J-3*%
X80870000Y-93420000D03*
X80870000Y-97560000D03*
X80870000Y-101700000D03*
X80870000Y-105840000D03*
X85010000Y-93420000D03*
X85010000Y-97560000D03*
X85010000Y-101700000D03*
G36*
G01*
X86330000Y-104770000D02*
X86330000Y-106910000D01*
G75*
G02*
X86080000Y-107160000I-250000J0D01*
G01*
X83940000Y-107160000D01*
G75*
G02*
X83690000Y-106910000I0J250000D01*
G01*
X83690000Y-104770000D01*
G75*
G02*
X83940000Y-104520000I250000J0D01*
G01*
X86080000Y-104520000D01*
G75*
G02*
X86330000Y-104770000I0J-250000D01*
G01*
G37*
%TD*%
D15*
%TO.C,REF\u002A\u002A*%
X73870000Y-105600000D03*
%TD*%
D16*
%TO.C,J+3*%
X80870000Y-117920000D03*
X80870000Y-122060000D03*
X80870000Y-126200000D03*
X80870000Y-130340000D03*
X85010000Y-117920000D03*
X85010000Y-122060000D03*
X85010000Y-126200000D03*
G36*
G01*
X86330000Y-129270000D02*
X86330000Y-131410000D01*
G75*
G02*
X86080000Y-131660000I-250000J0D01*
G01*
X83940000Y-131660000D01*
G75*
G02*
X83690000Y-131410000I0J250000D01*
G01*
X83690000Y-129270000D01*
G75*
G02*
X83940000Y-129020000I250000J0D01*
G01*
X86080000Y-129020000D01*
G75*
G02*
X86330000Y-129270000I0J-250000D01*
G01*
G37*
%TD*%
%TO.C,R-1*%
G36*
G01*
X174970000Y-105657500D02*
X174970000Y-105182500D01*
G75*
G02*
X175207500Y-104945000I237500J0D01*
G01*
X175707500Y-104945000D01*
G75*
G02*
X175945000Y-105182500I0J-237500D01*
G01*
X175945000Y-105657500D01*
G75*
G02*
X175707500Y-105895000I-237500J0D01*
G01*
X175207500Y-105895000D01*
G75*
G02*
X174970000Y-105657500I0J237500D01*
G01*
G37*
G36*
G01*
X176795000Y-105657500D02*
X176795000Y-105182500D01*
G75*
G02*
X177032500Y-104945000I237500J0D01*
G01*
X177532500Y-104945000D01*
G75*
G02*
X177770000Y-105182500I0J-237500D01*
G01*
X177770000Y-105657500D01*
G75*
G02*
X177532500Y-105895000I-237500J0D01*
G01*
X177032500Y-105895000D01*
G75*
G02*
X176795000Y-105657500I0J237500D01*
G01*
G37*
%TD*%
%TO.C,R-A1*%
G36*
G01*
X151607500Y-93820000D02*
X151132500Y-93820000D01*
G75*
G02*
X150895000Y-93582500I0J237500D01*
G01*
X150895000Y-93082500D01*
G75*
G02*
X151132500Y-92845000I237500J0D01*
G01*
X151607500Y-92845000D01*
G75*
G02*
X151845000Y-93082500I0J-237500D01*
G01*
X151845000Y-93582500D01*
G75*
G02*
X151607500Y-93820000I-237500J0D01*
G01*
G37*
G36*
G01*
X151607500Y-91995000D02*
X151132500Y-91995000D01*
G75*
G02*
X150895000Y-91757500I0J237500D01*
G01*
X150895000Y-91257500D01*
G75*
G02*
X151132500Y-91020000I237500J0D01*
G01*
X151607500Y-91020000D01*
G75*
G02*
X151845000Y-91257500I0J-237500D01*
G01*
X151845000Y-91757500D01*
G75*
G02*
X151607500Y-91995000I-237500J0D01*
G01*
G37*
%TD*%
%TO.C,R-B1*%
G36*
G01*
X151607500Y-99732500D02*
X151132500Y-99732500D01*
G75*
G02*
X150895000Y-99495000I0J237500D01*
G01*
X150895000Y-98995000D01*
G75*
G02*
X151132500Y-98757500I237500J0D01*
G01*
X151607500Y-98757500D01*
G75*
G02*
X151845000Y-98995000I0J-237500D01*
G01*
X151845000Y-99495000D01*
G75*
G02*
X151607500Y-99732500I-237500J0D01*
G01*
G37*
G36*
G01*
X151607500Y-97907500D02*
X151132500Y-97907500D01*
G75*
G02*
X150895000Y-97670000I0J237500D01*
G01*
X150895000Y-97170000D01*
G75*
G02*
X151132500Y-96932500I237500J0D01*
G01*
X151607500Y-96932500D01*
G75*
G02*
X151845000Y-97170000I0J-237500D01*
G01*
X151845000Y-97670000D01*
G75*
G02*
X151607500Y-97907500I-237500J0D01*
G01*
G37*
%TD*%
D13*
%TO.C,TP+1*%
X134370000Y-115920000D03*
D14*
X136910000Y-115920000D03*
X139450000Y-115920000D03*
%TD*%
D13*
%TO.C,TP-1*%
X134370000Y-91420000D03*
D14*
X136910000Y-91420000D03*
X139450000Y-91420000D03*
%TD*%
%TO.C,R-4*%
G36*
G01*
X142882500Y-90932500D02*
X143357500Y-90932500D01*
G75*
G02*
X143595000Y-91170000I0J-237500D01*
G01*
X143595000Y-91670000D01*
G75*
G02*
X143357500Y-91907500I-237500J0D01*
G01*
X142882500Y-91907500D01*
G75*
G02*
X142645000Y-91670000I0J237500D01*
G01*
X142645000Y-91170000D01*
G75*
G02*
X142882500Y-90932500I237500J0D01*
G01*
G37*
G36*
G01*
X142882500Y-92757500D02*
X143357500Y-92757500D01*
G75*
G02*
X143595000Y-92995000I0J-237500D01*
G01*
X143595000Y-93495000D01*
G75*
G02*
X143357500Y-93732500I-237500J0D01*
G01*
X142882500Y-93732500D01*
G75*
G02*
X142645000Y-93495000I0J237500D01*
G01*
X142645000Y-92995000D01*
G75*
G02*
X142882500Y-92757500I237500J0D01*
G01*
G37*
%TD*%
%TO.C,R-5*%
G36*
G01*
X137357500Y-93932500D02*
X137357500Y-94407500D01*
G75*
G02*
X137120000Y-94645000I-237500J0D01*
G01*
X136620000Y-94645000D01*
G75*
G02*
X136382500Y-94407500I0J237500D01*
G01*
X136382500Y-93932500D01*
G75*
G02*
X136620000Y-93695000I237500J0D01*
G01*
X137120000Y-93695000D01*
G75*
G02*
X137357500Y-93932500I0J-237500D01*
G01*
G37*
G36*
G01*
X135532500Y-93932500D02*
X135532500Y-94407500D01*
G75*
G02*
X135295000Y-94645000I-237500J0D01*
G01*
X134795000Y-94645000D01*
G75*
G02*
X134557500Y-94407500I0J237500D01*
G01*
X134557500Y-93932500D01*
G75*
G02*
X134795000Y-93695000I237500J0D01*
G01*
X135295000Y-93695000D01*
G75*
G02*
X135532500Y-93932500I0J-237500D01*
G01*
G37*
%TD*%
%TO.C,R+3*%
G36*
G01*
X143357500Y-115082500D02*
X142882500Y-115082500D01*
G75*
G02*
X142645000Y-114845000I0J237500D01*
G01*
X142645000Y-114345000D01*
G75*
G02*
X142882500Y-114107500I237500J0D01*
G01*
X143357500Y-114107500D01*
G75*
G02*
X143595000Y-114345000I0J-237500D01*
G01*
X143595000Y-114845000D01*
G75*
G02*
X143357500Y-115082500I-237500J0D01*
G01*
G37*
G36*
G01*
X143357500Y-116907500D02*
X142882500Y-116907500D01*
G75*
G02*
X142645000Y-116670000I0J237500D01*
G01*
X142645000Y-116170000D01*
G75*
G02*
X142882500Y-115932500I237500J0D01*
G01*
X143357500Y-115932500D01*
G75*
G02*
X143595000Y-116170000I0J-237500D01*
G01*
X143595000Y-116670000D01*
G75*
G02*
X143357500Y-116907500I-237500J0D01*
G01*
G37*
%TD*%
%TO.C,R+4*%
G36*
G01*
X140470000Y-118907500D02*
X140470000Y-118432500D01*
G75*
G02*
X140707500Y-118195000I237500J0D01*
G01*
X141207500Y-118195000D01*
G75*
G02*
X141445000Y-118432500I0J-237500D01*
G01*
X141445000Y-118907500D01*
G75*
G02*
X141207500Y-119145000I-237500J0D01*
G01*
X140707500Y-119145000D01*
G75*
G02*
X140470000Y-118907500I0J237500D01*
G01*
G37*
G36*
G01*
X142295000Y-118907500D02*
X142295000Y-118432500D01*
G75*
G02*
X142532500Y-118195000I237500J0D01*
G01*
X143032500Y-118195000D01*
G75*
G02*
X143270000Y-118432500I0J-237500D01*
G01*
X143270000Y-118907500D01*
G75*
G02*
X143032500Y-119145000I-237500J0D01*
G01*
X142532500Y-119145000D01*
G75*
G02*
X142295000Y-118907500I0J237500D01*
G01*
G37*
%TD*%
D11*
%TO.C,TP-C2*%
X151370000Y-57920000D03*
%TD*%
%TO.C,TP-C1*%
X152870000Y-53420000D03*
%TD*%
%TO.C,TP-B2*%
X152870000Y-50920000D03*
%TD*%
%TO.C,TP-B1*%
X152870000Y-48670000D03*
%TD*%
%TO.C,TP-A2*%
X149870000Y-44670000D03*
%TD*%
%TO.C,TP-A1*%
X149870000Y-42420000D03*
%TD*%
%TO.C,TP+A2*%
X151370000Y-82420000D03*
%TD*%
%TO.C,TP+A1*%
X152870000Y-77920000D03*
%TD*%
%TO.C,TP+B2*%
X152870000Y-75420000D03*
%TD*%
%TO.C,TP+B1*%
X152870000Y-73170000D03*
%TD*%
%TO.C,TP+C2*%
X153120000Y-68920000D03*
%TD*%
%TO.C,TP+C1*%
X149620000Y-66920000D03*
%TD*%
D22*
%TO.C,J1*%
X238380000Y-70910000D03*
X238380000Y-72830000D03*
D23*
X238110000Y-69140000D03*
X238110000Y-74600000D03*
D24*
X235110000Y-69450000D03*
X235110000Y-74290000D03*
D25*
X235230000Y-70570000D03*
X235230000Y-71220000D03*
X235230000Y-71870000D03*
X235230000Y-72520000D03*
X235230000Y-73170000D03*
D26*
X235110000Y-68970000D03*
X235130000Y-74720000D03*
D27*
X236430000Y-68870000D03*
X236430000Y-74820000D03*
D28*
X237180000Y-74600000D03*
X237180000Y-69120000D03*
%TD*%
D15*
%TO.C,REF\u002A\u002A*%
X218820000Y-61000000D03*
%TD*%
%TO.C,REF\u002A\u002A*%
X218820000Y-137250000D03*
%TD*%
%TO.C,REF\u002A\u002A*%
X222320000Y-95750000D03*
%TD*%
%TO.C,C3*%
G36*
G01*
X229295000Y-110432500D02*
X229295000Y-110907500D01*
G75*
G02*
X229057500Y-111145000I-237500J0D01*
G01*
X228457500Y-111145000D01*
G75*
G02*
X228220000Y-110907500I0J237500D01*
G01*
X228220000Y-110432500D01*
G75*
G02*
X228457500Y-110195000I237500J0D01*
G01*
X229057500Y-110195000D01*
G75*
G02*
X229295000Y-110432500I0J-237500D01*
G01*
G37*
G36*
G01*
X231020000Y-110432500D02*
X231020000Y-110907500D01*
G75*
G02*
X230782500Y-111145000I-237500J0D01*
G01*
X230182500Y-111145000D01*
G75*
G02*
X229945000Y-110907500I0J237500D01*
G01*
X229945000Y-110432500D01*
G75*
G02*
X230182500Y-110195000I237500J0D01*
G01*
X230782500Y-110195000D01*
G75*
G02*
X231020000Y-110432500I0J-237500D01*
G01*
G37*
%TD*%
%TO.C,U3*%
G36*
G01*
X231120000Y-108580000D02*
X231120000Y-108880000D01*
G75*
G02*
X230970000Y-109030000I-150000J0D01*
G01*
X229320000Y-109030000D01*
G75*
G02*
X229170000Y-108880000I0J150000D01*
G01*
X229170000Y-108580000D01*
G75*
G02*
X229320000Y-108430000I150000J0D01*
G01*
X230970000Y-108430000D01*
G75*
G02*
X231120000Y-108580000I0J-150000D01*
G01*
G37*
G36*
G01*
X231120000Y-107310000D02*
X231120000Y-107610000D01*
G75*
G02*
X230970000Y-107760000I-150000J0D01*
G01*
X229320000Y-107760000D01*
G75*
G02*
X229170000Y-107610000I0J150000D01*
G01*
X229170000Y-107310000D01*
G75*
G02*
X229320000Y-107160000I150000J0D01*
G01*
X230970000Y-107160000D01*
G75*
G02*
X231120000Y-107310000I0J-150000D01*
G01*
G37*
G36*
G01*
X231120000Y-106040000D02*
X231120000Y-106340000D01*
G75*
G02*
X230970000Y-106490000I-150000J0D01*
G01*
X229320000Y-106490000D01*
G75*
G02*
X229170000Y-106340000I0J150000D01*
G01*
X229170000Y-106040000D01*
G75*
G02*
X229320000Y-105890000I150000J0D01*
G01*
X230970000Y-105890000D01*
G75*
G02*
X231120000Y-106040000I0J-150000D01*
G01*
G37*
G36*
G01*
X231120000Y-104770000D02*
X231120000Y-105070000D01*
G75*
G02*
X230970000Y-105220000I-150000J0D01*
G01*
X229320000Y-105220000D01*
G75*
G02*
X229170000Y-105070000I0J150000D01*
G01*
X229170000Y-104770000D01*
G75*
G02*
X229320000Y-104620000I150000J0D01*
G01*
X230970000Y-104620000D01*
G75*
G02*
X231120000Y-104770000I0J-150000D01*
G01*
G37*
G36*
G01*
X231120000Y-103500000D02*
X231120000Y-103800000D01*
G75*
G02*
X230970000Y-103950000I-150000J0D01*
G01*
X229320000Y-103950000D01*
G75*
G02*
X229170000Y-103800000I0J150000D01*
G01*
X229170000Y-103500000D01*
G75*
G02*
X229320000Y-103350000I150000J0D01*
G01*
X230970000Y-103350000D01*
G75*
G02*
X231120000Y-103500000I0J-150000D01*
G01*
G37*
G36*
G01*
X231120000Y-102230000D02*
X231120000Y-102530000D01*
G75*
G02*
X230970000Y-102680000I-150000J0D01*
G01*
X229320000Y-102680000D01*
G75*
G02*
X229170000Y-102530000I0J150000D01*
G01*
X229170000Y-102230000D01*
G75*
G02*
X229320000Y-102080000I150000J0D01*
G01*
X230970000Y-102080000D01*
G75*
G02*
X231120000Y-102230000I0J-150000D01*
G01*
G37*
G36*
G01*
X231120000Y-100960000D02*
X231120000Y-101260000D01*
G75*
G02*
X230970000Y-101410000I-150000J0D01*
G01*
X229320000Y-101410000D01*
G75*
G02*
X229170000Y-101260000I0J150000D01*
G01*
X229170000Y-100960000D01*
G75*
G02*
X229320000Y-100810000I150000J0D01*
G01*
X230970000Y-100810000D01*
G75*
G02*
X231120000Y-100960000I0J-150000D01*
G01*
G37*
G36*
G01*
X236070000Y-100960000D02*
X236070000Y-101260000D01*
G75*
G02*
X235920000Y-101410000I-150000J0D01*
G01*
X234270000Y-101410000D01*
G75*
G02*
X234120000Y-101260000I0J150000D01*
G01*
X234120000Y-100960000D01*
G75*
G02*
X234270000Y-100810000I150000J0D01*
G01*
X235920000Y-100810000D01*
G75*
G02*
X236070000Y-100960000I0J-150000D01*
G01*
G37*
G36*
G01*
X236070000Y-102230000D02*
X236070000Y-102530000D01*
G75*
G02*
X235920000Y-102680000I-150000J0D01*
G01*
X234270000Y-102680000D01*
G75*
G02*
X234120000Y-102530000I0J150000D01*
G01*
X234120000Y-102230000D01*
G75*
G02*
X234270000Y-102080000I150000J0D01*
G01*
X235920000Y-102080000D01*
G75*
G02*
X236070000Y-102230000I0J-150000D01*
G01*
G37*
G36*
G01*
X236070000Y-103500000D02*
X236070000Y-103800000D01*
G75*
G02*
X235920000Y-103950000I-150000J0D01*
G01*
X234270000Y-103950000D01*
G75*
G02*
X234120000Y-103800000I0J150000D01*
G01*
X234120000Y-103500000D01*
G75*
G02*
X234270000Y-103350000I150000J0D01*
G01*
X235920000Y-103350000D01*
G75*
G02*
X236070000Y-103500000I0J-150000D01*
G01*
G37*
G36*
G01*
X236070000Y-104770000D02*
X236070000Y-105070000D01*
G75*
G02*
X235920000Y-105220000I-150000J0D01*
G01*
X234270000Y-105220000D01*
G75*
G02*
X234120000Y-105070000I0J150000D01*
G01*
X234120000Y-104770000D01*
G75*
G02*
X234270000Y-104620000I150000J0D01*
G01*
X235920000Y-104620000D01*
G75*
G02*
X236070000Y-104770000I0J-150000D01*
G01*
G37*
G36*
G01*
X236070000Y-106040000D02*
X236070000Y-106340000D01*
G75*
G02*
X235920000Y-106490000I-150000J0D01*
G01*
X234270000Y-106490000D01*
G75*
G02*
X234120000Y-106340000I0J150000D01*
G01*
X234120000Y-106040000D01*
G75*
G02*
X234270000Y-105890000I150000J0D01*
G01*
X235920000Y-105890000D01*
G75*
G02*
X236070000Y-106040000I0J-150000D01*
G01*
G37*
G36*
G01*
X236070000Y-107310000D02*
X236070000Y-107610000D01*
G75*
G02*
X235920000Y-107760000I-150000J0D01*
G01*
X234270000Y-107760000D01*
G75*
G02*
X234120000Y-107610000I0J150000D01*
G01*
X234120000Y-107310000D01*
G75*
G02*
X234270000Y-107160000I150000J0D01*
G01*
X235920000Y-107160000D01*
G75*
G02*
X236070000Y-107310000I0J-150000D01*
G01*
G37*
G36*
G01*
X236070000Y-108580000D02*
X236070000Y-108880000D01*
G75*
G02*
X235920000Y-109030000I-150000J0D01*
G01*
X234270000Y-109030000D01*
G75*
G02*
X234120000Y-108880000I0J150000D01*
G01*
X234120000Y-108580000D01*
G75*
G02*
X234270000Y-108430000I150000J0D01*
G01*
X235920000Y-108430000D01*
G75*
G02*
X236070000Y-108580000I0J-150000D01*
G01*
G37*
%TD*%
%TO.C,R+4*%
G36*
G01*
X142295000Y-69907500D02*
X142295000Y-69432500D01*
G75*
G02*
X142532500Y-69195000I237500J0D01*
G01*
X143032500Y-69195000D01*
G75*
G02*
X143270000Y-69432500I0J-237500D01*
G01*
X143270000Y-69907500D01*
G75*
G02*
X143032500Y-70145000I-237500J0D01*
G01*
X142532500Y-70145000D01*
G75*
G02*
X142295000Y-69907500I0J237500D01*
G01*
G37*
G36*
G01*
X140470000Y-69907500D02*
X140470000Y-69432500D01*
G75*
G02*
X140707500Y-69195000I237500J0D01*
G01*
X141207500Y-69195000D01*
G75*
G02*
X141445000Y-69432500I0J-237500D01*
G01*
X141445000Y-69907500D01*
G75*
G02*
X141207500Y-70145000I-237500J0D01*
G01*
X140707500Y-70145000D01*
G75*
G02*
X140470000Y-69907500I0J237500D01*
G01*
G37*
%TD*%
%TO.C,R+3*%
G36*
G01*
X143357500Y-67907500D02*
X142882500Y-67907500D01*
G75*
G02*
X142645000Y-67670000I0J237500D01*
G01*
X142645000Y-67170000D01*
G75*
G02*
X142882500Y-66932500I237500J0D01*
G01*
X143357500Y-66932500D01*
G75*
G02*
X143595000Y-67170000I0J-237500D01*
G01*
X143595000Y-67670000D01*
G75*
G02*
X143357500Y-67907500I-237500J0D01*
G01*
G37*
G36*
G01*
X143357500Y-66082500D02*
X142882500Y-66082500D01*
G75*
G02*
X142645000Y-65845000I0J237500D01*
G01*
X142645000Y-65345000D01*
G75*
G02*
X142882500Y-65107500I237500J0D01*
G01*
X143357500Y-65107500D01*
G75*
G02*
X143595000Y-65345000I0J-237500D01*
G01*
X143595000Y-65845000D01*
G75*
G02*
X143357500Y-66082500I-237500J0D01*
G01*
G37*
%TD*%
%TO.C,R5*%
G36*
G01*
X231445000Y-90682500D02*
X231445000Y-91157500D01*
G75*
G02*
X231207500Y-91395000I-237500J0D01*
G01*
X230707500Y-91395000D01*
G75*
G02*
X230470000Y-91157500I0J237500D01*
G01*
X230470000Y-90682500D01*
G75*
G02*
X230707500Y-90445000I237500J0D01*
G01*
X231207500Y-90445000D01*
G75*
G02*
X231445000Y-90682500I0J-237500D01*
G01*
G37*
G36*
G01*
X233270000Y-90682500D02*
X233270000Y-91157500D01*
G75*
G02*
X233032500Y-91395000I-237500J0D01*
G01*
X232532500Y-91395000D01*
G75*
G02*
X232295000Y-91157500I0J237500D01*
G01*
X232295000Y-90682500D01*
G75*
G02*
X232532500Y-90445000I237500J0D01*
G01*
X233032500Y-90445000D01*
G75*
G02*
X233270000Y-90682500I0J-237500D01*
G01*
G37*
%TD*%
%TO.C,R4*%
G36*
G01*
X235045000Y-117407500D02*
X235045000Y-116932500D01*
G75*
G02*
X235282500Y-116695000I237500J0D01*
G01*
X235782500Y-116695000D01*
G75*
G02*
X236020000Y-116932500I0J-237500D01*
G01*
X236020000Y-117407500D01*
G75*
G02*
X235782500Y-117645000I-237500J0D01*
G01*
X235282500Y-117645000D01*
G75*
G02*
X235045000Y-117407500I0J237500D01*
G01*
G37*
G36*
G01*
X233220000Y-117407500D02*
X233220000Y-116932500D01*
G75*
G02*
X233457500Y-116695000I237500J0D01*
G01*
X233957500Y-116695000D01*
G75*
G02*
X234195000Y-116932500I0J-237500D01*
G01*
X234195000Y-117407500D01*
G75*
G02*
X233957500Y-117645000I-237500J0D01*
G01*
X233457500Y-117645000D01*
G75*
G02*
X233220000Y-117407500I0J237500D01*
G01*
G37*
%TD*%
%TO.C,R3*%
G36*
G01*
X235045000Y-121157500D02*
X235045000Y-120682500D01*
G75*
G02*
X235282500Y-120445000I237500J0D01*
G01*
X235782500Y-120445000D01*
G75*
G02*
X236020000Y-120682500I0J-237500D01*
G01*
X236020000Y-121157500D01*
G75*
G02*
X235782500Y-121395000I-237500J0D01*
G01*
X235282500Y-121395000D01*
G75*
G02*
X235045000Y-121157500I0J237500D01*
G01*
G37*
G36*
G01*
X233220000Y-121157500D02*
X233220000Y-120682500D01*
G75*
G02*
X233457500Y-120445000I237500J0D01*
G01*
X233957500Y-120445000D01*
G75*
G02*
X234195000Y-120682500I0J-237500D01*
G01*
X234195000Y-121157500D01*
G75*
G02*
X233957500Y-121395000I-237500J0D01*
G01*
X233457500Y-121395000D01*
G75*
G02*
X233220000Y-121157500I0J237500D01*
G01*
G37*
%TD*%
%TO.C,R2*%
G36*
G01*
X234195000Y-127182500D02*
X234195000Y-127657500D01*
G75*
G02*
X233957500Y-127895000I-237500J0D01*
G01*
X233457500Y-127895000D01*
G75*
G02*
X233220000Y-127657500I0J237500D01*
G01*
X233220000Y-127182500D01*
G75*
G02*
X233457500Y-126945000I237500J0D01*
G01*
X233957500Y-126945000D01*
G75*
G02*
X234195000Y-127182500I0J-237500D01*
G01*
G37*
G36*
G01*
X236020000Y-127182500D02*
X236020000Y-127657500D01*
G75*
G02*
X235782500Y-127895000I-237500J0D01*
G01*
X235282500Y-127895000D01*
G75*
G02*
X235045000Y-127657500I0J237500D01*
G01*
X235045000Y-127182500D01*
G75*
G02*
X235282500Y-126945000I237500J0D01*
G01*
X235782500Y-126945000D01*
G75*
G02*
X236020000Y-127182500I0J-237500D01*
G01*
G37*
%TD*%
%TO.C,R1*%
G36*
G01*
X234195000Y-131432500D02*
X234195000Y-131907500D01*
G75*
G02*
X233957500Y-132145000I-237500J0D01*
G01*
X233457500Y-132145000D01*
G75*
G02*
X233220000Y-131907500I0J237500D01*
G01*
X233220000Y-131432500D01*
G75*
G02*
X233457500Y-131195000I237500J0D01*
G01*
X233957500Y-131195000D01*
G75*
G02*
X234195000Y-131432500I0J-237500D01*
G01*
G37*
G36*
G01*
X236020000Y-131432500D02*
X236020000Y-131907500D01*
G75*
G02*
X235782500Y-132145000I-237500J0D01*
G01*
X235282500Y-132145000D01*
G75*
G02*
X235045000Y-131907500I0J237500D01*
G01*
X235045000Y-131432500D01*
G75*
G02*
X235282500Y-131195000I237500J0D01*
G01*
X235782500Y-131195000D01*
G75*
G02*
X236020000Y-131432500I0J-237500D01*
G01*
G37*
%TD*%
%TO.C,D4*%
G36*
G01*
X230770000Y-116932500D02*
X230770000Y-117407500D01*
G75*
G02*
X230532500Y-117645000I-237500J0D01*
G01*
X229957500Y-117645000D01*
G75*
G02*
X229720000Y-117407500I0J237500D01*
G01*
X229720000Y-116932500D01*
G75*
G02*
X229957500Y-116695000I237500J0D01*
G01*
X230532500Y-116695000D01*
G75*
G02*
X230770000Y-116932500I0J-237500D01*
G01*
G37*
G36*
G01*
X232520000Y-116932500D02*
X232520000Y-117407500D01*
G75*
G02*
X232282500Y-117645000I-237500J0D01*
G01*
X231707500Y-117645000D01*
G75*
G02*
X231470000Y-117407500I0J237500D01*
G01*
X231470000Y-116932500D01*
G75*
G02*
X231707500Y-116695000I237500J0D01*
G01*
X232282500Y-116695000D01*
G75*
G02*
X232520000Y-116932500I0J-237500D01*
G01*
G37*
%TD*%
%TO.C,D3*%
G36*
G01*
X230770000Y-120682500D02*
X230770000Y-121157500D01*
G75*
G02*
X230532500Y-121395000I-237500J0D01*
G01*
X229957500Y-121395000D01*
G75*
G02*
X229720000Y-121157500I0J237500D01*
G01*
X229720000Y-120682500D01*
G75*
G02*
X229957500Y-120445000I237500J0D01*
G01*
X230532500Y-120445000D01*
G75*
G02*
X230770000Y-120682500I0J-237500D01*
G01*
G37*
G36*
G01*
X232520000Y-120682500D02*
X232520000Y-121157500D01*
G75*
G02*
X232282500Y-121395000I-237500J0D01*
G01*
X231707500Y-121395000D01*
G75*
G02*
X231470000Y-121157500I0J237500D01*
G01*
X231470000Y-120682500D01*
G75*
G02*
X231707500Y-120445000I237500J0D01*
G01*
X232282500Y-120445000D01*
G75*
G02*
X232520000Y-120682500I0J-237500D01*
G01*
G37*
%TD*%
%TO.C,D2*%
G36*
G01*
X230770000Y-127182500D02*
X230770000Y-127657500D01*
G75*
G02*
X230532500Y-127895000I-237500J0D01*
G01*
X229957500Y-127895000D01*
G75*
G02*
X229720000Y-127657500I0J237500D01*
G01*
X229720000Y-127182500D01*
G75*
G02*
X229957500Y-126945000I237500J0D01*
G01*
X230532500Y-126945000D01*
G75*
G02*
X230770000Y-127182500I0J-237500D01*
G01*
G37*
G36*
G01*
X232520000Y-127182500D02*
X232520000Y-127657500D01*
G75*
G02*
X232282500Y-127895000I-237500J0D01*
G01*
X231707500Y-127895000D01*
G75*
G02*
X231470000Y-127657500I0J237500D01*
G01*
X231470000Y-127182500D01*
G75*
G02*
X231707500Y-126945000I237500J0D01*
G01*
X232282500Y-126945000D01*
G75*
G02*
X232520000Y-127182500I0J-237500D01*
G01*
G37*
%TD*%
%TO.C,D1*%
G36*
G01*
X230770000Y-131432500D02*
X230770000Y-131907500D01*
G75*
G02*
X230532500Y-132145000I-237500J0D01*
G01*
X229957500Y-132145000D01*
G75*
G02*
X229720000Y-131907500I0J237500D01*
G01*
X229720000Y-131432500D01*
G75*
G02*
X229957500Y-131195000I237500J0D01*
G01*
X230532500Y-131195000D01*
G75*
G02*
X230770000Y-131432500I0J-237500D01*
G01*
G37*
G36*
G01*
X232520000Y-131432500D02*
X232520000Y-131907500D01*
G75*
G02*
X232282500Y-132145000I-237500J0D01*
G01*
X231707500Y-132145000D01*
G75*
G02*
X231470000Y-131907500I0J237500D01*
G01*
X231470000Y-131432500D01*
G75*
G02*
X231707500Y-131195000I237500J0D01*
G01*
X232282500Y-131195000D01*
G75*
G02*
X232520000Y-131432500I0J-237500D01*
G01*
G37*
%TD*%
%TO.C,R-5*%
G36*
G01*
X135532500Y-44932500D02*
X135532500Y-45407500D01*
G75*
G02*
X135295000Y-45645000I-237500J0D01*
G01*
X134795000Y-45645000D01*
G75*
G02*
X134557500Y-45407500I0J237500D01*
G01*
X134557500Y-44932500D01*
G75*
G02*
X134795000Y-44695000I237500J0D01*
G01*
X135295000Y-44695000D01*
G75*
G02*
X135532500Y-44932500I0J-237500D01*
G01*
G37*
G36*
G01*
X137357500Y-44932500D02*
X137357500Y-45407500D01*
G75*
G02*
X137120000Y-45645000I-237500J0D01*
G01*
X136620000Y-45645000D01*
G75*
G02*
X136382500Y-45407500I0J237500D01*
G01*
X136382500Y-44932500D01*
G75*
G02*
X136620000Y-44695000I237500J0D01*
G01*
X137120000Y-44695000D01*
G75*
G02*
X137357500Y-44932500I0J-237500D01*
G01*
G37*
%TD*%
%TO.C,R-4*%
G36*
G01*
X142882500Y-43757500D02*
X143357500Y-43757500D01*
G75*
G02*
X143595000Y-43995000I0J-237500D01*
G01*
X143595000Y-44495000D01*
G75*
G02*
X143357500Y-44732500I-237500J0D01*
G01*
X142882500Y-44732500D01*
G75*
G02*
X142645000Y-44495000I0J237500D01*
G01*
X142645000Y-43995000D01*
G75*
G02*
X142882500Y-43757500I237500J0D01*
G01*
G37*
G36*
G01*
X142882500Y-41932500D02*
X143357500Y-41932500D01*
G75*
G02*
X143595000Y-42170000I0J-237500D01*
G01*
X143595000Y-42670000D01*
G75*
G02*
X143357500Y-42907500I-237500J0D01*
G01*
X142882500Y-42907500D01*
G75*
G02*
X142645000Y-42670000I0J237500D01*
G01*
X142645000Y-42170000D01*
G75*
G02*
X142882500Y-41932500I237500J0D01*
G01*
G37*
%TD*%
D14*
%TO.C,TP-1*%
X139450000Y-42420000D03*
X136910000Y-42420000D03*
D13*
X134370000Y-42420000D03*
%TD*%
D14*
%TO.C,TP+1*%
X139450000Y-66920000D03*
X136910000Y-66920000D03*
D13*
X134370000Y-66920000D03*
%TD*%
D12*
%TO.C,REF\u002A\u002A*%
X187670000Y-117220000D03*
X187670000Y-116420000D03*
X187670000Y-115620000D03*
X187670000Y-114820000D03*
X190070000Y-117220000D03*
X190070000Y-116420000D03*
X190070000Y-115620000D03*
X190070000Y-114820000D03*
%TD*%
%TO.C,REF\u002A\u002A*%
X190070000Y-131620000D03*
X190070000Y-132420000D03*
X190070000Y-133220000D03*
X190070000Y-134020000D03*
X187670000Y-131620000D03*
X187670000Y-132420000D03*
X187670000Y-133220000D03*
X187670000Y-134020000D03*
%TD*%
%TO.C,REF\u002A\u002A*%
X187670000Y-109520000D03*
X187670000Y-108720000D03*
X187670000Y-107920000D03*
X187670000Y-107120000D03*
X190070000Y-109520000D03*
X190070000Y-108720000D03*
X190070000Y-107920000D03*
X190070000Y-107120000D03*
%TD*%
%TO.C,REF\u002A\u002A*%
X190070000Y-90320000D03*
X190070000Y-91120000D03*
X190070000Y-91920000D03*
X190070000Y-92720000D03*
X187670000Y-90320000D03*
X187670000Y-91120000D03*
X187670000Y-91920000D03*
X187670000Y-92720000D03*
%TD*%
D15*
%TO.C,REF\u002A\u002A*%
X73870000Y-81100000D03*
%TD*%
%TO.C,REF\u002A\u002A*%
X73870000Y-69100000D03*
%TD*%
%TO.C,REF\u002A\u002A*%
X182370000Y-69100000D03*
%TD*%
D12*
%TO.C,REF\u002A\u002A*%
X176070000Y-86220000D03*
X176870000Y-86220000D03*
X177670000Y-86220000D03*
X178470000Y-86220000D03*
X176070000Y-88620000D03*
X176870000Y-88620000D03*
X177670000Y-88620000D03*
X178470000Y-88620000D03*
%TD*%
%TO.C,REF\u002A\u002A*%
X138570000Y-86220000D03*
X139370000Y-86220000D03*
X140170000Y-86220000D03*
X140970000Y-86220000D03*
X138570000Y-88620000D03*
X139370000Y-88620000D03*
X140170000Y-88620000D03*
X140970000Y-88620000D03*
%TD*%
%TO.C,REF\u002A\u002A*%
X98570000Y-86220000D03*
X99370000Y-86220000D03*
X100170000Y-86220000D03*
X100970000Y-86220000D03*
X98570000Y-88620000D03*
X99370000Y-88620000D03*
X100170000Y-88620000D03*
X100970000Y-88620000D03*
%TD*%
%TO.C,REF\u002A\u002A*%
X63570000Y-86220000D03*
X64370000Y-86220000D03*
X65170000Y-86220000D03*
X65970000Y-86220000D03*
X63570000Y-88620000D03*
X64370000Y-88620000D03*
X65170000Y-88620000D03*
X65970000Y-88620000D03*
%TD*%
%TO.C,REF\u002A\u002A*%
X190070000Y-82620000D03*
X190070000Y-83420000D03*
X190070000Y-84220000D03*
X190070000Y-85020000D03*
X187670000Y-82620000D03*
X187670000Y-83420000D03*
X187670000Y-84220000D03*
X187670000Y-85020000D03*
%TD*%
%TO.C,REF\u002A\u002A*%
X187670000Y-68220000D03*
X187670000Y-67420000D03*
X187670000Y-66620000D03*
X187670000Y-65820000D03*
X190070000Y-68220000D03*
X190070000Y-67420000D03*
X190070000Y-66620000D03*
X190070000Y-65820000D03*
%TD*%
D15*
%TO.C,REF\u002A\u002A*%
X182370000Y-44600000D03*
%TD*%
%TO.C,REF\u002A\u002A*%
X73870000Y-56600000D03*
%TD*%
%TO.C,REF\u002A\u002A*%
X73870000Y-44600000D03*
%TD*%
%TO.C,J-3*%
G36*
G01*
X86330000Y-55770000D02*
X86330000Y-57910000D01*
G75*
G02*
X86080000Y-58160000I-250000J0D01*
G01*
X83940000Y-58160000D01*
G75*
G02*
X83690000Y-57910000I0J250000D01*
G01*
X83690000Y-55770000D01*
G75*
G02*
X83940000Y-55520000I250000J0D01*
G01*
X86080000Y-55520000D01*
G75*
G02*
X86330000Y-55770000I0J-250000D01*
G01*
G37*
D16*
X85010000Y-52700000D03*
X85010000Y-48560000D03*
X85010000Y-44420000D03*
X80870000Y-56840000D03*
X80870000Y-52700000D03*
X80870000Y-48560000D03*
X80870000Y-44420000D03*
%TD*%
%TO.C,J-2*%
G36*
G01*
X61550000Y-45490000D02*
X61550000Y-43350000D01*
G75*
G02*
X61800000Y-43100000I250000J0D01*
G01*
X63940000Y-43100000D01*
G75*
G02*
X64190000Y-43350000I0J-250000D01*
G01*
X64190000Y-45490000D01*
G75*
G02*
X63940000Y-45740000I-250000J0D01*
G01*
X61800000Y-45740000D01*
G75*
G02*
X61550000Y-45490000I0J250000D01*
G01*
G37*
X62870000Y-48560000D03*
X62870000Y-52700000D03*
X62870000Y-56840000D03*
X67010000Y-44420000D03*
X67010000Y-48560000D03*
X67010000Y-52700000D03*
X67010000Y-56840000D03*
%TD*%
%TO.C,J+3*%
G36*
G01*
X86330000Y-80270000D02*
X86330000Y-82410000D01*
G75*
G02*
X86080000Y-82660000I-250000J0D01*
G01*
X83940000Y-82660000D01*
G75*
G02*
X83690000Y-82410000I0J250000D01*
G01*
X83690000Y-80270000D01*
G75*
G02*
X83940000Y-80020000I250000J0D01*
G01*
X86080000Y-80020000D01*
G75*
G02*
X86330000Y-80270000I0J-250000D01*
G01*
G37*
X85010000Y-77200000D03*
X85010000Y-73060000D03*
X85010000Y-68920000D03*
X80870000Y-81340000D03*
X80870000Y-77200000D03*
X80870000Y-73060000D03*
X80870000Y-68920000D03*
%TD*%
%TO.C,J+2*%
G36*
G01*
X61550000Y-69990000D02*
X61550000Y-67850000D01*
G75*
G02*
X61800000Y-67600000I250000J0D01*
G01*
X63940000Y-67600000D01*
G75*
G02*
X64190000Y-67850000I0J-250000D01*
G01*
X64190000Y-69990000D01*
G75*
G02*
X63940000Y-70240000I-250000J0D01*
G01*
X61800000Y-70240000D01*
G75*
G02*
X61550000Y-69990000I0J250000D01*
G01*
G37*
X62870000Y-73060000D03*
X62870000Y-77200000D03*
X62870000Y-81340000D03*
X67010000Y-68920000D03*
X67010000Y-73060000D03*
X67010000Y-77200000D03*
X67010000Y-81340000D03*
%TD*%
D17*
%TO.C,U-2*%
X148320000Y-43770000D03*
X148320000Y-45070000D03*
X146420000Y-44420000D03*
X146420000Y-45070000D03*
X146420000Y-43770000D03*
%TD*%
%TO.C,U-1*%
G36*
G01*
X172867500Y-58870000D02*
X173142500Y-58870000D01*
G75*
G02*
X173280000Y-59007500I0J-137500D01*
G01*
X173280000Y-60332500D01*
G75*
G02*
X173142500Y-60470000I-137500J0D01*
G01*
X172867500Y-60470000D01*
G75*
G02*
X172730000Y-60332500I0J137500D01*
G01*
X172730000Y-59007500D01*
G75*
G02*
X172867500Y-58870000I137500J0D01*
G01*
G37*
G36*
G01*
X171597500Y-58870000D02*
X171872500Y-58870000D01*
G75*
G02*
X172010000Y-59007500I0J-137500D01*
G01*
X172010000Y-60332500D01*
G75*
G02*
X171872500Y-60470000I-137500J0D01*
G01*
X171597500Y-60470000D01*
G75*
G02*
X171460000Y-60332500I0J137500D01*
G01*
X171460000Y-59007500D01*
G75*
G02*
X171597500Y-58870000I137500J0D01*
G01*
G37*
G36*
G01*
X171597500Y-52370000D02*
X171872500Y-52370000D01*
G75*
G02*
X172010000Y-52507500I0J-137500D01*
G01*
X172010000Y-53832500D01*
G75*
G02*
X171872500Y-53970000I-137500J0D01*
G01*
X171597500Y-53970000D01*
G75*
G02*
X171460000Y-53832500I0J137500D01*
G01*
X171460000Y-52507500D01*
G75*
G02*
X171597500Y-52370000I137500J0D01*
G01*
G37*
G36*
G01*
X172867500Y-52370000D02*
X173142500Y-52370000D01*
G75*
G02*
X173280000Y-52507500I0J-137500D01*
G01*
X173280000Y-53832500D01*
G75*
G02*
X173142500Y-53970000I-137500J0D01*
G01*
X172867500Y-53970000D01*
G75*
G02*
X172730000Y-53832500I0J137500D01*
G01*
X172730000Y-52507500D01*
G75*
G02*
X172867500Y-52370000I137500J0D01*
G01*
G37*
%TD*%
D19*
%TO.C,U+1*%
X138858700Y-74920000D03*
D18*
X146072300Y-72370000D03*
X146072300Y-73220001D03*
X146072300Y-74069999D03*
X146072300Y-74920000D03*
X146072300Y-75770001D03*
X146072300Y-76619999D03*
X146072300Y-77470000D03*
%TD*%
%TO.C,R-C1*%
G36*
G01*
X151607500Y-54907500D02*
X151132500Y-54907500D01*
G75*
G02*
X150895000Y-54670000I0J237500D01*
G01*
X150895000Y-54170000D01*
G75*
G02*
X151132500Y-53932500I237500J0D01*
G01*
X151607500Y-53932500D01*
G75*
G02*
X151845000Y-54170000I0J-237500D01*
G01*
X151845000Y-54670000D01*
G75*
G02*
X151607500Y-54907500I-237500J0D01*
G01*
G37*
G36*
G01*
X151607500Y-56732500D02*
X151132500Y-56732500D01*
G75*
G02*
X150895000Y-56495000I0J237500D01*
G01*
X150895000Y-55995000D01*
G75*
G02*
X151132500Y-55757500I237500J0D01*
G01*
X151607500Y-55757500D01*
G75*
G02*
X151845000Y-55995000I0J-237500D01*
G01*
X151845000Y-56495000D01*
G75*
G02*
X151607500Y-56732500I-237500J0D01*
G01*
G37*
%TD*%
%TO.C,R-B1*%
G36*
G01*
X151607500Y-48907500D02*
X151132500Y-48907500D01*
G75*
G02*
X150895000Y-48670000I0J237500D01*
G01*
X150895000Y-48170000D01*
G75*
G02*
X151132500Y-47932500I237500J0D01*
G01*
X151607500Y-47932500D01*
G75*
G02*
X151845000Y-48170000I0J-237500D01*
G01*
X151845000Y-48670000D01*
G75*
G02*
X151607500Y-48907500I-237500J0D01*
G01*
G37*
G36*
G01*
X151607500Y-50732500D02*
X151132500Y-50732500D01*
G75*
G02*
X150895000Y-50495000I0J237500D01*
G01*
X150895000Y-49995000D01*
G75*
G02*
X151132500Y-49757500I237500J0D01*
G01*
X151607500Y-49757500D01*
G75*
G02*
X151845000Y-49995000I0J-237500D01*
G01*
X151845000Y-50495000D01*
G75*
G02*
X151607500Y-50732500I-237500J0D01*
G01*
G37*
%TD*%
%TO.C,R-A1*%
G36*
G01*
X151607500Y-42995000D02*
X151132500Y-42995000D01*
G75*
G02*
X150895000Y-42757500I0J237500D01*
G01*
X150895000Y-42257500D01*
G75*
G02*
X151132500Y-42020000I237500J0D01*
G01*
X151607500Y-42020000D01*
G75*
G02*
X151845000Y-42257500I0J-237500D01*
G01*
X151845000Y-42757500D01*
G75*
G02*
X151607500Y-42995000I-237500J0D01*
G01*
G37*
G36*
G01*
X151607500Y-44820000D02*
X151132500Y-44820000D01*
G75*
G02*
X150895000Y-44582500I0J237500D01*
G01*
X150895000Y-44082500D01*
G75*
G02*
X151132500Y-43845000I237500J0D01*
G01*
X151607500Y-43845000D01*
G75*
G02*
X151845000Y-44082500I0J-237500D01*
G01*
X151845000Y-44582500D01*
G75*
G02*
X151607500Y-44820000I-237500J0D01*
G01*
G37*
%TD*%
%TO.C,R-3*%
G36*
G01*
X147795000Y-58157500D02*
X147795000Y-57682500D01*
G75*
G02*
X148032500Y-57445000I237500J0D01*
G01*
X148532500Y-57445000D01*
G75*
G02*
X148770000Y-57682500I0J-237500D01*
G01*
X148770000Y-58157500D01*
G75*
G02*
X148532500Y-58395000I-237500J0D01*
G01*
X148032500Y-58395000D01*
G75*
G02*
X147795000Y-58157500I0J237500D01*
G01*
G37*
G36*
G01*
X145970000Y-58157500D02*
X145970000Y-57682500D01*
G75*
G02*
X146207500Y-57445000I237500J0D01*
G01*
X146707500Y-57445000D01*
G75*
G02*
X146945000Y-57682500I0J-237500D01*
G01*
X146945000Y-58157500D01*
G75*
G02*
X146707500Y-58395000I-237500J0D01*
G01*
X146207500Y-58395000D01*
G75*
G02*
X145970000Y-58157500I0J237500D01*
G01*
G37*
%TD*%
%TO.C,R-2*%
G36*
G01*
X146945000Y-59682500D02*
X146945000Y-60157500D01*
G75*
G02*
X146707500Y-60395000I-237500J0D01*
G01*
X146207500Y-60395000D01*
G75*
G02*
X145970000Y-60157500I0J237500D01*
G01*
X145970000Y-59682500D01*
G75*
G02*
X146207500Y-59445000I237500J0D01*
G01*
X146707500Y-59445000D01*
G75*
G02*
X146945000Y-59682500I0J-237500D01*
G01*
G37*
G36*
G01*
X148770000Y-59682500D02*
X148770000Y-60157500D01*
G75*
G02*
X148532500Y-60395000I-237500J0D01*
G01*
X148032500Y-60395000D01*
G75*
G02*
X147795000Y-60157500I0J237500D01*
G01*
X147795000Y-59682500D01*
G75*
G02*
X148032500Y-59445000I237500J0D01*
G01*
X148532500Y-59445000D01*
G75*
G02*
X148770000Y-59682500I0J-237500D01*
G01*
G37*
%TD*%
%TO.C,R-1*%
G36*
G01*
X176795000Y-56657500D02*
X176795000Y-56182500D01*
G75*
G02*
X177032500Y-55945000I237500J0D01*
G01*
X177532500Y-55945000D01*
G75*
G02*
X177770000Y-56182500I0J-237500D01*
G01*
X177770000Y-56657500D01*
G75*
G02*
X177532500Y-56895000I-237500J0D01*
G01*
X177032500Y-56895000D01*
G75*
G02*
X176795000Y-56657500I0J237500D01*
G01*
G37*
G36*
G01*
X174970000Y-56657500D02*
X174970000Y-56182500D01*
G75*
G02*
X175207500Y-55945000I237500J0D01*
G01*
X175707500Y-55945000D01*
G75*
G02*
X175945000Y-56182500I0J-237500D01*
G01*
X175945000Y-56657500D01*
G75*
G02*
X175707500Y-56895000I-237500J0D01*
G01*
X175207500Y-56895000D01*
G75*
G02*
X174970000Y-56657500I0J237500D01*
G01*
G37*
%TD*%
%TO.C,R+A1*%
G36*
G01*
X151132500Y-80257500D02*
X151607500Y-80257500D01*
G75*
G02*
X151845000Y-80495000I0J-237500D01*
G01*
X151845000Y-80995000D01*
G75*
G02*
X151607500Y-81232500I-237500J0D01*
G01*
X151132500Y-81232500D01*
G75*
G02*
X150895000Y-80995000I0J237500D01*
G01*
X150895000Y-80495000D01*
G75*
G02*
X151132500Y-80257500I237500J0D01*
G01*
G37*
G36*
G01*
X151132500Y-78432500D02*
X151607500Y-78432500D01*
G75*
G02*
X151845000Y-78670000I0J-237500D01*
G01*
X151845000Y-79170000D01*
G75*
G02*
X151607500Y-79407500I-237500J0D01*
G01*
X151132500Y-79407500D01*
G75*
G02*
X150895000Y-79170000I0J237500D01*
G01*
X150895000Y-78670000D01*
G75*
G02*
X151132500Y-78432500I237500J0D01*
G01*
G37*
%TD*%
%TO.C,R+B1*%
G36*
G01*
X151132500Y-74257500D02*
X151607500Y-74257500D01*
G75*
G02*
X151845000Y-74495000I0J-237500D01*
G01*
X151845000Y-74995000D01*
G75*
G02*
X151607500Y-75232500I-237500J0D01*
G01*
X151132500Y-75232500D01*
G75*
G02*
X150895000Y-74995000I0J237500D01*
G01*
X150895000Y-74495000D01*
G75*
G02*
X151132500Y-74257500I237500J0D01*
G01*
G37*
G36*
G01*
X151132500Y-72432500D02*
X151607500Y-72432500D01*
G75*
G02*
X151845000Y-72670000I0J-237500D01*
G01*
X151845000Y-73170000D01*
G75*
G02*
X151607500Y-73407500I-237500J0D01*
G01*
X151132500Y-73407500D01*
G75*
G02*
X150895000Y-73170000I0J237500D01*
G01*
X150895000Y-72670000D01*
G75*
G02*
X151132500Y-72432500I237500J0D01*
G01*
G37*
%TD*%
%TO.C,R+C1*%
G36*
G01*
X151132500Y-68345000D02*
X151607500Y-68345000D01*
G75*
G02*
X151845000Y-68582500I0J-237500D01*
G01*
X151845000Y-69082500D01*
G75*
G02*
X151607500Y-69320000I-237500J0D01*
G01*
X151132500Y-69320000D01*
G75*
G02*
X150895000Y-69082500I0J237500D01*
G01*
X150895000Y-68582500D01*
G75*
G02*
X151132500Y-68345000I237500J0D01*
G01*
G37*
G36*
G01*
X151132500Y-66520000D02*
X151607500Y-66520000D01*
G75*
G02*
X151845000Y-66757500I0J-237500D01*
G01*
X151845000Y-67257500D01*
G75*
G02*
X151607500Y-67495000I-237500J0D01*
G01*
X151132500Y-67495000D01*
G75*
G02*
X150895000Y-67257500I0J237500D01*
G01*
X150895000Y-66757500D01*
G75*
G02*
X151132500Y-66520000I237500J0D01*
G01*
G37*
%TD*%
%TO.C,R+2*%
G36*
G01*
X147107500Y-70182500D02*
X147107500Y-70657500D01*
G75*
G02*
X146870000Y-70895000I-237500J0D01*
G01*
X146370000Y-70895000D01*
G75*
G02*
X146132500Y-70657500I0J237500D01*
G01*
X146132500Y-70182500D01*
G75*
G02*
X146370000Y-69945000I237500J0D01*
G01*
X146870000Y-69945000D01*
G75*
G02*
X147107500Y-70182500I0J-237500D01*
G01*
G37*
G36*
G01*
X148932500Y-70182500D02*
X148932500Y-70657500D01*
G75*
G02*
X148695000Y-70895000I-237500J0D01*
G01*
X148195000Y-70895000D01*
G75*
G02*
X147957500Y-70657500I0J237500D01*
G01*
X147957500Y-70182500D01*
G75*
G02*
X148195000Y-69945000I237500J0D01*
G01*
X148695000Y-69945000D01*
G75*
G02*
X148932500Y-70182500I0J-237500D01*
G01*
G37*
%TD*%
%TO.C,R+1*%
G36*
G01*
X155882500Y-65657500D02*
X155882500Y-65182500D01*
G75*
G02*
X156120000Y-64945000I237500J0D01*
G01*
X156620000Y-64945000D01*
G75*
G02*
X156857500Y-65182500I0J-237500D01*
G01*
X156857500Y-65657500D01*
G75*
G02*
X156620000Y-65895000I-237500J0D01*
G01*
X156120000Y-65895000D01*
G75*
G02*
X155882500Y-65657500I0J237500D01*
G01*
G37*
G36*
G01*
X154057500Y-65657500D02*
X154057500Y-65182500D01*
G75*
G02*
X154295000Y-64945000I237500J0D01*
G01*
X154795000Y-64945000D01*
G75*
G02*
X155032500Y-65182500I0J-237500D01*
G01*
X155032500Y-65657500D01*
G75*
G02*
X154795000Y-65895000I-237500J0D01*
G01*
X154295000Y-65895000D01*
G75*
G02*
X154057500Y-65657500I0J237500D01*
G01*
G37*
%TD*%
D21*
%TO.C,Q-1*%
X147070000Y-50380000D03*
X147070000Y-55460000D03*
D20*
X136795000Y-52920000D03*
%TD*%
%TO.C,JSB-1*%
G36*
G01*
X182773164Y-58105246D02*
X182773164Y-58105246D01*
G75*
G02*
X182773164Y-56903164I601041J601041D01*
G01*
X182773164Y-56903164D01*
G75*
G02*
X183975246Y-56903164I601041J-601041D01*
G01*
X183975246Y-56903164D01*
G75*
G02*
X183975246Y-58105246I-601041J-601041D01*
G01*
X183975246Y-58105246D01*
G75*
G02*
X182773164Y-58105246I-601041J601041D01*
G01*
G37*
G36*
G01*
X184569215Y-56309195D02*
X184569215Y-56309195D01*
G75*
G02*
X184569215Y-55107113I601041J601041D01*
G01*
X184569215Y-55107113D01*
G75*
G02*
X185771297Y-55107113I601041J-601041D01*
G01*
X185771297Y-55107113D01*
G75*
G02*
X185771297Y-56309195I-601041J-601041D01*
G01*
X185771297Y-56309195D01*
G75*
G02*
X184569215Y-56309195I-601041J601041D01*
G01*
G37*
G36*
G01*
X180977112Y-56309195D02*
X180977112Y-56309195D01*
G75*
G02*
X180977112Y-55107113I601041J601041D01*
G01*
X180977112Y-55107113D01*
G75*
G02*
X182179194Y-55107113I601041J-601041D01*
G01*
X182179194Y-55107113D01*
G75*
G02*
X182179194Y-56309195I-601041J-601041D01*
G01*
X182179194Y-56309195D01*
G75*
G02*
X180977112Y-56309195I-601041J601041D01*
G01*
G37*
G36*
G01*
X182773164Y-54513144D02*
X182773164Y-54513144D01*
G75*
G02*
X182773164Y-53311062I601041J601041D01*
G01*
X182773164Y-53311062D01*
G75*
G02*
X183975246Y-53311062I601041J-601041D01*
G01*
X183975246Y-53311062D01*
G75*
G02*
X183975246Y-54513144I-601041J-601041D01*
G01*
X183975246Y-54513144D01*
G75*
G02*
X182773164Y-54513144I-601041J601041D01*
G01*
G37*
G36*
G01*
X179181061Y-54513144D02*
X179181061Y-54513144D01*
G75*
G02*
X179181061Y-53311062I601041J601041D01*
G01*
X179181061Y-53311062D01*
G75*
G02*
X180383143Y-53311062I601041J-601041D01*
G01*
X180383143Y-53311062D01*
G75*
G02*
X180383143Y-54513144I-601041J-601041D01*
G01*
X180383143Y-54513144D01*
G75*
G02*
X179181061Y-54513144I-601041J601041D01*
G01*
G37*
G36*
G01*
X180977112Y-52717092D02*
X180977112Y-52717092D01*
G75*
G02*
X180977112Y-51515010I601041J601041D01*
G01*
X180977112Y-51515010D01*
G75*
G02*
X182179194Y-51515010I601041J-601041D01*
G01*
X182179194Y-51515010D01*
G75*
G02*
X182179194Y-52717092I-601041J-601041D01*
G01*
X182179194Y-52717092D01*
G75*
G02*
X180977112Y-52717092I-601041J601041D01*
G01*
G37*
G36*
G01*
X177385010Y-52717092D02*
X177385010Y-52717092D01*
G75*
G02*
X177385010Y-51515010I601041J601041D01*
G01*
X177385010Y-51515010D01*
G75*
G02*
X178587092Y-51515010I601041J-601041D01*
G01*
X178587092Y-51515010D01*
G75*
G02*
X178587092Y-52717092I-601041J-601041D01*
G01*
X178587092Y-52717092D01*
G75*
G02*
X177385010Y-52717092I-601041J601041D01*
G01*
G37*
G36*
G01*
X179181061Y-50921041D02*
X179181061Y-50921041D01*
G75*
G02*
X179181061Y-49718959I601041J601041D01*
G01*
X179181061Y-49718959D01*
G75*
G02*
X180383143Y-49718959I601041J-601041D01*
G01*
X180383143Y-49718959D01*
G75*
G02*
X180383143Y-50921041I-601041J-601041D01*
G01*
X180383143Y-50921041D01*
G75*
G02*
X179181061Y-50921041I-601041J601041D01*
G01*
G37*
G36*
G01*
X175588959Y-50921041D02*
X175588959Y-50921041D01*
G75*
G02*
X175588959Y-49718959I601041J601041D01*
G01*
X175588959Y-49718959D01*
G75*
G02*
X176791041Y-49718959I601041J-601041D01*
G01*
X176791041Y-49718959D01*
G75*
G02*
X176791041Y-50921041I-601041J-601041D01*
G01*
X176791041Y-50921041D01*
G75*
G02*
X175588959Y-50921041I-601041J601041D01*
G01*
G37*
D10*
G36*
X177986051Y-49726031D02*
G01*
X176783969Y-48523949D01*
X177986051Y-47321867D01*
X179188133Y-48523949D01*
X177986051Y-49726031D01*
G37*
%TD*%
%TO.C,JSB+1*%
G36*
G01*
X182773164Y-82605246D02*
X182773164Y-82605246D01*
G75*
G02*
X182773164Y-81403164I601041J601041D01*
G01*
X182773164Y-81403164D01*
G75*
G02*
X183975246Y-81403164I601041J-601041D01*
G01*
X183975246Y-81403164D01*
G75*
G02*
X183975246Y-82605246I-601041J-601041D01*
G01*
X183975246Y-82605246D01*
G75*
G02*
X182773164Y-82605246I-601041J601041D01*
G01*
G37*
G36*
G01*
X184569215Y-80809195D02*
X184569215Y-80809195D01*
G75*
G02*
X184569215Y-79607113I601041J601041D01*
G01*
X184569215Y-79607113D01*
G75*
G02*
X185771297Y-79607113I601041J-601041D01*
G01*
X185771297Y-79607113D01*
G75*
G02*
X185771297Y-80809195I-601041J-601041D01*
G01*
X185771297Y-80809195D01*
G75*
G02*
X184569215Y-80809195I-601041J601041D01*
G01*
G37*
G36*
G01*
X180977112Y-80809195D02*
X180977112Y-80809195D01*
G75*
G02*
X180977112Y-79607113I601041J601041D01*
G01*
X180977112Y-79607113D01*
G75*
G02*
X182179194Y-79607113I601041J-601041D01*
G01*
X182179194Y-79607113D01*
G75*
G02*
X182179194Y-80809195I-601041J-601041D01*
G01*
X182179194Y-80809195D01*
G75*
G02*
X180977112Y-80809195I-601041J601041D01*
G01*
G37*
G36*
G01*
X182773164Y-79013144D02*
X182773164Y-79013144D01*
G75*
G02*
X182773164Y-77811062I601041J601041D01*
G01*
X182773164Y-77811062D01*
G75*
G02*
X183975246Y-77811062I601041J-601041D01*
G01*
X183975246Y-77811062D01*
G75*
G02*
X183975246Y-79013144I-601041J-601041D01*
G01*
X183975246Y-79013144D01*
G75*
G02*
X182773164Y-79013144I-601041J601041D01*
G01*
G37*
G36*
G01*
X179181061Y-79013144D02*
X179181061Y-79013144D01*
G75*
G02*
X179181061Y-77811062I601041J601041D01*
G01*
X179181061Y-77811062D01*
G75*
G02*
X180383143Y-77811062I601041J-601041D01*
G01*
X180383143Y-77811062D01*
G75*
G02*
X180383143Y-79013144I-601041J-601041D01*
G01*
X180383143Y-79013144D01*
G75*
G02*
X179181061Y-79013144I-601041J601041D01*
G01*
G37*
G36*
G01*
X180977112Y-77217092D02*
X180977112Y-77217092D01*
G75*
G02*
X180977112Y-76015010I601041J601041D01*
G01*
X180977112Y-76015010D01*
G75*
G02*
X182179194Y-76015010I601041J-601041D01*
G01*
X182179194Y-76015010D01*
G75*
G02*
X182179194Y-77217092I-601041J-601041D01*
G01*
X182179194Y-77217092D01*
G75*
G02*
X180977112Y-77217092I-601041J601041D01*
G01*
G37*
G36*
G01*
X177385010Y-77217092D02*
X177385010Y-77217092D01*
G75*
G02*
X177385010Y-76015010I601041J601041D01*
G01*
X177385010Y-76015010D01*
G75*
G02*
X178587092Y-76015010I601041J-601041D01*
G01*
X178587092Y-76015010D01*
G75*
G02*
X178587092Y-77217092I-601041J-601041D01*
G01*
X178587092Y-77217092D01*
G75*
G02*
X177385010Y-77217092I-601041J601041D01*
G01*
G37*
G36*
G01*
X179181061Y-75421041D02*
X179181061Y-75421041D01*
G75*
G02*
X179181061Y-74218959I601041J601041D01*
G01*
X179181061Y-74218959D01*
G75*
G02*
X180383143Y-74218959I601041J-601041D01*
G01*
X180383143Y-74218959D01*
G75*
G02*
X180383143Y-75421041I-601041J-601041D01*
G01*
X180383143Y-75421041D01*
G75*
G02*
X179181061Y-75421041I-601041J601041D01*
G01*
G37*
G36*
G01*
X175588959Y-75421041D02*
X175588959Y-75421041D01*
G75*
G02*
X175588959Y-74218959I601041J601041D01*
G01*
X175588959Y-74218959D01*
G75*
G02*
X176791041Y-74218959I601041J-601041D01*
G01*
X176791041Y-74218959D01*
G75*
G02*
X176791041Y-75421041I-601041J-601041D01*
G01*
X176791041Y-75421041D01*
G75*
G02*
X175588959Y-75421041I-601041J601041D01*
G01*
G37*
G36*
X177986051Y-74226031D02*
G01*
X176783969Y-73023949D01*
X177986051Y-71821867D01*
X179188133Y-73023949D01*
X177986051Y-74226031D01*
G37*
%TD*%
%TO.C,JSA-1*%
G36*
G01*
X162054754Y-49243164D02*
X162054754Y-49243164D01*
G75*
G02*
X163256836Y-49243164I601041J-601041D01*
G01*
X163256836Y-49243164D01*
G75*
G02*
X163256836Y-50445246I-601041J-601041D01*
G01*
X163256836Y-50445246D01*
G75*
G02*
X162054754Y-50445246I-601041J601041D01*
G01*
X162054754Y-50445246D01*
G75*
G02*
X162054754Y-49243164I601041J601041D01*
G01*
G37*
G36*
G01*
X163850805Y-51039215D02*
X163850805Y-51039215D01*
G75*
G02*
X165052887Y-51039215I601041J-601041D01*
G01*
X165052887Y-51039215D01*
G75*
G02*
X165052887Y-52241297I-601041J-601041D01*
G01*
X165052887Y-52241297D01*
G75*
G02*
X163850805Y-52241297I-601041J601041D01*
G01*
X163850805Y-52241297D01*
G75*
G02*
X163850805Y-51039215I601041J601041D01*
G01*
G37*
G36*
G01*
X163850805Y-47447112D02*
X163850805Y-47447112D01*
G75*
G02*
X165052887Y-47447112I601041J-601041D01*
G01*
X165052887Y-47447112D01*
G75*
G02*
X165052887Y-48649194I-601041J-601041D01*
G01*
X165052887Y-48649194D01*
G75*
G02*
X163850805Y-48649194I-601041J601041D01*
G01*
X163850805Y-48649194D01*
G75*
G02*
X163850805Y-47447112I601041J601041D01*
G01*
G37*
G36*
G01*
X165646856Y-49243164D02*
X165646856Y-49243164D01*
G75*
G02*
X166848938Y-49243164I601041J-601041D01*
G01*
X166848938Y-49243164D01*
G75*
G02*
X166848938Y-50445246I-601041J-601041D01*
G01*
X166848938Y-50445246D01*
G75*
G02*
X165646856Y-50445246I-601041J601041D01*
G01*
X165646856Y-50445246D01*
G75*
G02*
X165646856Y-49243164I601041J601041D01*
G01*
G37*
G36*
G01*
X165646856Y-45651061D02*
X165646856Y-45651061D01*
G75*
G02*
X166848938Y-45651061I601041J-601041D01*
G01*
X166848938Y-45651061D01*
G75*
G02*
X166848938Y-46853143I-601041J-601041D01*
G01*
X166848938Y-46853143D01*
G75*
G02*
X165646856Y-46853143I-601041J601041D01*
G01*
X165646856Y-46853143D01*
G75*
G02*
X165646856Y-45651061I601041J601041D01*
G01*
G37*
G36*
G01*
X167442908Y-47447112D02*
X167442908Y-47447112D01*
G75*
G02*
X168644990Y-47447112I601041J-601041D01*
G01*
X168644990Y-47447112D01*
G75*
G02*
X168644990Y-48649194I-601041J-601041D01*
G01*
X168644990Y-48649194D01*
G75*
G02*
X167442908Y-48649194I-601041J601041D01*
G01*
X167442908Y-48649194D01*
G75*
G02*
X167442908Y-47447112I601041J601041D01*
G01*
G37*
G36*
G01*
X167442908Y-43855010D02*
X167442908Y-43855010D01*
G75*
G02*
X168644990Y-43855010I601041J-601041D01*
G01*
X168644990Y-43855010D01*
G75*
G02*
X168644990Y-45057092I-601041J-601041D01*
G01*
X168644990Y-45057092D01*
G75*
G02*
X167442908Y-45057092I-601041J601041D01*
G01*
X167442908Y-45057092D01*
G75*
G02*
X167442908Y-43855010I601041J601041D01*
G01*
G37*
G36*
G01*
X169238959Y-45651061D02*
X169238959Y-45651061D01*
G75*
G02*
X170441041Y-45651061I601041J-601041D01*
G01*
X170441041Y-45651061D01*
G75*
G02*
X170441041Y-46853143I-601041J-601041D01*
G01*
X170441041Y-46853143D01*
G75*
G02*
X169238959Y-46853143I-601041J601041D01*
G01*
X169238959Y-46853143D01*
G75*
G02*
X169238959Y-45651061I601041J601041D01*
G01*
G37*
G36*
G01*
X169238959Y-42058959D02*
X169238959Y-42058959D01*
G75*
G02*
X170441041Y-42058959I601041J-601041D01*
G01*
X170441041Y-42058959D01*
G75*
G02*
X170441041Y-43261041I-601041J-601041D01*
G01*
X170441041Y-43261041D01*
G75*
G02*
X169238959Y-43261041I-601041J601041D01*
G01*
X169238959Y-43261041D01*
G75*
G02*
X169238959Y-42058959I601041J601041D01*
G01*
G37*
G36*
X170433969Y-44456051D02*
G01*
X171636051Y-43253969D01*
X172838133Y-44456051D01*
X171636051Y-45658133D01*
X170433969Y-44456051D01*
G37*
%TD*%
%TO.C,JSA+1*%
G36*
G01*
X162054754Y-73743164D02*
X162054754Y-73743164D01*
G75*
G02*
X163256836Y-73743164I601041J-601041D01*
G01*
X163256836Y-73743164D01*
G75*
G02*
X163256836Y-74945246I-601041J-601041D01*
G01*
X163256836Y-74945246D01*
G75*
G02*
X162054754Y-74945246I-601041J601041D01*
G01*
X162054754Y-74945246D01*
G75*
G02*
X162054754Y-73743164I601041J601041D01*
G01*
G37*
G36*
G01*
X163850805Y-75539215D02*
X163850805Y-75539215D01*
G75*
G02*
X165052887Y-75539215I601041J-601041D01*
G01*
X165052887Y-75539215D01*
G75*
G02*
X165052887Y-76741297I-601041J-601041D01*
G01*
X165052887Y-76741297D01*
G75*
G02*
X163850805Y-76741297I-601041J601041D01*
G01*
X163850805Y-76741297D01*
G75*
G02*
X163850805Y-75539215I601041J601041D01*
G01*
G37*
G36*
G01*
X163850805Y-71947112D02*
X163850805Y-71947112D01*
G75*
G02*
X165052887Y-71947112I601041J-601041D01*
G01*
X165052887Y-71947112D01*
G75*
G02*
X165052887Y-73149194I-601041J-601041D01*
G01*
X165052887Y-73149194D01*
G75*
G02*
X163850805Y-73149194I-601041J601041D01*
G01*
X163850805Y-73149194D01*
G75*
G02*
X163850805Y-71947112I601041J601041D01*
G01*
G37*
G36*
G01*
X165646856Y-73743164D02*
X165646856Y-73743164D01*
G75*
G02*
X166848938Y-73743164I601041J-601041D01*
G01*
X166848938Y-73743164D01*
G75*
G02*
X166848938Y-74945246I-601041J-601041D01*
G01*
X166848938Y-74945246D01*
G75*
G02*
X165646856Y-74945246I-601041J601041D01*
G01*
X165646856Y-74945246D01*
G75*
G02*
X165646856Y-73743164I601041J601041D01*
G01*
G37*
G36*
G01*
X165646856Y-70151061D02*
X165646856Y-70151061D01*
G75*
G02*
X166848938Y-70151061I601041J-601041D01*
G01*
X166848938Y-70151061D01*
G75*
G02*
X166848938Y-71353143I-601041J-601041D01*
G01*
X166848938Y-71353143D01*
G75*
G02*
X165646856Y-71353143I-601041J601041D01*
G01*
X165646856Y-71353143D01*
G75*
G02*
X165646856Y-70151061I601041J601041D01*
G01*
G37*
G36*
G01*
X167442908Y-71947112D02*
X167442908Y-71947112D01*
G75*
G02*
X168644990Y-71947112I601041J-601041D01*
G01*
X168644990Y-71947112D01*
G75*
G02*
X168644990Y-73149194I-601041J-601041D01*
G01*
X168644990Y-73149194D01*
G75*
G02*
X167442908Y-73149194I-601041J601041D01*
G01*
X167442908Y-73149194D01*
G75*
G02*
X167442908Y-71947112I601041J601041D01*
G01*
G37*
G36*
G01*
X167442908Y-68355010D02*
X167442908Y-68355010D01*
G75*
G02*
X168644990Y-68355010I601041J-601041D01*
G01*
X168644990Y-68355010D01*
G75*
G02*
X168644990Y-69557092I-601041J-601041D01*
G01*
X168644990Y-69557092D01*
G75*
G02*
X167442908Y-69557092I-601041J601041D01*
G01*
X167442908Y-69557092D01*
G75*
G02*
X167442908Y-68355010I601041J601041D01*
G01*
G37*
G36*
G01*
X169238959Y-70151061D02*
X169238959Y-70151061D01*
G75*
G02*
X170441041Y-70151061I601041J-601041D01*
G01*
X170441041Y-70151061D01*
G75*
G02*
X170441041Y-71353143I-601041J-601041D01*
G01*
X170441041Y-71353143D01*
G75*
G02*
X169238959Y-71353143I-601041J601041D01*
G01*
X169238959Y-71353143D01*
G75*
G02*
X169238959Y-70151061I601041J601041D01*
G01*
G37*
G36*
G01*
X169238959Y-66558959D02*
X169238959Y-66558959D01*
G75*
G02*
X170441041Y-66558959I601041J-601041D01*
G01*
X170441041Y-66558959D01*
G75*
G02*
X170441041Y-67761041I-601041J-601041D01*
G01*
X170441041Y-67761041D01*
G75*
G02*
X169238959Y-67761041I-601041J601041D01*
G01*
X169238959Y-67761041D01*
G75*
G02*
X169238959Y-66558959I601041J601041D01*
G01*
G37*
G36*
X170433969Y-68956051D02*
G01*
X171636051Y-67753969D01*
X172838133Y-68956051D01*
X171636051Y-70158133D01*
X170433969Y-68956051D01*
G37*
%TD*%
%TO.C,JP-1*%
G36*
G01*
X156972703Y-49897297D02*
X156972703Y-49897297D01*
G75*
G02*
X156972703Y-48942703I477297J477297D01*
G01*
X156972703Y-48942703D01*
G75*
G02*
X157927297Y-48942703I477297J-477297D01*
G01*
X157927297Y-48942703D01*
G75*
G02*
X157927297Y-49897297I-477297J-477297D01*
G01*
X157927297Y-49897297D01*
G75*
G02*
X156972703Y-49897297I-477297J477297D01*
G01*
G37*
G36*
G01*
X155558490Y-48483084D02*
X155558490Y-48483084D01*
G75*
G02*
X155558490Y-47528490I477297J477297D01*
G01*
X155558490Y-47528490D01*
G75*
G02*
X156513084Y-47528490I477297J-477297D01*
G01*
X156513084Y-47528490D01*
G75*
G02*
X156513084Y-48483084I-477297J-477297D01*
G01*
X156513084Y-48483084D01*
G75*
G02*
X155558490Y-48483084I-477297J477297D01*
G01*
G37*
G36*
X154621573Y-47546167D02*
G01*
X153666979Y-46591573D01*
X154621573Y-45636979D01*
X155576167Y-46591573D01*
X154621573Y-47546167D01*
G37*
%TD*%
%TO.C,JP-2*%
G36*
G01*
X160097297Y-51192703D02*
X160097297Y-51192703D01*
G75*
G02*
X160097297Y-52147297I-477297J-477297D01*
G01*
X160097297Y-52147297D01*
G75*
G02*
X159142703Y-52147297I-477297J477297D01*
G01*
X159142703Y-52147297D01*
G75*
G02*
X159142703Y-51192703I477297J477297D01*
G01*
X159142703Y-51192703D01*
G75*
G02*
X160097297Y-51192703I477297J-477297D01*
G01*
G37*
G36*
G01*
X161511510Y-52606916D02*
X161511510Y-52606916D01*
G75*
G02*
X161511510Y-53561510I-477297J-477297D01*
G01*
X161511510Y-53561510D01*
G75*
G02*
X160556916Y-53561510I-477297J477297D01*
G01*
X160556916Y-53561510D01*
G75*
G02*
X160556916Y-52606916I477297J477297D01*
G01*
X160556916Y-52606916D01*
G75*
G02*
X161511510Y-52606916I477297J-477297D01*
G01*
G37*
G36*
X162448427Y-53543833D02*
G01*
X163403021Y-54498427D01*
X162448427Y-55453021D01*
X161493833Y-54498427D01*
X162448427Y-53543833D01*
G37*
%TD*%
%TO.C,JP+2*%
G36*
G01*
X160097297Y-75692703D02*
X160097297Y-75692703D01*
G75*
G02*
X160097297Y-76647297I-477297J-477297D01*
G01*
X160097297Y-76647297D01*
G75*
G02*
X159142703Y-76647297I-477297J477297D01*
G01*
X159142703Y-76647297D01*
G75*
G02*
X159142703Y-75692703I477297J477297D01*
G01*
X159142703Y-75692703D01*
G75*
G02*
X160097297Y-75692703I477297J-477297D01*
G01*
G37*
G36*
G01*
X161511510Y-77106916D02*
X161511510Y-77106916D01*
G75*
G02*
X161511510Y-78061510I-477297J-477297D01*
G01*
X161511510Y-78061510D01*
G75*
G02*
X160556916Y-78061510I-477297J477297D01*
G01*
X160556916Y-78061510D01*
G75*
G02*
X160556916Y-77106916I477297J477297D01*
G01*
X160556916Y-77106916D01*
G75*
G02*
X161511510Y-77106916I477297J-477297D01*
G01*
G37*
G36*
X162448427Y-78043833D02*
G01*
X163403021Y-78998427D01*
X162448427Y-79953021D01*
X161493833Y-78998427D01*
X162448427Y-78043833D01*
G37*
%TD*%
%TO.C,JP+1*%
G36*
G01*
X156972703Y-74397297D02*
X156972703Y-74397297D01*
G75*
G02*
X156972703Y-73442703I477297J477297D01*
G01*
X156972703Y-73442703D01*
G75*
G02*
X157927297Y-73442703I477297J-477297D01*
G01*
X157927297Y-73442703D01*
G75*
G02*
X157927297Y-74397297I-477297J-477297D01*
G01*
X157927297Y-74397297D01*
G75*
G02*
X156972703Y-74397297I-477297J477297D01*
G01*
G37*
G36*
G01*
X155558490Y-72983084D02*
X155558490Y-72983084D01*
G75*
G02*
X155558490Y-72028490I477297J477297D01*
G01*
X155558490Y-72028490D01*
G75*
G02*
X156513084Y-72028490I477297J-477297D01*
G01*
X156513084Y-72028490D01*
G75*
G02*
X156513084Y-72983084I-477297J-477297D01*
G01*
X156513084Y-72983084D01*
G75*
G02*
X155558490Y-72983084I-477297J477297D01*
G01*
G37*
G36*
X154621573Y-72046167D02*
G01*
X153666979Y-71091573D01*
X154621573Y-70136979D01*
X155576167Y-71091573D01*
X154621573Y-72046167D01*
G37*
%TD*%
D14*
%TO.C,J-1*%
X168600000Y-59180000D03*
D13*
X168600000Y-56640000D03*
%TD*%
D14*
%TO.C,J+1*%
X171140000Y-83680000D03*
D13*
X171140000Y-81140000D03*
%TD*%
%TO.C,C-2*%
G36*
G01*
X147557500Y-41657500D02*
X147557500Y-41182500D01*
G75*
G02*
X147795000Y-40945000I237500J0D01*
G01*
X148395000Y-40945000D01*
G75*
G02*
X148632500Y-41182500I0J-237500D01*
G01*
X148632500Y-41657500D01*
G75*
G02*
X148395000Y-41895000I-237500J0D01*
G01*
X147795000Y-41895000D01*
G75*
G02*
X147557500Y-41657500I0J237500D01*
G01*
G37*
G36*
G01*
X145832500Y-41657500D02*
X145832500Y-41182500D01*
G75*
G02*
X146070000Y-40945000I237500J0D01*
G01*
X146670000Y-40945000D01*
G75*
G02*
X146907500Y-41182500I0J-237500D01*
G01*
X146907500Y-41657500D01*
G75*
G02*
X146670000Y-41895000I-237500J0D01*
G01*
X146070000Y-41895000D01*
G75*
G02*
X145832500Y-41657500I0J237500D01*
G01*
G37*
%TD*%
%TO.C,C-1*%
G36*
G01*
X147557500Y-47657500D02*
X147557500Y-47182500D01*
G75*
G02*
X147795000Y-46945000I237500J0D01*
G01*
X148395000Y-46945000D01*
G75*
G02*
X148632500Y-47182500I0J-237500D01*
G01*
X148632500Y-47657500D01*
G75*
G02*
X148395000Y-47895000I-237500J0D01*
G01*
X147795000Y-47895000D01*
G75*
G02*
X147557500Y-47657500I0J237500D01*
G01*
G37*
G36*
G01*
X145832500Y-47657500D02*
X145832500Y-47182500D01*
G75*
G02*
X146070000Y-46945000I237500J0D01*
G01*
X146670000Y-46945000D01*
G75*
G02*
X146907500Y-47182500I0J-237500D01*
G01*
X146907500Y-47657500D01*
G75*
G02*
X146670000Y-47895000I-237500J0D01*
G01*
X146070000Y-47895000D01*
G75*
G02*
X145832500Y-47657500I0J237500D01*
G01*
G37*
%TD*%
D12*
%TO.C,REF\u002A\u002A*%
X187670000Y-60520000D03*
X187670000Y-59720000D03*
X187670000Y-58920000D03*
X187670000Y-58120000D03*
X190070000Y-60520000D03*
X190070000Y-59720000D03*
X190070000Y-58920000D03*
X190070000Y-58120000D03*
%TD*%
%TO.C,REF\u002A\u002A*%
X190070000Y-41320000D03*
X190070000Y-42120000D03*
X190070000Y-42920000D03*
X190070000Y-43720000D03*
X187670000Y-41320000D03*
X187670000Y-42120000D03*
X187670000Y-42920000D03*
X187670000Y-43720000D03*
%TD*%
%TO.C,REF\u002A\u002A*%
X178470000Y-64120000D03*
X177670000Y-64120000D03*
X176870000Y-64120000D03*
X176070000Y-64120000D03*
X178470000Y-61720000D03*
X177670000Y-61720000D03*
X176870000Y-61720000D03*
X176070000Y-61720000D03*
%TD*%
%TO.C,REF\u002A\u002A*%
X140970000Y-64120000D03*
X140170000Y-64120000D03*
X139370000Y-64120000D03*
X138570000Y-64120000D03*
X140970000Y-61720000D03*
X140170000Y-61720000D03*
X139370000Y-61720000D03*
X138570000Y-61720000D03*
%TD*%
%TO.C,REF\u002A\u002A*%
X100970000Y-64120000D03*
X100170000Y-64120000D03*
X99370000Y-64120000D03*
X98570000Y-64120000D03*
X100970000Y-61720000D03*
X100170000Y-61720000D03*
X99370000Y-61720000D03*
X98570000Y-61720000D03*
%TD*%
%TO.C,REF\u002A\u002A*%
X65970000Y-64120000D03*
X65170000Y-64120000D03*
X64370000Y-64120000D03*
X63570000Y-64120000D03*
X65970000Y-61720000D03*
X65170000Y-61720000D03*
X64370000Y-61720000D03*
X63570000Y-61720000D03*
%TD*%
%TO.C,C1*%
G36*
G01*
X236507500Y-94720000D02*
X236032500Y-94720000D01*
G75*
G02*
X235795000Y-94482500I0J237500D01*
G01*
X235795000Y-93882500D01*
G75*
G02*
X236032500Y-93645000I237500J0D01*
G01*
X236507500Y-93645000D01*
G75*
G02*
X236745000Y-93882500I0J-237500D01*
G01*
X236745000Y-94482500D01*
G75*
G02*
X236507500Y-94720000I-237500J0D01*
G01*
G37*
G36*
G01*
X236507500Y-92995000D02*
X236032500Y-92995000D01*
G75*
G02*
X235795000Y-92757500I0J237500D01*
G01*
X235795000Y-92157500D01*
G75*
G02*
X236032500Y-91920000I237500J0D01*
G01*
X236507500Y-91920000D01*
G75*
G02*
X236745000Y-92157500I0J-237500D01*
G01*
X236745000Y-92757500D01*
G75*
G02*
X236507500Y-92995000I-237500J0D01*
G01*
G37*
%TD*%
%TO.C,C2*%
G36*
G01*
X215507500Y-86977500D02*
X215032500Y-86977500D01*
G75*
G02*
X214795000Y-86740000I0J237500D01*
G01*
X214795000Y-86140000D01*
G75*
G02*
X215032500Y-85902500I237500J0D01*
G01*
X215507500Y-85902500D01*
G75*
G02*
X215745000Y-86140000I0J-237500D01*
G01*
X215745000Y-86740000D01*
G75*
G02*
X215507500Y-86977500I-237500J0D01*
G01*
G37*
G36*
G01*
X215507500Y-85252500D02*
X215032500Y-85252500D01*
G75*
G02*
X214795000Y-85015000I0J237500D01*
G01*
X214795000Y-84415000D01*
G75*
G02*
X215032500Y-84177500I237500J0D01*
G01*
X215507500Y-84177500D01*
G75*
G02*
X215745000Y-84415000I0J-237500D01*
G01*
X215745000Y-85015000D01*
G75*
G02*
X215507500Y-85252500I-237500J0D01*
G01*
G37*
%TD*%
%TO.C,C4*%
G36*
G01*
X215507500Y-89062500D02*
X215032500Y-89062500D01*
G75*
G02*
X214795000Y-88825000I0J237500D01*
G01*
X214795000Y-88225000D01*
G75*
G02*
X215032500Y-87987500I237500J0D01*
G01*
X215507500Y-87987500D01*
G75*
G02*
X215745000Y-88225000I0J-237500D01*
G01*
X215745000Y-88825000D01*
G75*
G02*
X215507500Y-89062500I-237500J0D01*
G01*
G37*
G36*
G01*
X215507500Y-90787500D02*
X215032500Y-90787500D01*
G75*
G02*
X214795000Y-90550000I0J237500D01*
G01*
X214795000Y-89950000D01*
G75*
G02*
X215032500Y-89712500I237500J0D01*
G01*
X215507500Y-89712500D01*
G75*
G02*
X215745000Y-89950000I0J-237500D01*
G01*
X215745000Y-90550000D01*
G75*
G02*
X215507500Y-90787500I-237500J0D01*
G01*
G37*
%TD*%
D13*
%TO.C,J2*%
X208920000Y-137240000D03*
D14*
X208920000Y-134700000D03*
X211460000Y-137240000D03*
X211460000Y-134700000D03*
%TD*%
D13*
%TO.C,J3*%
X208920000Y-111840000D03*
D14*
X208920000Y-109300000D03*
X211460000Y-111840000D03*
X211460000Y-109300000D03*
%TD*%
D13*
%TO.C,J4*%
X236860000Y-50880000D03*
D14*
X236860000Y-48340000D03*
X234320000Y-50880000D03*
X234320000Y-48340000D03*
X231780000Y-50880000D03*
X231780000Y-48340000D03*
X229240000Y-50880000D03*
X229240000Y-48340000D03*
X226700000Y-50880000D03*
X226700000Y-48340000D03*
%TD*%
%TO.C,J5*%
X226700000Y-142320000D03*
X226700000Y-139780000D03*
X229240000Y-142320000D03*
X229240000Y-139780000D03*
X231780000Y-142320000D03*
X231780000Y-139780000D03*
X234320000Y-142320000D03*
X234320000Y-139780000D03*
X236860000Y-142320000D03*
D13*
X236860000Y-139780000D03*
%TD*%
D14*
%TO.C,J6*%
X202570000Y-135970000D03*
X202570000Y-133430000D03*
X200030000Y-135970000D03*
X200030000Y-133430000D03*
X197490000Y-135970000D03*
X197490000Y-133430000D03*
X194950000Y-135970000D03*
X194950000Y-133430000D03*
X192410000Y-135970000D03*
D13*
X192410000Y-133430000D03*
%TD*%
%TO.C,J7*%
X192410000Y-44530000D03*
D14*
X192410000Y-41990000D03*
X194950000Y-44530000D03*
X194950000Y-41990000D03*
X197490000Y-44530000D03*
X197490000Y-41990000D03*
X200030000Y-44530000D03*
X200030000Y-41990000D03*
X202570000Y-44530000D03*
X202570000Y-41990000D03*
%TD*%
D10*
%TO.C,JHA1*%
G36*
X213170082Y-46308000D02*
G01*
X211968000Y-47510082D01*
X210765918Y-46308000D01*
X211968000Y-45105918D01*
X213170082Y-46308000D01*
G37*
G36*
G01*
X210772990Y-45112990D02*
X210772990Y-45112990D01*
G75*
G02*
X209570908Y-45112990I-601041J601041D01*
G01*
X209570908Y-45112990D01*
G75*
G02*
X209570908Y-43910908I601041J601041D01*
G01*
X209570908Y-43910908D01*
G75*
G02*
X210772990Y-43910908I601041J-601041D01*
G01*
X210772990Y-43910908D01*
G75*
G02*
X210772990Y-45112990I-601041J-601041D01*
G01*
G37*
G36*
G01*
X210772990Y-48705092D02*
X210772990Y-48705092D01*
G75*
G02*
X209570908Y-48705092I-601041J601041D01*
G01*
X209570908Y-48705092D01*
G75*
G02*
X209570908Y-47503010I601041J601041D01*
G01*
X209570908Y-47503010D01*
G75*
G02*
X210772990Y-47503010I601041J-601041D01*
G01*
X210772990Y-47503010D01*
G75*
G02*
X210772990Y-48705092I-601041J-601041D01*
G01*
G37*
G36*
G01*
X208976939Y-46909041D02*
X208976939Y-46909041D01*
G75*
G02*
X207774857Y-46909041I-601041J601041D01*
G01*
X207774857Y-46909041D01*
G75*
G02*
X207774857Y-45706959I601041J601041D01*
G01*
X207774857Y-45706959D01*
G75*
G02*
X208976939Y-45706959I601041J-601041D01*
G01*
X208976939Y-45706959D01*
G75*
G02*
X208976939Y-46909041I-601041J-601041D01*
G01*
G37*
G36*
G01*
X208976939Y-50501143D02*
X208976939Y-50501143D01*
G75*
G02*
X207774857Y-50501143I-601041J601041D01*
G01*
X207774857Y-50501143D01*
G75*
G02*
X207774857Y-49299061I601041J601041D01*
G01*
X207774857Y-49299061D01*
G75*
G02*
X208976939Y-49299061I601041J-601041D01*
G01*
X208976939Y-49299061D01*
G75*
G02*
X208976939Y-50501143I-601041J-601041D01*
G01*
G37*
G36*
G01*
X207180887Y-48705092D02*
X207180887Y-48705092D01*
G75*
G02*
X205978805Y-48705092I-601041J601041D01*
G01*
X205978805Y-48705092D01*
G75*
G02*
X205978805Y-47503010I601041J601041D01*
G01*
X205978805Y-47503010D01*
G75*
G02*
X207180887Y-47503010I601041J-601041D01*
G01*
X207180887Y-47503010D01*
G75*
G02*
X207180887Y-48705092I-601041J-601041D01*
G01*
G37*
G36*
G01*
X207180887Y-52297195D02*
X207180887Y-52297195D01*
G75*
G02*
X205978805Y-52297195I-601041J601041D01*
G01*
X205978805Y-52297195D01*
G75*
G02*
X205978805Y-51095113I601041J601041D01*
G01*
X205978805Y-51095113D01*
G75*
G02*
X207180887Y-51095113I601041J-601041D01*
G01*
X207180887Y-51095113D01*
G75*
G02*
X207180887Y-52297195I-601041J-601041D01*
G01*
G37*
G36*
G01*
X205384836Y-50501143D02*
X205384836Y-50501143D01*
G75*
G02*
X204182754Y-50501143I-601041J601041D01*
G01*
X204182754Y-50501143D01*
G75*
G02*
X204182754Y-49299061I601041J601041D01*
G01*
X204182754Y-49299061D01*
G75*
G02*
X205384836Y-49299061I601041J-601041D01*
G01*
X205384836Y-49299061D01*
G75*
G02*
X205384836Y-50501143I-601041J-601041D01*
G01*
G37*
G36*
G01*
X205384836Y-54093246D02*
X205384836Y-54093246D01*
G75*
G02*
X204182754Y-54093246I-601041J601041D01*
G01*
X204182754Y-54093246D01*
G75*
G02*
X204182754Y-52891164I601041J601041D01*
G01*
X204182754Y-52891164D01*
G75*
G02*
X205384836Y-52891164I601041J-601041D01*
G01*
X205384836Y-52891164D01*
G75*
G02*
X205384836Y-54093246I-601041J-601041D01*
G01*
G37*
G36*
G01*
X203588785Y-52297195D02*
X203588785Y-52297195D01*
G75*
G02*
X202386703Y-52297195I-601041J601041D01*
G01*
X202386703Y-52297195D01*
G75*
G02*
X202386703Y-51095113I601041J601041D01*
G01*
X202386703Y-51095113D01*
G75*
G02*
X203588785Y-51095113I601041J-601041D01*
G01*
X203588785Y-51095113D01*
G75*
G02*
X203588785Y-52297195I-601041J-601041D01*
G01*
G37*
%TD*%
%TO.C,JHA2*%
G36*
X213170082Y-71708000D02*
G01*
X211968000Y-72910082D01*
X210765918Y-71708000D01*
X211968000Y-70505918D01*
X213170082Y-71708000D01*
G37*
G36*
G01*
X210772990Y-70512990D02*
X210772990Y-70512990D01*
G75*
G02*
X209570908Y-70512990I-601041J601041D01*
G01*
X209570908Y-70512990D01*
G75*
G02*
X209570908Y-69310908I601041J601041D01*
G01*
X209570908Y-69310908D01*
G75*
G02*
X210772990Y-69310908I601041J-601041D01*
G01*
X210772990Y-69310908D01*
G75*
G02*
X210772990Y-70512990I-601041J-601041D01*
G01*
G37*
G36*
G01*
X210772990Y-74105092D02*
X210772990Y-74105092D01*
G75*
G02*
X209570908Y-74105092I-601041J601041D01*
G01*
X209570908Y-74105092D01*
G75*
G02*
X209570908Y-72903010I601041J601041D01*
G01*
X209570908Y-72903010D01*
G75*
G02*
X210772990Y-72903010I601041J-601041D01*
G01*
X210772990Y-72903010D01*
G75*
G02*
X210772990Y-74105092I-601041J-601041D01*
G01*
G37*
G36*
G01*
X208976939Y-72309041D02*
X208976939Y-72309041D01*
G75*
G02*
X207774857Y-72309041I-601041J601041D01*
G01*
X207774857Y-72309041D01*
G75*
G02*
X207774857Y-71106959I601041J601041D01*
G01*
X207774857Y-71106959D01*
G75*
G02*
X208976939Y-71106959I601041J-601041D01*
G01*
X208976939Y-71106959D01*
G75*
G02*
X208976939Y-72309041I-601041J-601041D01*
G01*
G37*
G36*
G01*
X208976939Y-75901143D02*
X208976939Y-75901143D01*
G75*
G02*
X207774857Y-75901143I-601041J601041D01*
G01*
X207774857Y-75901143D01*
G75*
G02*
X207774857Y-74699061I601041J601041D01*
G01*
X207774857Y-74699061D01*
G75*
G02*
X208976939Y-74699061I601041J-601041D01*
G01*
X208976939Y-74699061D01*
G75*
G02*
X208976939Y-75901143I-601041J-601041D01*
G01*
G37*
G36*
G01*
X207180887Y-74105092D02*
X207180887Y-74105092D01*
G75*
G02*
X205978805Y-74105092I-601041J601041D01*
G01*
X205978805Y-74105092D01*
G75*
G02*
X205978805Y-72903010I601041J601041D01*
G01*
X205978805Y-72903010D01*
G75*
G02*
X207180887Y-72903010I601041J-601041D01*
G01*
X207180887Y-72903010D01*
G75*
G02*
X207180887Y-74105092I-601041J-601041D01*
G01*
G37*
G36*
G01*
X207180887Y-77697195D02*
X207180887Y-77697195D01*
G75*
G02*
X205978805Y-77697195I-601041J601041D01*
G01*
X205978805Y-77697195D01*
G75*
G02*
X205978805Y-76495113I601041J601041D01*
G01*
X205978805Y-76495113D01*
G75*
G02*
X207180887Y-76495113I601041J-601041D01*
G01*
X207180887Y-76495113D01*
G75*
G02*
X207180887Y-77697195I-601041J-601041D01*
G01*
G37*
G36*
G01*
X205384836Y-75901143D02*
X205384836Y-75901143D01*
G75*
G02*
X204182754Y-75901143I-601041J601041D01*
G01*
X204182754Y-75901143D01*
G75*
G02*
X204182754Y-74699061I601041J601041D01*
G01*
X204182754Y-74699061D01*
G75*
G02*
X205384836Y-74699061I601041J-601041D01*
G01*
X205384836Y-74699061D01*
G75*
G02*
X205384836Y-75901143I-601041J-601041D01*
G01*
G37*
G36*
G01*
X205384836Y-79493246D02*
X205384836Y-79493246D01*
G75*
G02*
X204182754Y-79493246I-601041J601041D01*
G01*
X204182754Y-79493246D01*
G75*
G02*
X204182754Y-78291164I601041J601041D01*
G01*
X204182754Y-78291164D01*
G75*
G02*
X205384836Y-78291164I601041J-601041D01*
G01*
X205384836Y-78291164D01*
G75*
G02*
X205384836Y-79493246I-601041J-601041D01*
G01*
G37*
G36*
G01*
X203588785Y-77697195D02*
X203588785Y-77697195D01*
G75*
G02*
X202386703Y-77697195I-601041J601041D01*
G01*
X202386703Y-77697195D01*
G75*
G02*
X202386703Y-76495113I601041J601041D01*
G01*
X202386703Y-76495113D01*
G75*
G02*
X203588785Y-76495113I601041J-601041D01*
G01*
X203588785Y-76495113D01*
G75*
G02*
X203588785Y-77697195I-601041J-601041D01*
G01*
G37*
%TD*%
%TO.C,JHA3*%
G36*
G01*
X203588785Y-103097195D02*
X203588785Y-103097195D01*
G75*
G02*
X202386703Y-103097195I-601041J601041D01*
G01*
X202386703Y-103097195D01*
G75*
G02*
X202386703Y-101895113I601041J601041D01*
G01*
X202386703Y-101895113D01*
G75*
G02*
X203588785Y-101895113I601041J-601041D01*
G01*
X203588785Y-101895113D01*
G75*
G02*
X203588785Y-103097195I-601041J-601041D01*
G01*
G37*
G36*
G01*
X205384836Y-104893246D02*
X205384836Y-104893246D01*
G75*
G02*
X204182754Y-104893246I-601041J601041D01*
G01*
X204182754Y-104893246D01*
G75*
G02*
X204182754Y-103691164I601041J601041D01*
G01*
X204182754Y-103691164D01*
G75*
G02*
X205384836Y-103691164I601041J-601041D01*
G01*
X205384836Y-103691164D01*
G75*
G02*
X205384836Y-104893246I-601041J-601041D01*
G01*
G37*
G36*
G01*
X205384836Y-101301143D02*
X205384836Y-101301143D01*
G75*
G02*
X204182754Y-101301143I-601041J601041D01*
G01*
X204182754Y-101301143D01*
G75*
G02*
X204182754Y-100099061I601041J601041D01*
G01*
X204182754Y-100099061D01*
G75*
G02*
X205384836Y-100099061I601041J-601041D01*
G01*
X205384836Y-100099061D01*
G75*
G02*
X205384836Y-101301143I-601041J-601041D01*
G01*
G37*
G36*
G01*
X207180887Y-103097195D02*
X207180887Y-103097195D01*
G75*
G02*
X205978805Y-103097195I-601041J601041D01*
G01*
X205978805Y-103097195D01*
G75*
G02*
X205978805Y-101895113I601041J601041D01*
G01*
X205978805Y-101895113D01*
G75*
G02*
X207180887Y-101895113I601041J-601041D01*
G01*
X207180887Y-101895113D01*
G75*
G02*
X207180887Y-103097195I-601041J-601041D01*
G01*
G37*
G36*
G01*
X207180887Y-99505092D02*
X207180887Y-99505092D01*
G75*
G02*
X205978805Y-99505092I-601041J601041D01*
G01*
X205978805Y-99505092D01*
G75*
G02*
X205978805Y-98303010I601041J601041D01*
G01*
X205978805Y-98303010D01*
G75*
G02*
X207180887Y-98303010I601041J-601041D01*
G01*
X207180887Y-98303010D01*
G75*
G02*
X207180887Y-99505092I-601041J-601041D01*
G01*
G37*
G36*
G01*
X208976939Y-101301143D02*
X208976939Y-101301143D01*
G75*
G02*
X207774857Y-101301143I-601041J601041D01*
G01*
X207774857Y-101301143D01*
G75*
G02*
X207774857Y-100099061I601041J601041D01*
G01*
X207774857Y-100099061D01*
G75*
G02*
X208976939Y-100099061I601041J-601041D01*
G01*
X208976939Y-100099061D01*
G75*
G02*
X208976939Y-101301143I-601041J-601041D01*
G01*
G37*
G36*
G01*
X208976939Y-97709041D02*
X208976939Y-97709041D01*
G75*
G02*
X207774857Y-97709041I-601041J601041D01*
G01*
X207774857Y-97709041D01*
G75*
G02*
X207774857Y-96506959I601041J601041D01*
G01*
X207774857Y-96506959D01*
G75*
G02*
X208976939Y-96506959I601041J-601041D01*
G01*
X208976939Y-96506959D01*
G75*
G02*
X208976939Y-97709041I-601041J-601041D01*
G01*
G37*
G36*
G01*
X210772990Y-99505092D02*
X210772990Y-99505092D01*
G75*
G02*
X209570908Y-99505092I-601041J601041D01*
G01*
X209570908Y-99505092D01*
G75*
G02*
X209570908Y-98303010I601041J601041D01*
G01*
X209570908Y-98303010D01*
G75*
G02*
X210772990Y-98303010I601041J-601041D01*
G01*
X210772990Y-98303010D01*
G75*
G02*
X210772990Y-99505092I-601041J-601041D01*
G01*
G37*
G36*
G01*
X210772990Y-95912990D02*
X210772990Y-95912990D01*
G75*
G02*
X209570908Y-95912990I-601041J601041D01*
G01*
X209570908Y-95912990D01*
G75*
G02*
X209570908Y-94710908I601041J601041D01*
G01*
X209570908Y-94710908D01*
G75*
G02*
X210772990Y-94710908I601041J-601041D01*
G01*
X210772990Y-94710908D01*
G75*
G02*
X210772990Y-95912990I-601041J-601041D01*
G01*
G37*
G36*
X213170082Y-97108000D02*
G01*
X211968000Y-98310082D01*
X210765918Y-97108000D01*
X211968000Y-95905918D01*
X213170082Y-97108000D01*
G37*
%TD*%
%TO.C,JHA4*%
G36*
G01*
X203588785Y-128497195D02*
X203588785Y-128497195D01*
G75*
G02*
X202386703Y-128497195I-601041J601041D01*
G01*
X202386703Y-128497195D01*
G75*
G02*
X202386703Y-127295113I601041J601041D01*
G01*
X202386703Y-127295113D01*
G75*
G02*
X203588785Y-127295113I601041J-601041D01*
G01*
X203588785Y-127295113D01*
G75*
G02*
X203588785Y-128497195I-601041J-601041D01*
G01*
G37*
G36*
G01*
X205384836Y-130293246D02*
X205384836Y-130293246D01*
G75*
G02*
X204182754Y-130293246I-601041J601041D01*
G01*
X204182754Y-130293246D01*
G75*
G02*
X204182754Y-129091164I601041J601041D01*
G01*
X204182754Y-129091164D01*
G75*
G02*
X205384836Y-129091164I601041J-601041D01*
G01*
X205384836Y-129091164D01*
G75*
G02*
X205384836Y-130293246I-601041J-601041D01*
G01*
G37*
G36*
G01*
X205384836Y-126701143D02*
X205384836Y-126701143D01*
G75*
G02*
X204182754Y-126701143I-601041J601041D01*
G01*
X204182754Y-126701143D01*
G75*
G02*
X204182754Y-125499061I601041J601041D01*
G01*
X204182754Y-125499061D01*
G75*
G02*
X205384836Y-125499061I601041J-601041D01*
G01*
X205384836Y-125499061D01*
G75*
G02*
X205384836Y-126701143I-601041J-601041D01*
G01*
G37*
G36*
G01*
X207180887Y-128497195D02*
X207180887Y-128497195D01*
G75*
G02*
X205978805Y-128497195I-601041J601041D01*
G01*
X205978805Y-128497195D01*
G75*
G02*
X205978805Y-127295113I601041J601041D01*
G01*
X205978805Y-127295113D01*
G75*
G02*
X207180887Y-127295113I601041J-601041D01*
G01*
X207180887Y-127295113D01*
G75*
G02*
X207180887Y-128497195I-601041J-601041D01*
G01*
G37*
G36*
G01*
X207180887Y-124905092D02*
X207180887Y-124905092D01*
G75*
G02*
X205978805Y-124905092I-601041J601041D01*
G01*
X205978805Y-124905092D01*
G75*
G02*
X205978805Y-123703010I601041J601041D01*
G01*
X205978805Y-123703010D01*
G75*
G02*
X207180887Y-123703010I601041J-601041D01*
G01*
X207180887Y-123703010D01*
G75*
G02*
X207180887Y-124905092I-601041J-601041D01*
G01*
G37*
G36*
G01*
X208976939Y-126701143D02*
X208976939Y-126701143D01*
G75*
G02*
X207774857Y-126701143I-601041J601041D01*
G01*
X207774857Y-126701143D01*
G75*
G02*
X207774857Y-125499061I601041J601041D01*
G01*
X207774857Y-125499061D01*
G75*
G02*
X208976939Y-125499061I601041J-601041D01*
G01*
X208976939Y-125499061D01*
G75*
G02*
X208976939Y-126701143I-601041J-601041D01*
G01*
G37*
G36*
G01*
X208976939Y-123109041D02*
X208976939Y-123109041D01*
G75*
G02*
X207774857Y-123109041I-601041J601041D01*
G01*
X207774857Y-123109041D01*
G75*
G02*
X207774857Y-121906959I601041J601041D01*
G01*
X207774857Y-121906959D01*
G75*
G02*
X208976939Y-121906959I601041J-601041D01*
G01*
X208976939Y-121906959D01*
G75*
G02*
X208976939Y-123109041I-601041J-601041D01*
G01*
G37*
G36*
G01*
X210772990Y-124905092D02*
X210772990Y-124905092D01*
G75*
G02*
X209570908Y-124905092I-601041J601041D01*
G01*
X209570908Y-124905092D01*
G75*
G02*
X209570908Y-123703010I601041J601041D01*
G01*
X209570908Y-123703010D01*
G75*
G02*
X210772990Y-123703010I601041J-601041D01*
G01*
X210772990Y-123703010D01*
G75*
G02*
X210772990Y-124905092I-601041J-601041D01*
G01*
G37*
G36*
G01*
X210772990Y-121312990D02*
X210772990Y-121312990D01*
G75*
G02*
X209570908Y-121312990I-601041J601041D01*
G01*
X209570908Y-121312990D01*
G75*
G02*
X209570908Y-120110908I601041J601041D01*
G01*
X209570908Y-120110908D01*
G75*
G02*
X210772990Y-120110908I601041J-601041D01*
G01*
X210772990Y-120110908D01*
G75*
G02*
X210772990Y-121312990I-601041J-601041D01*
G01*
G37*
G36*
X213170082Y-122508000D02*
G01*
X211968000Y-123710082D01*
X210765918Y-122508000D01*
X211968000Y-121305918D01*
X213170082Y-122508000D01*
G37*
%TD*%
%TO.C,JHB1*%
G36*
G01*
X224307195Y-58751215D02*
X224307195Y-58751215D01*
G75*
G02*
X224307195Y-59953297I-601041J-601041D01*
G01*
X224307195Y-59953297D01*
G75*
G02*
X223105113Y-59953297I-601041J601041D01*
G01*
X223105113Y-59953297D01*
G75*
G02*
X223105113Y-58751215I601041J601041D01*
G01*
X223105113Y-58751215D01*
G75*
G02*
X224307195Y-58751215I601041J-601041D01*
G01*
G37*
G36*
G01*
X226103246Y-56955164D02*
X226103246Y-56955164D01*
G75*
G02*
X226103246Y-58157246I-601041J-601041D01*
G01*
X226103246Y-58157246D01*
G75*
G02*
X224901164Y-58157246I-601041J601041D01*
G01*
X224901164Y-58157246D01*
G75*
G02*
X224901164Y-56955164I601041J601041D01*
G01*
X224901164Y-56955164D01*
G75*
G02*
X226103246Y-56955164I601041J-601041D01*
G01*
G37*
G36*
G01*
X222511143Y-56955164D02*
X222511143Y-56955164D01*
G75*
G02*
X222511143Y-58157246I-601041J-601041D01*
G01*
X222511143Y-58157246D01*
G75*
G02*
X221309061Y-58157246I-601041J601041D01*
G01*
X221309061Y-58157246D01*
G75*
G02*
X221309061Y-56955164I601041J601041D01*
G01*
X221309061Y-56955164D01*
G75*
G02*
X222511143Y-56955164I601041J-601041D01*
G01*
G37*
G36*
G01*
X224307195Y-55159113D02*
X224307195Y-55159113D01*
G75*
G02*
X224307195Y-56361195I-601041J-601041D01*
G01*
X224307195Y-56361195D01*
G75*
G02*
X223105113Y-56361195I-601041J601041D01*
G01*
X223105113Y-56361195D01*
G75*
G02*
X223105113Y-55159113I601041J601041D01*
G01*
X223105113Y-55159113D01*
G75*
G02*
X224307195Y-55159113I601041J-601041D01*
G01*
G37*
G36*
G01*
X220715092Y-55159113D02*
X220715092Y-55159113D01*
G75*
G02*
X220715092Y-56361195I-601041J-601041D01*
G01*
X220715092Y-56361195D01*
G75*
G02*
X219513010Y-56361195I-601041J601041D01*
G01*
X219513010Y-56361195D01*
G75*
G02*
X219513010Y-55159113I601041J601041D01*
G01*
X219513010Y-55159113D01*
G75*
G02*
X220715092Y-55159113I601041J-601041D01*
G01*
G37*
G36*
G01*
X222511143Y-53363061D02*
X222511143Y-53363061D01*
G75*
G02*
X222511143Y-54565143I-601041J-601041D01*
G01*
X222511143Y-54565143D01*
G75*
G02*
X221309061Y-54565143I-601041J601041D01*
G01*
X221309061Y-54565143D01*
G75*
G02*
X221309061Y-53363061I601041J601041D01*
G01*
X221309061Y-53363061D01*
G75*
G02*
X222511143Y-53363061I601041J-601041D01*
G01*
G37*
G36*
G01*
X218919041Y-53363061D02*
X218919041Y-53363061D01*
G75*
G02*
X218919041Y-54565143I-601041J-601041D01*
G01*
X218919041Y-54565143D01*
G75*
G02*
X217716959Y-54565143I-601041J601041D01*
G01*
X217716959Y-54565143D01*
G75*
G02*
X217716959Y-53363061I601041J601041D01*
G01*
X217716959Y-53363061D01*
G75*
G02*
X218919041Y-53363061I601041J-601041D01*
G01*
G37*
G36*
G01*
X220715092Y-51567010D02*
X220715092Y-51567010D01*
G75*
G02*
X220715092Y-52769092I-601041J-601041D01*
G01*
X220715092Y-52769092D01*
G75*
G02*
X219513010Y-52769092I-601041J601041D01*
G01*
X219513010Y-52769092D01*
G75*
G02*
X219513010Y-51567010I601041J601041D01*
G01*
X219513010Y-51567010D01*
G75*
G02*
X220715092Y-51567010I601041J-601041D01*
G01*
G37*
G36*
G01*
X217122990Y-51567010D02*
X217122990Y-51567010D01*
G75*
G02*
X217122990Y-52769092I-601041J-601041D01*
G01*
X217122990Y-52769092D01*
G75*
G02*
X215920908Y-52769092I-601041J601041D01*
G01*
X215920908Y-52769092D01*
G75*
G02*
X215920908Y-51567010I601041J601041D01*
G01*
X215920908Y-51567010D01*
G75*
G02*
X217122990Y-51567010I601041J-601041D01*
G01*
G37*
G36*
X218318000Y-49169918D02*
G01*
X219520082Y-50372000D01*
X218318000Y-51574082D01*
X217115918Y-50372000D01*
X218318000Y-49169918D01*
G37*
%TD*%
%TO.C,JHB2*%
G36*
G01*
X224307195Y-84151215D02*
X224307195Y-84151215D01*
G75*
G02*
X224307195Y-85353297I-601041J-601041D01*
G01*
X224307195Y-85353297D01*
G75*
G02*
X223105113Y-85353297I-601041J601041D01*
G01*
X223105113Y-85353297D01*
G75*
G02*
X223105113Y-84151215I601041J601041D01*
G01*
X223105113Y-84151215D01*
G75*
G02*
X224307195Y-84151215I601041J-601041D01*
G01*
G37*
G36*
G01*
X226103246Y-82355164D02*
X226103246Y-82355164D01*
G75*
G02*
X226103246Y-83557246I-601041J-601041D01*
G01*
X226103246Y-83557246D01*
G75*
G02*
X224901164Y-83557246I-601041J601041D01*
G01*
X224901164Y-83557246D01*
G75*
G02*
X224901164Y-82355164I601041J601041D01*
G01*
X224901164Y-82355164D01*
G75*
G02*
X226103246Y-82355164I601041J-601041D01*
G01*
G37*
G36*
G01*
X222511143Y-82355164D02*
X222511143Y-82355164D01*
G75*
G02*
X222511143Y-83557246I-601041J-601041D01*
G01*
X222511143Y-83557246D01*
G75*
G02*
X221309061Y-83557246I-601041J601041D01*
G01*
X221309061Y-83557246D01*
G75*
G02*
X221309061Y-82355164I601041J601041D01*
G01*
X221309061Y-82355164D01*
G75*
G02*
X222511143Y-82355164I601041J-601041D01*
G01*
G37*
G36*
G01*
X224307195Y-80559113D02*
X224307195Y-80559113D01*
G75*
G02*
X224307195Y-81761195I-601041J-601041D01*
G01*
X224307195Y-81761195D01*
G75*
G02*
X223105113Y-81761195I-601041J601041D01*
G01*
X223105113Y-81761195D01*
G75*
G02*
X223105113Y-80559113I601041J601041D01*
G01*
X223105113Y-80559113D01*
G75*
G02*
X224307195Y-80559113I601041J-601041D01*
G01*
G37*
G36*
G01*
X220715092Y-80559113D02*
X220715092Y-80559113D01*
G75*
G02*
X220715092Y-81761195I-601041J-601041D01*
G01*
X220715092Y-81761195D01*
G75*
G02*
X219513010Y-81761195I-601041J601041D01*
G01*
X219513010Y-81761195D01*
G75*
G02*
X219513010Y-80559113I601041J601041D01*
G01*
X219513010Y-80559113D01*
G75*
G02*
X220715092Y-80559113I601041J-601041D01*
G01*
G37*
G36*
G01*
X222511143Y-78763061D02*
X222511143Y-78763061D01*
G75*
G02*
X222511143Y-79965143I-601041J-601041D01*
G01*
X222511143Y-79965143D01*
G75*
G02*
X221309061Y-79965143I-601041J601041D01*
G01*
X221309061Y-79965143D01*
G75*
G02*
X221309061Y-78763061I601041J601041D01*
G01*
X221309061Y-78763061D01*
G75*
G02*
X222511143Y-78763061I601041J-601041D01*
G01*
G37*
G36*
G01*
X218919041Y-78763061D02*
X218919041Y-78763061D01*
G75*
G02*
X218919041Y-79965143I-601041J-601041D01*
G01*
X218919041Y-79965143D01*
G75*
G02*
X217716959Y-79965143I-601041J601041D01*
G01*
X217716959Y-79965143D01*
G75*
G02*
X217716959Y-78763061I601041J601041D01*
G01*
X217716959Y-78763061D01*
G75*
G02*
X218919041Y-78763061I601041J-601041D01*
G01*
G37*
G36*
G01*
X220715092Y-76967010D02*
X220715092Y-76967010D01*
G75*
G02*
X220715092Y-78169092I-601041J-601041D01*
G01*
X220715092Y-78169092D01*
G75*
G02*
X219513010Y-78169092I-601041J601041D01*
G01*
X219513010Y-78169092D01*
G75*
G02*
X219513010Y-76967010I601041J601041D01*
G01*
X219513010Y-76967010D01*
G75*
G02*
X220715092Y-76967010I601041J-601041D01*
G01*
G37*
G36*
G01*
X217122990Y-76967010D02*
X217122990Y-76967010D01*
G75*
G02*
X217122990Y-78169092I-601041J-601041D01*
G01*
X217122990Y-78169092D01*
G75*
G02*
X215920908Y-78169092I-601041J601041D01*
G01*
X215920908Y-78169092D01*
G75*
G02*
X215920908Y-76967010I601041J601041D01*
G01*
X215920908Y-76967010D01*
G75*
G02*
X217122990Y-76967010I601041J-601041D01*
G01*
G37*
G36*
X218318000Y-74569918D02*
G01*
X219520082Y-75772000D01*
X218318000Y-76974082D01*
X217115918Y-75772000D01*
X218318000Y-74569918D01*
G37*
%TD*%
%TO.C,JHB3*%
G36*
G01*
X224307195Y-109551215D02*
X224307195Y-109551215D01*
G75*
G02*
X224307195Y-110753297I-601041J-601041D01*
G01*
X224307195Y-110753297D01*
G75*
G02*
X223105113Y-110753297I-601041J601041D01*
G01*
X223105113Y-110753297D01*
G75*
G02*
X223105113Y-109551215I601041J601041D01*
G01*
X223105113Y-109551215D01*
G75*
G02*
X224307195Y-109551215I601041J-601041D01*
G01*
G37*
G36*
G01*
X226103246Y-107755164D02*
X226103246Y-107755164D01*
G75*
G02*
X226103246Y-108957246I-601041J-601041D01*
G01*
X226103246Y-108957246D01*
G75*
G02*
X224901164Y-108957246I-601041J601041D01*
G01*
X224901164Y-108957246D01*
G75*
G02*
X224901164Y-107755164I601041J601041D01*
G01*
X224901164Y-107755164D01*
G75*
G02*
X226103246Y-107755164I601041J-601041D01*
G01*
G37*
G36*
G01*
X222511143Y-107755164D02*
X222511143Y-107755164D01*
G75*
G02*
X222511143Y-108957246I-601041J-601041D01*
G01*
X222511143Y-108957246D01*
G75*
G02*
X221309061Y-108957246I-601041J601041D01*
G01*
X221309061Y-108957246D01*
G75*
G02*
X221309061Y-107755164I601041J601041D01*
G01*
X221309061Y-107755164D01*
G75*
G02*
X222511143Y-107755164I601041J-601041D01*
G01*
G37*
G36*
G01*
X224307195Y-105959113D02*
X224307195Y-105959113D01*
G75*
G02*
X224307195Y-107161195I-601041J-601041D01*
G01*
X224307195Y-107161195D01*
G75*
G02*
X223105113Y-107161195I-601041J601041D01*
G01*
X223105113Y-107161195D01*
G75*
G02*
X223105113Y-105959113I601041J601041D01*
G01*
X223105113Y-105959113D01*
G75*
G02*
X224307195Y-105959113I601041J-601041D01*
G01*
G37*
G36*
G01*
X220715092Y-105959113D02*
X220715092Y-105959113D01*
G75*
G02*
X220715092Y-107161195I-601041J-601041D01*
G01*
X220715092Y-107161195D01*
G75*
G02*
X219513010Y-107161195I-601041J601041D01*
G01*
X219513010Y-107161195D01*
G75*
G02*
X219513010Y-105959113I601041J601041D01*
G01*
X219513010Y-105959113D01*
G75*
G02*
X220715092Y-105959113I601041J-601041D01*
G01*
G37*
G36*
G01*
X222511143Y-104163061D02*
X222511143Y-104163061D01*
G75*
G02*
X222511143Y-105365143I-601041J-601041D01*
G01*
X222511143Y-105365143D01*
G75*
G02*
X221309061Y-105365143I-601041J601041D01*
G01*
X221309061Y-105365143D01*
G75*
G02*
X221309061Y-104163061I601041J601041D01*
G01*
X221309061Y-104163061D01*
G75*
G02*
X222511143Y-104163061I601041J-601041D01*
G01*
G37*
G36*
G01*
X218919041Y-104163061D02*
X218919041Y-104163061D01*
G75*
G02*
X218919041Y-105365143I-601041J-601041D01*
G01*
X218919041Y-105365143D01*
G75*
G02*
X217716959Y-105365143I-601041J601041D01*
G01*
X217716959Y-105365143D01*
G75*
G02*
X217716959Y-104163061I601041J601041D01*
G01*
X217716959Y-104163061D01*
G75*
G02*
X218919041Y-104163061I601041J-601041D01*
G01*
G37*
G36*
G01*
X220715092Y-102367010D02*
X220715092Y-102367010D01*
G75*
G02*
X220715092Y-103569092I-601041J-601041D01*
G01*
X220715092Y-103569092D01*
G75*
G02*
X219513010Y-103569092I-601041J601041D01*
G01*
X219513010Y-103569092D01*
G75*
G02*
X219513010Y-102367010I601041J601041D01*
G01*
X219513010Y-102367010D01*
G75*
G02*
X220715092Y-102367010I601041J-601041D01*
G01*
G37*
G36*
G01*
X217122990Y-102367010D02*
X217122990Y-102367010D01*
G75*
G02*
X217122990Y-103569092I-601041J-601041D01*
G01*
X217122990Y-103569092D01*
G75*
G02*
X215920908Y-103569092I-601041J601041D01*
G01*
X215920908Y-103569092D01*
G75*
G02*
X215920908Y-102367010I601041J601041D01*
G01*
X215920908Y-102367010D01*
G75*
G02*
X217122990Y-102367010I601041J-601041D01*
G01*
G37*
G36*
X218318000Y-99969918D02*
G01*
X219520082Y-101172000D01*
X218318000Y-102374082D01*
X217115918Y-101172000D01*
X218318000Y-99969918D01*
G37*
%TD*%
%TO.C,JHB4*%
G36*
G01*
X224307195Y-134951215D02*
X224307195Y-134951215D01*
G75*
G02*
X224307195Y-136153297I-601041J-601041D01*
G01*
X224307195Y-136153297D01*
G75*
G02*
X223105113Y-136153297I-601041J601041D01*
G01*
X223105113Y-136153297D01*
G75*
G02*
X223105113Y-134951215I601041J601041D01*
G01*
X223105113Y-134951215D01*
G75*
G02*
X224307195Y-134951215I601041J-601041D01*
G01*
G37*
G36*
G01*
X226103246Y-133155164D02*
X226103246Y-133155164D01*
G75*
G02*
X226103246Y-134357246I-601041J-601041D01*
G01*
X226103246Y-134357246D01*
G75*
G02*
X224901164Y-134357246I-601041J601041D01*
G01*
X224901164Y-134357246D01*
G75*
G02*
X224901164Y-133155164I601041J601041D01*
G01*
X224901164Y-133155164D01*
G75*
G02*
X226103246Y-133155164I601041J-601041D01*
G01*
G37*
G36*
G01*
X222511143Y-133155164D02*
X222511143Y-133155164D01*
G75*
G02*
X222511143Y-134357246I-601041J-601041D01*
G01*
X222511143Y-134357246D01*
G75*
G02*
X221309061Y-134357246I-601041J601041D01*
G01*
X221309061Y-134357246D01*
G75*
G02*
X221309061Y-133155164I601041J601041D01*
G01*
X221309061Y-133155164D01*
G75*
G02*
X222511143Y-133155164I601041J-601041D01*
G01*
G37*
G36*
G01*
X224307195Y-131359113D02*
X224307195Y-131359113D01*
G75*
G02*
X224307195Y-132561195I-601041J-601041D01*
G01*
X224307195Y-132561195D01*
G75*
G02*
X223105113Y-132561195I-601041J601041D01*
G01*
X223105113Y-132561195D01*
G75*
G02*
X223105113Y-131359113I601041J601041D01*
G01*
X223105113Y-131359113D01*
G75*
G02*
X224307195Y-131359113I601041J-601041D01*
G01*
G37*
G36*
G01*
X220715092Y-131359113D02*
X220715092Y-131359113D01*
G75*
G02*
X220715092Y-132561195I-601041J-601041D01*
G01*
X220715092Y-132561195D01*
G75*
G02*
X219513010Y-132561195I-601041J601041D01*
G01*
X219513010Y-132561195D01*
G75*
G02*
X219513010Y-131359113I601041J601041D01*
G01*
X219513010Y-131359113D01*
G75*
G02*
X220715092Y-131359113I601041J-601041D01*
G01*
G37*
G36*
G01*
X222511143Y-129563061D02*
X222511143Y-129563061D01*
G75*
G02*
X222511143Y-130765143I-601041J-601041D01*
G01*
X222511143Y-130765143D01*
G75*
G02*
X221309061Y-130765143I-601041J601041D01*
G01*
X221309061Y-130765143D01*
G75*
G02*
X221309061Y-129563061I601041J601041D01*
G01*
X221309061Y-129563061D01*
G75*
G02*
X222511143Y-129563061I601041J-601041D01*
G01*
G37*
G36*
G01*
X218919041Y-129563061D02*
X218919041Y-129563061D01*
G75*
G02*
X218919041Y-130765143I-601041J-601041D01*
G01*
X218919041Y-130765143D01*
G75*
G02*
X217716959Y-130765143I-601041J601041D01*
G01*
X217716959Y-130765143D01*
G75*
G02*
X217716959Y-129563061I601041J601041D01*
G01*
X217716959Y-129563061D01*
G75*
G02*
X218919041Y-129563061I601041J-601041D01*
G01*
G37*
G36*
G01*
X220715092Y-127767010D02*
X220715092Y-127767010D01*
G75*
G02*
X220715092Y-128969092I-601041J-601041D01*
G01*
X220715092Y-128969092D01*
G75*
G02*
X219513010Y-128969092I-601041J601041D01*
G01*
X219513010Y-128969092D01*
G75*
G02*
X219513010Y-127767010I601041J601041D01*
G01*
X219513010Y-127767010D01*
G75*
G02*
X220715092Y-127767010I601041J-601041D01*
G01*
G37*
G36*
G01*
X217122990Y-127767010D02*
X217122990Y-127767010D01*
G75*
G02*
X217122990Y-128969092I-601041J-601041D01*
G01*
X217122990Y-128969092D01*
G75*
G02*
X215920908Y-128969092I-601041J601041D01*
G01*
X215920908Y-128969092D01*
G75*
G02*
X215920908Y-127767010I601041J601041D01*
G01*
X215920908Y-127767010D01*
G75*
G02*
X217122990Y-127767010I601041J-601041D01*
G01*
G37*
G36*
X218318000Y-125369918D02*
G01*
X219520082Y-126572000D01*
X218318000Y-127774082D01*
X217115918Y-126572000D01*
X218318000Y-125369918D01*
G37*
%TD*%
D29*
%TO.C,Q1*%
X209920000Y-83580000D03*
X209920000Y-81680000D03*
X207920000Y-82630000D03*
%TD*%
%TO.C,R6*%
G36*
G01*
X205347500Y-85102500D02*
X204872500Y-85102500D01*
G75*
G02*
X204635000Y-84865000I0J237500D01*
G01*
X204635000Y-84365000D01*
G75*
G02*
X204872500Y-84127500I237500J0D01*
G01*
X205347500Y-84127500D01*
G75*
G02*
X205585000Y-84365000I0J-237500D01*
G01*
X205585000Y-84865000D01*
G75*
G02*
X205347500Y-85102500I-237500J0D01*
G01*
G37*
G36*
G01*
X205347500Y-86927500D02*
X204872500Y-86927500D01*
G75*
G02*
X204635000Y-86690000I0J237500D01*
G01*
X204635000Y-86190000D01*
G75*
G02*
X204872500Y-85952500I237500J0D01*
G01*
X205347500Y-85952500D01*
G75*
G02*
X205585000Y-86190000I0J-237500D01*
G01*
X205585000Y-86690000D01*
G75*
G02*
X205347500Y-86927500I-237500J0D01*
G01*
G37*
%TD*%
D30*
%TO.C,SW1*%
X236327500Y-63869500D03*
X231827500Y-63869500D03*
X236327500Y-57369500D03*
X231827500Y-57369500D03*
%TD*%
D31*
%TO.C,U1*%
X229180000Y-93107500D03*
X229180000Y-93742500D03*
X229180000Y-94377500D03*
X229180000Y-95012500D03*
X229180000Y-95647500D03*
X229180000Y-96282500D03*
X229180000Y-96917500D03*
X229180000Y-97552500D03*
X234380000Y-97552500D03*
X234380000Y-96917500D03*
X234380000Y-96282500D03*
X234380000Y-95647500D03*
X234380000Y-95012500D03*
X234380000Y-94377500D03*
X234380000Y-93742500D03*
X234380000Y-93107500D03*
%TD*%
%TO.C,U2*%
G36*
G01*
X206740000Y-85955000D02*
X206740000Y-85655000D01*
G75*
G02*
X206890000Y-85505000I150000J0D01*
G01*
X208540000Y-85505000D01*
G75*
G02*
X208690000Y-85655000I0J-150000D01*
G01*
X208690000Y-85955000D01*
G75*
G02*
X208540000Y-86105000I-150000J0D01*
G01*
X206890000Y-86105000D01*
G75*
G02*
X206740000Y-85955000I0J150000D01*
G01*
G37*
G36*
G01*
X206740000Y-87225000D02*
X206740000Y-86925000D01*
G75*
G02*
X206890000Y-86775000I150000J0D01*
G01*
X208540000Y-86775000D01*
G75*
G02*
X208690000Y-86925000I0J-150000D01*
G01*
X208690000Y-87225000D01*
G75*
G02*
X208540000Y-87375000I-150000J0D01*
G01*
X206890000Y-87375000D01*
G75*
G02*
X206740000Y-87225000I0J150000D01*
G01*
G37*
G36*
G01*
X206740000Y-88495000D02*
X206740000Y-88195000D01*
G75*
G02*
X206890000Y-88045000I150000J0D01*
G01*
X208540000Y-88045000D01*
G75*
G02*
X208690000Y-88195000I0J-150000D01*
G01*
X208690000Y-88495000D01*
G75*
G02*
X208540000Y-88645000I-150000J0D01*
G01*
X206890000Y-88645000D01*
G75*
G02*
X206740000Y-88495000I0J150000D01*
G01*
G37*
G36*
G01*
X206740000Y-89765000D02*
X206740000Y-89465000D01*
G75*
G02*
X206890000Y-89315000I150000J0D01*
G01*
X208540000Y-89315000D01*
G75*
G02*
X208690000Y-89465000I0J-150000D01*
G01*
X208690000Y-89765000D01*
G75*
G02*
X208540000Y-89915000I-150000J0D01*
G01*
X206890000Y-89915000D01*
G75*
G02*
X206740000Y-89765000I0J150000D01*
G01*
G37*
G36*
G01*
X211690000Y-89765000D02*
X211690000Y-89465000D01*
G75*
G02*
X211840000Y-89315000I150000J0D01*
G01*
X213490000Y-89315000D01*
G75*
G02*
X213640000Y-89465000I0J-150000D01*
G01*
X213640000Y-89765000D01*
G75*
G02*
X213490000Y-89915000I-150000J0D01*
G01*
X211840000Y-89915000D01*
G75*
G02*
X211690000Y-89765000I0J150000D01*
G01*
G37*
G36*
G01*
X211690000Y-88495000D02*
X211690000Y-88195000D01*
G75*
G02*
X211840000Y-88045000I150000J0D01*
G01*
X213490000Y-88045000D01*
G75*
G02*
X213640000Y-88195000I0J-150000D01*
G01*
X213640000Y-88495000D01*
G75*
G02*
X213490000Y-88645000I-150000J0D01*
G01*
X211840000Y-88645000D01*
G75*
G02*
X211690000Y-88495000I0J150000D01*
G01*
G37*
G36*
G01*
X211690000Y-87225000D02*
X211690000Y-86925000D01*
G75*
G02*
X211840000Y-86775000I150000J0D01*
G01*
X213490000Y-86775000D01*
G75*
G02*
X213640000Y-86925000I0J-150000D01*
G01*
X213640000Y-87225000D01*
G75*
G02*
X213490000Y-87375000I-150000J0D01*
G01*
X211840000Y-87375000D01*
G75*
G02*
X211690000Y-87225000I0J150000D01*
G01*
G37*
G36*
G01*
X211690000Y-85955000D02*
X211690000Y-85655000D01*
G75*
G02*
X211840000Y-85505000I150000J0D01*
G01*
X213490000Y-85505000D01*
G75*
G02*
X213640000Y-85655000I0J-150000D01*
G01*
X213640000Y-85955000D01*
G75*
G02*
X213490000Y-86105000I-150000J0D01*
G01*
X211840000Y-86105000D01*
G75*
G02*
X211690000Y-85955000I0J150000D01*
G01*
G37*
%TD*%
D32*
%TO.C,PS1*%
X236507500Y-85919500D03*
X236507500Y-88459500D03*
X236507500Y-83379500D03*
D33*
X236507500Y-80839500D03*
%TD*%
M02*
