M48
; DRILL file {KiCad (5.1.10)-1} date 11/13/21 17:44:17
; FORMAT={-:-/ absolute / inch / decimal}
; #@! TF.CreationDate,2021-11-13T17:44:17+00:00
; #@! TF.GenerationSoftware,Kicad,Pcbnew,(5.1.10)-1
; #@! TF.FileFunction,NonPlated,1,2,NPTH
FMAT,2
INCH
T1C0.0197
T2C0.0866
%
G90
G05
T1
X2.5028Y-2.4299
X2.5028Y-2.5244
X2.5028Y-3.3945
X2.5028Y-3.489
X2.5028Y-4.3591
X2.5028Y-4.4535
X2.5343Y-2.4299
X2.5343Y-2.5244
X2.5343Y-3.3945
X2.5343Y-3.489
X2.5343Y-4.3591
X2.5343Y-4.4535
X2.5657Y-2.4299
X2.5657Y-2.5244
X2.5657Y-3.3945
X2.5657Y-3.489
X2.5657Y-4.3591
X2.5657Y-4.4535
X2.5972Y-2.4299
X2.5972Y-2.5244
X2.5972Y-3.3945
X2.5972Y-3.489
X2.5972Y-4.3591
X2.5972Y-4.4535
X3.8807Y-2.4299
X3.8807Y-2.5244
X3.8807Y-3.3945
X3.8807Y-3.489
X3.8807Y-4.3591
X3.8807Y-4.4535
X3.9122Y-2.4299
X3.9122Y-2.5244
X3.9122Y-3.3945
X3.9122Y-3.489
X3.9122Y-4.3591
X3.9122Y-4.4535
X3.9437Y-2.4299
X3.9437Y-2.5244
X3.9437Y-3.3945
X3.9437Y-3.489
X3.9437Y-4.3591
X3.9437Y-4.4535
X3.9752Y-2.4299
X3.9752Y-2.5244
X3.9752Y-3.3945
X3.9752Y-3.489
X3.9752Y-4.3591
X3.9752Y-4.4535
X5.4555Y-2.4299
X5.4555Y-2.5244
X5.4555Y-3.3945
X5.4555Y-3.489
X5.4555Y-4.3591
X5.4555Y-4.4535
X5.487Y-2.4299
X5.487Y-2.5244
X5.487Y-3.3945
X5.487Y-3.489
X5.487Y-4.3591
X5.487Y-4.4535
X5.5185Y-2.4299
X5.5185Y-2.5244
X5.5185Y-3.3945
X5.5185Y-3.489
X5.5185Y-4.3591
X5.5185Y-4.4535
X5.55Y-2.4299
X5.55Y-2.5244
X5.55Y-3.3945
X5.55Y-3.489
X5.55Y-4.3591
X5.55Y-4.4535
X6.9319Y-2.4299
X6.9319Y-2.5244
X6.9319Y-3.3945
X6.9319Y-3.489
X6.9319Y-4.3591
X6.9319Y-4.4535
X6.9634Y-2.4299
X6.9634Y-2.5244
X6.9634Y-3.3945
X6.9634Y-3.489
X6.9634Y-4.3591
X6.9634Y-4.4535
X6.9949Y-2.4299
X6.9949Y-2.5244
X6.9949Y-3.3945
X6.9949Y-3.489
X6.9949Y-4.3591
X6.9949Y-4.4535
X7.0264Y-2.4299
X7.0264Y-2.5244
X7.0264Y-3.3945
X7.0264Y-3.489
X7.0264Y-4.3591
X7.0264Y-4.4535
X7.3886Y-1.6268
X7.3886Y-1.6583
X7.3886Y-1.6898
X7.3886Y-1.7213
X7.3886Y-2.2882
X7.3886Y-2.3197
X7.3886Y-2.3512
X7.3886Y-2.3827
X7.3886Y-2.5913
X7.3886Y-2.6228
X7.3886Y-2.6543
X7.3886Y-2.6858
X7.3886Y-3.2528
X7.3886Y-3.2843
X7.3886Y-3.3157
X7.3886Y-3.3472
X7.3886Y-3.5559
X7.3886Y-3.5874
X7.3886Y-3.6189
X7.3886Y-3.6504
X7.3886Y-4.2173
X7.3886Y-4.2488
X7.3886Y-4.2803
X7.3886Y-4.3118
X7.3886Y-4.5205
X7.3886Y-4.552
X7.3886Y-4.5835
X7.3886Y-4.615
X7.3886Y-5.1819
X7.3886Y-5.2134
X7.3886Y-5.2449
X7.3886Y-5.2764
X7.4831Y-1.6268
X7.4831Y-1.6583
X7.4831Y-1.6898
X7.4831Y-1.7213
X7.4831Y-2.2882
X7.4831Y-2.3197
X7.4831Y-2.3512
X7.4831Y-2.3827
X7.4831Y-2.5913
X7.4831Y-2.6228
X7.4831Y-2.6543
X7.4831Y-2.6858
X7.4831Y-3.2528
X7.4831Y-3.2843
X7.4831Y-3.3157
X7.4831Y-3.3472
X7.4831Y-3.5559
X7.4831Y-3.5874
X7.4831Y-3.6189
X7.4831Y-3.6504
X7.4831Y-4.2173
X7.4831Y-4.2488
X7.4831Y-4.2803
X7.4831Y-4.3118
X7.4831Y-4.5205
X7.4831Y-4.552
X7.4831Y-4.5835
X7.4831Y-4.615
X7.4831Y-5.1819
X7.4831Y-5.2134
X7.4831Y-5.2449
X7.4831Y-5.2764
T2
X2.9083Y-1.7559
X2.9083Y-2.2283
X2.9083Y-2.7205
X2.9083Y-3.1929
X2.9083Y-3.685
X2.9083Y-4.1575
X2.9083Y-4.6496
X2.9083Y-5.122
X7.1799Y-1.7559
X7.1799Y-2.7205
X7.1799Y-3.685
X7.1799Y-4.6496
X8.615Y-2.4016
X8.615Y-5.4035
X8.7528Y-3.7697
T0
M30
