%TF.GenerationSoftware,KiCad,Pcbnew,(5.1.10)-1*%
%TF.CreationDate,2021-11-13T17:44:38+00:00*%
%TF.ProjectId,voltmitten,766f6c74-6d69-4747-9465-6e2e6b696361,01*%
%TF.SameCoordinates,Original*%
%TF.FileFunction,Paste,Top*%
%TF.FilePolarity,Positive*%
%FSLAX46Y46*%
G04 Gerber Fmt 4.6, Leading zero omitted, Abs format (unit mm)*
G04 Created by KiCad (PCBNEW (5.1.10)-1) date 2021-11-13 17:44:38*
%MOMM*%
%LPD*%
G01*
G04 APERTURE LIST*
%ADD10R,0.650000X0.400000*%
%ADD11R,1.701800X0.558800*%
%ADD12R,5.867400X5.461000*%
%ADD13R,9.750000X12.200000*%
%ADD14R,3.500000X1.600000*%
%ADD15R,2.500000X1.430000*%
%ADD16R,1.650000X0.400000*%
%ADD17R,1.500000X2.000000*%
%ADD18R,0.700000X1.825000*%
%ADD19R,2.000000X1.350000*%
%ADD20R,0.900000X0.800000*%
%ADD21R,1.200000X0.400000*%
G04 APERTURE END LIST*
%TO.C,R7*%
G36*
G01*
X231732500Y-110907500D02*
X231732500Y-110432500D01*
G75*
G02*
X231970000Y-110195000I237500J0D01*
G01*
X232470000Y-110195000D01*
G75*
G02*
X232707500Y-110432500I0J-237500D01*
G01*
X232707500Y-110907500D01*
G75*
G02*
X232470000Y-111145000I-237500J0D01*
G01*
X231970000Y-111145000D01*
G75*
G02*
X231732500Y-110907500I0J237500D01*
G01*
G37*
G36*
G01*
X233557500Y-110907500D02*
X233557500Y-110432500D01*
G75*
G02*
X233795000Y-110195000I237500J0D01*
G01*
X234295000Y-110195000D01*
G75*
G02*
X234532500Y-110432500I0J-237500D01*
G01*
X234532500Y-110907500D01*
G75*
G02*
X234295000Y-111145000I-237500J0D01*
G01*
X233795000Y-111145000D01*
G75*
G02*
X233557500Y-110907500I0J237500D01*
G01*
G37*
%TD*%
%TO.C,C-1*%
G36*
G01*
X145832500Y-96657500D02*
X145832500Y-96182500D01*
G75*
G02*
X146070000Y-95945000I237500J0D01*
G01*
X146670000Y-95945000D01*
G75*
G02*
X146907500Y-96182500I0J-237500D01*
G01*
X146907500Y-96657500D01*
G75*
G02*
X146670000Y-96895000I-237500J0D01*
G01*
X146070000Y-96895000D01*
G75*
G02*
X145832500Y-96657500I0J237500D01*
G01*
G37*
G36*
G01*
X147557500Y-96657500D02*
X147557500Y-96182500D01*
G75*
G02*
X147795000Y-95945000I237500J0D01*
G01*
X148395000Y-95945000D01*
G75*
G02*
X148632500Y-96182500I0J-237500D01*
G01*
X148632500Y-96657500D01*
G75*
G02*
X148395000Y-96895000I-237500J0D01*
G01*
X147795000Y-96895000D01*
G75*
G02*
X147557500Y-96657500I0J237500D01*
G01*
G37*
%TD*%
%TO.C,C-2*%
G36*
G01*
X145832500Y-90657500D02*
X145832500Y-90182500D01*
G75*
G02*
X146070000Y-89945000I237500J0D01*
G01*
X146670000Y-89945000D01*
G75*
G02*
X146907500Y-90182500I0J-237500D01*
G01*
X146907500Y-90657500D01*
G75*
G02*
X146670000Y-90895000I-237500J0D01*
G01*
X146070000Y-90895000D01*
G75*
G02*
X145832500Y-90657500I0J237500D01*
G01*
G37*
G36*
G01*
X147557500Y-90657500D02*
X147557500Y-90182500D01*
G75*
G02*
X147795000Y-89945000I237500J0D01*
G01*
X148395000Y-89945000D01*
G75*
G02*
X148632500Y-90182500I0J-237500D01*
G01*
X148632500Y-90657500D01*
G75*
G02*
X148395000Y-90895000I-237500J0D01*
G01*
X147795000Y-90895000D01*
G75*
G02*
X147557500Y-90657500I0J237500D01*
G01*
G37*
%TD*%
%TO.C,R+1*%
G36*
G01*
X154057500Y-114657500D02*
X154057500Y-114182500D01*
G75*
G02*
X154295000Y-113945000I237500J0D01*
G01*
X154795000Y-113945000D01*
G75*
G02*
X155032500Y-114182500I0J-237500D01*
G01*
X155032500Y-114657500D01*
G75*
G02*
X154795000Y-114895000I-237500J0D01*
G01*
X154295000Y-114895000D01*
G75*
G02*
X154057500Y-114657500I0J237500D01*
G01*
G37*
G36*
G01*
X155882500Y-114657500D02*
X155882500Y-114182500D01*
G75*
G02*
X156120000Y-113945000I237500J0D01*
G01*
X156620000Y-113945000D01*
G75*
G02*
X156857500Y-114182500I0J-237500D01*
G01*
X156857500Y-114657500D01*
G75*
G02*
X156620000Y-114895000I-237500J0D01*
G01*
X156120000Y-114895000D01*
G75*
G02*
X155882500Y-114657500I0J237500D01*
G01*
G37*
%TD*%
%TO.C,R+2*%
G36*
G01*
X148932500Y-119182500D02*
X148932500Y-119657500D01*
G75*
G02*
X148695000Y-119895000I-237500J0D01*
G01*
X148195000Y-119895000D01*
G75*
G02*
X147957500Y-119657500I0J237500D01*
G01*
X147957500Y-119182500D01*
G75*
G02*
X148195000Y-118945000I237500J0D01*
G01*
X148695000Y-118945000D01*
G75*
G02*
X148932500Y-119182500I0J-237500D01*
G01*
G37*
G36*
G01*
X147107500Y-119182500D02*
X147107500Y-119657500D01*
G75*
G02*
X146870000Y-119895000I-237500J0D01*
G01*
X146370000Y-119895000D01*
G75*
G02*
X146132500Y-119657500I0J237500D01*
G01*
X146132500Y-119182500D01*
G75*
G02*
X146370000Y-118945000I237500J0D01*
G01*
X146870000Y-118945000D01*
G75*
G02*
X147107500Y-119182500I0J-237500D01*
G01*
G37*
%TD*%
%TO.C,R+A1*%
G36*
G01*
X151132500Y-127432500D02*
X151607500Y-127432500D01*
G75*
G02*
X151845000Y-127670000I0J-237500D01*
G01*
X151845000Y-128170000D01*
G75*
G02*
X151607500Y-128407500I-237500J0D01*
G01*
X151132500Y-128407500D01*
G75*
G02*
X150895000Y-128170000I0J237500D01*
G01*
X150895000Y-127670000D01*
G75*
G02*
X151132500Y-127432500I237500J0D01*
G01*
G37*
G36*
G01*
X151132500Y-129257500D02*
X151607500Y-129257500D01*
G75*
G02*
X151845000Y-129495000I0J-237500D01*
G01*
X151845000Y-129995000D01*
G75*
G02*
X151607500Y-130232500I-237500J0D01*
G01*
X151132500Y-130232500D01*
G75*
G02*
X150895000Y-129995000I0J237500D01*
G01*
X150895000Y-129495000D01*
G75*
G02*
X151132500Y-129257500I237500J0D01*
G01*
G37*
%TD*%
%TO.C,R-2*%
G36*
G01*
X148770000Y-108682500D02*
X148770000Y-109157500D01*
G75*
G02*
X148532500Y-109395000I-237500J0D01*
G01*
X148032500Y-109395000D01*
G75*
G02*
X147795000Y-109157500I0J237500D01*
G01*
X147795000Y-108682500D01*
G75*
G02*
X148032500Y-108445000I237500J0D01*
G01*
X148532500Y-108445000D01*
G75*
G02*
X148770000Y-108682500I0J-237500D01*
G01*
G37*
G36*
G01*
X146945000Y-108682500D02*
X146945000Y-109157500D01*
G75*
G02*
X146707500Y-109395000I-237500J0D01*
G01*
X146207500Y-109395000D01*
G75*
G02*
X145970000Y-109157500I0J237500D01*
G01*
X145970000Y-108682500D01*
G75*
G02*
X146207500Y-108445000I237500J0D01*
G01*
X146707500Y-108445000D01*
G75*
G02*
X146945000Y-108682500I0J-237500D01*
G01*
G37*
%TD*%
D10*
%TO.C,U-2*%
X146420000Y-92770000D03*
X146420000Y-94070000D03*
X146420000Y-93420000D03*
X148320000Y-94070000D03*
X148320000Y-92770000D03*
%TD*%
%TO.C,R-C1*%
G36*
G01*
X151607500Y-105732500D02*
X151132500Y-105732500D01*
G75*
G02*
X150895000Y-105495000I0J237500D01*
G01*
X150895000Y-104995000D01*
G75*
G02*
X151132500Y-104757500I237500J0D01*
G01*
X151607500Y-104757500D01*
G75*
G02*
X151845000Y-104995000I0J-237500D01*
G01*
X151845000Y-105495000D01*
G75*
G02*
X151607500Y-105732500I-237500J0D01*
G01*
G37*
G36*
G01*
X151607500Y-103907500D02*
X151132500Y-103907500D01*
G75*
G02*
X150895000Y-103670000I0J237500D01*
G01*
X150895000Y-103170000D01*
G75*
G02*
X151132500Y-102932500I237500J0D01*
G01*
X151607500Y-102932500D01*
G75*
G02*
X151845000Y-103170000I0J-237500D01*
G01*
X151845000Y-103670000D01*
G75*
G02*
X151607500Y-103907500I-237500J0D01*
G01*
G37*
%TD*%
%TO.C,U-1*%
G36*
G01*
X172867500Y-101370000D02*
X173142500Y-101370000D01*
G75*
G02*
X173280000Y-101507500I0J-137500D01*
G01*
X173280000Y-102832500D01*
G75*
G02*
X173142500Y-102970000I-137500J0D01*
G01*
X172867500Y-102970000D01*
G75*
G02*
X172730000Y-102832500I0J137500D01*
G01*
X172730000Y-101507500D01*
G75*
G02*
X172867500Y-101370000I137500J0D01*
G01*
G37*
G36*
G01*
X171597500Y-101370000D02*
X171872500Y-101370000D01*
G75*
G02*
X172010000Y-101507500I0J-137500D01*
G01*
X172010000Y-102832500D01*
G75*
G02*
X171872500Y-102970000I-137500J0D01*
G01*
X171597500Y-102970000D01*
G75*
G02*
X171460000Y-102832500I0J137500D01*
G01*
X171460000Y-101507500D01*
G75*
G02*
X171597500Y-101370000I137500J0D01*
G01*
G37*
G36*
G01*
X171597500Y-107870000D02*
X171872500Y-107870000D01*
G75*
G02*
X172010000Y-108007500I0J-137500D01*
G01*
X172010000Y-109332500D01*
G75*
G02*
X171872500Y-109470000I-137500J0D01*
G01*
X171597500Y-109470000D01*
G75*
G02*
X171460000Y-109332500I0J137500D01*
G01*
X171460000Y-108007500D01*
G75*
G02*
X171597500Y-107870000I137500J0D01*
G01*
G37*
G36*
G01*
X172867500Y-107870000D02*
X173142500Y-107870000D01*
G75*
G02*
X173280000Y-108007500I0J-137500D01*
G01*
X173280000Y-109332500D01*
G75*
G02*
X173142500Y-109470000I-137500J0D01*
G01*
X172867500Y-109470000D01*
G75*
G02*
X172730000Y-109332500I0J137500D01*
G01*
X172730000Y-108007500D01*
G75*
G02*
X172867500Y-107870000I137500J0D01*
G01*
G37*
%TD*%
D11*
%TO.C,U+1*%
X146072300Y-126470000D03*
X146072300Y-125619999D03*
X146072300Y-124770001D03*
X146072300Y-123920000D03*
X146072300Y-123069999D03*
X146072300Y-122220001D03*
X146072300Y-121370000D03*
D12*
X138858700Y-123920000D03*
%TD*%
D13*
%TO.C,Q-1*%
X136795000Y-101920000D03*
D14*
X147070000Y-104460000D03*
X147070000Y-99380000D03*
%TD*%
%TO.C,R+C1*%
G36*
G01*
X151132500Y-115520000D02*
X151607500Y-115520000D01*
G75*
G02*
X151845000Y-115757500I0J-237500D01*
G01*
X151845000Y-116257500D01*
G75*
G02*
X151607500Y-116495000I-237500J0D01*
G01*
X151132500Y-116495000D01*
G75*
G02*
X150895000Y-116257500I0J237500D01*
G01*
X150895000Y-115757500D01*
G75*
G02*
X151132500Y-115520000I237500J0D01*
G01*
G37*
G36*
G01*
X151132500Y-117345000D02*
X151607500Y-117345000D01*
G75*
G02*
X151845000Y-117582500I0J-237500D01*
G01*
X151845000Y-118082500D01*
G75*
G02*
X151607500Y-118320000I-237500J0D01*
G01*
X151132500Y-118320000D01*
G75*
G02*
X150895000Y-118082500I0J237500D01*
G01*
X150895000Y-117582500D01*
G75*
G02*
X151132500Y-117345000I237500J0D01*
G01*
G37*
%TD*%
%TO.C,R-3*%
G36*
G01*
X145970000Y-107157500D02*
X145970000Y-106682500D01*
G75*
G02*
X146207500Y-106445000I237500J0D01*
G01*
X146707500Y-106445000D01*
G75*
G02*
X146945000Y-106682500I0J-237500D01*
G01*
X146945000Y-107157500D01*
G75*
G02*
X146707500Y-107395000I-237500J0D01*
G01*
X146207500Y-107395000D01*
G75*
G02*
X145970000Y-107157500I0J237500D01*
G01*
G37*
G36*
G01*
X147795000Y-107157500D02*
X147795000Y-106682500D01*
G75*
G02*
X148032500Y-106445000I237500J0D01*
G01*
X148532500Y-106445000D01*
G75*
G02*
X148770000Y-106682500I0J-237500D01*
G01*
X148770000Y-107157500D01*
G75*
G02*
X148532500Y-107395000I-237500J0D01*
G01*
X148032500Y-107395000D01*
G75*
G02*
X147795000Y-107157500I0J237500D01*
G01*
G37*
%TD*%
%TO.C,R+B1*%
G36*
G01*
X151132500Y-121432500D02*
X151607500Y-121432500D01*
G75*
G02*
X151845000Y-121670000I0J-237500D01*
G01*
X151845000Y-122170000D01*
G75*
G02*
X151607500Y-122407500I-237500J0D01*
G01*
X151132500Y-122407500D01*
G75*
G02*
X150895000Y-122170000I0J237500D01*
G01*
X150895000Y-121670000D01*
G75*
G02*
X151132500Y-121432500I237500J0D01*
G01*
G37*
G36*
G01*
X151132500Y-123257500D02*
X151607500Y-123257500D01*
G75*
G02*
X151845000Y-123495000I0J-237500D01*
G01*
X151845000Y-123995000D01*
G75*
G02*
X151607500Y-124232500I-237500J0D01*
G01*
X151132500Y-124232500D01*
G75*
G02*
X150895000Y-123995000I0J237500D01*
G01*
X150895000Y-123495000D01*
G75*
G02*
X151132500Y-123257500I237500J0D01*
G01*
G37*
%TD*%
%TO.C,R-1*%
G36*
G01*
X174970000Y-105657500D02*
X174970000Y-105182500D01*
G75*
G02*
X175207500Y-104945000I237500J0D01*
G01*
X175707500Y-104945000D01*
G75*
G02*
X175945000Y-105182500I0J-237500D01*
G01*
X175945000Y-105657500D01*
G75*
G02*
X175707500Y-105895000I-237500J0D01*
G01*
X175207500Y-105895000D01*
G75*
G02*
X174970000Y-105657500I0J237500D01*
G01*
G37*
G36*
G01*
X176795000Y-105657500D02*
X176795000Y-105182500D01*
G75*
G02*
X177032500Y-104945000I237500J0D01*
G01*
X177532500Y-104945000D01*
G75*
G02*
X177770000Y-105182500I0J-237500D01*
G01*
X177770000Y-105657500D01*
G75*
G02*
X177532500Y-105895000I-237500J0D01*
G01*
X177032500Y-105895000D01*
G75*
G02*
X176795000Y-105657500I0J237500D01*
G01*
G37*
%TD*%
%TO.C,R-A1*%
G36*
G01*
X151607500Y-93820000D02*
X151132500Y-93820000D01*
G75*
G02*
X150895000Y-93582500I0J237500D01*
G01*
X150895000Y-93082500D01*
G75*
G02*
X151132500Y-92845000I237500J0D01*
G01*
X151607500Y-92845000D01*
G75*
G02*
X151845000Y-93082500I0J-237500D01*
G01*
X151845000Y-93582500D01*
G75*
G02*
X151607500Y-93820000I-237500J0D01*
G01*
G37*
G36*
G01*
X151607500Y-91995000D02*
X151132500Y-91995000D01*
G75*
G02*
X150895000Y-91757500I0J237500D01*
G01*
X150895000Y-91257500D01*
G75*
G02*
X151132500Y-91020000I237500J0D01*
G01*
X151607500Y-91020000D01*
G75*
G02*
X151845000Y-91257500I0J-237500D01*
G01*
X151845000Y-91757500D01*
G75*
G02*
X151607500Y-91995000I-237500J0D01*
G01*
G37*
%TD*%
%TO.C,R-B1*%
G36*
G01*
X151607500Y-99732500D02*
X151132500Y-99732500D01*
G75*
G02*
X150895000Y-99495000I0J237500D01*
G01*
X150895000Y-98995000D01*
G75*
G02*
X151132500Y-98757500I237500J0D01*
G01*
X151607500Y-98757500D01*
G75*
G02*
X151845000Y-98995000I0J-237500D01*
G01*
X151845000Y-99495000D01*
G75*
G02*
X151607500Y-99732500I-237500J0D01*
G01*
G37*
G36*
G01*
X151607500Y-97907500D02*
X151132500Y-97907500D01*
G75*
G02*
X150895000Y-97670000I0J237500D01*
G01*
X150895000Y-97170000D01*
G75*
G02*
X151132500Y-96932500I237500J0D01*
G01*
X151607500Y-96932500D01*
G75*
G02*
X151845000Y-97170000I0J-237500D01*
G01*
X151845000Y-97670000D01*
G75*
G02*
X151607500Y-97907500I-237500J0D01*
G01*
G37*
%TD*%
%TO.C,R-4*%
G36*
G01*
X142882500Y-90932500D02*
X143357500Y-90932500D01*
G75*
G02*
X143595000Y-91170000I0J-237500D01*
G01*
X143595000Y-91670000D01*
G75*
G02*
X143357500Y-91907500I-237500J0D01*
G01*
X142882500Y-91907500D01*
G75*
G02*
X142645000Y-91670000I0J237500D01*
G01*
X142645000Y-91170000D01*
G75*
G02*
X142882500Y-90932500I237500J0D01*
G01*
G37*
G36*
G01*
X142882500Y-92757500D02*
X143357500Y-92757500D01*
G75*
G02*
X143595000Y-92995000I0J-237500D01*
G01*
X143595000Y-93495000D01*
G75*
G02*
X143357500Y-93732500I-237500J0D01*
G01*
X142882500Y-93732500D01*
G75*
G02*
X142645000Y-93495000I0J237500D01*
G01*
X142645000Y-92995000D01*
G75*
G02*
X142882500Y-92757500I237500J0D01*
G01*
G37*
%TD*%
%TO.C,R-5*%
G36*
G01*
X137357500Y-93932500D02*
X137357500Y-94407500D01*
G75*
G02*
X137120000Y-94645000I-237500J0D01*
G01*
X136620000Y-94645000D01*
G75*
G02*
X136382500Y-94407500I0J237500D01*
G01*
X136382500Y-93932500D01*
G75*
G02*
X136620000Y-93695000I237500J0D01*
G01*
X137120000Y-93695000D01*
G75*
G02*
X137357500Y-93932500I0J-237500D01*
G01*
G37*
G36*
G01*
X135532500Y-93932500D02*
X135532500Y-94407500D01*
G75*
G02*
X135295000Y-94645000I-237500J0D01*
G01*
X134795000Y-94645000D01*
G75*
G02*
X134557500Y-94407500I0J237500D01*
G01*
X134557500Y-93932500D01*
G75*
G02*
X134795000Y-93695000I237500J0D01*
G01*
X135295000Y-93695000D01*
G75*
G02*
X135532500Y-93932500I0J-237500D01*
G01*
G37*
%TD*%
%TO.C,R+3*%
G36*
G01*
X143357500Y-115082500D02*
X142882500Y-115082500D01*
G75*
G02*
X142645000Y-114845000I0J237500D01*
G01*
X142645000Y-114345000D01*
G75*
G02*
X142882500Y-114107500I237500J0D01*
G01*
X143357500Y-114107500D01*
G75*
G02*
X143595000Y-114345000I0J-237500D01*
G01*
X143595000Y-114845000D01*
G75*
G02*
X143357500Y-115082500I-237500J0D01*
G01*
G37*
G36*
G01*
X143357500Y-116907500D02*
X142882500Y-116907500D01*
G75*
G02*
X142645000Y-116670000I0J237500D01*
G01*
X142645000Y-116170000D01*
G75*
G02*
X142882500Y-115932500I237500J0D01*
G01*
X143357500Y-115932500D01*
G75*
G02*
X143595000Y-116170000I0J-237500D01*
G01*
X143595000Y-116670000D01*
G75*
G02*
X143357500Y-116907500I-237500J0D01*
G01*
G37*
%TD*%
%TO.C,R+4*%
G36*
G01*
X140470000Y-118907500D02*
X140470000Y-118432500D01*
G75*
G02*
X140707500Y-118195000I237500J0D01*
G01*
X141207500Y-118195000D01*
G75*
G02*
X141445000Y-118432500I0J-237500D01*
G01*
X141445000Y-118907500D01*
G75*
G02*
X141207500Y-119145000I-237500J0D01*
G01*
X140707500Y-119145000D01*
G75*
G02*
X140470000Y-118907500I0J237500D01*
G01*
G37*
G36*
G01*
X142295000Y-118907500D02*
X142295000Y-118432500D01*
G75*
G02*
X142532500Y-118195000I237500J0D01*
G01*
X143032500Y-118195000D01*
G75*
G02*
X143270000Y-118432500I0J-237500D01*
G01*
X143270000Y-118907500D01*
G75*
G02*
X143032500Y-119145000I-237500J0D01*
G01*
X142532500Y-119145000D01*
G75*
G02*
X142295000Y-118907500I0J237500D01*
G01*
G37*
%TD*%
D15*
%TO.C,J1*%
X238380000Y-70910000D03*
X238380000Y-72830000D03*
D16*
X235230000Y-70570000D03*
X235230000Y-71220000D03*
X235230000Y-71870000D03*
X235230000Y-72520000D03*
X235230000Y-73170000D03*
D17*
X235110000Y-68970000D03*
X235130000Y-74720000D03*
D18*
X236430000Y-68870000D03*
X236430000Y-74820000D03*
D19*
X237180000Y-74600000D03*
X237180000Y-69120000D03*
%TD*%
%TO.C,C3*%
G36*
G01*
X229295000Y-110432500D02*
X229295000Y-110907500D01*
G75*
G02*
X229057500Y-111145000I-237500J0D01*
G01*
X228457500Y-111145000D01*
G75*
G02*
X228220000Y-110907500I0J237500D01*
G01*
X228220000Y-110432500D01*
G75*
G02*
X228457500Y-110195000I237500J0D01*
G01*
X229057500Y-110195000D01*
G75*
G02*
X229295000Y-110432500I0J-237500D01*
G01*
G37*
G36*
G01*
X231020000Y-110432500D02*
X231020000Y-110907500D01*
G75*
G02*
X230782500Y-111145000I-237500J0D01*
G01*
X230182500Y-111145000D01*
G75*
G02*
X229945000Y-110907500I0J237500D01*
G01*
X229945000Y-110432500D01*
G75*
G02*
X230182500Y-110195000I237500J0D01*
G01*
X230782500Y-110195000D01*
G75*
G02*
X231020000Y-110432500I0J-237500D01*
G01*
G37*
%TD*%
%TO.C,U3*%
G36*
G01*
X231120000Y-108580000D02*
X231120000Y-108880000D01*
G75*
G02*
X230970000Y-109030000I-150000J0D01*
G01*
X229320000Y-109030000D01*
G75*
G02*
X229170000Y-108880000I0J150000D01*
G01*
X229170000Y-108580000D01*
G75*
G02*
X229320000Y-108430000I150000J0D01*
G01*
X230970000Y-108430000D01*
G75*
G02*
X231120000Y-108580000I0J-150000D01*
G01*
G37*
G36*
G01*
X231120000Y-107310000D02*
X231120000Y-107610000D01*
G75*
G02*
X230970000Y-107760000I-150000J0D01*
G01*
X229320000Y-107760000D01*
G75*
G02*
X229170000Y-107610000I0J150000D01*
G01*
X229170000Y-107310000D01*
G75*
G02*
X229320000Y-107160000I150000J0D01*
G01*
X230970000Y-107160000D01*
G75*
G02*
X231120000Y-107310000I0J-150000D01*
G01*
G37*
G36*
G01*
X231120000Y-106040000D02*
X231120000Y-106340000D01*
G75*
G02*
X230970000Y-106490000I-150000J0D01*
G01*
X229320000Y-106490000D01*
G75*
G02*
X229170000Y-106340000I0J150000D01*
G01*
X229170000Y-106040000D01*
G75*
G02*
X229320000Y-105890000I150000J0D01*
G01*
X230970000Y-105890000D01*
G75*
G02*
X231120000Y-106040000I0J-150000D01*
G01*
G37*
G36*
G01*
X231120000Y-104770000D02*
X231120000Y-105070000D01*
G75*
G02*
X230970000Y-105220000I-150000J0D01*
G01*
X229320000Y-105220000D01*
G75*
G02*
X229170000Y-105070000I0J150000D01*
G01*
X229170000Y-104770000D01*
G75*
G02*
X229320000Y-104620000I150000J0D01*
G01*
X230970000Y-104620000D01*
G75*
G02*
X231120000Y-104770000I0J-150000D01*
G01*
G37*
G36*
G01*
X231120000Y-103500000D02*
X231120000Y-103800000D01*
G75*
G02*
X230970000Y-103950000I-150000J0D01*
G01*
X229320000Y-103950000D01*
G75*
G02*
X229170000Y-103800000I0J150000D01*
G01*
X229170000Y-103500000D01*
G75*
G02*
X229320000Y-103350000I150000J0D01*
G01*
X230970000Y-103350000D01*
G75*
G02*
X231120000Y-103500000I0J-150000D01*
G01*
G37*
G36*
G01*
X231120000Y-102230000D02*
X231120000Y-102530000D01*
G75*
G02*
X230970000Y-102680000I-150000J0D01*
G01*
X229320000Y-102680000D01*
G75*
G02*
X229170000Y-102530000I0J150000D01*
G01*
X229170000Y-102230000D01*
G75*
G02*
X229320000Y-102080000I150000J0D01*
G01*
X230970000Y-102080000D01*
G75*
G02*
X231120000Y-102230000I0J-150000D01*
G01*
G37*
G36*
G01*
X231120000Y-100960000D02*
X231120000Y-101260000D01*
G75*
G02*
X230970000Y-101410000I-150000J0D01*
G01*
X229320000Y-101410000D01*
G75*
G02*
X229170000Y-101260000I0J150000D01*
G01*
X229170000Y-100960000D01*
G75*
G02*
X229320000Y-100810000I150000J0D01*
G01*
X230970000Y-100810000D01*
G75*
G02*
X231120000Y-100960000I0J-150000D01*
G01*
G37*
G36*
G01*
X236070000Y-100960000D02*
X236070000Y-101260000D01*
G75*
G02*
X235920000Y-101410000I-150000J0D01*
G01*
X234270000Y-101410000D01*
G75*
G02*
X234120000Y-101260000I0J150000D01*
G01*
X234120000Y-100960000D01*
G75*
G02*
X234270000Y-100810000I150000J0D01*
G01*
X235920000Y-100810000D01*
G75*
G02*
X236070000Y-100960000I0J-150000D01*
G01*
G37*
G36*
G01*
X236070000Y-102230000D02*
X236070000Y-102530000D01*
G75*
G02*
X235920000Y-102680000I-150000J0D01*
G01*
X234270000Y-102680000D01*
G75*
G02*
X234120000Y-102530000I0J150000D01*
G01*
X234120000Y-102230000D01*
G75*
G02*
X234270000Y-102080000I150000J0D01*
G01*
X235920000Y-102080000D01*
G75*
G02*
X236070000Y-102230000I0J-150000D01*
G01*
G37*
G36*
G01*
X236070000Y-103500000D02*
X236070000Y-103800000D01*
G75*
G02*
X235920000Y-103950000I-150000J0D01*
G01*
X234270000Y-103950000D01*
G75*
G02*
X234120000Y-103800000I0J150000D01*
G01*
X234120000Y-103500000D01*
G75*
G02*
X234270000Y-103350000I150000J0D01*
G01*
X235920000Y-103350000D01*
G75*
G02*
X236070000Y-103500000I0J-150000D01*
G01*
G37*
G36*
G01*
X236070000Y-104770000D02*
X236070000Y-105070000D01*
G75*
G02*
X235920000Y-105220000I-150000J0D01*
G01*
X234270000Y-105220000D01*
G75*
G02*
X234120000Y-105070000I0J150000D01*
G01*
X234120000Y-104770000D01*
G75*
G02*
X234270000Y-104620000I150000J0D01*
G01*
X235920000Y-104620000D01*
G75*
G02*
X236070000Y-104770000I0J-150000D01*
G01*
G37*
G36*
G01*
X236070000Y-106040000D02*
X236070000Y-106340000D01*
G75*
G02*
X235920000Y-106490000I-150000J0D01*
G01*
X234270000Y-106490000D01*
G75*
G02*
X234120000Y-106340000I0J150000D01*
G01*
X234120000Y-106040000D01*
G75*
G02*
X234270000Y-105890000I150000J0D01*
G01*
X235920000Y-105890000D01*
G75*
G02*
X236070000Y-106040000I0J-150000D01*
G01*
G37*
G36*
G01*
X236070000Y-107310000D02*
X236070000Y-107610000D01*
G75*
G02*
X235920000Y-107760000I-150000J0D01*
G01*
X234270000Y-107760000D01*
G75*
G02*
X234120000Y-107610000I0J150000D01*
G01*
X234120000Y-107310000D01*
G75*
G02*
X234270000Y-107160000I150000J0D01*
G01*
X235920000Y-107160000D01*
G75*
G02*
X236070000Y-107310000I0J-150000D01*
G01*
G37*
G36*
G01*
X236070000Y-108580000D02*
X236070000Y-108880000D01*
G75*
G02*
X235920000Y-109030000I-150000J0D01*
G01*
X234270000Y-109030000D01*
G75*
G02*
X234120000Y-108880000I0J150000D01*
G01*
X234120000Y-108580000D01*
G75*
G02*
X234270000Y-108430000I150000J0D01*
G01*
X235920000Y-108430000D01*
G75*
G02*
X236070000Y-108580000I0J-150000D01*
G01*
G37*
%TD*%
%TO.C,R+4*%
G36*
G01*
X142295000Y-69907500D02*
X142295000Y-69432500D01*
G75*
G02*
X142532500Y-69195000I237500J0D01*
G01*
X143032500Y-69195000D01*
G75*
G02*
X143270000Y-69432500I0J-237500D01*
G01*
X143270000Y-69907500D01*
G75*
G02*
X143032500Y-70145000I-237500J0D01*
G01*
X142532500Y-70145000D01*
G75*
G02*
X142295000Y-69907500I0J237500D01*
G01*
G37*
G36*
G01*
X140470000Y-69907500D02*
X140470000Y-69432500D01*
G75*
G02*
X140707500Y-69195000I237500J0D01*
G01*
X141207500Y-69195000D01*
G75*
G02*
X141445000Y-69432500I0J-237500D01*
G01*
X141445000Y-69907500D01*
G75*
G02*
X141207500Y-70145000I-237500J0D01*
G01*
X140707500Y-70145000D01*
G75*
G02*
X140470000Y-69907500I0J237500D01*
G01*
G37*
%TD*%
%TO.C,R+3*%
G36*
G01*
X143357500Y-67907500D02*
X142882500Y-67907500D01*
G75*
G02*
X142645000Y-67670000I0J237500D01*
G01*
X142645000Y-67170000D01*
G75*
G02*
X142882500Y-66932500I237500J0D01*
G01*
X143357500Y-66932500D01*
G75*
G02*
X143595000Y-67170000I0J-237500D01*
G01*
X143595000Y-67670000D01*
G75*
G02*
X143357500Y-67907500I-237500J0D01*
G01*
G37*
G36*
G01*
X143357500Y-66082500D02*
X142882500Y-66082500D01*
G75*
G02*
X142645000Y-65845000I0J237500D01*
G01*
X142645000Y-65345000D01*
G75*
G02*
X142882500Y-65107500I237500J0D01*
G01*
X143357500Y-65107500D01*
G75*
G02*
X143595000Y-65345000I0J-237500D01*
G01*
X143595000Y-65845000D01*
G75*
G02*
X143357500Y-66082500I-237500J0D01*
G01*
G37*
%TD*%
%TO.C,R5*%
G36*
G01*
X231445000Y-90682500D02*
X231445000Y-91157500D01*
G75*
G02*
X231207500Y-91395000I-237500J0D01*
G01*
X230707500Y-91395000D01*
G75*
G02*
X230470000Y-91157500I0J237500D01*
G01*
X230470000Y-90682500D01*
G75*
G02*
X230707500Y-90445000I237500J0D01*
G01*
X231207500Y-90445000D01*
G75*
G02*
X231445000Y-90682500I0J-237500D01*
G01*
G37*
G36*
G01*
X233270000Y-90682500D02*
X233270000Y-91157500D01*
G75*
G02*
X233032500Y-91395000I-237500J0D01*
G01*
X232532500Y-91395000D01*
G75*
G02*
X232295000Y-91157500I0J237500D01*
G01*
X232295000Y-90682500D01*
G75*
G02*
X232532500Y-90445000I237500J0D01*
G01*
X233032500Y-90445000D01*
G75*
G02*
X233270000Y-90682500I0J-237500D01*
G01*
G37*
%TD*%
%TO.C,R4*%
G36*
G01*
X235045000Y-117407500D02*
X235045000Y-116932500D01*
G75*
G02*
X235282500Y-116695000I237500J0D01*
G01*
X235782500Y-116695000D01*
G75*
G02*
X236020000Y-116932500I0J-237500D01*
G01*
X236020000Y-117407500D01*
G75*
G02*
X235782500Y-117645000I-237500J0D01*
G01*
X235282500Y-117645000D01*
G75*
G02*
X235045000Y-117407500I0J237500D01*
G01*
G37*
G36*
G01*
X233220000Y-117407500D02*
X233220000Y-116932500D01*
G75*
G02*
X233457500Y-116695000I237500J0D01*
G01*
X233957500Y-116695000D01*
G75*
G02*
X234195000Y-116932500I0J-237500D01*
G01*
X234195000Y-117407500D01*
G75*
G02*
X233957500Y-117645000I-237500J0D01*
G01*
X233457500Y-117645000D01*
G75*
G02*
X233220000Y-117407500I0J237500D01*
G01*
G37*
%TD*%
%TO.C,R3*%
G36*
G01*
X235045000Y-121157500D02*
X235045000Y-120682500D01*
G75*
G02*
X235282500Y-120445000I237500J0D01*
G01*
X235782500Y-120445000D01*
G75*
G02*
X236020000Y-120682500I0J-237500D01*
G01*
X236020000Y-121157500D01*
G75*
G02*
X235782500Y-121395000I-237500J0D01*
G01*
X235282500Y-121395000D01*
G75*
G02*
X235045000Y-121157500I0J237500D01*
G01*
G37*
G36*
G01*
X233220000Y-121157500D02*
X233220000Y-120682500D01*
G75*
G02*
X233457500Y-120445000I237500J0D01*
G01*
X233957500Y-120445000D01*
G75*
G02*
X234195000Y-120682500I0J-237500D01*
G01*
X234195000Y-121157500D01*
G75*
G02*
X233957500Y-121395000I-237500J0D01*
G01*
X233457500Y-121395000D01*
G75*
G02*
X233220000Y-121157500I0J237500D01*
G01*
G37*
%TD*%
%TO.C,R2*%
G36*
G01*
X234195000Y-127182500D02*
X234195000Y-127657500D01*
G75*
G02*
X233957500Y-127895000I-237500J0D01*
G01*
X233457500Y-127895000D01*
G75*
G02*
X233220000Y-127657500I0J237500D01*
G01*
X233220000Y-127182500D01*
G75*
G02*
X233457500Y-126945000I237500J0D01*
G01*
X233957500Y-126945000D01*
G75*
G02*
X234195000Y-127182500I0J-237500D01*
G01*
G37*
G36*
G01*
X236020000Y-127182500D02*
X236020000Y-127657500D01*
G75*
G02*
X235782500Y-127895000I-237500J0D01*
G01*
X235282500Y-127895000D01*
G75*
G02*
X235045000Y-127657500I0J237500D01*
G01*
X235045000Y-127182500D01*
G75*
G02*
X235282500Y-126945000I237500J0D01*
G01*
X235782500Y-126945000D01*
G75*
G02*
X236020000Y-127182500I0J-237500D01*
G01*
G37*
%TD*%
%TO.C,R1*%
G36*
G01*
X234195000Y-131432500D02*
X234195000Y-131907500D01*
G75*
G02*
X233957500Y-132145000I-237500J0D01*
G01*
X233457500Y-132145000D01*
G75*
G02*
X233220000Y-131907500I0J237500D01*
G01*
X233220000Y-131432500D01*
G75*
G02*
X233457500Y-131195000I237500J0D01*
G01*
X233957500Y-131195000D01*
G75*
G02*
X234195000Y-131432500I0J-237500D01*
G01*
G37*
G36*
G01*
X236020000Y-131432500D02*
X236020000Y-131907500D01*
G75*
G02*
X235782500Y-132145000I-237500J0D01*
G01*
X235282500Y-132145000D01*
G75*
G02*
X235045000Y-131907500I0J237500D01*
G01*
X235045000Y-131432500D01*
G75*
G02*
X235282500Y-131195000I237500J0D01*
G01*
X235782500Y-131195000D01*
G75*
G02*
X236020000Y-131432500I0J-237500D01*
G01*
G37*
%TD*%
%TO.C,D4*%
G36*
G01*
X230770000Y-116932500D02*
X230770000Y-117407500D01*
G75*
G02*
X230532500Y-117645000I-237500J0D01*
G01*
X229957500Y-117645000D01*
G75*
G02*
X229720000Y-117407500I0J237500D01*
G01*
X229720000Y-116932500D01*
G75*
G02*
X229957500Y-116695000I237500J0D01*
G01*
X230532500Y-116695000D01*
G75*
G02*
X230770000Y-116932500I0J-237500D01*
G01*
G37*
G36*
G01*
X232520000Y-116932500D02*
X232520000Y-117407500D01*
G75*
G02*
X232282500Y-117645000I-237500J0D01*
G01*
X231707500Y-117645000D01*
G75*
G02*
X231470000Y-117407500I0J237500D01*
G01*
X231470000Y-116932500D01*
G75*
G02*
X231707500Y-116695000I237500J0D01*
G01*
X232282500Y-116695000D01*
G75*
G02*
X232520000Y-116932500I0J-237500D01*
G01*
G37*
%TD*%
%TO.C,D3*%
G36*
G01*
X230770000Y-120682500D02*
X230770000Y-121157500D01*
G75*
G02*
X230532500Y-121395000I-237500J0D01*
G01*
X229957500Y-121395000D01*
G75*
G02*
X229720000Y-121157500I0J237500D01*
G01*
X229720000Y-120682500D01*
G75*
G02*
X229957500Y-120445000I237500J0D01*
G01*
X230532500Y-120445000D01*
G75*
G02*
X230770000Y-120682500I0J-237500D01*
G01*
G37*
G36*
G01*
X232520000Y-120682500D02*
X232520000Y-121157500D01*
G75*
G02*
X232282500Y-121395000I-237500J0D01*
G01*
X231707500Y-121395000D01*
G75*
G02*
X231470000Y-121157500I0J237500D01*
G01*
X231470000Y-120682500D01*
G75*
G02*
X231707500Y-120445000I237500J0D01*
G01*
X232282500Y-120445000D01*
G75*
G02*
X232520000Y-120682500I0J-237500D01*
G01*
G37*
%TD*%
%TO.C,D2*%
G36*
G01*
X230770000Y-127182500D02*
X230770000Y-127657500D01*
G75*
G02*
X230532500Y-127895000I-237500J0D01*
G01*
X229957500Y-127895000D01*
G75*
G02*
X229720000Y-127657500I0J237500D01*
G01*
X229720000Y-127182500D01*
G75*
G02*
X229957500Y-126945000I237500J0D01*
G01*
X230532500Y-126945000D01*
G75*
G02*
X230770000Y-127182500I0J-237500D01*
G01*
G37*
G36*
G01*
X232520000Y-127182500D02*
X232520000Y-127657500D01*
G75*
G02*
X232282500Y-127895000I-237500J0D01*
G01*
X231707500Y-127895000D01*
G75*
G02*
X231470000Y-127657500I0J237500D01*
G01*
X231470000Y-127182500D01*
G75*
G02*
X231707500Y-126945000I237500J0D01*
G01*
X232282500Y-126945000D01*
G75*
G02*
X232520000Y-127182500I0J-237500D01*
G01*
G37*
%TD*%
%TO.C,D1*%
G36*
G01*
X230770000Y-131432500D02*
X230770000Y-131907500D01*
G75*
G02*
X230532500Y-132145000I-237500J0D01*
G01*
X229957500Y-132145000D01*
G75*
G02*
X229720000Y-131907500I0J237500D01*
G01*
X229720000Y-131432500D01*
G75*
G02*
X229957500Y-131195000I237500J0D01*
G01*
X230532500Y-131195000D01*
G75*
G02*
X230770000Y-131432500I0J-237500D01*
G01*
G37*
G36*
G01*
X232520000Y-131432500D02*
X232520000Y-131907500D01*
G75*
G02*
X232282500Y-132145000I-237500J0D01*
G01*
X231707500Y-132145000D01*
G75*
G02*
X231470000Y-131907500I0J237500D01*
G01*
X231470000Y-131432500D01*
G75*
G02*
X231707500Y-131195000I237500J0D01*
G01*
X232282500Y-131195000D01*
G75*
G02*
X232520000Y-131432500I0J-237500D01*
G01*
G37*
%TD*%
%TO.C,R-5*%
G36*
G01*
X135532500Y-44932500D02*
X135532500Y-45407500D01*
G75*
G02*
X135295000Y-45645000I-237500J0D01*
G01*
X134795000Y-45645000D01*
G75*
G02*
X134557500Y-45407500I0J237500D01*
G01*
X134557500Y-44932500D01*
G75*
G02*
X134795000Y-44695000I237500J0D01*
G01*
X135295000Y-44695000D01*
G75*
G02*
X135532500Y-44932500I0J-237500D01*
G01*
G37*
G36*
G01*
X137357500Y-44932500D02*
X137357500Y-45407500D01*
G75*
G02*
X137120000Y-45645000I-237500J0D01*
G01*
X136620000Y-45645000D01*
G75*
G02*
X136382500Y-45407500I0J237500D01*
G01*
X136382500Y-44932500D01*
G75*
G02*
X136620000Y-44695000I237500J0D01*
G01*
X137120000Y-44695000D01*
G75*
G02*
X137357500Y-44932500I0J-237500D01*
G01*
G37*
%TD*%
%TO.C,R-4*%
G36*
G01*
X142882500Y-43757500D02*
X143357500Y-43757500D01*
G75*
G02*
X143595000Y-43995000I0J-237500D01*
G01*
X143595000Y-44495000D01*
G75*
G02*
X143357500Y-44732500I-237500J0D01*
G01*
X142882500Y-44732500D01*
G75*
G02*
X142645000Y-44495000I0J237500D01*
G01*
X142645000Y-43995000D01*
G75*
G02*
X142882500Y-43757500I237500J0D01*
G01*
G37*
G36*
G01*
X142882500Y-41932500D02*
X143357500Y-41932500D01*
G75*
G02*
X143595000Y-42170000I0J-237500D01*
G01*
X143595000Y-42670000D01*
G75*
G02*
X143357500Y-42907500I-237500J0D01*
G01*
X142882500Y-42907500D01*
G75*
G02*
X142645000Y-42670000I0J237500D01*
G01*
X142645000Y-42170000D01*
G75*
G02*
X142882500Y-41932500I237500J0D01*
G01*
G37*
%TD*%
D10*
%TO.C,U-2*%
X148320000Y-43770000D03*
X148320000Y-45070000D03*
X146420000Y-44420000D03*
X146420000Y-45070000D03*
X146420000Y-43770000D03*
%TD*%
%TO.C,U-1*%
G36*
G01*
X172867500Y-58870000D02*
X173142500Y-58870000D01*
G75*
G02*
X173280000Y-59007500I0J-137500D01*
G01*
X173280000Y-60332500D01*
G75*
G02*
X173142500Y-60470000I-137500J0D01*
G01*
X172867500Y-60470000D01*
G75*
G02*
X172730000Y-60332500I0J137500D01*
G01*
X172730000Y-59007500D01*
G75*
G02*
X172867500Y-58870000I137500J0D01*
G01*
G37*
G36*
G01*
X171597500Y-58870000D02*
X171872500Y-58870000D01*
G75*
G02*
X172010000Y-59007500I0J-137500D01*
G01*
X172010000Y-60332500D01*
G75*
G02*
X171872500Y-60470000I-137500J0D01*
G01*
X171597500Y-60470000D01*
G75*
G02*
X171460000Y-60332500I0J137500D01*
G01*
X171460000Y-59007500D01*
G75*
G02*
X171597500Y-58870000I137500J0D01*
G01*
G37*
G36*
G01*
X171597500Y-52370000D02*
X171872500Y-52370000D01*
G75*
G02*
X172010000Y-52507500I0J-137500D01*
G01*
X172010000Y-53832500D01*
G75*
G02*
X171872500Y-53970000I-137500J0D01*
G01*
X171597500Y-53970000D01*
G75*
G02*
X171460000Y-53832500I0J137500D01*
G01*
X171460000Y-52507500D01*
G75*
G02*
X171597500Y-52370000I137500J0D01*
G01*
G37*
G36*
G01*
X172867500Y-52370000D02*
X173142500Y-52370000D01*
G75*
G02*
X173280000Y-52507500I0J-137500D01*
G01*
X173280000Y-53832500D01*
G75*
G02*
X173142500Y-53970000I-137500J0D01*
G01*
X172867500Y-53970000D01*
G75*
G02*
X172730000Y-53832500I0J137500D01*
G01*
X172730000Y-52507500D01*
G75*
G02*
X172867500Y-52370000I137500J0D01*
G01*
G37*
%TD*%
D12*
%TO.C,U+1*%
X138858700Y-74920000D03*
D11*
X146072300Y-72370000D03*
X146072300Y-73220001D03*
X146072300Y-74069999D03*
X146072300Y-74920000D03*
X146072300Y-75770001D03*
X146072300Y-76619999D03*
X146072300Y-77470000D03*
%TD*%
%TO.C,R-C1*%
G36*
G01*
X151607500Y-54907500D02*
X151132500Y-54907500D01*
G75*
G02*
X150895000Y-54670000I0J237500D01*
G01*
X150895000Y-54170000D01*
G75*
G02*
X151132500Y-53932500I237500J0D01*
G01*
X151607500Y-53932500D01*
G75*
G02*
X151845000Y-54170000I0J-237500D01*
G01*
X151845000Y-54670000D01*
G75*
G02*
X151607500Y-54907500I-237500J0D01*
G01*
G37*
G36*
G01*
X151607500Y-56732500D02*
X151132500Y-56732500D01*
G75*
G02*
X150895000Y-56495000I0J237500D01*
G01*
X150895000Y-55995000D01*
G75*
G02*
X151132500Y-55757500I237500J0D01*
G01*
X151607500Y-55757500D01*
G75*
G02*
X151845000Y-55995000I0J-237500D01*
G01*
X151845000Y-56495000D01*
G75*
G02*
X151607500Y-56732500I-237500J0D01*
G01*
G37*
%TD*%
%TO.C,R-B1*%
G36*
G01*
X151607500Y-48907500D02*
X151132500Y-48907500D01*
G75*
G02*
X150895000Y-48670000I0J237500D01*
G01*
X150895000Y-48170000D01*
G75*
G02*
X151132500Y-47932500I237500J0D01*
G01*
X151607500Y-47932500D01*
G75*
G02*
X151845000Y-48170000I0J-237500D01*
G01*
X151845000Y-48670000D01*
G75*
G02*
X151607500Y-48907500I-237500J0D01*
G01*
G37*
G36*
G01*
X151607500Y-50732500D02*
X151132500Y-50732500D01*
G75*
G02*
X150895000Y-50495000I0J237500D01*
G01*
X150895000Y-49995000D01*
G75*
G02*
X151132500Y-49757500I237500J0D01*
G01*
X151607500Y-49757500D01*
G75*
G02*
X151845000Y-49995000I0J-237500D01*
G01*
X151845000Y-50495000D01*
G75*
G02*
X151607500Y-50732500I-237500J0D01*
G01*
G37*
%TD*%
%TO.C,R-A1*%
G36*
G01*
X151607500Y-42995000D02*
X151132500Y-42995000D01*
G75*
G02*
X150895000Y-42757500I0J237500D01*
G01*
X150895000Y-42257500D01*
G75*
G02*
X151132500Y-42020000I237500J0D01*
G01*
X151607500Y-42020000D01*
G75*
G02*
X151845000Y-42257500I0J-237500D01*
G01*
X151845000Y-42757500D01*
G75*
G02*
X151607500Y-42995000I-237500J0D01*
G01*
G37*
G36*
G01*
X151607500Y-44820000D02*
X151132500Y-44820000D01*
G75*
G02*
X150895000Y-44582500I0J237500D01*
G01*
X150895000Y-44082500D01*
G75*
G02*
X151132500Y-43845000I237500J0D01*
G01*
X151607500Y-43845000D01*
G75*
G02*
X151845000Y-44082500I0J-237500D01*
G01*
X151845000Y-44582500D01*
G75*
G02*
X151607500Y-44820000I-237500J0D01*
G01*
G37*
%TD*%
%TO.C,R-3*%
G36*
G01*
X147795000Y-58157500D02*
X147795000Y-57682500D01*
G75*
G02*
X148032500Y-57445000I237500J0D01*
G01*
X148532500Y-57445000D01*
G75*
G02*
X148770000Y-57682500I0J-237500D01*
G01*
X148770000Y-58157500D01*
G75*
G02*
X148532500Y-58395000I-237500J0D01*
G01*
X148032500Y-58395000D01*
G75*
G02*
X147795000Y-58157500I0J237500D01*
G01*
G37*
G36*
G01*
X145970000Y-58157500D02*
X145970000Y-57682500D01*
G75*
G02*
X146207500Y-57445000I237500J0D01*
G01*
X146707500Y-57445000D01*
G75*
G02*
X146945000Y-57682500I0J-237500D01*
G01*
X146945000Y-58157500D01*
G75*
G02*
X146707500Y-58395000I-237500J0D01*
G01*
X146207500Y-58395000D01*
G75*
G02*
X145970000Y-58157500I0J237500D01*
G01*
G37*
%TD*%
%TO.C,R-2*%
G36*
G01*
X146945000Y-59682500D02*
X146945000Y-60157500D01*
G75*
G02*
X146707500Y-60395000I-237500J0D01*
G01*
X146207500Y-60395000D01*
G75*
G02*
X145970000Y-60157500I0J237500D01*
G01*
X145970000Y-59682500D01*
G75*
G02*
X146207500Y-59445000I237500J0D01*
G01*
X146707500Y-59445000D01*
G75*
G02*
X146945000Y-59682500I0J-237500D01*
G01*
G37*
G36*
G01*
X148770000Y-59682500D02*
X148770000Y-60157500D01*
G75*
G02*
X148532500Y-60395000I-237500J0D01*
G01*
X148032500Y-60395000D01*
G75*
G02*
X147795000Y-60157500I0J237500D01*
G01*
X147795000Y-59682500D01*
G75*
G02*
X148032500Y-59445000I237500J0D01*
G01*
X148532500Y-59445000D01*
G75*
G02*
X148770000Y-59682500I0J-237500D01*
G01*
G37*
%TD*%
%TO.C,R-1*%
G36*
G01*
X176795000Y-56657500D02*
X176795000Y-56182500D01*
G75*
G02*
X177032500Y-55945000I237500J0D01*
G01*
X177532500Y-55945000D01*
G75*
G02*
X177770000Y-56182500I0J-237500D01*
G01*
X177770000Y-56657500D01*
G75*
G02*
X177532500Y-56895000I-237500J0D01*
G01*
X177032500Y-56895000D01*
G75*
G02*
X176795000Y-56657500I0J237500D01*
G01*
G37*
G36*
G01*
X174970000Y-56657500D02*
X174970000Y-56182500D01*
G75*
G02*
X175207500Y-55945000I237500J0D01*
G01*
X175707500Y-55945000D01*
G75*
G02*
X175945000Y-56182500I0J-237500D01*
G01*
X175945000Y-56657500D01*
G75*
G02*
X175707500Y-56895000I-237500J0D01*
G01*
X175207500Y-56895000D01*
G75*
G02*
X174970000Y-56657500I0J237500D01*
G01*
G37*
%TD*%
%TO.C,R+A1*%
G36*
G01*
X151132500Y-80257500D02*
X151607500Y-80257500D01*
G75*
G02*
X151845000Y-80495000I0J-237500D01*
G01*
X151845000Y-80995000D01*
G75*
G02*
X151607500Y-81232500I-237500J0D01*
G01*
X151132500Y-81232500D01*
G75*
G02*
X150895000Y-80995000I0J237500D01*
G01*
X150895000Y-80495000D01*
G75*
G02*
X151132500Y-80257500I237500J0D01*
G01*
G37*
G36*
G01*
X151132500Y-78432500D02*
X151607500Y-78432500D01*
G75*
G02*
X151845000Y-78670000I0J-237500D01*
G01*
X151845000Y-79170000D01*
G75*
G02*
X151607500Y-79407500I-237500J0D01*
G01*
X151132500Y-79407500D01*
G75*
G02*
X150895000Y-79170000I0J237500D01*
G01*
X150895000Y-78670000D01*
G75*
G02*
X151132500Y-78432500I237500J0D01*
G01*
G37*
%TD*%
%TO.C,R+B1*%
G36*
G01*
X151132500Y-74257500D02*
X151607500Y-74257500D01*
G75*
G02*
X151845000Y-74495000I0J-237500D01*
G01*
X151845000Y-74995000D01*
G75*
G02*
X151607500Y-75232500I-237500J0D01*
G01*
X151132500Y-75232500D01*
G75*
G02*
X150895000Y-74995000I0J237500D01*
G01*
X150895000Y-74495000D01*
G75*
G02*
X151132500Y-74257500I237500J0D01*
G01*
G37*
G36*
G01*
X151132500Y-72432500D02*
X151607500Y-72432500D01*
G75*
G02*
X151845000Y-72670000I0J-237500D01*
G01*
X151845000Y-73170000D01*
G75*
G02*
X151607500Y-73407500I-237500J0D01*
G01*
X151132500Y-73407500D01*
G75*
G02*
X150895000Y-73170000I0J237500D01*
G01*
X150895000Y-72670000D01*
G75*
G02*
X151132500Y-72432500I237500J0D01*
G01*
G37*
%TD*%
%TO.C,R+C1*%
G36*
G01*
X151132500Y-68345000D02*
X151607500Y-68345000D01*
G75*
G02*
X151845000Y-68582500I0J-237500D01*
G01*
X151845000Y-69082500D01*
G75*
G02*
X151607500Y-69320000I-237500J0D01*
G01*
X151132500Y-69320000D01*
G75*
G02*
X150895000Y-69082500I0J237500D01*
G01*
X150895000Y-68582500D01*
G75*
G02*
X151132500Y-68345000I237500J0D01*
G01*
G37*
G36*
G01*
X151132500Y-66520000D02*
X151607500Y-66520000D01*
G75*
G02*
X151845000Y-66757500I0J-237500D01*
G01*
X151845000Y-67257500D01*
G75*
G02*
X151607500Y-67495000I-237500J0D01*
G01*
X151132500Y-67495000D01*
G75*
G02*
X150895000Y-67257500I0J237500D01*
G01*
X150895000Y-66757500D01*
G75*
G02*
X151132500Y-66520000I237500J0D01*
G01*
G37*
%TD*%
%TO.C,R+2*%
G36*
G01*
X147107500Y-70182500D02*
X147107500Y-70657500D01*
G75*
G02*
X146870000Y-70895000I-237500J0D01*
G01*
X146370000Y-70895000D01*
G75*
G02*
X146132500Y-70657500I0J237500D01*
G01*
X146132500Y-70182500D01*
G75*
G02*
X146370000Y-69945000I237500J0D01*
G01*
X146870000Y-69945000D01*
G75*
G02*
X147107500Y-70182500I0J-237500D01*
G01*
G37*
G36*
G01*
X148932500Y-70182500D02*
X148932500Y-70657500D01*
G75*
G02*
X148695000Y-70895000I-237500J0D01*
G01*
X148195000Y-70895000D01*
G75*
G02*
X147957500Y-70657500I0J237500D01*
G01*
X147957500Y-70182500D01*
G75*
G02*
X148195000Y-69945000I237500J0D01*
G01*
X148695000Y-69945000D01*
G75*
G02*
X148932500Y-70182500I0J-237500D01*
G01*
G37*
%TD*%
%TO.C,R+1*%
G36*
G01*
X155882500Y-65657500D02*
X155882500Y-65182500D01*
G75*
G02*
X156120000Y-64945000I237500J0D01*
G01*
X156620000Y-64945000D01*
G75*
G02*
X156857500Y-65182500I0J-237500D01*
G01*
X156857500Y-65657500D01*
G75*
G02*
X156620000Y-65895000I-237500J0D01*
G01*
X156120000Y-65895000D01*
G75*
G02*
X155882500Y-65657500I0J237500D01*
G01*
G37*
G36*
G01*
X154057500Y-65657500D02*
X154057500Y-65182500D01*
G75*
G02*
X154295000Y-64945000I237500J0D01*
G01*
X154795000Y-64945000D01*
G75*
G02*
X155032500Y-65182500I0J-237500D01*
G01*
X155032500Y-65657500D01*
G75*
G02*
X154795000Y-65895000I-237500J0D01*
G01*
X154295000Y-65895000D01*
G75*
G02*
X154057500Y-65657500I0J237500D01*
G01*
G37*
%TD*%
D14*
%TO.C,Q-1*%
X147070000Y-50380000D03*
X147070000Y-55460000D03*
D13*
X136795000Y-52920000D03*
%TD*%
%TO.C,C-2*%
G36*
G01*
X147557500Y-41657500D02*
X147557500Y-41182500D01*
G75*
G02*
X147795000Y-40945000I237500J0D01*
G01*
X148395000Y-40945000D01*
G75*
G02*
X148632500Y-41182500I0J-237500D01*
G01*
X148632500Y-41657500D01*
G75*
G02*
X148395000Y-41895000I-237500J0D01*
G01*
X147795000Y-41895000D01*
G75*
G02*
X147557500Y-41657500I0J237500D01*
G01*
G37*
G36*
G01*
X145832500Y-41657500D02*
X145832500Y-41182500D01*
G75*
G02*
X146070000Y-40945000I237500J0D01*
G01*
X146670000Y-40945000D01*
G75*
G02*
X146907500Y-41182500I0J-237500D01*
G01*
X146907500Y-41657500D01*
G75*
G02*
X146670000Y-41895000I-237500J0D01*
G01*
X146070000Y-41895000D01*
G75*
G02*
X145832500Y-41657500I0J237500D01*
G01*
G37*
%TD*%
%TO.C,C-1*%
G36*
G01*
X147557500Y-47657500D02*
X147557500Y-47182500D01*
G75*
G02*
X147795000Y-46945000I237500J0D01*
G01*
X148395000Y-46945000D01*
G75*
G02*
X148632500Y-47182500I0J-237500D01*
G01*
X148632500Y-47657500D01*
G75*
G02*
X148395000Y-47895000I-237500J0D01*
G01*
X147795000Y-47895000D01*
G75*
G02*
X147557500Y-47657500I0J237500D01*
G01*
G37*
G36*
G01*
X145832500Y-47657500D02*
X145832500Y-47182500D01*
G75*
G02*
X146070000Y-46945000I237500J0D01*
G01*
X146670000Y-46945000D01*
G75*
G02*
X146907500Y-47182500I0J-237500D01*
G01*
X146907500Y-47657500D01*
G75*
G02*
X146670000Y-47895000I-237500J0D01*
G01*
X146070000Y-47895000D01*
G75*
G02*
X145832500Y-47657500I0J237500D01*
G01*
G37*
%TD*%
%TO.C,C1*%
G36*
G01*
X236507500Y-94720000D02*
X236032500Y-94720000D01*
G75*
G02*
X235795000Y-94482500I0J237500D01*
G01*
X235795000Y-93882500D01*
G75*
G02*
X236032500Y-93645000I237500J0D01*
G01*
X236507500Y-93645000D01*
G75*
G02*
X236745000Y-93882500I0J-237500D01*
G01*
X236745000Y-94482500D01*
G75*
G02*
X236507500Y-94720000I-237500J0D01*
G01*
G37*
G36*
G01*
X236507500Y-92995000D02*
X236032500Y-92995000D01*
G75*
G02*
X235795000Y-92757500I0J237500D01*
G01*
X235795000Y-92157500D01*
G75*
G02*
X236032500Y-91920000I237500J0D01*
G01*
X236507500Y-91920000D01*
G75*
G02*
X236745000Y-92157500I0J-237500D01*
G01*
X236745000Y-92757500D01*
G75*
G02*
X236507500Y-92995000I-237500J0D01*
G01*
G37*
%TD*%
%TO.C,C2*%
G36*
G01*
X215507500Y-86977500D02*
X215032500Y-86977500D01*
G75*
G02*
X214795000Y-86740000I0J237500D01*
G01*
X214795000Y-86140000D01*
G75*
G02*
X215032500Y-85902500I237500J0D01*
G01*
X215507500Y-85902500D01*
G75*
G02*
X215745000Y-86140000I0J-237500D01*
G01*
X215745000Y-86740000D01*
G75*
G02*
X215507500Y-86977500I-237500J0D01*
G01*
G37*
G36*
G01*
X215507500Y-85252500D02*
X215032500Y-85252500D01*
G75*
G02*
X214795000Y-85015000I0J237500D01*
G01*
X214795000Y-84415000D01*
G75*
G02*
X215032500Y-84177500I237500J0D01*
G01*
X215507500Y-84177500D01*
G75*
G02*
X215745000Y-84415000I0J-237500D01*
G01*
X215745000Y-85015000D01*
G75*
G02*
X215507500Y-85252500I-237500J0D01*
G01*
G37*
%TD*%
%TO.C,C4*%
G36*
G01*
X215507500Y-89062500D02*
X215032500Y-89062500D01*
G75*
G02*
X214795000Y-88825000I0J237500D01*
G01*
X214795000Y-88225000D01*
G75*
G02*
X215032500Y-87987500I237500J0D01*
G01*
X215507500Y-87987500D01*
G75*
G02*
X215745000Y-88225000I0J-237500D01*
G01*
X215745000Y-88825000D01*
G75*
G02*
X215507500Y-89062500I-237500J0D01*
G01*
G37*
G36*
G01*
X215507500Y-90787500D02*
X215032500Y-90787500D01*
G75*
G02*
X214795000Y-90550000I0J237500D01*
G01*
X214795000Y-89950000D01*
G75*
G02*
X215032500Y-89712500I237500J0D01*
G01*
X215507500Y-89712500D01*
G75*
G02*
X215745000Y-89950000I0J-237500D01*
G01*
X215745000Y-90550000D01*
G75*
G02*
X215507500Y-90787500I-237500J0D01*
G01*
G37*
%TD*%
D20*
%TO.C,Q1*%
X209920000Y-83580000D03*
X209920000Y-81680000D03*
X207920000Y-82630000D03*
%TD*%
%TO.C,R6*%
G36*
G01*
X205347500Y-85102500D02*
X204872500Y-85102500D01*
G75*
G02*
X204635000Y-84865000I0J237500D01*
G01*
X204635000Y-84365000D01*
G75*
G02*
X204872500Y-84127500I237500J0D01*
G01*
X205347500Y-84127500D01*
G75*
G02*
X205585000Y-84365000I0J-237500D01*
G01*
X205585000Y-84865000D01*
G75*
G02*
X205347500Y-85102500I-237500J0D01*
G01*
G37*
G36*
G01*
X205347500Y-86927500D02*
X204872500Y-86927500D01*
G75*
G02*
X204635000Y-86690000I0J237500D01*
G01*
X204635000Y-86190000D01*
G75*
G02*
X204872500Y-85952500I237500J0D01*
G01*
X205347500Y-85952500D01*
G75*
G02*
X205585000Y-86190000I0J-237500D01*
G01*
X205585000Y-86690000D01*
G75*
G02*
X205347500Y-86927500I-237500J0D01*
G01*
G37*
%TD*%
D21*
%TO.C,U1*%
X229180000Y-93107500D03*
X229180000Y-93742500D03*
X229180000Y-94377500D03*
X229180000Y-95012500D03*
X229180000Y-95647500D03*
X229180000Y-96282500D03*
X229180000Y-96917500D03*
X229180000Y-97552500D03*
X234380000Y-97552500D03*
X234380000Y-96917500D03*
X234380000Y-96282500D03*
X234380000Y-95647500D03*
X234380000Y-95012500D03*
X234380000Y-94377500D03*
X234380000Y-93742500D03*
X234380000Y-93107500D03*
%TD*%
%TO.C,U2*%
G36*
G01*
X206740000Y-85955000D02*
X206740000Y-85655000D01*
G75*
G02*
X206890000Y-85505000I150000J0D01*
G01*
X208540000Y-85505000D01*
G75*
G02*
X208690000Y-85655000I0J-150000D01*
G01*
X208690000Y-85955000D01*
G75*
G02*
X208540000Y-86105000I-150000J0D01*
G01*
X206890000Y-86105000D01*
G75*
G02*
X206740000Y-85955000I0J150000D01*
G01*
G37*
G36*
G01*
X206740000Y-87225000D02*
X206740000Y-86925000D01*
G75*
G02*
X206890000Y-86775000I150000J0D01*
G01*
X208540000Y-86775000D01*
G75*
G02*
X208690000Y-86925000I0J-150000D01*
G01*
X208690000Y-87225000D01*
G75*
G02*
X208540000Y-87375000I-150000J0D01*
G01*
X206890000Y-87375000D01*
G75*
G02*
X206740000Y-87225000I0J150000D01*
G01*
G37*
G36*
G01*
X206740000Y-88495000D02*
X206740000Y-88195000D01*
G75*
G02*
X206890000Y-88045000I150000J0D01*
G01*
X208540000Y-88045000D01*
G75*
G02*
X208690000Y-88195000I0J-150000D01*
G01*
X208690000Y-88495000D01*
G75*
G02*
X208540000Y-88645000I-150000J0D01*
G01*
X206890000Y-88645000D01*
G75*
G02*
X206740000Y-88495000I0J150000D01*
G01*
G37*
G36*
G01*
X206740000Y-89765000D02*
X206740000Y-89465000D01*
G75*
G02*
X206890000Y-89315000I150000J0D01*
G01*
X208540000Y-89315000D01*
G75*
G02*
X208690000Y-89465000I0J-150000D01*
G01*
X208690000Y-89765000D01*
G75*
G02*
X208540000Y-89915000I-150000J0D01*
G01*
X206890000Y-89915000D01*
G75*
G02*
X206740000Y-89765000I0J150000D01*
G01*
G37*
G36*
G01*
X211690000Y-89765000D02*
X211690000Y-89465000D01*
G75*
G02*
X211840000Y-89315000I150000J0D01*
G01*
X213490000Y-89315000D01*
G75*
G02*
X213640000Y-89465000I0J-150000D01*
G01*
X213640000Y-89765000D01*
G75*
G02*
X213490000Y-89915000I-150000J0D01*
G01*
X211840000Y-89915000D01*
G75*
G02*
X211690000Y-89765000I0J150000D01*
G01*
G37*
G36*
G01*
X211690000Y-88495000D02*
X211690000Y-88195000D01*
G75*
G02*
X211840000Y-88045000I150000J0D01*
G01*
X213490000Y-88045000D01*
G75*
G02*
X213640000Y-88195000I0J-150000D01*
G01*
X213640000Y-88495000D01*
G75*
G02*
X213490000Y-88645000I-150000J0D01*
G01*
X211840000Y-88645000D01*
G75*
G02*
X211690000Y-88495000I0J150000D01*
G01*
G37*
G36*
G01*
X211690000Y-87225000D02*
X211690000Y-86925000D01*
G75*
G02*
X211840000Y-86775000I150000J0D01*
G01*
X213490000Y-86775000D01*
G75*
G02*
X213640000Y-86925000I0J-150000D01*
G01*
X213640000Y-87225000D01*
G75*
G02*
X213490000Y-87375000I-150000J0D01*
G01*
X211840000Y-87375000D01*
G75*
G02*
X211690000Y-87225000I0J150000D01*
G01*
G37*
G36*
G01*
X211690000Y-85955000D02*
X211690000Y-85655000D01*
G75*
G02*
X211840000Y-85505000I150000J0D01*
G01*
X213490000Y-85505000D01*
G75*
G02*
X213640000Y-85655000I0J-150000D01*
G01*
X213640000Y-85955000D01*
G75*
G02*
X213490000Y-86105000I-150000J0D01*
G01*
X211840000Y-86105000D01*
G75*
G02*
X211690000Y-85955000I0J150000D01*
G01*
G37*
%TD*%
M02*
