%TF.GenerationSoftware,KiCad,Pcbnew,(5.1.10)-1*%
%TF.CreationDate,2021-11-13T17:44:38+00:00*%
%TF.ProjectId,voltmitten,766f6c74-6d69-4747-9465-6e2e6b696361,01*%
%TF.SameCoordinates,Original*%
%TF.FileFunction,Legend,Bot*%
%TF.FilePolarity,Positive*%
%FSLAX46Y46*%
G04 Gerber Fmt 4.6, Leading zero omitted, Abs format (unit mm)*
G04 Created by KiCad (PCBNEW (5.1.10)-1) date 2021-11-13 17:44:38*
%MOMM*%
%LPD*%
G01*
G04 APERTURE LIST*
%ADD10C,0.150000*%
%ADD11C,0.100000*%
%ADD12C,0.120000*%
%ADD13C,0.127000*%
%ADD14C,0.200000*%
%ADD15C,0.015000*%
G04 APERTURE END LIST*
D10*
X105093928Y-119047380D02*
X104903452Y-119047380D01*
X104808214Y-119095000D01*
X104712976Y-119190238D01*
X104665357Y-119380714D01*
X104665357Y-119714047D01*
X104712976Y-119904523D01*
X104808214Y-119999761D01*
X104903452Y-120047380D01*
X105093928Y-120047380D01*
X105189166Y-119999761D01*
X105284404Y-119904523D01*
X105332023Y-119714047D01*
X105332023Y-119380714D01*
X105284404Y-119190238D01*
X105189166Y-119095000D01*
X105093928Y-119047380D01*
X104236785Y-120047380D02*
X104236785Y-119380714D01*
X104236785Y-119475952D02*
X104189166Y-119428333D01*
X104093928Y-119380714D01*
X103951071Y-119380714D01*
X103855833Y-119428333D01*
X103808214Y-119523571D01*
X103808214Y-120047380D01*
X103808214Y-119523571D02*
X103760595Y-119428333D01*
X103665357Y-119380714D01*
X103522500Y-119380714D01*
X103427261Y-119428333D01*
X103379642Y-119523571D01*
X103379642Y-120047380D01*
X102903452Y-120047380D02*
X102903452Y-119380714D01*
X102903452Y-119047380D02*
X102951071Y-119095000D01*
X102903452Y-119142619D01*
X102855833Y-119095000D01*
X102903452Y-119047380D01*
X102903452Y-119142619D01*
X102570119Y-119380714D02*
X102189166Y-119380714D01*
X102427261Y-119047380D02*
X102427261Y-119904523D01*
X102379642Y-119999761D01*
X102284404Y-120047380D01*
X102189166Y-120047380D01*
X100522500Y-120047380D02*
X100855833Y-119571190D01*
X101093928Y-120047380D02*
X101093928Y-119047380D01*
X100712976Y-119047380D01*
X100617738Y-119095000D01*
X100570119Y-119142619D01*
X100522500Y-119237857D01*
X100522500Y-119380714D01*
X100570119Y-119475952D01*
X100617738Y-119523571D01*
X100712976Y-119571190D01*
X101093928Y-119571190D01*
X100093928Y-119666428D02*
X99332023Y-119666428D01*
X99712976Y-120047380D02*
X99712976Y-119285476D01*
X98951071Y-119047380D02*
X98332023Y-119047380D01*
X98665357Y-119428333D01*
X98522500Y-119428333D01*
X98427261Y-119475952D01*
X98379642Y-119523571D01*
X98332023Y-119618809D01*
X98332023Y-119856904D01*
X98379642Y-119952142D01*
X98427261Y-119999761D01*
X98522500Y-120047380D01*
X98808214Y-120047380D01*
X98903452Y-119999761D01*
X98951071Y-119952142D01*
X97855833Y-119999761D02*
X97855833Y-120047380D01*
X97903452Y-120142619D01*
X97951071Y-120190238D01*
X96093928Y-120047380D02*
X96427261Y-119571190D01*
X96665357Y-120047380D02*
X96665357Y-119047380D01*
X96284404Y-119047380D01*
X96189166Y-119095000D01*
X96141547Y-119142619D01*
X96093928Y-119237857D01*
X96093928Y-119380714D01*
X96141547Y-119475952D01*
X96189166Y-119523571D01*
X96284404Y-119571190D01*
X96665357Y-119571190D01*
X95665357Y-119666428D02*
X94903452Y-119666428D01*
X95284404Y-120047380D02*
X95284404Y-119285476D01*
X93998690Y-119380714D02*
X93998690Y-120047380D01*
X94236785Y-118999761D02*
X94474880Y-119714047D01*
X93855833Y-119714047D01*
X105284404Y-121697380D02*
X105284404Y-121030714D01*
X105284404Y-120697380D02*
X105332023Y-120745000D01*
X105284404Y-120792619D01*
X105236785Y-120745000D01*
X105284404Y-120697380D01*
X105284404Y-120792619D01*
X104951071Y-121030714D02*
X104570119Y-121030714D01*
X104808214Y-121697380D02*
X104808214Y-120840238D01*
X104760595Y-120745000D01*
X104665357Y-120697380D01*
X104570119Y-120697380D01*
X103617738Y-120697380D02*
X103046309Y-120697380D01*
X103332023Y-121697380D02*
X103332023Y-120697380D01*
X102712976Y-121697380D02*
X102712976Y-120697380D01*
X102332023Y-120697380D01*
X102236785Y-120745000D01*
X102189166Y-120792619D01*
X102141547Y-120887857D01*
X102141547Y-121030714D01*
X102189166Y-121125952D01*
X102236785Y-121173571D01*
X102332023Y-121221190D01*
X102712976Y-121221190D01*
X101712976Y-121316428D02*
X100951071Y-121316428D01*
X101332023Y-121697380D02*
X101332023Y-120935476D01*
X99951071Y-121697380D02*
X100522500Y-121697380D01*
X100236785Y-121697380D02*
X100236785Y-120697380D01*
X100332023Y-120840238D01*
X100427261Y-120935476D01*
X100522500Y-120983095D01*
X98760595Y-121030714D02*
X98760595Y-121697380D01*
X98760595Y-121125952D02*
X98712976Y-121078333D01*
X98617738Y-121030714D01*
X98474880Y-121030714D01*
X98379642Y-121078333D01*
X98332023Y-121173571D01*
X98332023Y-121697380D01*
X97712976Y-121697380D02*
X97808214Y-121649761D01*
X97855833Y-121602142D01*
X97903452Y-121506904D01*
X97903452Y-121221190D01*
X97855833Y-121125952D01*
X97808214Y-121078333D01*
X97712976Y-121030714D01*
X97570119Y-121030714D01*
X97474880Y-121078333D01*
X97427261Y-121125952D01*
X97379642Y-121221190D01*
X97379642Y-121506904D01*
X97427261Y-121602142D01*
X97474880Y-121649761D01*
X97570119Y-121697380D01*
X97712976Y-121697380D01*
X97093928Y-121030714D02*
X96712976Y-121030714D01*
X96951071Y-120697380D02*
X96951071Y-121554523D01*
X96903452Y-121649761D01*
X96808214Y-121697380D01*
X96712976Y-121697380D01*
X95617738Y-121697380D02*
X95617738Y-121030714D01*
X95617738Y-121221190D02*
X95570119Y-121125952D01*
X95522500Y-121078333D01*
X95427261Y-121030714D01*
X95332023Y-121030714D01*
X94617738Y-121649761D02*
X94712976Y-121697380D01*
X94903452Y-121697380D01*
X94998690Y-121649761D01*
X95046309Y-121554523D01*
X95046309Y-121173571D01*
X94998690Y-121078333D01*
X94903452Y-121030714D01*
X94712976Y-121030714D01*
X94617738Y-121078333D01*
X94570119Y-121173571D01*
X94570119Y-121268809D01*
X95046309Y-121364047D01*
X93712976Y-121030714D02*
X93712976Y-122030714D01*
X93712976Y-121649761D02*
X93808214Y-121697380D01*
X93998690Y-121697380D01*
X94093928Y-121649761D01*
X94141547Y-121602142D01*
X94189166Y-121506904D01*
X94189166Y-121221190D01*
X94141547Y-121125952D01*
X94093928Y-121078333D01*
X93998690Y-121030714D01*
X93808214Y-121030714D01*
X93712976Y-121078333D01*
X92808214Y-121030714D02*
X92808214Y-121697380D01*
X93236785Y-121030714D02*
X93236785Y-121554523D01*
X93189166Y-121649761D01*
X93093928Y-121697380D01*
X92951071Y-121697380D01*
X92855833Y-121649761D01*
X92808214Y-121602142D01*
X92332023Y-121697380D02*
X92332023Y-121030714D01*
X92332023Y-120697380D02*
X92379642Y-120745000D01*
X92332023Y-120792619D01*
X92284404Y-120745000D01*
X92332023Y-120697380D01*
X92332023Y-120792619D01*
X91855833Y-121697380D02*
X91855833Y-121030714D01*
X91855833Y-121221190D02*
X91808214Y-121125952D01*
X91760595Y-121078333D01*
X91665357Y-121030714D01*
X91570119Y-121030714D01*
X90855833Y-121649761D02*
X90951071Y-121697380D01*
X91141547Y-121697380D01*
X91236785Y-121649761D01*
X91284404Y-121554523D01*
X91284404Y-121173571D01*
X91236785Y-121078333D01*
X91141547Y-121030714D01*
X90951071Y-121030714D01*
X90855833Y-121078333D01*
X90808214Y-121173571D01*
X90808214Y-121268809D01*
X91284404Y-121364047D01*
X89951071Y-121697380D02*
X89951071Y-120697380D01*
X89951071Y-121649761D02*
X90046309Y-121697380D01*
X90236785Y-121697380D01*
X90332023Y-121649761D01*
X90379642Y-121602142D01*
X90427261Y-121506904D01*
X90427261Y-121221190D01*
X90379642Y-121125952D01*
X90332023Y-121078333D01*
X90236785Y-121030714D01*
X90046309Y-121030714D01*
X89951071Y-121078333D01*
X104951071Y-115523571D02*
X105284404Y-115523571D01*
X105284404Y-116047380D02*
X105284404Y-115047380D01*
X104808214Y-115047380D01*
X104427261Y-116047380D02*
X104427261Y-115380714D01*
X104427261Y-115047380D02*
X104474880Y-115095000D01*
X104427261Y-115142619D01*
X104379642Y-115095000D01*
X104427261Y-115047380D01*
X104427261Y-115142619D01*
X104093928Y-115380714D02*
X103712976Y-115380714D01*
X103951071Y-115047380D02*
X103951071Y-115904523D01*
X103903452Y-115999761D01*
X103808214Y-116047380D01*
X103712976Y-116047380D01*
X102046309Y-116047380D02*
X102379642Y-115571190D01*
X102617738Y-116047380D02*
X102617738Y-115047380D01*
X102236785Y-115047380D01*
X102141547Y-115095000D01*
X102093928Y-115142619D01*
X102046309Y-115237857D01*
X102046309Y-115380714D01*
X102093928Y-115475952D01*
X102141547Y-115523571D01*
X102236785Y-115571190D01*
X102617738Y-115571190D01*
X101617738Y-115666428D02*
X100855833Y-115666428D01*
X101236785Y-116047380D02*
X101236785Y-115285476D01*
X100427261Y-115761666D02*
X99951071Y-115761666D01*
X100522500Y-116047380D02*
X100189166Y-115047380D01*
X99855833Y-116047380D01*
X98998690Y-116047380D02*
X99570119Y-116047380D01*
X99284404Y-116047380D02*
X99284404Y-115047380D01*
X99379642Y-115190238D01*
X99474880Y-115285476D01*
X99570119Y-115333095D01*
X98522500Y-115999761D02*
X98522500Y-116047380D01*
X98570119Y-116142619D01*
X98617738Y-116190238D01*
X96760595Y-116047380D02*
X97093928Y-115571190D01*
X97332023Y-116047380D02*
X97332023Y-115047380D01*
X96951071Y-115047380D01*
X96855833Y-115095000D01*
X96808214Y-115142619D01*
X96760595Y-115237857D01*
X96760595Y-115380714D01*
X96808214Y-115475952D01*
X96855833Y-115523571D01*
X96951071Y-115571190D01*
X97332023Y-115571190D01*
X96332023Y-115666428D02*
X95570119Y-115666428D01*
X95951071Y-116047380D02*
X95951071Y-115285476D01*
X94760595Y-115523571D02*
X94617738Y-115571190D01*
X94570119Y-115618809D01*
X94522500Y-115714047D01*
X94522500Y-115856904D01*
X94570119Y-115952142D01*
X94617738Y-115999761D01*
X94712976Y-116047380D01*
X95093928Y-116047380D01*
X95093928Y-115047380D01*
X94760595Y-115047380D01*
X94665357Y-115095000D01*
X94617738Y-115142619D01*
X94570119Y-115237857D01*
X94570119Y-115333095D01*
X94617738Y-115428333D01*
X94665357Y-115475952D01*
X94760595Y-115523571D01*
X95093928Y-115523571D01*
X93570119Y-116047380D02*
X94141547Y-116047380D01*
X93855833Y-116047380D02*
X93855833Y-115047380D01*
X93951071Y-115190238D01*
X94046309Y-115285476D01*
X94141547Y-115333095D01*
X93093928Y-115999761D02*
X93093928Y-116047380D01*
X93141547Y-116142619D01*
X93189166Y-116190238D01*
X91332023Y-116047380D02*
X91665357Y-115571190D01*
X91903452Y-116047380D02*
X91903452Y-115047380D01*
X91522500Y-115047380D01*
X91427261Y-115095000D01*
X91379642Y-115142619D01*
X91332023Y-115237857D01*
X91332023Y-115380714D01*
X91379642Y-115475952D01*
X91427261Y-115523571D01*
X91522500Y-115571190D01*
X91903452Y-115571190D01*
X90903452Y-115666428D02*
X90141547Y-115666428D01*
X90522500Y-116047380D02*
X90522500Y-115285476D01*
X89093928Y-115952142D02*
X89141547Y-115999761D01*
X89284404Y-116047380D01*
X89379642Y-116047380D01*
X89522500Y-115999761D01*
X89617738Y-115904523D01*
X89665357Y-115809285D01*
X89712976Y-115618809D01*
X89712976Y-115475952D01*
X89665357Y-115285476D01*
X89617738Y-115190238D01*
X89522500Y-115095000D01*
X89379642Y-115047380D01*
X89284404Y-115047380D01*
X89141547Y-115095000D01*
X89093928Y-115142619D01*
X88141547Y-116047380D02*
X88712976Y-116047380D01*
X88427261Y-116047380D02*
X88427261Y-115047380D01*
X88522500Y-115190238D01*
X88617738Y-115285476D01*
X88712976Y-115333095D01*
X105284404Y-117030714D02*
X105284404Y-118030714D01*
X105284404Y-117078333D02*
X105189166Y-117030714D01*
X104998690Y-117030714D01*
X104903452Y-117078333D01*
X104855833Y-117125952D01*
X104808214Y-117221190D01*
X104808214Y-117506904D01*
X104855833Y-117602142D01*
X104903452Y-117649761D01*
X104998690Y-117697380D01*
X105189166Y-117697380D01*
X105284404Y-117649761D01*
X103998690Y-117649761D02*
X104093928Y-117697380D01*
X104284404Y-117697380D01*
X104379642Y-117649761D01*
X104427261Y-117554523D01*
X104427261Y-117173571D01*
X104379642Y-117078333D01*
X104284404Y-117030714D01*
X104093928Y-117030714D01*
X103998690Y-117078333D01*
X103951071Y-117173571D01*
X103951071Y-117268809D01*
X104427261Y-117364047D01*
X103522500Y-117697380D02*
X103522500Y-117030714D01*
X103522500Y-117221190D02*
X103474880Y-117125952D01*
X103427261Y-117078333D01*
X103332023Y-117030714D01*
X103236785Y-117030714D01*
X101665357Y-117697380D02*
X102141547Y-117697380D01*
X102141547Y-116697380D01*
X101474880Y-116697380D02*
X100903452Y-116697380D01*
X101189166Y-117697380D02*
X101189166Y-116697380D01*
X99998690Y-117602142D02*
X100046309Y-117649761D01*
X100189166Y-117697380D01*
X100284404Y-117697380D01*
X100427261Y-117649761D01*
X100522500Y-117554523D01*
X100570119Y-117459285D01*
X100617738Y-117268809D01*
X100617738Y-117125952D01*
X100570119Y-116935476D01*
X100522500Y-116840238D01*
X100427261Y-116745000D01*
X100284404Y-116697380D01*
X100189166Y-116697380D01*
X100046309Y-116745000D01*
X99998690Y-116792619D01*
X99617738Y-116792619D02*
X99570119Y-116745000D01*
X99474880Y-116697380D01*
X99236785Y-116697380D01*
X99141547Y-116745000D01*
X99093928Y-116792619D01*
X99046309Y-116887857D01*
X99046309Y-116983095D01*
X99093928Y-117125952D01*
X99665357Y-117697380D01*
X99046309Y-117697380D01*
X98570119Y-117697380D02*
X98379642Y-117697380D01*
X98284404Y-117649761D01*
X98236785Y-117602142D01*
X98141547Y-117459285D01*
X98093928Y-117268809D01*
X98093928Y-116887857D01*
X98141547Y-116792619D01*
X98189166Y-116745000D01*
X98284404Y-116697380D01*
X98474880Y-116697380D01*
X98570119Y-116745000D01*
X98617738Y-116792619D01*
X98665357Y-116887857D01*
X98665357Y-117125952D01*
X98617738Y-117221190D01*
X98570119Y-117268809D01*
X98474880Y-117316428D01*
X98284404Y-117316428D01*
X98189166Y-117268809D01*
X98141547Y-117221190D01*
X98093928Y-117125952D01*
X97141547Y-117697380D02*
X97712976Y-117697380D01*
X97427261Y-117697380D02*
X97427261Y-116697380D01*
X97522500Y-116840238D01*
X97617738Y-116935476D01*
X97712976Y-116983095D01*
X96284404Y-117030714D02*
X96284404Y-117697380D01*
X96522500Y-116649761D02*
X96760595Y-117364047D01*
X96141547Y-117364047D01*
X94570119Y-117697380D02*
X94570119Y-116697380D01*
X94570119Y-117649761D02*
X94665357Y-117697380D01*
X94855833Y-117697380D01*
X94951071Y-117649761D01*
X94998690Y-117602142D01*
X95046309Y-117506904D01*
X95046309Y-117221190D01*
X94998690Y-117125952D01*
X94951071Y-117078333D01*
X94855833Y-117030714D01*
X94665357Y-117030714D01*
X94570119Y-117078333D01*
X93665357Y-117697380D02*
X93665357Y-117173571D01*
X93712976Y-117078333D01*
X93808214Y-117030714D01*
X93998690Y-117030714D01*
X94093928Y-117078333D01*
X93665357Y-117649761D02*
X93760595Y-117697380D01*
X93998690Y-117697380D01*
X94093928Y-117649761D01*
X94141547Y-117554523D01*
X94141547Y-117459285D01*
X94093928Y-117364047D01*
X93998690Y-117316428D01*
X93760595Y-117316428D01*
X93665357Y-117268809D01*
X93332023Y-117030714D02*
X92951071Y-117030714D01*
X93189166Y-116697380D02*
X93189166Y-117554523D01*
X93141547Y-117649761D01*
X93046309Y-117697380D01*
X92951071Y-117697380D01*
X92189166Y-117697380D02*
X92189166Y-117173571D01*
X92236785Y-117078333D01*
X92332023Y-117030714D01*
X92522500Y-117030714D01*
X92617738Y-117078333D01*
X92189166Y-117649761D02*
X92284404Y-117697380D01*
X92522500Y-117697380D01*
X92617738Y-117649761D01*
X92665357Y-117554523D01*
X92665357Y-117459285D01*
X92617738Y-117364047D01*
X92522500Y-117316428D01*
X92284404Y-117316428D01*
X92189166Y-117268809D01*
X91760595Y-117649761D02*
X91665357Y-117697380D01*
X91474880Y-117697380D01*
X91379642Y-117649761D01*
X91332023Y-117554523D01*
X91332023Y-117506904D01*
X91379642Y-117411666D01*
X91474880Y-117364047D01*
X91617738Y-117364047D01*
X91712976Y-117316428D01*
X91760595Y-117221190D01*
X91760595Y-117173571D01*
X91712976Y-117078333D01*
X91617738Y-117030714D01*
X91474880Y-117030714D01*
X91379642Y-117078333D01*
X90903452Y-117697380D02*
X90903452Y-116697380D01*
X90474880Y-117697380D02*
X90474880Y-117173571D01*
X90522500Y-117078333D01*
X90617738Y-117030714D01*
X90760595Y-117030714D01*
X90855833Y-117078333D01*
X90903452Y-117125952D01*
X89617738Y-117649761D02*
X89712976Y-117697380D01*
X89903452Y-117697380D01*
X89998690Y-117649761D01*
X90046309Y-117554523D01*
X90046309Y-117173571D01*
X89998690Y-117078333D01*
X89903452Y-117030714D01*
X89712976Y-117030714D01*
X89617738Y-117078333D01*
X89570119Y-117173571D01*
X89570119Y-117268809D01*
X90046309Y-117364047D01*
X88760595Y-117649761D02*
X88855833Y-117697380D01*
X89046309Y-117697380D01*
X89141547Y-117649761D01*
X89189166Y-117554523D01*
X89189166Y-117173571D01*
X89141547Y-117078333D01*
X89046309Y-117030714D01*
X88855833Y-117030714D01*
X88760595Y-117078333D01*
X88712976Y-117173571D01*
X88712976Y-117268809D01*
X89189166Y-117364047D01*
X88427261Y-117030714D02*
X88046309Y-117030714D01*
X88284404Y-116697380D02*
X88284404Y-117554523D01*
X88236785Y-117649761D01*
X88141547Y-117697380D01*
X88046309Y-117697380D01*
D11*
G36*
X105620000Y-133920000D02*
G01*
X87870000Y-133920000D01*
X87870000Y-122920000D01*
X105620000Y-122920000D01*
X105620000Y-133920000D01*
G37*
X105620000Y-133920000D02*
X87870000Y-133920000D01*
X87870000Y-122920000D01*
X105620000Y-122920000D01*
X105620000Y-133920000D01*
D10*
X105093928Y-70047380D02*
X104903452Y-70047380D01*
X104808214Y-70095000D01*
X104712976Y-70190238D01*
X104665357Y-70380714D01*
X104665357Y-70714047D01*
X104712976Y-70904523D01*
X104808214Y-70999761D01*
X104903452Y-71047380D01*
X105093928Y-71047380D01*
X105189166Y-70999761D01*
X105284404Y-70904523D01*
X105332023Y-70714047D01*
X105332023Y-70380714D01*
X105284404Y-70190238D01*
X105189166Y-70095000D01*
X105093928Y-70047380D01*
X104236785Y-71047380D02*
X104236785Y-70380714D01*
X104236785Y-70475952D02*
X104189166Y-70428333D01*
X104093928Y-70380714D01*
X103951071Y-70380714D01*
X103855833Y-70428333D01*
X103808214Y-70523571D01*
X103808214Y-71047380D01*
X103808214Y-70523571D02*
X103760595Y-70428333D01*
X103665357Y-70380714D01*
X103522500Y-70380714D01*
X103427261Y-70428333D01*
X103379642Y-70523571D01*
X103379642Y-71047380D01*
X102903452Y-71047380D02*
X102903452Y-70380714D01*
X102903452Y-70047380D02*
X102951071Y-70095000D01*
X102903452Y-70142619D01*
X102855833Y-70095000D01*
X102903452Y-70047380D01*
X102903452Y-70142619D01*
X102570119Y-70380714D02*
X102189166Y-70380714D01*
X102427261Y-70047380D02*
X102427261Y-70904523D01*
X102379642Y-70999761D01*
X102284404Y-71047380D01*
X102189166Y-71047380D01*
X100522500Y-71047380D02*
X100855833Y-70571190D01*
X101093928Y-71047380D02*
X101093928Y-70047380D01*
X100712976Y-70047380D01*
X100617738Y-70095000D01*
X100570119Y-70142619D01*
X100522500Y-70237857D01*
X100522500Y-70380714D01*
X100570119Y-70475952D01*
X100617738Y-70523571D01*
X100712976Y-70571190D01*
X101093928Y-70571190D01*
X100093928Y-70666428D02*
X99332023Y-70666428D01*
X99712976Y-71047380D02*
X99712976Y-70285476D01*
X98951071Y-70047380D02*
X98332023Y-70047380D01*
X98665357Y-70428333D01*
X98522500Y-70428333D01*
X98427261Y-70475952D01*
X98379642Y-70523571D01*
X98332023Y-70618809D01*
X98332023Y-70856904D01*
X98379642Y-70952142D01*
X98427261Y-70999761D01*
X98522500Y-71047380D01*
X98808214Y-71047380D01*
X98903452Y-70999761D01*
X98951071Y-70952142D01*
X97855833Y-70999761D02*
X97855833Y-71047380D01*
X97903452Y-71142619D01*
X97951071Y-71190238D01*
X96093928Y-71047380D02*
X96427261Y-70571190D01*
X96665357Y-71047380D02*
X96665357Y-70047380D01*
X96284404Y-70047380D01*
X96189166Y-70095000D01*
X96141547Y-70142619D01*
X96093928Y-70237857D01*
X96093928Y-70380714D01*
X96141547Y-70475952D01*
X96189166Y-70523571D01*
X96284404Y-70571190D01*
X96665357Y-70571190D01*
X95665357Y-70666428D02*
X94903452Y-70666428D01*
X95284404Y-71047380D02*
X95284404Y-70285476D01*
X93998690Y-70380714D02*
X93998690Y-71047380D01*
X94236785Y-69999761D02*
X94474880Y-70714047D01*
X93855833Y-70714047D01*
X105284404Y-72697380D02*
X105284404Y-72030714D01*
X105284404Y-71697380D02*
X105332023Y-71745000D01*
X105284404Y-71792619D01*
X105236785Y-71745000D01*
X105284404Y-71697380D01*
X105284404Y-71792619D01*
X104951071Y-72030714D02*
X104570119Y-72030714D01*
X104808214Y-72697380D02*
X104808214Y-71840238D01*
X104760595Y-71745000D01*
X104665357Y-71697380D01*
X104570119Y-71697380D01*
X103617738Y-71697380D02*
X103046309Y-71697380D01*
X103332023Y-72697380D02*
X103332023Y-71697380D01*
X102712976Y-72697380D02*
X102712976Y-71697380D01*
X102332023Y-71697380D01*
X102236785Y-71745000D01*
X102189166Y-71792619D01*
X102141547Y-71887857D01*
X102141547Y-72030714D01*
X102189166Y-72125952D01*
X102236785Y-72173571D01*
X102332023Y-72221190D01*
X102712976Y-72221190D01*
X101712976Y-72316428D02*
X100951071Y-72316428D01*
X101332023Y-72697380D02*
X101332023Y-71935476D01*
X99951071Y-72697380D02*
X100522500Y-72697380D01*
X100236785Y-72697380D02*
X100236785Y-71697380D01*
X100332023Y-71840238D01*
X100427261Y-71935476D01*
X100522500Y-71983095D01*
X98760595Y-72030714D02*
X98760595Y-72697380D01*
X98760595Y-72125952D02*
X98712976Y-72078333D01*
X98617738Y-72030714D01*
X98474880Y-72030714D01*
X98379642Y-72078333D01*
X98332023Y-72173571D01*
X98332023Y-72697380D01*
X97712976Y-72697380D02*
X97808214Y-72649761D01*
X97855833Y-72602142D01*
X97903452Y-72506904D01*
X97903452Y-72221190D01*
X97855833Y-72125952D01*
X97808214Y-72078333D01*
X97712976Y-72030714D01*
X97570119Y-72030714D01*
X97474880Y-72078333D01*
X97427261Y-72125952D01*
X97379642Y-72221190D01*
X97379642Y-72506904D01*
X97427261Y-72602142D01*
X97474880Y-72649761D01*
X97570119Y-72697380D01*
X97712976Y-72697380D01*
X97093928Y-72030714D02*
X96712976Y-72030714D01*
X96951071Y-71697380D02*
X96951071Y-72554523D01*
X96903452Y-72649761D01*
X96808214Y-72697380D01*
X96712976Y-72697380D01*
X95617738Y-72697380D02*
X95617738Y-72030714D01*
X95617738Y-72221190D02*
X95570119Y-72125952D01*
X95522500Y-72078333D01*
X95427261Y-72030714D01*
X95332023Y-72030714D01*
X94617738Y-72649761D02*
X94712976Y-72697380D01*
X94903452Y-72697380D01*
X94998690Y-72649761D01*
X95046309Y-72554523D01*
X95046309Y-72173571D01*
X94998690Y-72078333D01*
X94903452Y-72030714D01*
X94712976Y-72030714D01*
X94617738Y-72078333D01*
X94570119Y-72173571D01*
X94570119Y-72268809D01*
X95046309Y-72364047D01*
X93712976Y-72030714D02*
X93712976Y-73030714D01*
X93712976Y-72649761D02*
X93808214Y-72697380D01*
X93998690Y-72697380D01*
X94093928Y-72649761D01*
X94141547Y-72602142D01*
X94189166Y-72506904D01*
X94189166Y-72221190D01*
X94141547Y-72125952D01*
X94093928Y-72078333D01*
X93998690Y-72030714D01*
X93808214Y-72030714D01*
X93712976Y-72078333D01*
X92808214Y-72030714D02*
X92808214Y-72697380D01*
X93236785Y-72030714D02*
X93236785Y-72554523D01*
X93189166Y-72649761D01*
X93093928Y-72697380D01*
X92951071Y-72697380D01*
X92855833Y-72649761D01*
X92808214Y-72602142D01*
X92332023Y-72697380D02*
X92332023Y-72030714D01*
X92332023Y-71697380D02*
X92379642Y-71745000D01*
X92332023Y-71792619D01*
X92284404Y-71745000D01*
X92332023Y-71697380D01*
X92332023Y-71792619D01*
X91855833Y-72697380D02*
X91855833Y-72030714D01*
X91855833Y-72221190D02*
X91808214Y-72125952D01*
X91760595Y-72078333D01*
X91665357Y-72030714D01*
X91570119Y-72030714D01*
X90855833Y-72649761D02*
X90951071Y-72697380D01*
X91141547Y-72697380D01*
X91236785Y-72649761D01*
X91284404Y-72554523D01*
X91284404Y-72173571D01*
X91236785Y-72078333D01*
X91141547Y-72030714D01*
X90951071Y-72030714D01*
X90855833Y-72078333D01*
X90808214Y-72173571D01*
X90808214Y-72268809D01*
X91284404Y-72364047D01*
X89951071Y-72697380D02*
X89951071Y-71697380D01*
X89951071Y-72649761D02*
X90046309Y-72697380D01*
X90236785Y-72697380D01*
X90332023Y-72649761D01*
X90379642Y-72602142D01*
X90427261Y-72506904D01*
X90427261Y-72221190D01*
X90379642Y-72125952D01*
X90332023Y-72078333D01*
X90236785Y-72030714D01*
X90046309Y-72030714D01*
X89951071Y-72078333D01*
X104951071Y-66523571D02*
X105284404Y-66523571D01*
X105284404Y-67047380D02*
X105284404Y-66047380D01*
X104808214Y-66047380D01*
X104427261Y-67047380D02*
X104427261Y-66380714D01*
X104427261Y-66047380D02*
X104474880Y-66095000D01*
X104427261Y-66142619D01*
X104379642Y-66095000D01*
X104427261Y-66047380D01*
X104427261Y-66142619D01*
X104093928Y-66380714D02*
X103712976Y-66380714D01*
X103951071Y-66047380D02*
X103951071Y-66904523D01*
X103903452Y-66999761D01*
X103808214Y-67047380D01*
X103712976Y-67047380D01*
X102046309Y-67047380D02*
X102379642Y-66571190D01*
X102617738Y-67047380D02*
X102617738Y-66047380D01*
X102236785Y-66047380D01*
X102141547Y-66095000D01*
X102093928Y-66142619D01*
X102046309Y-66237857D01*
X102046309Y-66380714D01*
X102093928Y-66475952D01*
X102141547Y-66523571D01*
X102236785Y-66571190D01*
X102617738Y-66571190D01*
X101617738Y-66666428D02*
X100855833Y-66666428D01*
X101236785Y-67047380D02*
X101236785Y-66285476D01*
X100427261Y-66761666D02*
X99951071Y-66761666D01*
X100522500Y-67047380D02*
X100189166Y-66047380D01*
X99855833Y-67047380D01*
X98998690Y-67047380D02*
X99570119Y-67047380D01*
X99284404Y-67047380D02*
X99284404Y-66047380D01*
X99379642Y-66190238D01*
X99474880Y-66285476D01*
X99570119Y-66333095D01*
X98522500Y-66999761D02*
X98522500Y-67047380D01*
X98570119Y-67142619D01*
X98617738Y-67190238D01*
X96760595Y-67047380D02*
X97093928Y-66571190D01*
X97332023Y-67047380D02*
X97332023Y-66047380D01*
X96951071Y-66047380D01*
X96855833Y-66095000D01*
X96808214Y-66142619D01*
X96760595Y-66237857D01*
X96760595Y-66380714D01*
X96808214Y-66475952D01*
X96855833Y-66523571D01*
X96951071Y-66571190D01*
X97332023Y-66571190D01*
X96332023Y-66666428D02*
X95570119Y-66666428D01*
X95951071Y-67047380D02*
X95951071Y-66285476D01*
X94760595Y-66523571D02*
X94617738Y-66571190D01*
X94570119Y-66618809D01*
X94522500Y-66714047D01*
X94522500Y-66856904D01*
X94570119Y-66952142D01*
X94617738Y-66999761D01*
X94712976Y-67047380D01*
X95093928Y-67047380D01*
X95093928Y-66047380D01*
X94760595Y-66047380D01*
X94665357Y-66095000D01*
X94617738Y-66142619D01*
X94570119Y-66237857D01*
X94570119Y-66333095D01*
X94617738Y-66428333D01*
X94665357Y-66475952D01*
X94760595Y-66523571D01*
X95093928Y-66523571D01*
X93570119Y-67047380D02*
X94141547Y-67047380D01*
X93855833Y-67047380D02*
X93855833Y-66047380D01*
X93951071Y-66190238D01*
X94046309Y-66285476D01*
X94141547Y-66333095D01*
X93093928Y-66999761D02*
X93093928Y-67047380D01*
X93141547Y-67142619D01*
X93189166Y-67190238D01*
X91332023Y-67047380D02*
X91665357Y-66571190D01*
X91903452Y-67047380D02*
X91903452Y-66047380D01*
X91522500Y-66047380D01*
X91427261Y-66095000D01*
X91379642Y-66142619D01*
X91332023Y-66237857D01*
X91332023Y-66380714D01*
X91379642Y-66475952D01*
X91427261Y-66523571D01*
X91522500Y-66571190D01*
X91903452Y-66571190D01*
X90903452Y-66666428D02*
X90141547Y-66666428D01*
X90522500Y-67047380D02*
X90522500Y-66285476D01*
X89093928Y-66952142D02*
X89141547Y-66999761D01*
X89284404Y-67047380D01*
X89379642Y-67047380D01*
X89522500Y-66999761D01*
X89617738Y-66904523D01*
X89665357Y-66809285D01*
X89712976Y-66618809D01*
X89712976Y-66475952D01*
X89665357Y-66285476D01*
X89617738Y-66190238D01*
X89522500Y-66095000D01*
X89379642Y-66047380D01*
X89284404Y-66047380D01*
X89141547Y-66095000D01*
X89093928Y-66142619D01*
X88141547Y-67047380D02*
X88712976Y-67047380D01*
X88427261Y-67047380D02*
X88427261Y-66047380D01*
X88522500Y-66190238D01*
X88617738Y-66285476D01*
X88712976Y-66333095D01*
X105284404Y-68030714D02*
X105284404Y-69030714D01*
X105284404Y-68078333D02*
X105189166Y-68030714D01*
X104998690Y-68030714D01*
X104903452Y-68078333D01*
X104855833Y-68125952D01*
X104808214Y-68221190D01*
X104808214Y-68506904D01*
X104855833Y-68602142D01*
X104903452Y-68649761D01*
X104998690Y-68697380D01*
X105189166Y-68697380D01*
X105284404Y-68649761D01*
X103998690Y-68649761D02*
X104093928Y-68697380D01*
X104284404Y-68697380D01*
X104379642Y-68649761D01*
X104427261Y-68554523D01*
X104427261Y-68173571D01*
X104379642Y-68078333D01*
X104284404Y-68030714D01*
X104093928Y-68030714D01*
X103998690Y-68078333D01*
X103951071Y-68173571D01*
X103951071Y-68268809D01*
X104427261Y-68364047D01*
X103522500Y-68697380D02*
X103522500Y-68030714D01*
X103522500Y-68221190D02*
X103474880Y-68125952D01*
X103427261Y-68078333D01*
X103332023Y-68030714D01*
X103236785Y-68030714D01*
X101665357Y-68697380D02*
X102141547Y-68697380D01*
X102141547Y-67697380D01*
X101474880Y-67697380D02*
X100903452Y-67697380D01*
X101189166Y-68697380D02*
X101189166Y-67697380D01*
X99998690Y-68602142D02*
X100046309Y-68649761D01*
X100189166Y-68697380D01*
X100284404Y-68697380D01*
X100427261Y-68649761D01*
X100522500Y-68554523D01*
X100570119Y-68459285D01*
X100617738Y-68268809D01*
X100617738Y-68125952D01*
X100570119Y-67935476D01*
X100522500Y-67840238D01*
X100427261Y-67745000D01*
X100284404Y-67697380D01*
X100189166Y-67697380D01*
X100046309Y-67745000D01*
X99998690Y-67792619D01*
X99617738Y-67792619D02*
X99570119Y-67745000D01*
X99474880Y-67697380D01*
X99236785Y-67697380D01*
X99141547Y-67745000D01*
X99093928Y-67792619D01*
X99046309Y-67887857D01*
X99046309Y-67983095D01*
X99093928Y-68125952D01*
X99665357Y-68697380D01*
X99046309Y-68697380D01*
X98570119Y-68697380D02*
X98379642Y-68697380D01*
X98284404Y-68649761D01*
X98236785Y-68602142D01*
X98141547Y-68459285D01*
X98093928Y-68268809D01*
X98093928Y-67887857D01*
X98141547Y-67792619D01*
X98189166Y-67745000D01*
X98284404Y-67697380D01*
X98474880Y-67697380D01*
X98570119Y-67745000D01*
X98617738Y-67792619D01*
X98665357Y-67887857D01*
X98665357Y-68125952D01*
X98617738Y-68221190D01*
X98570119Y-68268809D01*
X98474880Y-68316428D01*
X98284404Y-68316428D01*
X98189166Y-68268809D01*
X98141547Y-68221190D01*
X98093928Y-68125952D01*
X97141547Y-68697380D02*
X97712976Y-68697380D01*
X97427261Y-68697380D02*
X97427261Y-67697380D01*
X97522500Y-67840238D01*
X97617738Y-67935476D01*
X97712976Y-67983095D01*
X96284404Y-68030714D02*
X96284404Y-68697380D01*
X96522500Y-67649761D02*
X96760595Y-68364047D01*
X96141547Y-68364047D01*
X94570119Y-68697380D02*
X94570119Y-67697380D01*
X94570119Y-68649761D02*
X94665357Y-68697380D01*
X94855833Y-68697380D01*
X94951071Y-68649761D01*
X94998690Y-68602142D01*
X95046309Y-68506904D01*
X95046309Y-68221190D01*
X94998690Y-68125952D01*
X94951071Y-68078333D01*
X94855833Y-68030714D01*
X94665357Y-68030714D01*
X94570119Y-68078333D01*
X93665357Y-68697380D02*
X93665357Y-68173571D01*
X93712976Y-68078333D01*
X93808214Y-68030714D01*
X93998690Y-68030714D01*
X94093928Y-68078333D01*
X93665357Y-68649761D02*
X93760595Y-68697380D01*
X93998690Y-68697380D01*
X94093928Y-68649761D01*
X94141547Y-68554523D01*
X94141547Y-68459285D01*
X94093928Y-68364047D01*
X93998690Y-68316428D01*
X93760595Y-68316428D01*
X93665357Y-68268809D01*
X93332023Y-68030714D02*
X92951071Y-68030714D01*
X93189166Y-67697380D02*
X93189166Y-68554523D01*
X93141547Y-68649761D01*
X93046309Y-68697380D01*
X92951071Y-68697380D01*
X92189166Y-68697380D02*
X92189166Y-68173571D01*
X92236785Y-68078333D01*
X92332023Y-68030714D01*
X92522500Y-68030714D01*
X92617738Y-68078333D01*
X92189166Y-68649761D02*
X92284404Y-68697380D01*
X92522500Y-68697380D01*
X92617738Y-68649761D01*
X92665357Y-68554523D01*
X92665357Y-68459285D01*
X92617738Y-68364047D01*
X92522500Y-68316428D01*
X92284404Y-68316428D01*
X92189166Y-68268809D01*
X91760595Y-68649761D02*
X91665357Y-68697380D01*
X91474880Y-68697380D01*
X91379642Y-68649761D01*
X91332023Y-68554523D01*
X91332023Y-68506904D01*
X91379642Y-68411666D01*
X91474880Y-68364047D01*
X91617738Y-68364047D01*
X91712976Y-68316428D01*
X91760595Y-68221190D01*
X91760595Y-68173571D01*
X91712976Y-68078333D01*
X91617738Y-68030714D01*
X91474880Y-68030714D01*
X91379642Y-68078333D01*
X90903452Y-68697380D02*
X90903452Y-67697380D01*
X90474880Y-68697380D02*
X90474880Y-68173571D01*
X90522500Y-68078333D01*
X90617738Y-68030714D01*
X90760595Y-68030714D01*
X90855833Y-68078333D01*
X90903452Y-68125952D01*
X89617738Y-68649761D02*
X89712976Y-68697380D01*
X89903452Y-68697380D01*
X89998690Y-68649761D01*
X90046309Y-68554523D01*
X90046309Y-68173571D01*
X89998690Y-68078333D01*
X89903452Y-68030714D01*
X89712976Y-68030714D01*
X89617738Y-68078333D01*
X89570119Y-68173571D01*
X89570119Y-68268809D01*
X90046309Y-68364047D01*
X88760595Y-68649761D02*
X88855833Y-68697380D01*
X89046309Y-68697380D01*
X89141547Y-68649761D01*
X89189166Y-68554523D01*
X89189166Y-68173571D01*
X89141547Y-68078333D01*
X89046309Y-68030714D01*
X88855833Y-68030714D01*
X88760595Y-68078333D01*
X88712976Y-68173571D01*
X88712976Y-68268809D01*
X89189166Y-68364047D01*
X88427261Y-68030714D02*
X88046309Y-68030714D01*
X88284404Y-67697380D02*
X88284404Y-68554523D01*
X88236785Y-68649761D01*
X88141547Y-68697380D01*
X88046309Y-68697380D01*
D11*
G36*
X105620000Y-84920000D02*
G01*
X87870000Y-84920000D01*
X87870000Y-73920000D01*
X105620000Y-73920000D01*
X105620000Y-84920000D01*
G37*
X105620000Y-84920000D02*
X87870000Y-84920000D01*
X87870000Y-73920000D01*
X105620000Y-73920000D01*
X105620000Y-84920000D01*
D10*
X105093928Y-94547380D02*
X104903452Y-94547380D01*
X104808214Y-94595000D01*
X104712976Y-94690238D01*
X104665357Y-94880714D01*
X104665357Y-95214047D01*
X104712976Y-95404523D01*
X104808214Y-95499761D01*
X104903452Y-95547380D01*
X105093928Y-95547380D01*
X105189166Y-95499761D01*
X105284404Y-95404523D01*
X105332023Y-95214047D01*
X105332023Y-94880714D01*
X105284404Y-94690238D01*
X105189166Y-94595000D01*
X105093928Y-94547380D01*
X104236785Y-95547380D02*
X104236785Y-94880714D01*
X104236785Y-94975952D02*
X104189166Y-94928333D01*
X104093928Y-94880714D01*
X103951071Y-94880714D01*
X103855833Y-94928333D01*
X103808214Y-95023571D01*
X103808214Y-95547380D01*
X103808214Y-95023571D02*
X103760595Y-94928333D01*
X103665357Y-94880714D01*
X103522500Y-94880714D01*
X103427261Y-94928333D01*
X103379642Y-95023571D01*
X103379642Y-95547380D01*
X102903452Y-95547380D02*
X102903452Y-94880714D01*
X102903452Y-94547380D02*
X102951071Y-94595000D01*
X102903452Y-94642619D01*
X102855833Y-94595000D01*
X102903452Y-94547380D01*
X102903452Y-94642619D01*
X102570119Y-94880714D02*
X102189166Y-94880714D01*
X102427261Y-94547380D02*
X102427261Y-95404523D01*
X102379642Y-95499761D01*
X102284404Y-95547380D01*
X102189166Y-95547380D01*
X100522500Y-95547380D02*
X100855833Y-95071190D01*
X101093928Y-95547380D02*
X101093928Y-94547380D01*
X100712976Y-94547380D01*
X100617738Y-94595000D01*
X100570119Y-94642619D01*
X100522500Y-94737857D01*
X100522500Y-94880714D01*
X100570119Y-94975952D01*
X100617738Y-95023571D01*
X100712976Y-95071190D01*
X101093928Y-95071190D01*
X100093928Y-95166428D02*
X99332023Y-95166428D01*
X98427261Y-94880714D02*
X98427261Y-95547380D01*
X98665357Y-94499761D02*
X98903452Y-95214047D01*
X98284404Y-95214047D01*
X97855833Y-95499761D02*
X97855833Y-95547380D01*
X97903452Y-95642619D01*
X97951071Y-95690238D01*
X96093928Y-95547380D02*
X96427261Y-95071190D01*
X96665357Y-95547380D02*
X96665357Y-94547380D01*
X96284404Y-94547380D01*
X96189166Y-94595000D01*
X96141547Y-94642619D01*
X96093928Y-94737857D01*
X96093928Y-94880714D01*
X96141547Y-94975952D01*
X96189166Y-95023571D01*
X96284404Y-95071190D01*
X96665357Y-95071190D01*
X95665357Y-95166428D02*
X94903452Y-95166428D01*
X93951071Y-94547380D02*
X94427261Y-94547380D01*
X94474880Y-95023571D01*
X94427261Y-94975952D01*
X94332023Y-94928333D01*
X94093928Y-94928333D01*
X93998690Y-94975952D01*
X93951071Y-95023571D01*
X93903452Y-95118809D01*
X93903452Y-95356904D01*
X93951071Y-95452142D01*
X93998690Y-95499761D01*
X94093928Y-95547380D01*
X94332023Y-95547380D01*
X94427261Y-95499761D01*
X94474880Y-95452142D01*
X105284404Y-97197380D02*
X105284404Y-96530714D01*
X105284404Y-96197380D02*
X105332023Y-96245000D01*
X105284404Y-96292619D01*
X105236785Y-96245000D01*
X105284404Y-96197380D01*
X105284404Y-96292619D01*
X104951071Y-96530714D02*
X104570119Y-96530714D01*
X104808214Y-97197380D02*
X104808214Y-96340238D01*
X104760595Y-96245000D01*
X104665357Y-96197380D01*
X104570119Y-96197380D01*
X103617738Y-96197380D02*
X103046309Y-96197380D01*
X103332023Y-97197380D02*
X103332023Y-96197380D01*
X102712976Y-97197380D02*
X102712976Y-96197380D01*
X102332023Y-96197380D01*
X102236785Y-96245000D01*
X102189166Y-96292619D01*
X102141547Y-96387857D01*
X102141547Y-96530714D01*
X102189166Y-96625952D01*
X102236785Y-96673571D01*
X102332023Y-96721190D01*
X102712976Y-96721190D01*
X101712976Y-96816428D02*
X100951071Y-96816428D01*
X99951071Y-97197380D02*
X100522500Y-97197380D01*
X100236785Y-97197380D02*
X100236785Y-96197380D01*
X100332023Y-96340238D01*
X100427261Y-96435476D01*
X100522500Y-96483095D01*
X98760595Y-96530714D02*
X98760595Y-97197380D01*
X98760595Y-96625952D02*
X98712976Y-96578333D01*
X98617738Y-96530714D01*
X98474880Y-96530714D01*
X98379642Y-96578333D01*
X98332023Y-96673571D01*
X98332023Y-97197380D01*
X97712976Y-97197380D02*
X97808214Y-97149761D01*
X97855833Y-97102142D01*
X97903452Y-97006904D01*
X97903452Y-96721190D01*
X97855833Y-96625952D01*
X97808214Y-96578333D01*
X97712976Y-96530714D01*
X97570119Y-96530714D01*
X97474880Y-96578333D01*
X97427261Y-96625952D01*
X97379642Y-96721190D01*
X97379642Y-97006904D01*
X97427261Y-97102142D01*
X97474880Y-97149761D01*
X97570119Y-97197380D01*
X97712976Y-97197380D01*
X97093928Y-96530714D02*
X96712976Y-96530714D01*
X96951071Y-96197380D02*
X96951071Y-97054523D01*
X96903452Y-97149761D01*
X96808214Y-97197380D01*
X96712976Y-97197380D01*
X95617738Y-97197380D02*
X95617738Y-96530714D01*
X95617738Y-96721190D02*
X95570119Y-96625952D01*
X95522500Y-96578333D01*
X95427261Y-96530714D01*
X95332023Y-96530714D01*
X94617738Y-97149761D02*
X94712976Y-97197380D01*
X94903452Y-97197380D01*
X94998690Y-97149761D01*
X95046309Y-97054523D01*
X95046309Y-96673571D01*
X94998690Y-96578333D01*
X94903452Y-96530714D01*
X94712976Y-96530714D01*
X94617738Y-96578333D01*
X94570119Y-96673571D01*
X94570119Y-96768809D01*
X95046309Y-96864047D01*
X93712976Y-96530714D02*
X93712976Y-97530714D01*
X93712976Y-97149761D02*
X93808214Y-97197380D01*
X93998690Y-97197380D01*
X94093928Y-97149761D01*
X94141547Y-97102142D01*
X94189166Y-97006904D01*
X94189166Y-96721190D01*
X94141547Y-96625952D01*
X94093928Y-96578333D01*
X93998690Y-96530714D01*
X93808214Y-96530714D01*
X93712976Y-96578333D01*
X92808214Y-96530714D02*
X92808214Y-97197380D01*
X93236785Y-96530714D02*
X93236785Y-97054523D01*
X93189166Y-97149761D01*
X93093928Y-97197380D01*
X92951071Y-97197380D01*
X92855833Y-97149761D01*
X92808214Y-97102142D01*
X92332023Y-97197380D02*
X92332023Y-96530714D01*
X92332023Y-96197380D02*
X92379642Y-96245000D01*
X92332023Y-96292619D01*
X92284404Y-96245000D01*
X92332023Y-96197380D01*
X92332023Y-96292619D01*
X91855833Y-97197380D02*
X91855833Y-96530714D01*
X91855833Y-96721190D02*
X91808214Y-96625952D01*
X91760595Y-96578333D01*
X91665357Y-96530714D01*
X91570119Y-96530714D01*
X90855833Y-97149761D02*
X90951071Y-97197380D01*
X91141547Y-97197380D01*
X91236785Y-97149761D01*
X91284404Y-97054523D01*
X91284404Y-96673571D01*
X91236785Y-96578333D01*
X91141547Y-96530714D01*
X90951071Y-96530714D01*
X90855833Y-96578333D01*
X90808214Y-96673571D01*
X90808214Y-96768809D01*
X91284404Y-96864047D01*
X89951071Y-97197380D02*
X89951071Y-96197380D01*
X89951071Y-97149761D02*
X90046309Y-97197380D01*
X90236785Y-97197380D01*
X90332023Y-97149761D01*
X90379642Y-97102142D01*
X90427261Y-97006904D01*
X90427261Y-96721190D01*
X90379642Y-96625952D01*
X90332023Y-96578333D01*
X90236785Y-96530714D01*
X90046309Y-96530714D01*
X89951071Y-96578333D01*
X104951071Y-91023571D02*
X105284404Y-91023571D01*
X105284404Y-91547380D02*
X105284404Y-90547380D01*
X104808214Y-90547380D01*
X104427261Y-91547380D02*
X104427261Y-90880714D01*
X104427261Y-90547380D02*
X104474880Y-90595000D01*
X104427261Y-90642619D01*
X104379642Y-90595000D01*
X104427261Y-90547380D01*
X104427261Y-90642619D01*
X104093928Y-90880714D02*
X103712976Y-90880714D01*
X103951071Y-90547380D02*
X103951071Y-91404523D01*
X103903452Y-91499761D01*
X103808214Y-91547380D01*
X103712976Y-91547380D01*
X102046309Y-91547380D02*
X102379642Y-91071190D01*
X102617738Y-91547380D02*
X102617738Y-90547380D01*
X102236785Y-90547380D01*
X102141547Y-90595000D01*
X102093928Y-90642619D01*
X102046309Y-90737857D01*
X102046309Y-90880714D01*
X102093928Y-90975952D01*
X102141547Y-91023571D01*
X102236785Y-91071190D01*
X102617738Y-91071190D01*
X101617738Y-91166428D02*
X100855833Y-91166428D01*
X100427261Y-91261666D02*
X99951071Y-91261666D01*
X100522500Y-91547380D02*
X100189166Y-90547380D01*
X99855833Y-91547380D01*
X98998690Y-91547380D02*
X99570119Y-91547380D01*
X99284404Y-91547380D02*
X99284404Y-90547380D01*
X99379642Y-90690238D01*
X99474880Y-90785476D01*
X99570119Y-90833095D01*
X98522500Y-91499761D02*
X98522500Y-91547380D01*
X98570119Y-91642619D01*
X98617738Y-91690238D01*
X96760595Y-91547380D02*
X97093928Y-91071190D01*
X97332023Y-91547380D02*
X97332023Y-90547380D01*
X96951071Y-90547380D01*
X96855833Y-90595000D01*
X96808214Y-90642619D01*
X96760595Y-90737857D01*
X96760595Y-90880714D01*
X96808214Y-90975952D01*
X96855833Y-91023571D01*
X96951071Y-91071190D01*
X97332023Y-91071190D01*
X96332023Y-91166428D02*
X95570119Y-91166428D01*
X94760595Y-91023571D02*
X94617738Y-91071190D01*
X94570119Y-91118809D01*
X94522500Y-91214047D01*
X94522500Y-91356904D01*
X94570119Y-91452142D01*
X94617738Y-91499761D01*
X94712976Y-91547380D01*
X95093928Y-91547380D01*
X95093928Y-90547380D01*
X94760595Y-90547380D01*
X94665357Y-90595000D01*
X94617738Y-90642619D01*
X94570119Y-90737857D01*
X94570119Y-90833095D01*
X94617738Y-90928333D01*
X94665357Y-90975952D01*
X94760595Y-91023571D01*
X95093928Y-91023571D01*
X93570119Y-91547380D02*
X94141547Y-91547380D01*
X93855833Y-91547380D02*
X93855833Y-90547380D01*
X93951071Y-90690238D01*
X94046309Y-90785476D01*
X94141547Y-90833095D01*
X93093928Y-91499761D02*
X93093928Y-91547380D01*
X93141547Y-91642619D01*
X93189166Y-91690238D01*
X91332023Y-91547380D02*
X91665357Y-91071190D01*
X91903452Y-91547380D02*
X91903452Y-90547380D01*
X91522500Y-90547380D01*
X91427261Y-90595000D01*
X91379642Y-90642619D01*
X91332023Y-90737857D01*
X91332023Y-90880714D01*
X91379642Y-90975952D01*
X91427261Y-91023571D01*
X91522500Y-91071190D01*
X91903452Y-91071190D01*
X90903452Y-91166428D02*
X90141547Y-91166428D01*
X89093928Y-91452142D02*
X89141547Y-91499761D01*
X89284404Y-91547380D01*
X89379642Y-91547380D01*
X89522500Y-91499761D01*
X89617738Y-91404523D01*
X89665357Y-91309285D01*
X89712976Y-91118809D01*
X89712976Y-90975952D01*
X89665357Y-90785476D01*
X89617738Y-90690238D01*
X89522500Y-90595000D01*
X89379642Y-90547380D01*
X89284404Y-90547380D01*
X89141547Y-90595000D01*
X89093928Y-90642619D01*
X88141547Y-91547380D02*
X88712976Y-91547380D01*
X88427261Y-91547380D02*
X88427261Y-90547380D01*
X88522500Y-90690238D01*
X88617738Y-90785476D01*
X88712976Y-90833095D01*
X105284404Y-92530714D02*
X105284404Y-93530714D01*
X105284404Y-92578333D02*
X105189166Y-92530714D01*
X104998690Y-92530714D01*
X104903452Y-92578333D01*
X104855833Y-92625952D01*
X104808214Y-92721190D01*
X104808214Y-93006904D01*
X104855833Y-93102142D01*
X104903452Y-93149761D01*
X104998690Y-93197380D01*
X105189166Y-93197380D01*
X105284404Y-93149761D01*
X103998690Y-93149761D02*
X104093928Y-93197380D01*
X104284404Y-93197380D01*
X104379642Y-93149761D01*
X104427261Y-93054523D01*
X104427261Y-92673571D01*
X104379642Y-92578333D01*
X104284404Y-92530714D01*
X104093928Y-92530714D01*
X103998690Y-92578333D01*
X103951071Y-92673571D01*
X103951071Y-92768809D01*
X104427261Y-92864047D01*
X103522500Y-93197380D02*
X103522500Y-92530714D01*
X103522500Y-92721190D02*
X103474880Y-92625952D01*
X103427261Y-92578333D01*
X103332023Y-92530714D01*
X103236785Y-92530714D01*
X101665357Y-93197380D02*
X102141547Y-93197380D01*
X102141547Y-92197380D01*
X101474880Y-92197380D02*
X100903452Y-92197380D01*
X101189166Y-93197380D02*
X101189166Y-92197380D01*
X99998690Y-93102142D02*
X100046309Y-93149761D01*
X100189166Y-93197380D01*
X100284404Y-93197380D01*
X100427261Y-93149761D01*
X100522500Y-93054523D01*
X100570119Y-92959285D01*
X100617738Y-92768809D01*
X100617738Y-92625952D01*
X100570119Y-92435476D01*
X100522500Y-92340238D01*
X100427261Y-92245000D01*
X100284404Y-92197380D01*
X100189166Y-92197380D01*
X100046309Y-92245000D01*
X99998690Y-92292619D01*
X99617738Y-92292619D02*
X99570119Y-92245000D01*
X99474880Y-92197380D01*
X99236785Y-92197380D01*
X99141547Y-92245000D01*
X99093928Y-92292619D01*
X99046309Y-92387857D01*
X99046309Y-92483095D01*
X99093928Y-92625952D01*
X99665357Y-93197380D01*
X99046309Y-93197380D01*
X98570119Y-93197380D02*
X98379642Y-93197380D01*
X98284404Y-93149761D01*
X98236785Y-93102142D01*
X98141547Y-92959285D01*
X98093928Y-92768809D01*
X98093928Y-92387857D01*
X98141547Y-92292619D01*
X98189166Y-92245000D01*
X98284404Y-92197380D01*
X98474880Y-92197380D01*
X98570119Y-92245000D01*
X98617738Y-92292619D01*
X98665357Y-92387857D01*
X98665357Y-92625952D01*
X98617738Y-92721190D01*
X98570119Y-92768809D01*
X98474880Y-92816428D01*
X98284404Y-92816428D01*
X98189166Y-92768809D01*
X98141547Y-92721190D01*
X98093928Y-92625952D01*
X97141547Y-93197380D02*
X97712976Y-93197380D01*
X97427261Y-93197380D02*
X97427261Y-92197380D01*
X97522500Y-92340238D01*
X97617738Y-92435476D01*
X97712976Y-92483095D01*
X96284404Y-92530714D02*
X96284404Y-93197380D01*
X96522500Y-92149761D02*
X96760595Y-92864047D01*
X96141547Y-92864047D01*
X94570119Y-93197380D02*
X94570119Y-92197380D01*
X94570119Y-93149761D02*
X94665357Y-93197380D01*
X94855833Y-93197380D01*
X94951071Y-93149761D01*
X94998690Y-93102142D01*
X95046309Y-93006904D01*
X95046309Y-92721190D01*
X94998690Y-92625952D01*
X94951071Y-92578333D01*
X94855833Y-92530714D01*
X94665357Y-92530714D01*
X94570119Y-92578333D01*
X93665357Y-93197380D02*
X93665357Y-92673571D01*
X93712976Y-92578333D01*
X93808214Y-92530714D01*
X93998690Y-92530714D01*
X94093928Y-92578333D01*
X93665357Y-93149761D02*
X93760595Y-93197380D01*
X93998690Y-93197380D01*
X94093928Y-93149761D01*
X94141547Y-93054523D01*
X94141547Y-92959285D01*
X94093928Y-92864047D01*
X93998690Y-92816428D01*
X93760595Y-92816428D01*
X93665357Y-92768809D01*
X93332023Y-92530714D02*
X92951071Y-92530714D01*
X93189166Y-92197380D02*
X93189166Y-93054523D01*
X93141547Y-93149761D01*
X93046309Y-93197380D01*
X92951071Y-93197380D01*
X92189166Y-93197380D02*
X92189166Y-92673571D01*
X92236785Y-92578333D01*
X92332023Y-92530714D01*
X92522500Y-92530714D01*
X92617738Y-92578333D01*
X92189166Y-93149761D02*
X92284404Y-93197380D01*
X92522500Y-93197380D01*
X92617738Y-93149761D01*
X92665357Y-93054523D01*
X92665357Y-92959285D01*
X92617738Y-92864047D01*
X92522500Y-92816428D01*
X92284404Y-92816428D01*
X92189166Y-92768809D01*
X91760595Y-93149761D02*
X91665357Y-93197380D01*
X91474880Y-93197380D01*
X91379642Y-93149761D01*
X91332023Y-93054523D01*
X91332023Y-93006904D01*
X91379642Y-92911666D01*
X91474880Y-92864047D01*
X91617738Y-92864047D01*
X91712976Y-92816428D01*
X91760595Y-92721190D01*
X91760595Y-92673571D01*
X91712976Y-92578333D01*
X91617738Y-92530714D01*
X91474880Y-92530714D01*
X91379642Y-92578333D01*
X90903452Y-93197380D02*
X90903452Y-92197380D01*
X90474880Y-93197380D02*
X90474880Y-92673571D01*
X90522500Y-92578333D01*
X90617738Y-92530714D01*
X90760595Y-92530714D01*
X90855833Y-92578333D01*
X90903452Y-92625952D01*
X89617738Y-93149761D02*
X89712976Y-93197380D01*
X89903452Y-93197380D01*
X89998690Y-93149761D01*
X90046309Y-93054523D01*
X90046309Y-92673571D01*
X89998690Y-92578333D01*
X89903452Y-92530714D01*
X89712976Y-92530714D01*
X89617738Y-92578333D01*
X89570119Y-92673571D01*
X89570119Y-92768809D01*
X90046309Y-92864047D01*
X88760595Y-93149761D02*
X88855833Y-93197380D01*
X89046309Y-93197380D01*
X89141547Y-93149761D01*
X89189166Y-93054523D01*
X89189166Y-92673571D01*
X89141547Y-92578333D01*
X89046309Y-92530714D01*
X88855833Y-92530714D01*
X88760595Y-92578333D01*
X88712976Y-92673571D01*
X88712976Y-92768809D01*
X89189166Y-92864047D01*
X88427261Y-92530714D02*
X88046309Y-92530714D01*
X88284404Y-92197380D02*
X88284404Y-93054523D01*
X88236785Y-93149761D01*
X88141547Y-93197380D01*
X88046309Y-93197380D01*
D11*
G36*
X105620000Y-109420000D02*
G01*
X87870000Y-109420000D01*
X87870000Y-98420000D01*
X105620000Y-98420000D01*
X105620000Y-109420000D01*
G37*
X105620000Y-109420000D02*
X87870000Y-109420000D01*
X87870000Y-98420000D01*
X105620000Y-98420000D01*
X105620000Y-109420000D01*
G36*
X105620000Y-60420000D02*
G01*
X87870000Y-60420000D01*
X87870000Y-49420000D01*
X105620000Y-49420000D01*
X105620000Y-60420000D01*
G37*
X105620000Y-60420000D02*
X87870000Y-60420000D01*
X87870000Y-49420000D01*
X105620000Y-49420000D01*
X105620000Y-60420000D01*
D10*
X105093928Y-45547380D02*
X104903452Y-45547380D01*
X104808214Y-45595000D01*
X104712976Y-45690238D01*
X104665357Y-45880714D01*
X104665357Y-46214047D01*
X104712976Y-46404523D01*
X104808214Y-46499761D01*
X104903452Y-46547380D01*
X105093928Y-46547380D01*
X105189166Y-46499761D01*
X105284404Y-46404523D01*
X105332023Y-46214047D01*
X105332023Y-45880714D01*
X105284404Y-45690238D01*
X105189166Y-45595000D01*
X105093928Y-45547380D01*
X104236785Y-46547380D02*
X104236785Y-45880714D01*
X104236785Y-45975952D02*
X104189166Y-45928333D01*
X104093928Y-45880714D01*
X103951071Y-45880714D01*
X103855833Y-45928333D01*
X103808214Y-46023571D01*
X103808214Y-46547380D01*
X103808214Y-46023571D02*
X103760595Y-45928333D01*
X103665357Y-45880714D01*
X103522500Y-45880714D01*
X103427261Y-45928333D01*
X103379642Y-46023571D01*
X103379642Y-46547380D01*
X102903452Y-46547380D02*
X102903452Y-45880714D01*
X102903452Y-45547380D02*
X102951071Y-45595000D01*
X102903452Y-45642619D01*
X102855833Y-45595000D01*
X102903452Y-45547380D01*
X102903452Y-45642619D01*
X102570119Y-45880714D02*
X102189166Y-45880714D01*
X102427261Y-45547380D02*
X102427261Y-46404523D01*
X102379642Y-46499761D01*
X102284404Y-46547380D01*
X102189166Y-46547380D01*
X100522500Y-46547380D02*
X100855833Y-46071190D01*
X101093928Y-46547380D02*
X101093928Y-45547380D01*
X100712976Y-45547380D01*
X100617738Y-45595000D01*
X100570119Y-45642619D01*
X100522500Y-45737857D01*
X100522500Y-45880714D01*
X100570119Y-45975952D01*
X100617738Y-46023571D01*
X100712976Y-46071190D01*
X101093928Y-46071190D01*
X100093928Y-46166428D02*
X99332023Y-46166428D01*
X98427261Y-45880714D02*
X98427261Y-46547380D01*
X98665357Y-45499761D02*
X98903452Y-46214047D01*
X98284404Y-46214047D01*
X97855833Y-46499761D02*
X97855833Y-46547380D01*
X97903452Y-46642619D01*
X97951071Y-46690238D01*
X96093928Y-46547380D02*
X96427261Y-46071190D01*
X96665357Y-46547380D02*
X96665357Y-45547380D01*
X96284404Y-45547380D01*
X96189166Y-45595000D01*
X96141547Y-45642619D01*
X96093928Y-45737857D01*
X96093928Y-45880714D01*
X96141547Y-45975952D01*
X96189166Y-46023571D01*
X96284404Y-46071190D01*
X96665357Y-46071190D01*
X95665357Y-46166428D02*
X94903452Y-46166428D01*
X93951071Y-45547380D02*
X94427261Y-45547380D01*
X94474880Y-46023571D01*
X94427261Y-45975952D01*
X94332023Y-45928333D01*
X94093928Y-45928333D01*
X93998690Y-45975952D01*
X93951071Y-46023571D01*
X93903452Y-46118809D01*
X93903452Y-46356904D01*
X93951071Y-46452142D01*
X93998690Y-46499761D01*
X94093928Y-46547380D01*
X94332023Y-46547380D01*
X94427261Y-46499761D01*
X94474880Y-46452142D01*
X105284404Y-48197380D02*
X105284404Y-47530714D01*
X105284404Y-47197380D02*
X105332023Y-47245000D01*
X105284404Y-47292619D01*
X105236785Y-47245000D01*
X105284404Y-47197380D01*
X105284404Y-47292619D01*
X104951071Y-47530714D02*
X104570119Y-47530714D01*
X104808214Y-48197380D02*
X104808214Y-47340238D01*
X104760595Y-47245000D01*
X104665357Y-47197380D01*
X104570119Y-47197380D01*
X103617738Y-47197380D02*
X103046309Y-47197380D01*
X103332023Y-48197380D02*
X103332023Y-47197380D01*
X102712976Y-48197380D02*
X102712976Y-47197380D01*
X102332023Y-47197380D01*
X102236785Y-47245000D01*
X102189166Y-47292619D01*
X102141547Y-47387857D01*
X102141547Y-47530714D01*
X102189166Y-47625952D01*
X102236785Y-47673571D01*
X102332023Y-47721190D01*
X102712976Y-47721190D01*
X101712976Y-47816428D02*
X100951071Y-47816428D01*
X99951071Y-48197380D02*
X100522500Y-48197380D01*
X100236785Y-48197380D02*
X100236785Y-47197380D01*
X100332023Y-47340238D01*
X100427261Y-47435476D01*
X100522500Y-47483095D01*
X98760595Y-47530714D02*
X98760595Y-48197380D01*
X98760595Y-47625952D02*
X98712976Y-47578333D01*
X98617738Y-47530714D01*
X98474880Y-47530714D01*
X98379642Y-47578333D01*
X98332023Y-47673571D01*
X98332023Y-48197380D01*
X97712976Y-48197380D02*
X97808214Y-48149761D01*
X97855833Y-48102142D01*
X97903452Y-48006904D01*
X97903452Y-47721190D01*
X97855833Y-47625952D01*
X97808214Y-47578333D01*
X97712976Y-47530714D01*
X97570119Y-47530714D01*
X97474880Y-47578333D01*
X97427261Y-47625952D01*
X97379642Y-47721190D01*
X97379642Y-48006904D01*
X97427261Y-48102142D01*
X97474880Y-48149761D01*
X97570119Y-48197380D01*
X97712976Y-48197380D01*
X97093928Y-47530714D02*
X96712976Y-47530714D01*
X96951071Y-47197380D02*
X96951071Y-48054523D01*
X96903452Y-48149761D01*
X96808214Y-48197380D01*
X96712976Y-48197380D01*
X95617738Y-48197380D02*
X95617738Y-47530714D01*
X95617738Y-47721190D02*
X95570119Y-47625952D01*
X95522500Y-47578333D01*
X95427261Y-47530714D01*
X95332023Y-47530714D01*
X94617738Y-48149761D02*
X94712976Y-48197380D01*
X94903452Y-48197380D01*
X94998690Y-48149761D01*
X95046309Y-48054523D01*
X95046309Y-47673571D01*
X94998690Y-47578333D01*
X94903452Y-47530714D01*
X94712976Y-47530714D01*
X94617738Y-47578333D01*
X94570119Y-47673571D01*
X94570119Y-47768809D01*
X95046309Y-47864047D01*
X93712976Y-47530714D02*
X93712976Y-48530714D01*
X93712976Y-48149761D02*
X93808214Y-48197380D01*
X93998690Y-48197380D01*
X94093928Y-48149761D01*
X94141547Y-48102142D01*
X94189166Y-48006904D01*
X94189166Y-47721190D01*
X94141547Y-47625952D01*
X94093928Y-47578333D01*
X93998690Y-47530714D01*
X93808214Y-47530714D01*
X93712976Y-47578333D01*
X92808214Y-47530714D02*
X92808214Y-48197380D01*
X93236785Y-47530714D02*
X93236785Y-48054523D01*
X93189166Y-48149761D01*
X93093928Y-48197380D01*
X92951071Y-48197380D01*
X92855833Y-48149761D01*
X92808214Y-48102142D01*
X92332023Y-48197380D02*
X92332023Y-47530714D01*
X92332023Y-47197380D02*
X92379642Y-47245000D01*
X92332023Y-47292619D01*
X92284404Y-47245000D01*
X92332023Y-47197380D01*
X92332023Y-47292619D01*
X91855833Y-48197380D02*
X91855833Y-47530714D01*
X91855833Y-47721190D02*
X91808214Y-47625952D01*
X91760595Y-47578333D01*
X91665357Y-47530714D01*
X91570119Y-47530714D01*
X90855833Y-48149761D02*
X90951071Y-48197380D01*
X91141547Y-48197380D01*
X91236785Y-48149761D01*
X91284404Y-48054523D01*
X91284404Y-47673571D01*
X91236785Y-47578333D01*
X91141547Y-47530714D01*
X90951071Y-47530714D01*
X90855833Y-47578333D01*
X90808214Y-47673571D01*
X90808214Y-47768809D01*
X91284404Y-47864047D01*
X89951071Y-48197380D02*
X89951071Y-47197380D01*
X89951071Y-48149761D02*
X90046309Y-48197380D01*
X90236785Y-48197380D01*
X90332023Y-48149761D01*
X90379642Y-48102142D01*
X90427261Y-48006904D01*
X90427261Y-47721190D01*
X90379642Y-47625952D01*
X90332023Y-47578333D01*
X90236785Y-47530714D01*
X90046309Y-47530714D01*
X89951071Y-47578333D01*
X104951071Y-42023571D02*
X105284404Y-42023571D01*
X105284404Y-42547380D02*
X105284404Y-41547380D01*
X104808214Y-41547380D01*
X104427261Y-42547380D02*
X104427261Y-41880714D01*
X104427261Y-41547380D02*
X104474880Y-41595000D01*
X104427261Y-41642619D01*
X104379642Y-41595000D01*
X104427261Y-41547380D01*
X104427261Y-41642619D01*
X104093928Y-41880714D02*
X103712976Y-41880714D01*
X103951071Y-41547380D02*
X103951071Y-42404523D01*
X103903452Y-42499761D01*
X103808214Y-42547380D01*
X103712976Y-42547380D01*
X102046309Y-42547380D02*
X102379642Y-42071190D01*
X102617738Y-42547380D02*
X102617738Y-41547380D01*
X102236785Y-41547380D01*
X102141547Y-41595000D01*
X102093928Y-41642619D01*
X102046309Y-41737857D01*
X102046309Y-41880714D01*
X102093928Y-41975952D01*
X102141547Y-42023571D01*
X102236785Y-42071190D01*
X102617738Y-42071190D01*
X101617738Y-42166428D02*
X100855833Y-42166428D01*
X100427261Y-42261666D02*
X99951071Y-42261666D01*
X100522500Y-42547380D02*
X100189166Y-41547380D01*
X99855833Y-42547380D01*
X98998690Y-42547380D02*
X99570119Y-42547380D01*
X99284404Y-42547380D02*
X99284404Y-41547380D01*
X99379642Y-41690238D01*
X99474880Y-41785476D01*
X99570119Y-41833095D01*
X98522500Y-42499761D02*
X98522500Y-42547380D01*
X98570119Y-42642619D01*
X98617738Y-42690238D01*
X96760595Y-42547380D02*
X97093928Y-42071190D01*
X97332023Y-42547380D02*
X97332023Y-41547380D01*
X96951071Y-41547380D01*
X96855833Y-41595000D01*
X96808214Y-41642619D01*
X96760595Y-41737857D01*
X96760595Y-41880714D01*
X96808214Y-41975952D01*
X96855833Y-42023571D01*
X96951071Y-42071190D01*
X97332023Y-42071190D01*
X96332023Y-42166428D02*
X95570119Y-42166428D01*
X94760595Y-42023571D02*
X94617738Y-42071190D01*
X94570119Y-42118809D01*
X94522500Y-42214047D01*
X94522500Y-42356904D01*
X94570119Y-42452142D01*
X94617738Y-42499761D01*
X94712976Y-42547380D01*
X95093928Y-42547380D01*
X95093928Y-41547380D01*
X94760595Y-41547380D01*
X94665357Y-41595000D01*
X94617738Y-41642619D01*
X94570119Y-41737857D01*
X94570119Y-41833095D01*
X94617738Y-41928333D01*
X94665357Y-41975952D01*
X94760595Y-42023571D01*
X95093928Y-42023571D01*
X93570119Y-42547380D02*
X94141547Y-42547380D01*
X93855833Y-42547380D02*
X93855833Y-41547380D01*
X93951071Y-41690238D01*
X94046309Y-41785476D01*
X94141547Y-41833095D01*
X93093928Y-42499761D02*
X93093928Y-42547380D01*
X93141547Y-42642619D01*
X93189166Y-42690238D01*
X91332023Y-42547380D02*
X91665357Y-42071190D01*
X91903452Y-42547380D02*
X91903452Y-41547380D01*
X91522500Y-41547380D01*
X91427261Y-41595000D01*
X91379642Y-41642619D01*
X91332023Y-41737857D01*
X91332023Y-41880714D01*
X91379642Y-41975952D01*
X91427261Y-42023571D01*
X91522500Y-42071190D01*
X91903452Y-42071190D01*
X90903452Y-42166428D02*
X90141547Y-42166428D01*
X89093928Y-42452142D02*
X89141547Y-42499761D01*
X89284404Y-42547380D01*
X89379642Y-42547380D01*
X89522500Y-42499761D01*
X89617738Y-42404523D01*
X89665357Y-42309285D01*
X89712976Y-42118809D01*
X89712976Y-41975952D01*
X89665357Y-41785476D01*
X89617738Y-41690238D01*
X89522500Y-41595000D01*
X89379642Y-41547380D01*
X89284404Y-41547380D01*
X89141547Y-41595000D01*
X89093928Y-41642619D01*
X88141547Y-42547380D02*
X88712976Y-42547380D01*
X88427261Y-42547380D02*
X88427261Y-41547380D01*
X88522500Y-41690238D01*
X88617738Y-41785476D01*
X88712976Y-41833095D01*
X105284404Y-43530714D02*
X105284404Y-44530714D01*
X105284404Y-43578333D02*
X105189166Y-43530714D01*
X104998690Y-43530714D01*
X104903452Y-43578333D01*
X104855833Y-43625952D01*
X104808214Y-43721190D01*
X104808214Y-44006904D01*
X104855833Y-44102142D01*
X104903452Y-44149761D01*
X104998690Y-44197380D01*
X105189166Y-44197380D01*
X105284404Y-44149761D01*
X103998690Y-44149761D02*
X104093928Y-44197380D01*
X104284404Y-44197380D01*
X104379642Y-44149761D01*
X104427261Y-44054523D01*
X104427261Y-43673571D01*
X104379642Y-43578333D01*
X104284404Y-43530714D01*
X104093928Y-43530714D01*
X103998690Y-43578333D01*
X103951071Y-43673571D01*
X103951071Y-43768809D01*
X104427261Y-43864047D01*
X103522500Y-44197380D02*
X103522500Y-43530714D01*
X103522500Y-43721190D02*
X103474880Y-43625952D01*
X103427261Y-43578333D01*
X103332023Y-43530714D01*
X103236785Y-43530714D01*
X101665357Y-44197380D02*
X102141547Y-44197380D01*
X102141547Y-43197380D01*
X101474880Y-43197380D02*
X100903452Y-43197380D01*
X101189166Y-44197380D02*
X101189166Y-43197380D01*
X99998690Y-44102142D02*
X100046309Y-44149761D01*
X100189166Y-44197380D01*
X100284404Y-44197380D01*
X100427261Y-44149761D01*
X100522500Y-44054523D01*
X100570119Y-43959285D01*
X100617738Y-43768809D01*
X100617738Y-43625952D01*
X100570119Y-43435476D01*
X100522500Y-43340238D01*
X100427261Y-43245000D01*
X100284404Y-43197380D01*
X100189166Y-43197380D01*
X100046309Y-43245000D01*
X99998690Y-43292619D01*
X99617738Y-43292619D02*
X99570119Y-43245000D01*
X99474880Y-43197380D01*
X99236785Y-43197380D01*
X99141547Y-43245000D01*
X99093928Y-43292619D01*
X99046309Y-43387857D01*
X99046309Y-43483095D01*
X99093928Y-43625952D01*
X99665357Y-44197380D01*
X99046309Y-44197380D01*
X98570119Y-44197380D02*
X98379642Y-44197380D01*
X98284404Y-44149761D01*
X98236785Y-44102142D01*
X98141547Y-43959285D01*
X98093928Y-43768809D01*
X98093928Y-43387857D01*
X98141547Y-43292619D01*
X98189166Y-43245000D01*
X98284404Y-43197380D01*
X98474880Y-43197380D01*
X98570119Y-43245000D01*
X98617738Y-43292619D01*
X98665357Y-43387857D01*
X98665357Y-43625952D01*
X98617738Y-43721190D01*
X98570119Y-43768809D01*
X98474880Y-43816428D01*
X98284404Y-43816428D01*
X98189166Y-43768809D01*
X98141547Y-43721190D01*
X98093928Y-43625952D01*
X97141547Y-44197380D02*
X97712976Y-44197380D01*
X97427261Y-44197380D02*
X97427261Y-43197380D01*
X97522500Y-43340238D01*
X97617738Y-43435476D01*
X97712976Y-43483095D01*
X96284404Y-43530714D02*
X96284404Y-44197380D01*
X96522500Y-43149761D02*
X96760595Y-43864047D01*
X96141547Y-43864047D01*
X94570119Y-44197380D02*
X94570119Y-43197380D01*
X94570119Y-44149761D02*
X94665357Y-44197380D01*
X94855833Y-44197380D01*
X94951071Y-44149761D01*
X94998690Y-44102142D01*
X95046309Y-44006904D01*
X95046309Y-43721190D01*
X94998690Y-43625952D01*
X94951071Y-43578333D01*
X94855833Y-43530714D01*
X94665357Y-43530714D01*
X94570119Y-43578333D01*
X93665357Y-44197380D02*
X93665357Y-43673571D01*
X93712976Y-43578333D01*
X93808214Y-43530714D01*
X93998690Y-43530714D01*
X94093928Y-43578333D01*
X93665357Y-44149761D02*
X93760595Y-44197380D01*
X93998690Y-44197380D01*
X94093928Y-44149761D01*
X94141547Y-44054523D01*
X94141547Y-43959285D01*
X94093928Y-43864047D01*
X93998690Y-43816428D01*
X93760595Y-43816428D01*
X93665357Y-43768809D01*
X93332023Y-43530714D02*
X92951071Y-43530714D01*
X93189166Y-43197380D02*
X93189166Y-44054523D01*
X93141547Y-44149761D01*
X93046309Y-44197380D01*
X92951071Y-44197380D01*
X92189166Y-44197380D02*
X92189166Y-43673571D01*
X92236785Y-43578333D01*
X92332023Y-43530714D01*
X92522500Y-43530714D01*
X92617738Y-43578333D01*
X92189166Y-44149761D02*
X92284404Y-44197380D01*
X92522500Y-44197380D01*
X92617738Y-44149761D01*
X92665357Y-44054523D01*
X92665357Y-43959285D01*
X92617738Y-43864047D01*
X92522500Y-43816428D01*
X92284404Y-43816428D01*
X92189166Y-43768809D01*
X91760595Y-44149761D02*
X91665357Y-44197380D01*
X91474880Y-44197380D01*
X91379642Y-44149761D01*
X91332023Y-44054523D01*
X91332023Y-44006904D01*
X91379642Y-43911666D01*
X91474880Y-43864047D01*
X91617738Y-43864047D01*
X91712976Y-43816428D01*
X91760595Y-43721190D01*
X91760595Y-43673571D01*
X91712976Y-43578333D01*
X91617738Y-43530714D01*
X91474880Y-43530714D01*
X91379642Y-43578333D01*
X90903452Y-44197380D02*
X90903452Y-43197380D01*
X90474880Y-44197380D02*
X90474880Y-43673571D01*
X90522500Y-43578333D01*
X90617738Y-43530714D01*
X90760595Y-43530714D01*
X90855833Y-43578333D01*
X90903452Y-43625952D01*
X89617738Y-44149761D02*
X89712976Y-44197380D01*
X89903452Y-44197380D01*
X89998690Y-44149761D01*
X90046309Y-44054523D01*
X90046309Y-43673571D01*
X89998690Y-43578333D01*
X89903452Y-43530714D01*
X89712976Y-43530714D01*
X89617738Y-43578333D01*
X89570119Y-43673571D01*
X89570119Y-43768809D01*
X90046309Y-43864047D01*
X88760595Y-44149761D02*
X88855833Y-44197380D01*
X89046309Y-44197380D01*
X89141547Y-44149761D01*
X89189166Y-44054523D01*
X89189166Y-43673571D01*
X89141547Y-43578333D01*
X89046309Y-43530714D01*
X88855833Y-43530714D01*
X88760595Y-43578333D01*
X88712976Y-43673571D01*
X88712976Y-43768809D01*
X89189166Y-43864047D01*
X88427261Y-43530714D02*
X88046309Y-43530714D01*
X88284404Y-43197380D02*
X88284404Y-44054523D01*
X88236785Y-44149761D01*
X88141547Y-44197380D01*
X88046309Y-44197380D01*
D12*
%TO.C,J2*%
X207590000Y-137240000D02*
X207590000Y-138570000D01*
X207590000Y-138570000D02*
X208920000Y-138570000D01*
X207590000Y-135970000D02*
X210190000Y-135970000D01*
X210190000Y-135970000D02*
X210190000Y-138570000D01*
X210190000Y-138570000D02*
X212790000Y-138570000D01*
X212790000Y-133370000D02*
X212790000Y-138570000D01*
X207590000Y-133370000D02*
X212790000Y-133370000D01*
X207590000Y-133370000D02*
X207590000Y-135970000D01*
%TO.C,J3*%
X207590000Y-111840000D02*
X207590000Y-113170000D01*
X207590000Y-113170000D02*
X208920000Y-113170000D01*
X207590000Y-110570000D02*
X210190000Y-110570000D01*
X210190000Y-110570000D02*
X210190000Y-113170000D01*
X210190000Y-113170000D02*
X212790000Y-113170000D01*
X212790000Y-107970000D02*
X212790000Y-113170000D01*
X207590000Y-107970000D02*
X212790000Y-107970000D01*
X207590000Y-107970000D02*
X207590000Y-110570000D01*
%TO.C,J4*%
X238130000Y-52150000D02*
X238130000Y-50880000D01*
X236860000Y-52150000D02*
X238130000Y-52150000D01*
X226320000Y-49837071D02*
X226320000Y-49382929D01*
X227080000Y-49837071D02*
X227080000Y-49382929D01*
X226320000Y-47297071D02*
X226320000Y-46900000D01*
X227080000Y-47297071D02*
X227080000Y-46900000D01*
X226320000Y-38240000D02*
X226320000Y-44240000D01*
X227080000Y-38240000D02*
X226320000Y-38240000D01*
X227080000Y-44240000D02*
X227080000Y-38240000D01*
X227970000Y-46900000D02*
X227970000Y-44240000D01*
X228860000Y-49837071D02*
X228860000Y-49382929D01*
X229620000Y-49837071D02*
X229620000Y-49382929D01*
X228860000Y-47297071D02*
X228860000Y-46900000D01*
X229620000Y-47297071D02*
X229620000Y-46900000D01*
X228860000Y-38240000D02*
X228860000Y-44240000D01*
X229620000Y-38240000D02*
X228860000Y-38240000D01*
X229620000Y-44240000D02*
X229620000Y-38240000D01*
X230510000Y-46900000D02*
X230510000Y-44240000D01*
X231400000Y-49837071D02*
X231400000Y-49382929D01*
X232160000Y-49837071D02*
X232160000Y-49382929D01*
X231400000Y-47297071D02*
X231400000Y-46900000D01*
X232160000Y-47297071D02*
X232160000Y-46900000D01*
X231400000Y-38240000D02*
X231400000Y-44240000D01*
X232160000Y-38240000D02*
X231400000Y-38240000D01*
X232160000Y-44240000D02*
X232160000Y-38240000D01*
X233050000Y-46900000D02*
X233050000Y-44240000D01*
X233940000Y-49837071D02*
X233940000Y-49382929D01*
X234700000Y-49837071D02*
X234700000Y-49382929D01*
X233940000Y-47297071D02*
X233940000Y-46900000D01*
X234700000Y-47297071D02*
X234700000Y-46900000D01*
X233940000Y-38240000D02*
X233940000Y-44240000D01*
X234700000Y-38240000D02*
X233940000Y-38240000D01*
X234700000Y-44240000D02*
X234700000Y-38240000D01*
X235590000Y-46900000D02*
X235590000Y-44240000D01*
X236480000Y-49770000D02*
X236480000Y-49382929D01*
X237240000Y-49770000D02*
X237240000Y-49382929D01*
X236480000Y-47297071D02*
X236480000Y-46900000D01*
X237240000Y-47297071D02*
X237240000Y-46900000D01*
X236580000Y-44240000D02*
X236580000Y-38240000D01*
X236700000Y-44240000D02*
X236700000Y-38240000D01*
X236820000Y-44240000D02*
X236820000Y-38240000D01*
X236940000Y-44240000D02*
X236940000Y-38240000D01*
X237060000Y-44240000D02*
X237060000Y-38240000D01*
X237180000Y-44240000D02*
X237180000Y-38240000D01*
X236480000Y-38240000D02*
X236480000Y-44240000D01*
X237240000Y-38240000D02*
X236480000Y-38240000D01*
X237240000Y-44240000D02*
X237240000Y-38240000D01*
X238190000Y-44240000D02*
X238190000Y-46900000D01*
X225370000Y-44240000D02*
X238190000Y-44240000D01*
X225370000Y-46900000D02*
X225370000Y-44240000D01*
X238190000Y-46900000D02*
X225370000Y-46900000D01*
%TO.C,J5*%
X238070000Y-152410000D02*
X238070000Y-143780000D01*
X237951905Y-152410000D02*
X237951905Y-143780000D01*
X237833810Y-152410000D02*
X237833810Y-143780000D01*
X237715715Y-152410000D02*
X237715715Y-143780000D01*
X237597620Y-152410000D02*
X237597620Y-143780000D01*
X237479525Y-152410000D02*
X237479525Y-143780000D01*
X237361430Y-152410000D02*
X237361430Y-143780000D01*
X237243335Y-152410000D02*
X237243335Y-143780000D01*
X237125240Y-152410000D02*
X237125240Y-143780000D01*
X237007145Y-152410000D02*
X237007145Y-143780000D01*
X236889050Y-152410000D02*
X236889050Y-143780000D01*
X236770955Y-152410000D02*
X236770955Y-143780000D01*
X236652860Y-152410000D02*
X236652860Y-143780000D01*
X236534765Y-152410000D02*
X236534765Y-143780000D01*
X236416670Y-152410000D02*
X236416670Y-143780000D01*
X236298575Y-152410000D02*
X236298575Y-143780000D01*
X236180480Y-152410000D02*
X236180480Y-143780000D01*
X236062385Y-152410000D02*
X236062385Y-143780000D01*
X235944290Y-152410000D02*
X235944290Y-143780000D01*
X235826195Y-152410000D02*
X235826195Y-143780000D01*
X235708100Y-152410000D02*
X235708100Y-143780000D01*
X237220000Y-143780000D02*
X237220000Y-143370000D01*
X237220000Y-141270000D02*
X237220000Y-140890000D01*
X236500000Y-143780000D02*
X236500000Y-143370000D01*
X236500000Y-141270000D02*
X236500000Y-140890000D01*
X234680000Y-143780000D02*
X234680000Y-143370000D01*
X234680000Y-141270000D02*
X234680000Y-140830000D01*
X233960000Y-143780000D02*
X233960000Y-143370000D01*
X233960000Y-141270000D02*
X233960000Y-140830000D01*
X232140000Y-143780000D02*
X232140000Y-143370000D01*
X232140000Y-141270000D02*
X232140000Y-140830000D01*
X231420000Y-143780000D02*
X231420000Y-143370000D01*
X231420000Y-141270000D02*
X231420000Y-140830000D01*
X229600000Y-143780000D02*
X229600000Y-143370000D01*
X229600000Y-141270000D02*
X229600000Y-140830000D01*
X228880000Y-143780000D02*
X228880000Y-143370000D01*
X228880000Y-141270000D02*
X228880000Y-140830000D01*
X227060000Y-143780000D02*
X227060000Y-143370000D01*
X227060000Y-141270000D02*
X227060000Y-140830000D01*
X226340000Y-143780000D02*
X226340000Y-143370000D01*
X226340000Y-141270000D02*
X226340000Y-140830000D01*
X235590000Y-152410000D02*
X235590000Y-143780000D01*
X233050000Y-152410000D02*
X233050000Y-143780000D01*
X230510000Y-152410000D02*
X230510000Y-143780000D01*
X227970000Y-152410000D02*
X227970000Y-143780000D01*
X238190000Y-152410000D02*
X238190000Y-143780000D01*
X238190000Y-143780000D02*
X225370000Y-143780000D01*
X225370000Y-152410000D02*
X225370000Y-143780000D01*
X238190000Y-152410000D02*
X225370000Y-152410000D01*
X238190000Y-138670000D02*
X236860000Y-138670000D01*
X238190000Y-139780000D02*
X238190000Y-138670000D01*
%TO.C,J6*%
X191080000Y-137410000D02*
X203900000Y-137410000D01*
X203900000Y-137410000D02*
X203900000Y-140070000D01*
X203900000Y-140070000D02*
X191080000Y-140070000D01*
X191080000Y-140070000D02*
X191080000Y-137410000D01*
X192030000Y-140070000D02*
X192030000Y-146070000D01*
X192030000Y-146070000D02*
X192790000Y-146070000D01*
X192790000Y-146070000D02*
X192790000Y-140070000D01*
X192090000Y-140070000D02*
X192090000Y-146070000D01*
X192210000Y-140070000D02*
X192210000Y-146070000D01*
X192330000Y-140070000D02*
X192330000Y-146070000D01*
X192450000Y-140070000D02*
X192450000Y-146070000D01*
X192570000Y-140070000D02*
X192570000Y-146070000D01*
X192690000Y-140070000D02*
X192690000Y-146070000D01*
X192030000Y-137012929D02*
X192030000Y-137410000D01*
X192790000Y-137012929D02*
X192790000Y-137410000D01*
X192030000Y-134540000D02*
X192030000Y-134927071D01*
X192790000Y-134540000D02*
X192790000Y-134927071D01*
X193680000Y-137410000D02*
X193680000Y-140070000D01*
X194570000Y-140070000D02*
X194570000Y-146070000D01*
X194570000Y-146070000D02*
X195330000Y-146070000D01*
X195330000Y-146070000D02*
X195330000Y-140070000D01*
X194570000Y-137012929D02*
X194570000Y-137410000D01*
X195330000Y-137012929D02*
X195330000Y-137410000D01*
X194570000Y-134472929D02*
X194570000Y-134927071D01*
X195330000Y-134472929D02*
X195330000Y-134927071D01*
X196220000Y-137410000D02*
X196220000Y-140070000D01*
X197110000Y-140070000D02*
X197110000Y-146070000D01*
X197110000Y-146070000D02*
X197870000Y-146070000D01*
X197870000Y-146070000D02*
X197870000Y-140070000D01*
X197110000Y-137012929D02*
X197110000Y-137410000D01*
X197870000Y-137012929D02*
X197870000Y-137410000D01*
X197110000Y-134472929D02*
X197110000Y-134927071D01*
X197870000Y-134472929D02*
X197870000Y-134927071D01*
X198760000Y-137410000D02*
X198760000Y-140070000D01*
X199650000Y-140070000D02*
X199650000Y-146070000D01*
X199650000Y-146070000D02*
X200410000Y-146070000D01*
X200410000Y-146070000D02*
X200410000Y-140070000D01*
X199650000Y-137012929D02*
X199650000Y-137410000D01*
X200410000Y-137012929D02*
X200410000Y-137410000D01*
X199650000Y-134472929D02*
X199650000Y-134927071D01*
X200410000Y-134472929D02*
X200410000Y-134927071D01*
X201300000Y-137410000D02*
X201300000Y-140070000D01*
X202190000Y-140070000D02*
X202190000Y-146070000D01*
X202190000Y-146070000D02*
X202950000Y-146070000D01*
X202950000Y-146070000D02*
X202950000Y-140070000D01*
X202190000Y-137012929D02*
X202190000Y-137410000D01*
X202950000Y-137012929D02*
X202950000Y-137410000D01*
X202190000Y-134472929D02*
X202190000Y-134927071D01*
X202950000Y-134472929D02*
X202950000Y-134927071D01*
X192410000Y-132160000D02*
X191140000Y-132160000D01*
X191140000Y-132160000D02*
X191140000Y-133430000D01*
%TO.C,J7*%
X191080000Y-44530000D02*
X191080000Y-45640000D01*
X191080000Y-45640000D02*
X192410000Y-45640000D01*
X191080000Y-31900000D02*
X203900000Y-31900000D01*
X203900000Y-31900000D02*
X203900000Y-40530000D01*
X191080000Y-40530000D02*
X203900000Y-40530000D01*
X191080000Y-31900000D02*
X191080000Y-40530000D01*
X201300000Y-31900000D02*
X201300000Y-40530000D01*
X198760000Y-31900000D02*
X198760000Y-40530000D01*
X196220000Y-31900000D02*
X196220000Y-40530000D01*
X193680000Y-31900000D02*
X193680000Y-40530000D01*
X202930000Y-43040000D02*
X202930000Y-43480000D01*
X202930000Y-40530000D02*
X202930000Y-40940000D01*
X202210000Y-43040000D02*
X202210000Y-43480000D01*
X202210000Y-40530000D02*
X202210000Y-40940000D01*
X200390000Y-43040000D02*
X200390000Y-43480000D01*
X200390000Y-40530000D02*
X200390000Y-40940000D01*
X199670000Y-43040000D02*
X199670000Y-43480000D01*
X199670000Y-40530000D02*
X199670000Y-40940000D01*
X197850000Y-43040000D02*
X197850000Y-43480000D01*
X197850000Y-40530000D02*
X197850000Y-40940000D01*
X197130000Y-43040000D02*
X197130000Y-43480000D01*
X197130000Y-40530000D02*
X197130000Y-40940000D01*
X195310000Y-43040000D02*
X195310000Y-43480000D01*
X195310000Y-40530000D02*
X195310000Y-40940000D01*
X194590000Y-43040000D02*
X194590000Y-43480000D01*
X194590000Y-40530000D02*
X194590000Y-40940000D01*
X192770000Y-43040000D02*
X192770000Y-43420000D01*
X192770000Y-40530000D02*
X192770000Y-40940000D01*
X192050000Y-43040000D02*
X192050000Y-43420000D01*
X192050000Y-40530000D02*
X192050000Y-40940000D01*
X193561900Y-31900000D02*
X193561900Y-40530000D01*
X193443805Y-31900000D02*
X193443805Y-40530000D01*
X193325710Y-31900000D02*
X193325710Y-40530000D01*
X193207615Y-31900000D02*
X193207615Y-40530000D01*
X193089520Y-31900000D02*
X193089520Y-40530000D01*
X192971425Y-31900000D02*
X192971425Y-40530000D01*
X192853330Y-31900000D02*
X192853330Y-40530000D01*
X192735235Y-31900000D02*
X192735235Y-40530000D01*
X192617140Y-31900000D02*
X192617140Y-40530000D01*
X192499045Y-31900000D02*
X192499045Y-40530000D01*
X192380950Y-31900000D02*
X192380950Y-40530000D01*
X192262855Y-31900000D02*
X192262855Y-40530000D01*
X192144760Y-31900000D02*
X192144760Y-40530000D01*
X192026665Y-31900000D02*
X192026665Y-40530000D01*
X191908570Y-31900000D02*
X191908570Y-40530000D01*
X191790475Y-31900000D02*
X191790475Y-40530000D01*
X191672380Y-31900000D02*
X191672380Y-40530000D01*
X191554285Y-31900000D02*
X191554285Y-40530000D01*
X191436190Y-31900000D02*
X191436190Y-40530000D01*
X191318095Y-31900000D02*
X191318095Y-40530000D01*
X191200000Y-31900000D02*
X191200000Y-40530000D01*
%TO.C,JHA1*%
X213848904Y-46308000D02*
X212908452Y-45367548D01*
X212908452Y-47248452D02*
X213848904Y-46308000D01*
X212010426Y-44469522D02*
X210171949Y-42631045D01*
X210171949Y-46308000D02*
X212010426Y-44469522D01*
X212010426Y-48146478D02*
X210171949Y-46308000D01*
X210171949Y-42631045D02*
X201106840Y-51696154D01*
X212010426Y-48146478D02*
X204783795Y-55373109D01*
X204783795Y-55373109D02*
X201106840Y-51696154D01*
%TO.C,JHA2*%
X213848904Y-71708000D02*
X212908452Y-70767548D01*
X212908452Y-72648452D02*
X213848904Y-71708000D01*
X212010426Y-69869522D02*
X210171949Y-68031045D01*
X210171949Y-71708000D02*
X212010426Y-69869522D01*
X212010426Y-73546478D02*
X210171949Y-71708000D01*
X210171949Y-68031045D02*
X201106840Y-77096154D01*
X212010426Y-73546478D02*
X204783795Y-80773109D01*
X204783795Y-80773109D02*
X201106840Y-77096154D01*
%TO.C,JHA3*%
X204783795Y-106173109D02*
X201106840Y-102496154D01*
X212010426Y-98946478D02*
X204783795Y-106173109D01*
X210171949Y-93431045D02*
X201106840Y-102496154D01*
X212010426Y-98946478D02*
X210171949Y-97108000D01*
X210171949Y-97108000D02*
X212010426Y-95269522D01*
X212010426Y-95269522D02*
X210171949Y-93431045D01*
X212908452Y-98048452D02*
X213848904Y-97108000D01*
X213848904Y-97108000D02*
X212908452Y-96167548D01*
%TO.C,JHA4*%
X204783795Y-131573109D02*
X201106840Y-127896154D01*
X212010426Y-124346478D02*
X204783795Y-131573109D01*
X210171949Y-118831045D02*
X201106840Y-127896154D01*
X212010426Y-124346478D02*
X210171949Y-122508000D01*
X210171949Y-122508000D02*
X212010426Y-120669522D01*
X212010426Y-120669522D02*
X210171949Y-118831045D01*
X212908452Y-123448452D02*
X213848904Y-122508000D01*
X213848904Y-122508000D02*
X212908452Y-121567548D01*
%TO.C,JHB1*%
X227383109Y-57556205D02*
X223706154Y-61233160D01*
X220156478Y-50329574D02*
X227383109Y-57556205D01*
X214641045Y-52168051D02*
X223706154Y-61233160D01*
X220156478Y-50329574D02*
X218318000Y-52168051D01*
X218318000Y-52168051D02*
X216479522Y-50329574D01*
X216479522Y-50329574D02*
X214641045Y-52168051D01*
X219258452Y-49431548D02*
X218318000Y-48491096D01*
X218318000Y-48491096D02*
X217377548Y-49431548D01*
%TO.C,JHB2*%
X227383109Y-82956205D02*
X223706154Y-86633160D01*
X220156478Y-75729574D02*
X227383109Y-82956205D01*
X214641045Y-77568051D02*
X223706154Y-86633160D01*
X220156478Y-75729574D02*
X218318000Y-77568051D01*
X218318000Y-77568051D02*
X216479522Y-75729574D01*
X216479522Y-75729574D02*
X214641045Y-77568051D01*
X219258452Y-74831548D02*
X218318000Y-73891096D01*
X218318000Y-73891096D02*
X217377548Y-74831548D01*
%TO.C,JHB3*%
X227383109Y-108356205D02*
X223706154Y-112033160D01*
X220156478Y-101129574D02*
X227383109Y-108356205D01*
X214641045Y-102968051D02*
X223706154Y-112033160D01*
X220156478Y-101129574D02*
X218318000Y-102968051D01*
X218318000Y-102968051D02*
X216479522Y-101129574D01*
X216479522Y-101129574D02*
X214641045Y-102968051D01*
X219258452Y-100231548D02*
X218318000Y-99291096D01*
X218318000Y-99291096D02*
X217377548Y-100231548D01*
%TO.C,JHB4*%
X227383109Y-133756205D02*
X223706154Y-137433160D01*
X220156478Y-126529574D02*
X227383109Y-133756205D01*
X214641045Y-128368051D02*
X223706154Y-137433160D01*
X220156478Y-126529574D02*
X218318000Y-128368051D01*
X218318000Y-128368051D02*
X216479522Y-126529574D01*
X216479522Y-126529574D02*
X214641045Y-128368051D01*
X219258452Y-125631548D02*
X218318000Y-124691096D01*
X218318000Y-124691096D02*
X217377548Y-125631548D01*
D13*
%TO.C,PS1*%
X230177500Y-90339500D02*
X230177500Y-78839500D01*
X237777500Y-90339500D02*
X230177500Y-90339500D01*
X237777500Y-78839500D02*
X237777500Y-90339500D01*
X230177500Y-78839500D02*
X237777500Y-78839500D01*
D14*
X236767500Y-77789500D02*
G75*
G03*
X236767500Y-77789500I-100000J0D01*
G01*
%TO.C,J2*%
D10*
X205602380Y-135636666D02*
X206316666Y-135636666D01*
X206459523Y-135589047D01*
X206554761Y-135493809D01*
X206602380Y-135350952D01*
X206602380Y-135255714D01*
X205697619Y-136065238D02*
X205650000Y-136112857D01*
X205602380Y-136208095D01*
X205602380Y-136446190D01*
X205650000Y-136541428D01*
X205697619Y-136589047D01*
X205792857Y-136636666D01*
X205888095Y-136636666D01*
X206030952Y-136589047D01*
X206602380Y-136017619D01*
X206602380Y-136636666D01*
%TO.C,J3*%
X205602380Y-110236666D02*
X206316666Y-110236666D01*
X206459523Y-110189047D01*
X206554761Y-110093809D01*
X206602380Y-109950952D01*
X206602380Y-109855714D01*
X205602380Y-110617619D02*
X205602380Y-111236666D01*
X205983333Y-110903333D01*
X205983333Y-111046190D01*
X206030952Y-111141428D01*
X206078571Y-111189047D01*
X206173809Y-111236666D01*
X206411904Y-111236666D01*
X206507142Y-111189047D01*
X206554761Y-111141428D01*
X206602380Y-111046190D01*
X206602380Y-110760476D01*
X206554761Y-110665238D01*
X206507142Y-110617619D01*
%TO.C,J4*%
X231322380Y-53086666D02*
X232036666Y-53086666D01*
X232179523Y-53039047D01*
X232274761Y-52943809D01*
X232322380Y-52800952D01*
X232322380Y-52705714D01*
X231655714Y-53991428D02*
X232322380Y-53991428D01*
X231274761Y-53753333D02*
X231989047Y-53515238D01*
X231989047Y-54134285D01*
%TO.C,J5*%
X231322380Y-136836666D02*
X232036666Y-136836666D01*
X232179523Y-136789047D01*
X232274761Y-136693809D01*
X232322380Y-136550952D01*
X232322380Y-136455714D01*
X231322380Y-137789047D02*
X231322380Y-137312857D01*
X231798571Y-137265238D01*
X231750952Y-137312857D01*
X231703333Y-137408095D01*
X231703333Y-137646190D01*
X231750952Y-137741428D01*
X231798571Y-137789047D01*
X231893809Y-137836666D01*
X232131904Y-137836666D01*
X232227142Y-137789047D01*
X232274761Y-137741428D01*
X232322380Y-137646190D01*
X232322380Y-137408095D01*
X232274761Y-137312857D01*
X232227142Y-137265238D01*
%TO.C,J6*%
X197072380Y-130336666D02*
X197786666Y-130336666D01*
X197929523Y-130289047D01*
X198024761Y-130193809D01*
X198072380Y-130050952D01*
X198072380Y-129955714D01*
X197072380Y-131241428D02*
X197072380Y-131050952D01*
X197120000Y-130955714D01*
X197167619Y-130908095D01*
X197310476Y-130812857D01*
X197500952Y-130765238D01*
X197881904Y-130765238D01*
X197977142Y-130812857D01*
X198024761Y-130860476D01*
X198072380Y-130955714D01*
X198072380Y-131146190D01*
X198024761Y-131241428D01*
X197977142Y-131289047D01*
X197881904Y-131336666D01*
X197643809Y-131336666D01*
X197548571Y-131289047D01*
X197500952Y-131241428D01*
X197453333Y-131146190D01*
X197453333Y-130955714D01*
X197500952Y-130860476D01*
X197548571Y-130812857D01*
X197643809Y-130765238D01*
%TO.C,J7*%
X197072380Y-46836666D02*
X197786666Y-46836666D01*
X197929523Y-46789047D01*
X198024761Y-46693809D01*
X198072380Y-46550952D01*
X198072380Y-46455714D01*
X197072380Y-47217619D02*
X197072380Y-47884285D01*
X198072380Y-47455714D01*
%TO.C,JHA1*%
X214013895Y-44284328D02*
X213508819Y-44789404D01*
X213441475Y-44924091D01*
X213441475Y-45058778D01*
X213508819Y-45193465D01*
X213576162Y-45260808D01*
X212970071Y-44654717D02*
X213677177Y-43947610D01*
X213340460Y-44284328D02*
X212936399Y-43880267D01*
X212566010Y-44250656D02*
X213273116Y-43543549D01*
X212464994Y-43745580D02*
X212128277Y-43408862D01*
X212330307Y-44014954D02*
X212801712Y-43072145D01*
X211858903Y-43543549D01*
X211252811Y-42937458D02*
X211656872Y-43341519D01*
X211454842Y-43139488D02*
X212161949Y-42432381D01*
X212128277Y-42600740D01*
X212128277Y-42735427D01*
X212161949Y-42836442D01*
%TO.C,JHA2*%
X214013895Y-69684328D02*
X213508819Y-70189404D01*
X213441475Y-70324091D01*
X213441475Y-70458778D01*
X213508819Y-70593465D01*
X213576162Y-70660808D01*
X212970071Y-70054717D02*
X213677177Y-69347610D01*
X213340460Y-69684328D02*
X212936399Y-69280267D01*
X212566010Y-69650656D02*
X213273116Y-68943549D01*
X212464994Y-69145580D02*
X212128277Y-68808862D01*
X212330307Y-69414954D02*
X212801712Y-68472145D01*
X211858903Y-68943549D01*
X212296636Y-68101755D02*
X212296636Y-68034412D01*
X212262964Y-67933397D01*
X212094605Y-67765038D01*
X211993590Y-67731366D01*
X211926246Y-67731366D01*
X211825231Y-67765038D01*
X211757888Y-67832381D01*
X211690544Y-67967068D01*
X211690544Y-68775190D01*
X211252811Y-68337458D01*
%TO.C,JHA3*%
X214013895Y-95084328D02*
X213508819Y-95589404D01*
X213441475Y-95724091D01*
X213441475Y-95858778D01*
X213508819Y-95993465D01*
X213576162Y-96060808D01*
X212970071Y-95454717D02*
X213677177Y-94747610D01*
X213340460Y-95084328D02*
X212936399Y-94680267D01*
X212566010Y-95050656D02*
X213273116Y-94343549D01*
X212464994Y-94545580D02*
X212128277Y-94208862D01*
X212330307Y-94814954D02*
X212801712Y-93872145D01*
X211858903Y-94343549D01*
X212397651Y-93468084D02*
X211959918Y-93030351D01*
X211926246Y-93535427D01*
X211825231Y-93434412D01*
X211724216Y-93400740D01*
X211656872Y-93400740D01*
X211555857Y-93434412D01*
X211387498Y-93602771D01*
X211353827Y-93703786D01*
X211353827Y-93771129D01*
X211387498Y-93872145D01*
X211589529Y-94074175D01*
X211690544Y-94107847D01*
X211757888Y-94107847D01*
%TO.C,JHA4*%
X214013895Y-120484328D02*
X213508819Y-120989404D01*
X213441475Y-121124091D01*
X213441475Y-121258778D01*
X213508819Y-121393465D01*
X213576162Y-121460808D01*
X212970071Y-120854717D02*
X213677177Y-120147610D01*
X213340460Y-120484328D02*
X212936399Y-120080267D01*
X212566010Y-120450656D02*
X213273116Y-119743549D01*
X212464994Y-119945580D02*
X212128277Y-119608862D01*
X212330307Y-120214954D02*
X212801712Y-119272145D01*
X211858903Y-119743549D01*
X211791559Y-118733397D02*
X211320155Y-119204801D01*
X212229292Y-118632381D02*
X211892575Y-119305816D01*
X211454842Y-118868084D01*
%TO.C,JHB1*%
X216344835Y-48275596D02*
X216849912Y-48780673D01*
X216984599Y-48848016D01*
X217119286Y-48848016D01*
X217253973Y-48780673D01*
X217321316Y-48713329D01*
X216715225Y-49319421D02*
X216008118Y-48612314D01*
X216344835Y-48949031D02*
X215940774Y-49353092D01*
X216311164Y-49723482D02*
X215604057Y-49016375D01*
X215368354Y-49925512D02*
X215301011Y-50060199D01*
X215301011Y-50127543D01*
X215334683Y-50228558D01*
X215435698Y-50329573D01*
X215536713Y-50363245D01*
X215604057Y-50363245D01*
X215705072Y-50329573D01*
X215974446Y-50060199D01*
X215267339Y-49353092D01*
X215031637Y-49588795D01*
X214997965Y-49689810D01*
X214997965Y-49757154D01*
X215031637Y-49858169D01*
X215098980Y-49925512D01*
X215199996Y-49959184D01*
X215267339Y-49959184D01*
X215368354Y-49925512D01*
X215604057Y-49689810D01*
X214896950Y-51137695D02*
X215301011Y-50733634D01*
X215098980Y-50935665D02*
X214391874Y-50228558D01*
X214560232Y-50262230D01*
X214694919Y-50262230D01*
X214795935Y-50228558D01*
%TO.C,JHB2*%
X216344835Y-73675596D02*
X216849912Y-74180673D01*
X216984599Y-74248016D01*
X217119286Y-74248016D01*
X217253973Y-74180673D01*
X217321316Y-74113329D01*
X216715225Y-74719421D02*
X216008118Y-74012314D01*
X216344835Y-74349031D02*
X215940774Y-74753092D01*
X216311164Y-75123482D02*
X215604057Y-74416375D01*
X215368354Y-75325512D02*
X215301011Y-75460199D01*
X215301011Y-75527543D01*
X215334683Y-75628558D01*
X215435698Y-75729573D01*
X215536713Y-75763245D01*
X215604057Y-75763245D01*
X215705072Y-75729573D01*
X215974446Y-75460199D01*
X215267339Y-74753092D01*
X215031637Y-74988795D01*
X214997965Y-75089810D01*
X214997965Y-75157154D01*
X215031637Y-75258169D01*
X215098980Y-75325512D01*
X215199996Y-75359184D01*
X215267339Y-75359184D01*
X215368354Y-75325512D01*
X215604057Y-75089810D01*
X214661248Y-75493871D02*
X214593904Y-75493871D01*
X214492889Y-75527543D01*
X214324530Y-75695902D01*
X214290858Y-75796917D01*
X214290858Y-75864260D01*
X214324530Y-75965276D01*
X214391874Y-76032619D01*
X214526561Y-76099963D01*
X215334683Y-76099963D01*
X214896950Y-76537695D01*
%TO.C,JHB3*%
X216344835Y-99075596D02*
X216849912Y-99580673D01*
X216984599Y-99648016D01*
X217119286Y-99648016D01*
X217253973Y-99580673D01*
X217321316Y-99513329D01*
X216715225Y-100119421D02*
X216008118Y-99412314D01*
X216344835Y-99749031D02*
X215940774Y-100153092D01*
X216311164Y-100523482D02*
X215604057Y-99816375D01*
X215368354Y-100725512D02*
X215301011Y-100860199D01*
X215301011Y-100927543D01*
X215334683Y-101028558D01*
X215435698Y-101129573D01*
X215536713Y-101163245D01*
X215604057Y-101163245D01*
X215705072Y-101129573D01*
X215974446Y-100860199D01*
X215267339Y-100153092D01*
X215031637Y-100388795D01*
X214997965Y-100489810D01*
X214997965Y-100557154D01*
X215031637Y-100658169D01*
X215098980Y-100725512D01*
X215199996Y-100759184D01*
X215267339Y-100759184D01*
X215368354Y-100725512D01*
X215604057Y-100489810D01*
X214627576Y-100792856D02*
X214189843Y-101230589D01*
X214694919Y-101264260D01*
X214593904Y-101365276D01*
X214560232Y-101466291D01*
X214560232Y-101533634D01*
X214593904Y-101634650D01*
X214762263Y-101803008D01*
X214863278Y-101836680D01*
X214930622Y-101836680D01*
X215031637Y-101803008D01*
X215233667Y-101600978D01*
X215267339Y-101499963D01*
X215267339Y-101432619D01*
%TO.C,JHB4*%
X216344835Y-124475596D02*
X216849912Y-124980673D01*
X216984599Y-125048016D01*
X217119286Y-125048016D01*
X217253973Y-124980673D01*
X217321316Y-124913329D01*
X216715225Y-125519421D02*
X216008118Y-124812314D01*
X216344835Y-125149031D02*
X215940774Y-125553092D01*
X216311164Y-125923482D02*
X215604057Y-125216375D01*
X215368354Y-126125512D02*
X215301011Y-126260199D01*
X215301011Y-126327543D01*
X215334683Y-126428558D01*
X215435698Y-126529573D01*
X215536713Y-126563245D01*
X215604057Y-126563245D01*
X215705072Y-126529573D01*
X215974446Y-126260199D01*
X215267339Y-125553092D01*
X215031637Y-125788795D01*
X214997965Y-125889810D01*
X214997965Y-125957154D01*
X215031637Y-126058169D01*
X215098980Y-126125512D01*
X215199996Y-126159184D01*
X215267339Y-126159184D01*
X215368354Y-126125512D01*
X215604057Y-125889810D01*
X214492889Y-126798947D02*
X214964293Y-127270352D01*
X214391874Y-126361215D02*
X215065309Y-126697932D01*
X214627576Y-127135665D01*
%TO.C,PS1*%
D15*
X229384880Y-80990214D02*
X228384880Y-80990214D01*
X228384880Y-81371166D01*
X228432500Y-81466404D01*
X228480119Y-81514023D01*
X228575357Y-81561642D01*
X228718214Y-81561642D01*
X228813452Y-81514023D01*
X228861071Y-81466404D01*
X228908690Y-81371166D01*
X228908690Y-80990214D01*
X229337261Y-81942595D02*
X229384880Y-82085452D01*
X229384880Y-82323547D01*
X229337261Y-82418785D01*
X229289642Y-82466404D01*
X229194404Y-82514023D01*
X229099166Y-82514023D01*
X229003928Y-82466404D01*
X228956309Y-82418785D01*
X228908690Y-82323547D01*
X228861071Y-82133071D01*
X228813452Y-82037833D01*
X228765833Y-81990214D01*
X228670595Y-81942595D01*
X228575357Y-81942595D01*
X228480119Y-81990214D01*
X228432500Y-82037833D01*
X228384880Y-82133071D01*
X228384880Y-82371166D01*
X228432500Y-82514023D01*
X229384880Y-83466404D02*
X229384880Y-82894976D01*
X229384880Y-83180690D02*
X228384880Y-83180690D01*
X228527738Y-83085452D01*
X228622976Y-82990214D01*
X228670595Y-82894976D01*
%TD*%
M02*
