%TF.GenerationSoftware,KiCad,Pcbnew,(5.1.10)-1*%
%TF.CreationDate,2021-11-13T17:44:38+00:00*%
%TF.ProjectId,voltmitten,766f6c74-6d69-4747-9465-6e2e6b696361,01*%
%TF.SameCoordinates,Original*%
%TF.FileFunction,Soldermask,Bot*%
%TF.FilePolarity,Negative*%
%FSLAX46Y46*%
G04 Gerber Fmt 4.6, Leading zero omitted, Abs format (unit mm)*
G04 Created by KiCad (PCBNEW (5.1.10)-1) date 2021-11-13 17:44:38*
%MOMM*%
%LPD*%
G01*
G04 APERTURE LIST*
%ADD10O,1.350000X1.350000*%
%ADD11C,0.500000*%
%ADD12R,1.700000X1.700000*%
%ADD13O,1.700000X1.700000*%
%ADD14C,0.100000*%
%ADD15C,2.200000*%
%ADD16C,2.640000*%
%ADD17O,1.700000X1.350000*%
%ADD18O,1.500000X1.100000*%
%ADD19C,2.000000*%
%ADD20C,1.508000*%
%ADD21R,1.508000X1.508000*%
G04 APERTURE END LIST*
D10*
%TO.C,TP-B1*%
X152870000Y-97670000D03*
%TD*%
%TO.C,TP-C1*%
X152870000Y-102420000D03*
%TD*%
%TO.C,TP-A1*%
X149870000Y-91420000D03*
%TD*%
%TO.C,TP-B2*%
X152870000Y-99920000D03*
%TD*%
%TO.C,TP-A2*%
X149870000Y-93670000D03*
%TD*%
%TO.C,TP+A2*%
X151370000Y-131420000D03*
%TD*%
%TO.C,TP-C2*%
X151370000Y-106920000D03*
%TD*%
%TO.C,TP+A1*%
X152870000Y-126920000D03*
%TD*%
%TO.C,TP+C2*%
X153120000Y-117920000D03*
%TD*%
%TO.C,TP+C1*%
X149620000Y-115920000D03*
%TD*%
%TO.C,TP+B1*%
X152870000Y-122170000D03*
%TD*%
%TO.C,TP+B2*%
X152870000Y-124420000D03*
%TD*%
D11*
%TO.C,REF\u002A\u002A*%
X176070000Y-110720000D03*
X176870000Y-110720000D03*
X177670000Y-110720000D03*
X178470000Y-110720000D03*
X176070000Y-113120000D03*
X176870000Y-113120000D03*
X177670000Y-113120000D03*
X178470000Y-113120000D03*
%TD*%
D12*
%TO.C,J-1*%
X168600000Y-105640000D03*
D13*
X168600000Y-108180000D03*
%TD*%
D14*
%TO.C,JP-2*%
G36*
X162448427Y-102543833D02*
G01*
X163403021Y-103498427D01*
X162448427Y-104453021D01*
X161493833Y-103498427D01*
X162448427Y-102543833D01*
G37*
G36*
G01*
X161511510Y-101606916D02*
X161511510Y-101606916D01*
G75*
G02*
X161511510Y-102561510I-477297J-477297D01*
G01*
X161511510Y-102561510D01*
G75*
G02*
X160556916Y-102561510I-477297J477297D01*
G01*
X160556916Y-102561510D01*
G75*
G02*
X160556916Y-101606916I477297J477297D01*
G01*
X160556916Y-101606916D01*
G75*
G02*
X161511510Y-101606916I477297J-477297D01*
G01*
G37*
G36*
G01*
X160097297Y-100192703D02*
X160097297Y-100192703D01*
G75*
G02*
X160097297Y-101147297I-477297J-477297D01*
G01*
X160097297Y-101147297D01*
G75*
G02*
X159142703Y-101147297I-477297J477297D01*
G01*
X159142703Y-101147297D01*
G75*
G02*
X159142703Y-100192703I477297J477297D01*
G01*
X159142703Y-100192703D01*
G75*
G02*
X160097297Y-100192703I477297J-477297D01*
G01*
G37*
%TD*%
D11*
%TO.C,REF\u002A\u002A*%
X98570000Y-110720000D03*
X99370000Y-110720000D03*
X100170000Y-110720000D03*
X100970000Y-110720000D03*
X98570000Y-113120000D03*
X99370000Y-113120000D03*
X100170000Y-113120000D03*
X100970000Y-113120000D03*
%TD*%
D14*
%TO.C,JP-1*%
G36*
X154621573Y-96546167D02*
G01*
X153666979Y-95591573D01*
X154621573Y-94636979D01*
X155576167Y-95591573D01*
X154621573Y-96546167D01*
G37*
G36*
G01*
X155558490Y-97483084D02*
X155558490Y-97483084D01*
G75*
G02*
X155558490Y-96528490I477297J477297D01*
G01*
X155558490Y-96528490D01*
G75*
G02*
X156513084Y-96528490I477297J-477297D01*
G01*
X156513084Y-96528490D01*
G75*
G02*
X156513084Y-97483084I-477297J-477297D01*
G01*
X156513084Y-97483084D01*
G75*
G02*
X155558490Y-97483084I-477297J477297D01*
G01*
G37*
G36*
G01*
X156972703Y-98897297D02*
X156972703Y-98897297D01*
G75*
G02*
X156972703Y-97942703I477297J477297D01*
G01*
X156972703Y-97942703D01*
G75*
G02*
X157927297Y-97942703I477297J-477297D01*
G01*
X157927297Y-97942703D01*
G75*
G02*
X157927297Y-98897297I-477297J-477297D01*
G01*
X157927297Y-98897297D01*
G75*
G02*
X156972703Y-98897297I-477297J477297D01*
G01*
G37*
%TD*%
%TO.C,JP+2*%
G36*
X162448427Y-127043833D02*
G01*
X163403021Y-127998427D01*
X162448427Y-128953021D01*
X161493833Y-127998427D01*
X162448427Y-127043833D01*
G37*
G36*
G01*
X161511510Y-126106916D02*
X161511510Y-126106916D01*
G75*
G02*
X161511510Y-127061510I-477297J-477297D01*
G01*
X161511510Y-127061510D01*
G75*
G02*
X160556916Y-127061510I-477297J477297D01*
G01*
X160556916Y-127061510D01*
G75*
G02*
X160556916Y-126106916I477297J477297D01*
G01*
X160556916Y-126106916D01*
G75*
G02*
X161511510Y-126106916I477297J-477297D01*
G01*
G37*
G36*
G01*
X160097297Y-124692703D02*
X160097297Y-124692703D01*
G75*
G02*
X160097297Y-125647297I-477297J-477297D01*
G01*
X160097297Y-125647297D01*
G75*
G02*
X159142703Y-125647297I-477297J477297D01*
G01*
X159142703Y-125647297D01*
G75*
G02*
X159142703Y-124692703I477297J477297D01*
G01*
X159142703Y-124692703D01*
G75*
G02*
X160097297Y-124692703I477297J-477297D01*
G01*
G37*
%TD*%
D12*
%TO.C,J+1*%
X171140000Y-130140000D03*
D13*
X171140000Y-132680000D03*
%TD*%
D14*
%TO.C,JP+1*%
G36*
X154621573Y-121046167D02*
G01*
X153666979Y-120091573D01*
X154621573Y-119136979D01*
X155576167Y-120091573D01*
X154621573Y-121046167D01*
G37*
G36*
G01*
X155558490Y-121983084D02*
X155558490Y-121983084D01*
G75*
G02*
X155558490Y-121028490I477297J477297D01*
G01*
X155558490Y-121028490D01*
G75*
G02*
X156513084Y-121028490I477297J-477297D01*
G01*
X156513084Y-121028490D01*
G75*
G02*
X156513084Y-121983084I-477297J-477297D01*
G01*
X156513084Y-121983084D01*
G75*
G02*
X155558490Y-121983084I-477297J477297D01*
G01*
G37*
G36*
G01*
X156972703Y-123397297D02*
X156972703Y-123397297D01*
G75*
G02*
X156972703Y-122442703I477297J477297D01*
G01*
X156972703Y-122442703D01*
G75*
G02*
X157927297Y-122442703I477297J-477297D01*
G01*
X157927297Y-122442703D01*
G75*
G02*
X157927297Y-123397297I-477297J-477297D01*
G01*
X157927297Y-123397297D01*
G75*
G02*
X156972703Y-123397297I-477297J477297D01*
G01*
G37*
%TD*%
D11*
%TO.C,REF\u002A\u002A*%
X138570000Y-110720000D03*
X139370000Y-110720000D03*
X140170000Y-110720000D03*
X140970000Y-110720000D03*
X138570000Y-113120000D03*
X139370000Y-113120000D03*
X140170000Y-113120000D03*
X140970000Y-113120000D03*
%TD*%
D14*
%TO.C,JSA+1*%
G36*
X170433969Y-117956051D02*
G01*
X171636051Y-116753969D01*
X172838133Y-117956051D01*
X171636051Y-119158133D01*
X170433969Y-117956051D01*
G37*
G36*
G01*
X169238959Y-115558959D02*
X169238959Y-115558959D01*
G75*
G02*
X170441041Y-115558959I601041J-601041D01*
G01*
X170441041Y-115558959D01*
G75*
G02*
X170441041Y-116761041I-601041J-601041D01*
G01*
X170441041Y-116761041D01*
G75*
G02*
X169238959Y-116761041I-601041J601041D01*
G01*
X169238959Y-116761041D01*
G75*
G02*
X169238959Y-115558959I601041J601041D01*
G01*
G37*
G36*
G01*
X169238959Y-119151061D02*
X169238959Y-119151061D01*
G75*
G02*
X170441041Y-119151061I601041J-601041D01*
G01*
X170441041Y-119151061D01*
G75*
G02*
X170441041Y-120353143I-601041J-601041D01*
G01*
X170441041Y-120353143D01*
G75*
G02*
X169238959Y-120353143I-601041J601041D01*
G01*
X169238959Y-120353143D01*
G75*
G02*
X169238959Y-119151061I601041J601041D01*
G01*
G37*
G36*
G01*
X167442908Y-117355010D02*
X167442908Y-117355010D01*
G75*
G02*
X168644990Y-117355010I601041J-601041D01*
G01*
X168644990Y-117355010D01*
G75*
G02*
X168644990Y-118557092I-601041J-601041D01*
G01*
X168644990Y-118557092D01*
G75*
G02*
X167442908Y-118557092I-601041J601041D01*
G01*
X167442908Y-118557092D01*
G75*
G02*
X167442908Y-117355010I601041J601041D01*
G01*
G37*
G36*
G01*
X167442908Y-120947112D02*
X167442908Y-120947112D01*
G75*
G02*
X168644990Y-120947112I601041J-601041D01*
G01*
X168644990Y-120947112D01*
G75*
G02*
X168644990Y-122149194I-601041J-601041D01*
G01*
X168644990Y-122149194D01*
G75*
G02*
X167442908Y-122149194I-601041J601041D01*
G01*
X167442908Y-122149194D01*
G75*
G02*
X167442908Y-120947112I601041J601041D01*
G01*
G37*
G36*
G01*
X165646856Y-119151061D02*
X165646856Y-119151061D01*
G75*
G02*
X166848938Y-119151061I601041J-601041D01*
G01*
X166848938Y-119151061D01*
G75*
G02*
X166848938Y-120353143I-601041J-601041D01*
G01*
X166848938Y-120353143D01*
G75*
G02*
X165646856Y-120353143I-601041J601041D01*
G01*
X165646856Y-120353143D01*
G75*
G02*
X165646856Y-119151061I601041J601041D01*
G01*
G37*
G36*
G01*
X165646856Y-122743164D02*
X165646856Y-122743164D01*
G75*
G02*
X166848938Y-122743164I601041J-601041D01*
G01*
X166848938Y-122743164D01*
G75*
G02*
X166848938Y-123945246I-601041J-601041D01*
G01*
X166848938Y-123945246D01*
G75*
G02*
X165646856Y-123945246I-601041J601041D01*
G01*
X165646856Y-123945246D01*
G75*
G02*
X165646856Y-122743164I601041J601041D01*
G01*
G37*
G36*
G01*
X163850805Y-120947112D02*
X163850805Y-120947112D01*
G75*
G02*
X165052887Y-120947112I601041J-601041D01*
G01*
X165052887Y-120947112D01*
G75*
G02*
X165052887Y-122149194I-601041J-601041D01*
G01*
X165052887Y-122149194D01*
G75*
G02*
X163850805Y-122149194I-601041J601041D01*
G01*
X163850805Y-122149194D01*
G75*
G02*
X163850805Y-120947112I601041J601041D01*
G01*
G37*
G36*
G01*
X163850805Y-124539215D02*
X163850805Y-124539215D01*
G75*
G02*
X165052887Y-124539215I601041J-601041D01*
G01*
X165052887Y-124539215D01*
G75*
G02*
X165052887Y-125741297I-601041J-601041D01*
G01*
X165052887Y-125741297D01*
G75*
G02*
X163850805Y-125741297I-601041J601041D01*
G01*
X163850805Y-125741297D01*
G75*
G02*
X163850805Y-124539215I601041J601041D01*
G01*
G37*
G36*
G01*
X162054754Y-122743164D02*
X162054754Y-122743164D01*
G75*
G02*
X163256836Y-122743164I601041J-601041D01*
G01*
X163256836Y-122743164D01*
G75*
G02*
X163256836Y-123945246I-601041J-601041D01*
G01*
X163256836Y-123945246D01*
G75*
G02*
X162054754Y-123945246I-601041J601041D01*
G01*
X162054754Y-123945246D01*
G75*
G02*
X162054754Y-122743164I601041J601041D01*
G01*
G37*
%TD*%
D11*
%TO.C,REF\u002A\u002A*%
X63570000Y-110720000D03*
X64370000Y-110720000D03*
X65170000Y-110720000D03*
X65970000Y-110720000D03*
X63570000Y-113120000D03*
X64370000Y-113120000D03*
X65170000Y-113120000D03*
X65970000Y-113120000D03*
%TD*%
D14*
%TO.C,JSA-1*%
G36*
X170433969Y-93456051D02*
G01*
X171636051Y-92253969D01*
X172838133Y-93456051D01*
X171636051Y-94658133D01*
X170433969Y-93456051D01*
G37*
G36*
G01*
X169238959Y-91058959D02*
X169238959Y-91058959D01*
G75*
G02*
X170441041Y-91058959I601041J-601041D01*
G01*
X170441041Y-91058959D01*
G75*
G02*
X170441041Y-92261041I-601041J-601041D01*
G01*
X170441041Y-92261041D01*
G75*
G02*
X169238959Y-92261041I-601041J601041D01*
G01*
X169238959Y-92261041D01*
G75*
G02*
X169238959Y-91058959I601041J601041D01*
G01*
G37*
G36*
G01*
X169238959Y-94651061D02*
X169238959Y-94651061D01*
G75*
G02*
X170441041Y-94651061I601041J-601041D01*
G01*
X170441041Y-94651061D01*
G75*
G02*
X170441041Y-95853143I-601041J-601041D01*
G01*
X170441041Y-95853143D01*
G75*
G02*
X169238959Y-95853143I-601041J601041D01*
G01*
X169238959Y-95853143D01*
G75*
G02*
X169238959Y-94651061I601041J601041D01*
G01*
G37*
G36*
G01*
X167442908Y-92855010D02*
X167442908Y-92855010D01*
G75*
G02*
X168644990Y-92855010I601041J-601041D01*
G01*
X168644990Y-92855010D01*
G75*
G02*
X168644990Y-94057092I-601041J-601041D01*
G01*
X168644990Y-94057092D01*
G75*
G02*
X167442908Y-94057092I-601041J601041D01*
G01*
X167442908Y-94057092D01*
G75*
G02*
X167442908Y-92855010I601041J601041D01*
G01*
G37*
G36*
G01*
X167442908Y-96447112D02*
X167442908Y-96447112D01*
G75*
G02*
X168644990Y-96447112I601041J-601041D01*
G01*
X168644990Y-96447112D01*
G75*
G02*
X168644990Y-97649194I-601041J-601041D01*
G01*
X168644990Y-97649194D01*
G75*
G02*
X167442908Y-97649194I-601041J601041D01*
G01*
X167442908Y-97649194D01*
G75*
G02*
X167442908Y-96447112I601041J601041D01*
G01*
G37*
G36*
G01*
X165646856Y-94651061D02*
X165646856Y-94651061D01*
G75*
G02*
X166848938Y-94651061I601041J-601041D01*
G01*
X166848938Y-94651061D01*
G75*
G02*
X166848938Y-95853143I-601041J-601041D01*
G01*
X166848938Y-95853143D01*
G75*
G02*
X165646856Y-95853143I-601041J601041D01*
G01*
X165646856Y-95853143D01*
G75*
G02*
X165646856Y-94651061I601041J601041D01*
G01*
G37*
G36*
G01*
X165646856Y-98243164D02*
X165646856Y-98243164D01*
G75*
G02*
X166848938Y-98243164I601041J-601041D01*
G01*
X166848938Y-98243164D01*
G75*
G02*
X166848938Y-99445246I-601041J-601041D01*
G01*
X166848938Y-99445246D01*
G75*
G02*
X165646856Y-99445246I-601041J601041D01*
G01*
X165646856Y-99445246D01*
G75*
G02*
X165646856Y-98243164I601041J601041D01*
G01*
G37*
G36*
G01*
X163850805Y-96447112D02*
X163850805Y-96447112D01*
G75*
G02*
X165052887Y-96447112I601041J-601041D01*
G01*
X165052887Y-96447112D01*
G75*
G02*
X165052887Y-97649194I-601041J-601041D01*
G01*
X165052887Y-97649194D01*
G75*
G02*
X163850805Y-97649194I-601041J601041D01*
G01*
X163850805Y-97649194D01*
G75*
G02*
X163850805Y-96447112I601041J601041D01*
G01*
G37*
G36*
G01*
X163850805Y-100039215D02*
X163850805Y-100039215D01*
G75*
G02*
X165052887Y-100039215I601041J-601041D01*
G01*
X165052887Y-100039215D01*
G75*
G02*
X165052887Y-101241297I-601041J-601041D01*
G01*
X165052887Y-101241297D01*
G75*
G02*
X163850805Y-101241297I-601041J601041D01*
G01*
X163850805Y-101241297D01*
G75*
G02*
X163850805Y-100039215I601041J601041D01*
G01*
G37*
G36*
G01*
X162054754Y-98243164D02*
X162054754Y-98243164D01*
G75*
G02*
X163256836Y-98243164I601041J-601041D01*
G01*
X163256836Y-98243164D01*
G75*
G02*
X163256836Y-99445246I-601041J-601041D01*
G01*
X163256836Y-99445246D01*
G75*
G02*
X162054754Y-99445246I-601041J601041D01*
G01*
X162054754Y-99445246D01*
G75*
G02*
X162054754Y-98243164I601041J601041D01*
G01*
G37*
%TD*%
D15*
%TO.C,REF\u002A\u002A*%
X73870000Y-118100000D03*
%TD*%
%TO.C,REF\u002A\u002A*%
X182370000Y-118100000D03*
%TD*%
D16*
%TO.C,J+2*%
X67010000Y-130340000D03*
X67010000Y-126200000D03*
X67010000Y-122060000D03*
X67010000Y-117920000D03*
X62870000Y-130340000D03*
X62870000Y-126200000D03*
X62870000Y-122060000D03*
G36*
G01*
X61550000Y-118990000D02*
X61550000Y-116850000D01*
G75*
G02*
X61800000Y-116600000I250000J0D01*
G01*
X63940000Y-116600000D01*
G75*
G02*
X64190000Y-116850000I0J-250000D01*
G01*
X64190000Y-118990000D01*
G75*
G02*
X63940000Y-119240000I-250000J0D01*
G01*
X61800000Y-119240000D01*
G75*
G02*
X61550000Y-118990000I0J250000D01*
G01*
G37*
%TD*%
%TO.C,J-2*%
X67010000Y-105840000D03*
X67010000Y-101700000D03*
X67010000Y-97560000D03*
X67010000Y-93420000D03*
X62870000Y-105840000D03*
X62870000Y-101700000D03*
X62870000Y-97560000D03*
G36*
G01*
X61550000Y-94490000D02*
X61550000Y-92350000D01*
G75*
G02*
X61800000Y-92100000I250000J0D01*
G01*
X63940000Y-92100000D01*
G75*
G02*
X64190000Y-92350000I0J-250000D01*
G01*
X64190000Y-94490000D01*
G75*
G02*
X63940000Y-94740000I-250000J0D01*
G01*
X61800000Y-94740000D01*
G75*
G02*
X61550000Y-94490000I0J250000D01*
G01*
G37*
%TD*%
D15*
%TO.C,REF\u002A\u002A*%
X182370000Y-93600000D03*
%TD*%
%TO.C,REF\u002A\u002A*%
X73870000Y-93600000D03*
%TD*%
%TO.C,REF\u002A\u002A*%
X73870000Y-130100000D03*
%TD*%
D14*
%TO.C,JSB+1*%
G36*
X177986051Y-123226031D02*
G01*
X176783969Y-122023949D01*
X177986051Y-120821867D01*
X179188133Y-122023949D01*
X177986051Y-123226031D01*
G37*
G36*
G01*
X175588959Y-124421041D02*
X175588959Y-124421041D01*
G75*
G02*
X175588959Y-123218959I601041J601041D01*
G01*
X175588959Y-123218959D01*
G75*
G02*
X176791041Y-123218959I601041J-601041D01*
G01*
X176791041Y-123218959D01*
G75*
G02*
X176791041Y-124421041I-601041J-601041D01*
G01*
X176791041Y-124421041D01*
G75*
G02*
X175588959Y-124421041I-601041J601041D01*
G01*
G37*
G36*
G01*
X179181061Y-124421041D02*
X179181061Y-124421041D01*
G75*
G02*
X179181061Y-123218959I601041J601041D01*
G01*
X179181061Y-123218959D01*
G75*
G02*
X180383143Y-123218959I601041J-601041D01*
G01*
X180383143Y-123218959D01*
G75*
G02*
X180383143Y-124421041I-601041J-601041D01*
G01*
X180383143Y-124421041D01*
G75*
G02*
X179181061Y-124421041I-601041J601041D01*
G01*
G37*
G36*
G01*
X177385010Y-126217092D02*
X177385010Y-126217092D01*
G75*
G02*
X177385010Y-125015010I601041J601041D01*
G01*
X177385010Y-125015010D01*
G75*
G02*
X178587092Y-125015010I601041J-601041D01*
G01*
X178587092Y-125015010D01*
G75*
G02*
X178587092Y-126217092I-601041J-601041D01*
G01*
X178587092Y-126217092D01*
G75*
G02*
X177385010Y-126217092I-601041J601041D01*
G01*
G37*
G36*
G01*
X180977112Y-126217092D02*
X180977112Y-126217092D01*
G75*
G02*
X180977112Y-125015010I601041J601041D01*
G01*
X180977112Y-125015010D01*
G75*
G02*
X182179194Y-125015010I601041J-601041D01*
G01*
X182179194Y-125015010D01*
G75*
G02*
X182179194Y-126217092I-601041J-601041D01*
G01*
X182179194Y-126217092D01*
G75*
G02*
X180977112Y-126217092I-601041J601041D01*
G01*
G37*
G36*
G01*
X179181061Y-128013144D02*
X179181061Y-128013144D01*
G75*
G02*
X179181061Y-126811062I601041J601041D01*
G01*
X179181061Y-126811062D01*
G75*
G02*
X180383143Y-126811062I601041J-601041D01*
G01*
X180383143Y-126811062D01*
G75*
G02*
X180383143Y-128013144I-601041J-601041D01*
G01*
X180383143Y-128013144D01*
G75*
G02*
X179181061Y-128013144I-601041J601041D01*
G01*
G37*
G36*
G01*
X182773164Y-128013144D02*
X182773164Y-128013144D01*
G75*
G02*
X182773164Y-126811062I601041J601041D01*
G01*
X182773164Y-126811062D01*
G75*
G02*
X183975246Y-126811062I601041J-601041D01*
G01*
X183975246Y-126811062D01*
G75*
G02*
X183975246Y-128013144I-601041J-601041D01*
G01*
X183975246Y-128013144D01*
G75*
G02*
X182773164Y-128013144I-601041J601041D01*
G01*
G37*
G36*
G01*
X180977112Y-129809195D02*
X180977112Y-129809195D01*
G75*
G02*
X180977112Y-128607113I601041J601041D01*
G01*
X180977112Y-128607113D01*
G75*
G02*
X182179194Y-128607113I601041J-601041D01*
G01*
X182179194Y-128607113D01*
G75*
G02*
X182179194Y-129809195I-601041J-601041D01*
G01*
X182179194Y-129809195D01*
G75*
G02*
X180977112Y-129809195I-601041J601041D01*
G01*
G37*
G36*
G01*
X184569215Y-129809195D02*
X184569215Y-129809195D01*
G75*
G02*
X184569215Y-128607113I601041J601041D01*
G01*
X184569215Y-128607113D01*
G75*
G02*
X185771297Y-128607113I601041J-601041D01*
G01*
X185771297Y-128607113D01*
G75*
G02*
X185771297Y-129809195I-601041J-601041D01*
G01*
X185771297Y-129809195D01*
G75*
G02*
X184569215Y-129809195I-601041J601041D01*
G01*
G37*
G36*
G01*
X182773164Y-131605246D02*
X182773164Y-131605246D01*
G75*
G02*
X182773164Y-130403164I601041J601041D01*
G01*
X182773164Y-130403164D01*
G75*
G02*
X183975246Y-130403164I601041J-601041D01*
G01*
X183975246Y-130403164D01*
G75*
G02*
X183975246Y-131605246I-601041J-601041D01*
G01*
X183975246Y-131605246D01*
G75*
G02*
X182773164Y-131605246I-601041J601041D01*
G01*
G37*
%TD*%
%TO.C,JSB-1*%
G36*
X177986051Y-98726031D02*
G01*
X176783969Y-97523949D01*
X177986051Y-96321867D01*
X179188133Y-97523949D01*
X177986051Y-98726031D01*
G37*
G36*
G01*
X175588959Y-99921041D02*
X175588959Y-99921041D01*
G75*
G02*
X175588959Y-98718959I601041J601041D01*
G01*
X175588959Y-98718959D01*
G75*
G02*
X176791041Y-98718959I601041J-601041D01*
G01*
X176791041Y-98718959D01*
G75*
G02*
X176791041Y-99921041I-601041J-601041D01*
G01*
X176791041Y-99921041D01*
G75*
G02*
X175588959Y-99921041I-601041J601041D01*
G01*
G37*
G36*
G01*
X179181061Y-99921041D02*
X179181061Y-99921041D01*
G75*
G02*
X179181061Y-98718959I601041J601041D01*
G01*
X179181061Y-98718959D01*
G75*
G02*
X180383143Y-98718959I601041J-601041D01*
G01*
X180383143Y-98718959D01*
G75*
G02*
X180383143Y-99921041I-601041J-601041D01*
G01*
X180383143Y-99921041D01*
G75*
G02*
X179181061Y-99921041I-601041J601041D01*
G01*
G37*
G36*
G01*
X177385010Y-101717092D02*
X177385010Y-101717092D01*
G75*
G02*
X177385010Y-100515010I601041J601041D01*
G01*
X177385010Y-100515010D01*
G75*
G02*
X178587092Y-100515010I601041J-601041D01*
G01*
X178587092Y-100515010D01*
G75*
G02*
X178587092Y-101717092I-601041J-601041D01*
G01*
X178587092Y-101717092D01*
G75*
G02*
X177385010Y-101717092I-601041J601041D01*
G01*
G37*
G36*
G01*
X180977112Y-101717092D02*
X180977112Y-101717092D01*
G75*
G02*
X180977112Y-100515010I601041J601041D01*
G01*
X180977112Y-100515010D01*
G75*
G02*
X182179194Y-100515010I601041J-601041D01*
G01*
X182179194Y-100515010D01*
G75*
G02*
X182179194Y-101717092I-601041J-601041D01*
G01*
X182179194Y-101717092D01*
G75*
G02*
X180977112Y-101717092I-601041J601041D01*
G01*
G37*
G36*
G01*
X179181061Y-103513144D02*
X179181061Y-103513144D01*
G75*
G02*
X179181061Y-102311062I601041J601041D01*
G01*
X179181061Y-102311062D01*
G75*
G02*
X180383143Y-102311062I601041J-601041D01*
G01*
X180383143Y-102311062D01*
G75*
G02*
X180383143Y-103513144I-601041J-601041D01*
G01*
X180383143Y-103513144D01*
G75*
G02*
X179181061Y-103513144I-601041J601041D01*
G01*
G37*
G36*
G01*
X182773164Y-103513144D02*
X182773164Y-103513144D01*
G75*
G02*
X182773164Y-102311062I601041J601041D01*
G01*
X182773164Y-102311062D01*
G75*
G02*
X183975246Y-102311062I601041J-601041D01*
G01*
X183975246Y-102311062D01*
G75*
G02*
X183975246Y-103513144I-601041J-601041D01*
G01*
X183975246Y-103513144D01*
G75*
G02*
X182773164Y-103513144I-601041J601041D01*
G01*
G37*
G36*
G01*
X180977112Y-105309195D02*
X180977112Y-105309195D01*
G75*
G02*
X180977112Y-104107113I601041J601041D01*
G01*
X180977112Y-104107113D01*
G75*
G02*
X182179194Y-104107113I601041J-601041D01*
G01*
X182179194Y-104107113D01*
G75*
G02*
X182179194Y-105309195I-601041J-601041D01*
G01*
X182179194Y-105309195D01*
G75*
G02*
X180977112Y-105309195I-601041J601041D01*
G01*
G37*
G36*
G01*
X184569215Y-105309195D02*
X184569215Y-105309195D01*
G75*
G02*
X184569215Y-104107113I601041J601041D01*
G01*
X184569215Y-104107113D01*
G75*
G02*
X185771297Y-104107113I601041J-601041D01*
G01*
X185771297Y-104107113D01*
G75*
G02*
X185771297Y-105309195I-601041J-601041D01*
G01*
X185771297Y-105309195D01*
G75*
G02*
X184569215Y-105309195I-601041J601041D01*
G01*
G37*
G36*
G01*
X182773164Y-107105246D02*
X182773164Y-107105246D01*
G75*
G02*
X182773164Y-105903164I601041J601041D01*
G01*
X182773164Y-105903164D01*
G75*
G02*
X183975246Y-105903164I601041J-601041D01*
G01*
X183975246Y-105903164D01*
G75*
G02*
X183975246Y-107105246I-601041J-601041D01*
G01*
X183975246Y-107105246D01*
G75*
G02*
X182773164Y-107105246I-601041J601041D01*
G01*
G37*
%TD*%
D16*
%TO.C,J-3*%
X80870000Y-93420000D03*
X80870000Y-97560000D03*
X80870000Y-101700000D03*
X80870000Y-105840000D03*
X85010000Y-93420000D03*
X85010000Y-97560000D03*
X85010000Y-101700000D03*
G36*
G01*
X86330000Y-104770000D02*
X86330000Y-106910000D01*
G75*
G02*
X86080000Y-107160000I-250000J0D01*
G01*
X83940000Y-107160000D01*
G75*
G02*
X83690000Y-106910000I0J250000D01*
G01*
X83690000Y-104770000D01*
G75*
G02*
X83940000Y-104520000I250000J0D01*
G01*
X86080000Y-104520000D01*
G75*
G02*
X86330000Y-104770000I0J-250000D01*
G01*
G37*
%TD*%
D15*
%TO.C,REF\u002A\u002A*%
X73870000Y-105600000D03*
%TD*%
D16*
%TO.C,J+3*%
X80870000Y-117920000D03*
X80870000Y-122060000D03*
X80870000Y-126200000D03*
X80870000Y-130340000D03*
X85010000Y-117920000D03*
X85010000Y-122060000D03*
X85010000Y-126200000D03*
G36*
G01*
X86330000Y-129270000D02*
X86330000Y-131410000D01*
G75*
G02*
X86080000Y-131660000I-250000J0D01*
G01*
X83940000Y-131660000D01*
G75*
G02*
X83690000Y-131410000I0J250000D01*
G01*
X83690000Y-129270000D01*
G75*
G02*
X83940000Y-129020000I250000J0D01*
G01*
X86080000Y-129020000D01*
G75*
G02*
X86330000Y-129270000I0J-250000D01*
G01*
G37*
%TD*%
D12*
%TO.C,TP+1*%
X134370000Y-115920000D03*
D13*
X136910000Y-115920000D03*
X139450000Y-115920000D03*
%TD*%
D12*
%TO.C,TP-1*%
X134370000Y-91420000D03*
D13*
X136910000Y-91420000D03*
X139450000Y-91420000D03*
%TD*%
D10*
%TO.C,TP-C2*%
X151370000Y-57920000D03*
%TD*%
%TO.C,TP-C1*%
X152870000Y-53420000D03*
%TD*%
%TO.C,TP-B2*%
X152870000Y-50920000D03*
%TD*%
%TO.C,TP-B1*%
X152870000Y-48670000D03*
%TD*%
%TO.C,TP-A2*%
X149870000Y-44670000D03*
%TD*%
%TO.C,TP-A1*%
X149870000Y-42420000D03*
%TD*%
%TO.C,TP+A2*%
X151370000Y-82420000D03*
%TD*%
%TO.C,TP+A1*%
X152870000Y-77920000D03*
%TD*%
%TO.C,TP+B2*%
X152870000Y-75420000D03*
%TD*%
%TO.C,TP+B1*%
X152870000Y-73170000D03*
%TD*%
%TO.C,TP+C2*%
X153120000Y-68920000D03*
%TD*%
%TO.C,TP+C1*%
X149620000Y-66920000D03*
%TD*%
D17*
%TO.C,J1*%
X238110000Y-69140000D03*
X238110000Y-74600000D03*
D18*
X235110000Y-69450000D03*
X235110000Y-74290000D03*
%TD*%
D15*
%TO.C,REF\u002A\u002A*%
X218820000Y-61000000D03*
%TD*%
%TO.C,REF\u002A\u002A*%
X218820000Y-137250000D03*
%TD*%
%TO.C,REF\u002A\u002A*%
X222320000Y-95750000D03*
%TD*%
D13*
%TO.C,TP-1*%
X139450000Y-42420000D03*
X136910000Y-42420000D03*
D12*
X134370000Y-42420000D03*
%TD*%
D13*
%TO.C,TP+1*%
X139450000Y-66920000D03*
X136910000Y-66920000D03*
D12*
X134370000Y-66920000D03*
%TD*%
D11*
%TO.C,REF\u002A\u002A*%
X187670000Y-117220000D03*
X187670000Y-116420000D03*
X187670000Y-115620000D03*
X187670000Y-114820000D03*
X190070000Y-117220000D03*
X190070000Y-116420000D03*
X190070000Y-115620000D03*
X190070000Y-114820000D03*
%TD*%
%TO.C,REF\u002A\u002A*%
X190070000Y-131620000D03*
X190070000Y-132420000D03*
X190070000Y-133220000D03*
X190070000Y-134020000D03*
X187670000Y-131620000D03*
X187670000Y-132420000D03*
X187670000Y-133220000D03*
X187670000Y-134020000D03*
%TD*%
%TO.C,REF\u002A\u002A*%
X187670000Y-109520000D03*
X187670000Y-108720000D03*
X187670000Y-107920000D03*
X187670000Y-107120000D03*
X190070000Y-109520000D03*
X190070000Y-108720000D03*
X190070000Y-107920000D03*
X190070000Y-107120000D03*
%TD*%
%TO.C,REF\u002A\u002A*%
X190070000Y-90320000D03*
X190070000Y-91120000D03*
X190070000Y-91920000D03*
X190070000Y-92720000D03*
X187670000Y-90320000D03*
X187670000Y-91120000D03*
X187670000Y-91920000D03*
X187670000Y-92720000D03*
%TD*%
D15*
%TO.C,REF\u002A\u002A*%
X73870000Y-81100000D03*
%TD*%
%TO.C,REF\u002A\u002A*%
X73870000Y-69100000D03*
%TD*%
%TO.C,REF\u002A\u002A*%
X182370000Y-69100000D03*
%TD*%
D11*
%TO.C,REF\u002A\u002A*%
X176070000Y-86220000D03*
X176870000Y-86220000D03*
X177670000Y-86220000D03*
X178470000Y-86220000D03*
X176070000Y-88620000D03*
X176870000Y-88620000D03*
X177670000Y-88620000D03*
X178470000Y-88620000D03*
%TD*%
%TO.C,REF\u002A\u002A*%
X138570000Y-86220000D03*
X139370000Y-86220000D03*
X140170000Y-86220000D03*
X140970000Y-86220000D03*
X138570000Y-88620000D03*
X139370000Y-88620000D03*
X140170000Y-88620000D03*
X140970000Y-88620000D03*
%TD*%
%TO.C,REF\u002A\u002A*%
X98570000Y-86220000D03*
X99370000Y-86220000D03*
X100170000Y-86220000D03*
X100970000Y-86220000D03*
X98570000Y-88620000D03*
X99370000Y-88620000D03*
X100170000Y-88620000D03*
X100970000Y-88620000D03*
%TD*%
%TO.C,REF\u002A\u002A*%
X63570000Y-86220000D03*
X64370000Y-86220000D03*
X65170000Y-86220000D03*
X65970000Y-86220000D03*
X63570000Y-88620000D03*
X64370000Y-88620000D03*
X65170000Y-88620000D03*
X65970000Y-88620000D03*
%TD*%
%TO.C,REF\u002A\u002A*%
X190070000Y-82620000D03*
X190070000Y-83420000D03*
X190070000Y-84220000D03*
X190070000Y-85020000D03*
X187670000Y-82620000D03*
X187670000Y-83420000D03*
X187670000Y-84220000D03*
X187670000Y-85020000D03*
%TD*%
%TO.C,REF\u002A\u002A*%
X187670000Y-68220000D03*
X187670000Y-67420000D03*
X187670000Y-66620000D03*
X187670000Y-65820000D03*
X190070000Y-68220000D03*
X190070000Y-67420000D03*
X190070000Y-66620000D03*
X190070000Y-65820000D03*
%TD*%
D15*
%TO.C,REF\u002A\u002A*%
X182370000Y-44600000D03*
%TD*%
%TO.C,REF\u002A\u002A*%
X73870000Y-56600000D03*
%TD*%
%TO.C,REF\u002A\u002A*%
X73870000Y-44600000D03*
%TD*%
%TO.C,J-3*%
G36*
G01*
X86330000Y-55770000D02*
X86330000Y-57910000D01*
G75*
G02*
X86080000Y-58160000I-250000J0D01*
G01*
X83940000Y-58160000D01*
G75*
G02*
X83690000Y-57910000I0J250000D01*
G01*
X83690000Y-55770000D01*
G75*
G02*
X83940000Y-55520000I250000J0D01*
G01*
X86080000Y-55520000D01*
G75*
G02*
X86330000Y-55770000I0J-250000D01*
G01*
G37*
D16*
X85010000Y-52700000D03*
X85010000Y-48560000D03*
X85010000Y-44420000D03*
X80870000Y-56840000D03*
X80870000Y-52700000D03*
X80870000Y-48560000D03*
X80870000Y-44420000D03*
%TD*%
%TO.C,J-2*%
G36*
G01*
X61550000Y-45490000D02*
X61550000Y-43350000D01*
G75*
G02*
X61800000Y-43100000I250000J0D01*
G01*
X63940000Y-43100000D01*
G75*
G02*
X64190000Y-43350000I0J-250000D01*
G01*
X64190000Y-45490000D01*
G75*
G02*
X63940000Y-45740000I-250000J0D01*
G01*
X61800000Y-45740000D01*
G75*
G02*
X61550000Y-45490000I0J250000D01*
G01*
G37*
X62870000Y-48560000D03*
X62870000Y-52700000D03*
X62870000Y-56840000D03*
X67010000Y-44420000D03*
X67010000Y-48560000D03*
X67010000Y-52700000D03*
X67010000Y-56840000D03*
%TD*%
%TO.C,J+3*%
G36*
G01*
X86330000Y-80270000D02*
X86330000Y-82410000D01*
G75*
G02*
X86080000Y-82660000I-250000J0D01*
G01*
X83940000Y-82660000D01*
G75*
G02*
X83690000Y-82410000I0J250000D01*
G01*
X83690000Y-80270000D01*
G75*
G02*
X83940000Y-80020000I250000J0D01*
G01*
X86080000Y-80020000D01*
G75*
G02*
X86330000Y-80270000I0J-250000D01*
G01*
G37*
X85010000Y-77200000D03*
X85010000Y-73060000D03*
X85010000Y-68920000D03*
X80870000Y-81340000D03*
X80870000Y-77200000D03*
X80870000Y-73060000D03*
X80870000Y-68920000D03*
%TD*%
%TO.C,J+2*%
G36*
G01*
X61550000Y-69990000D02*
X61550000Y-67850000D01*
G75*
G02*
X61800000Y-67600000I250000J0D01*
G01*
X63940000Y-67600000D01*
G75*
G02*
X64190000Y-67850000I0J-250000D01*
G01*
X64190000Y-69990000D01*
G75*
G02*
X63940000Y-70240000I-250000J0D01*
G01*
X61800000Y-70240000D01*
G75*
G02*
X61550000Y-69990000I0J250000D01*
G01*
G37*
X62870000Y-73060000D03*
X62870000Y-77200000D03*
X62870000Y-81340000D03*
X67010000Y-68920000D03*
X67010000Y-73060000D03*
X67010000Y-77200000D03*
X67010000Y-81340000D03*
%TD*%
%TO.C,JSB-1*%
G36*
G01*
X182773164Y-58105246D02*
X182773164Y-58105246D01*
G75*
G02*
X182773164Y-56903164I601041J601041D01*
G01*
X182773164Y-56903164D01*
G75*
G02*
X183975246Y-56903164I601041J-601041D01*
G01*
X183975246Y-56903164D01*
G75*
G02*
X183975246Y-58105246I-601041J-601041D01*
G01*
X183975246Y-58105246D01*
G75*
G02*
X182773164Y-58105246I-601041J601041D01*
G01*
G37*
G36*
G01*
X184569215Y-56309195D02*
X184569215Y-56309195D01*
G75*
G02*
X184569215Y-55107113I601041J601041D01*
G01*
X184569215Y-55107113D01*
G75*
G02*
X185771297Y-55107113I601041J-601041D01*
G01*
X185771297Y-55107113D01*
G75*
G02*
X185771297Y-56309195I-601041J-601041D01*
G01*
X185771297Y-56309195D01*
G75*
G02*
X184569215Y-56309195I-601041J601041D01*
G01*
G37*
G36*
G01*
X180977112Y-56309195D02*
X180977112Y-56309195D01*
G75*
G02*
X180977112Y-55107113I601041J601041D01*
G01*
X180977112Y-55107113D01*
G75*
G02*
X182179194Y-55107113I601041J-601041D01*
G01*
X182179194Y-55107113D01*
G75*
G02*
X182179194Y-56309195I-601041J-601041D01*
G01*
X182179194Y-56309195D01*
G75*
G02*
X180977112Y-56309195I-601041J601041D01*
G01*
G37*
G36*
G01*
X182773164Y-54513144D02*
X182773164Y-54513144D01*
G75*
G02*
X182773164Y-53311062I601041J601041D01*
G01*
X182773164Y-53311062D01*
G75*
G02*
X183975246Y-53311062I601041J-601041D01*
G01*
X183975246Y-53311062D01*
G75*
G02*
X183975246Y-54513144I-601041J-601041D01*
G01*
X183975246Y-54513144D01*
G75*
G02*
X182773164Y-54513144I-601041J601041D01*
G01*
G37*
G36*
G01*
X179181061Y-54513144D02*
X179181061Y-54513144D01*
G75*
G02*
X179181061Y-53311062I601041J601041D01*
G01*
X179181061Y-53311062D01*
G75*
G02*
X180383143Y-53311062I601041J-601041D01*
G01*
X180383143Y-53311062D01*
G75*
G02*
X180383143Y-54513144I-601041J-601041D01*
G01*
X180383143Y-54513144D01*
G75*
G02*
X179181061Y-54513144I-601041J601041D01*
G01*
G37*
G36*
G01*
X180977112Y-52717092D02*
X180977112Y-52717092D01*
G75*
G02*
X180977112Y-51515010I601041J601041D01*
G01*
X180977112Y-51515010D01*
G75*
G02*
X182179194Y-51515010I601041J-601041D01*
G01*
X182179194Y-51515010D01*
G75*
G02*
X182179194Y-52717092I-601041J-601041D01*
G01*
X182179194Y-52717092D01*
G75*
G02*
X180977112Y-52717092I-601041J601041D01*
G01*
G37*
G36*
G01*
X177385010Y-52717092D02*
X177385010Y-52717092D01*
G75*
G02*
X177385010Y-51515010I601041J601041D01*
G01*
X177385010Y-51515010D01*
G75*
G02*
X178587092Y-51515010I601041J-601041D01*
G01*
X178587092Y-51515010D01*
G75*
G02*
X178587092Y-52717092I-601041J-601041D01*
G01*
X178587092Y-52717092D01*
G75*
G02*
X177385010Y-52717092I-601041J601041D01*
G01*
G37*
G36*
G01*
X179181061Y-50921041D02*
X179181061Y-50921041D01*
G75*
G02*
X179181061Y-49718959I601041J601041D01*
G01*
X179181061Y-49718959D01*
G75*
G02*
X180383143Y-49718959I601041J-601041D01*
G01*
X180383143Y-49718959D01*
G75*
G02*
X180383143Y-50921041I-601041J-601041D01*
G01*
X180383143Y-50921041D01*
G75*
G02*
X179181061Y-50921041I-601041J601041D01*
G01*
G37*
G36*
G01*
X175588959Y-50921041D02*
X175588959Y-50921041D01*
G75*
G02*
X175588959Y-49718959I601041J601041D01*
G01*
X175588959Y-49718959D01*
G75*
G02*
X176791041Y-49718959I601041J-601041D01*
G01*
X176791041Y-49718959D01*
G75*
G02*
X176791041Y-50921041I-601041J-601041D01*
G01*
X176791041Y-50921041D01*
G75*
G02*
X175588959Y-50921041I-601041J601041D01*
G01*
G37*
D14*
G36*
X177986051Y-49726031D02*
G01*
X176783969Y-48523949D01*
X177986051Y-47321867D01*
X179188133Y-48523949D01*
X177986051Y-49726031D01*
G37*
%TD*%
%TO.C,JSB+1*%
G36*
G01*
X182773164Y-82605246D02*
X182773164Y-82605246D01*
G75*
G02*
X182773164Y-81403164I601041J601041D01*
G01*
X182773164Y-81403164D01*
G75*
G02*
X183975246Y-81403164I601041J-601041D01*
G01*
X183975246Y-81403164D01*
G75*
G02*
X183975246Y-82605246I-601041J-601041D01*
G01*
X183975246Y-82605246D01*
G75*
G02*
X182773164Y-82605246I-601041J601041D01*
G01*
G37*
G36*
G01*
X184569215Y-80809195D02*
X184569215Y-80809195D01*
G75*
G02*
X184569215Y-79607113I601041J601041D01*
G01*
X184569215Y-79607113D01*
G75*
G02*
X185771297Y-79607113I601041J-601041D01*
G01*
X185771297Y-79607113D01*
G75*
G02*
X185771297Y-80809195I-601041J-601041D01*
G01*
X185771297Y-80809195D01*
G75*
G02*
X184569215Y-80809195I-601041J601041D01*
G01*
G37*
G36*
G01*
X180977112Y-80809195D02*
X180977112Y-80809195D01*
G75*
G02*
X180977112Y-79607113I601041J601041D01*
G01*
X180977112Y-79607113D01*
G75*
G02*
X182179194Y-79607113I601041J-601041D01*
G01*
X182179194Y-79607113D01*
G75*
G02*
X182179194Y-80809195I-601041J-601041D01*
G01*
X182179194Y-80809195D01*
G75*
G02*
X180977112Y-80809195I-601041J601041D01*
G01*
G37*
G36*
G01*
X182773164Y-79013144D02*
X182773164Y-79013144D01*
G75*
G02*
X182773164Y-77811062I601041J601041D01*
G01*
X182773164Y-77811062D01*
G75*
G02*
X183975246Y-77811062I601041J-601041D01*
G01*
X183975246Y-77811062D01*
G75*
G02*
X183975246Y-79013144I-601041J-601041D01*
G01*
X183975246Y-79013144D01*
G75*
G02*
X182773164Y-79013144I-601041J601041D01*
G01*
G37*
G36*
G01*
X179181061Y-79013144D02*
X179181061Y-79013144D01*
G75*
G02*
X179181061Y-77811062I601041J601041D01*
G01*
X179181061Y-77811062D01*
G75*
G02*
X180383143Y-77811062I601041J-601041D01*
G01*
X180383143Y-77811062D01*
G75*
G02*
X180383143Y-79013144I-601041J-601041D01*
G01*
X180383143Y-79013144D01*
G75*
G02*
X179181061Y-79013144I-601041J601041D01*
G01*
G37*
G36*
G01*
X180977112Y-77217092D02*
X180977112Y-77217092D01*
G75*
G02*
X180977112Y-76015010I601041J601041D01*
G01*
X180977112Y-76015010D01*
G75*
G02*
X182179194Y-76015010I601041J-601041D01*
G01*
X182179194Y-76015010D01*
G75*
G02*
X182179194Y-77217092I-601041J-601041D01*
G01*
X182179194Y-77217092D01*
G75*
G02*
X180977112Y-77217092I-601041J601041D01*
G01*
G37*
G36*
G01*
X177385010Y-77217092D02*
X177385010Y-77217092D01*
G75*
G02*
X177385010Y-76015010I601041J601041D01*
G01*
X177385010Y-76015010D01*
G75*
G02*
X178587092Y-76015010I601041J-601041D01*
G01*
X178587092Y-76015010D01*
G75*
G02*
X178587092Y-77217092I-601041J-601041D01*
G01*
X178587092Y-77217092D01*
G75*
G02*
X177385010Y-77217092I-601041J601041D01*
G01*
G37*
G36*
G01*
X179181061Y-75421041D02*
X179181061Y-75421041D01*
G75*
G02*
X179181061Y-74218959I601041J601041D01*
G01*
X179181061Y-74218959D01*
G75*
G02*
X180383143Y-74218959I601041J-601041D01*
G01*
X180383143Y-74218959D01*
G75*
G02*
X180383143Y-75421041I-601041J-601041D01*
G01*
X180383143Y-75421041D01*
G75*
G02*
X179181061Y-75421041I-601041J601041D01*
G01*
G37*
G36*
G01*
X175588959Y-75421041D02*
X175588959Y-75421041D01*
G75*
G02*
X175588959Y-74218959I601041J601041D01*
G01*
X175588959Y-74218959D01*
G75*
G02*
X176791041Y-74218959I601041J-601041D01*
G01*
X176791041Y-74218959D01*
G75*
G02*
X176791041Y-75421041I-601041J-601041D01*
G01*
X176791041Y-75421041D01*
G75*
G02*
X175588959Y-75421041I-601041J601041D01*
G01*
G37*
G36*
X177986051Y-74226031D02*
G01*
X176783969Y-73023949D01*
X177986051Y-71821867D01*
X179188133Y-73023949D01*
X177986051Y-74226031D01*
G37*
%TD*%
%TO.C,JSA-1*%
G36*
G01*
X162054754Y-49243164D02*
X162054754Y-49243164D01*
G75*
G02*
X163256836Y-49243164I601041J-601041D01*
G01*
X163256836Y-49243164D01*
G75*
G02*
X163256836Y-50445246I-601041J-601041D01*
G01*
X163256836Y-50445246D01*
G75*
G02*
X162054754Y-50445246I-601041J601041D01*
G01*
X162054754Y-50445246D01*
G75*
G02*
X162054754Y-49243164I601041J601041D01*
G01*
G37*
G36*
G01*
X163850805Y-51039215D02*
X163850805Y-51039215D01*
G75*
G02*
X165052887Y-51039215I601041J-601041D01*
G01*
X165052887Y-51039215D01*
G75*
G02*
X165052887Y-52241297I-601041J-601041D01*
G01*
X165052887Y-52241297D01*
G75*
G02*
X163850805Y-52241297I-601041J601041D01*
G01*
X163850805Y-52241297D01*
G75*
G02*
X163850805Y-51039215I601041J601041D01*
G01*
G37*
G36*
G01*
X163850805Y-47447112D02*
X163850805Y-47447112D01*
G75*
G02*
X165052887Y-47447112I601041J-601041D01*
G01*
X165052887Y-47447112D01*
G75*
G02*
X165052887Y-48649194I-601041J-601041D01*
G01*
X165052887Y-48649194D01*
G75*
G02*
X163850805Y-48649194I-601041J601041D01*
G01*
X163850805Y-48649194D01*
G75*
G02*
X163850805Y-47447112I601041J601041D01*
G01*
G37*
G36*
G01*
X165646856Y-49243164D02*
X165646856Y-49243164D01*
G75*
G02*
X166848938Y-49243164I601041J-601041D01*
G01*
X166848938Y-49243164D01*
G75*
G02*
X166848938Y-50445246I-601041J-601041D01*
G01*
X166848938Y-50445246D01*
G75*
G02*
X165646856Y-50445246I-601041J601041D01*
G01*
X165646856Y-50445246D01*
G75*
G02*
X165646856Y-49243164I601041J601041D01*
G01*
G37*
G36*
G01*
X165646856Y-45651061D02*
X165646856Y-45651061D01*
G75*
G02*
X166848938Y-45651061I601041J-601041D01*
G01*
X166848938Y-45651061D01*
G75*
G02*
X166848938Y-46853143I-601041J-601041D01*
G01*
X166848938Y-46853143D01*
G75*
G02*
X165646856Y-46853143I-601041J601041D01*
G01*
X165646856Y-46853143D01*
G75*
G02*
X165646856Y-45651061I601041J601041D01*
G01*
G37*
G36*
G01*
X167442908Y-47447112D02*
X167442908Y-47447112D01*
G75*
G02*
X168644990Y-47447112I601041J-601041D01*
G01*
X168644990Y-47447112D01*
G75*
G02*
X168644990Y-48649194I-601041J-601041D01*
G01*
X168644990Y-48649194D01*
G75*
G02*
X167442908Y-48649194I-601041J601041D01*
G01*
X167442908Y-48649194D01*
G75*
G02*
X167442908Y-47447112I601041J601041D01*
G01*
G37*
G36*
G01*
X167442908Y-43855010D02*
X167442908Y-43855010D01*
G75*
G02*
X168644990Y-43855010I601041J-601041D01*
G01*
X168644990Y-43855010D01*
G75*
G02*
X168644990Y-45057092I-601041J-601041D01*
G01*
X168644990Y-45057092D01*
G75*
G02*
X167442908Y-45057092I-601041J601041D01*
G01*
X167442908Y-45057092D01*
G75*
G02*
X167442908Y-43855010I601041J601041D01*
G01*
G37*
G36*
G01*
X169238959Y-45651061D02*
X169238959Y-45651061D01*
G75*
G02*
X170441041Y-45651061I601041J-601041D01*
G01*
X170441041Y-45651061D01*
G75*
G02*
X170441041Y-46853143I-601041J-601041D01*
G01*
X170441041Y-46853143D01*
G75*
G02*
X169238959Y-46853143I-601041J601041D01*
G01*
X169238959Y-46853143D01*
G75*
G02*
X169238959Y-45651061I601041J601041D01*
G01*
G37*
G36*
G01*
X169238959Y-42058959D02*
X169238959Y-42058959D01*
G75*
G02*
X170441041Y-42058959I601041J-601041D01*
G01*
X170441041Y-42058959D01*
G75*
G02*
X170441041Y-43261041I-601041J-601041D01*
G01*
X170441041Y-43261041D01*
G75*
G02*
X169238959Y-43261041I-601041J601041D01*
G01*
X169238959Y-43261041D01*
G75*
G02*
X169238959Y-42058959I601041J601041D01*
G01*
G37*
G36*
X170433969Y-44456051D02*
G01*
X171636051Y-43253969D01*
X172838133Y-44456051D01*
X171636051Y-45658133D01*
X170433969Y-44456051D01*
G37*
%TD*%
%TO.C,JSA+1*%
G36*
G01*
X162054754Y-73743164D02*
X162054754Y-73743164D01*
G75*
G02*
X163256836Y-73743164I601041J-601041D01*
G01*
X163256836Y-73743164D01*
G75*
G02*
X163256836Y-74945246I-601041J-601041D01*
G01*
X163256836Y-74945246D01*
G75*
G02*
X162054754Y-74945246I-601041J601041D01*
G01*
X162054754Y-74945246D01*
G75*
G02*
X162054754Y-73743164I601041J601041D01*
G01*
G37*
G36*
G01*
X163850805Y-75539215D02*
X163850805Y-75539215D01*
G75*
G02*
X165052887Y-75539215I601041J-601041D01*
G01*
X165052887Y-75539215D01*
G75*
G02*
X165052887Y-76741297I-601041J-601041D01*
G01*
X165052887Y-76741297D01*
G75*
G02*
X163850805Y-76741297I-601041J601041D01*
G01*
X163850805Y-76741297D01*
G75*
G02*
X163850805Y-75539215I601041J601041D01*
G01*
G37*
G36*
G01*
X163850805Y-71947112D02*
X163850805Y-71947112D01*
G75*
G02*
X165052887Y-71947112I601041J-601041D01*
G01*
X165052887Y-71947112D01*
G75*
G02*
X165052887Y-73149194I-601041J-601041D01*
G01*
X165052887Y-73149194D01*
G75*
G02*
X163850805Y-73149194I-601041J601041D01*
G01*
X163850805Y-73149194D01*
G75*
G02*
X163850805Y-71947112I601041J601041D01*
G01*
G37*
G36*
G01*
X165646856Y-73743164D02*
X165646856Y-73743164D01*
G75*
G02*
X166848938Y-73743164I601041J-601041D01*
G01*
X166848938Y-73743164D01*
G75*
G02*
X166848938Y-74945246I-601041J-601041D01*
G01*
X166848938Y-74945246D01*
G75*
G02*
X165646856Y-74945246I-601041J601041D01*
G01*
X165646856Y-74945246D01*
G75*
G02*
X165646856Y-73743164I601041J601041D01*
G01*
G37*
G36*
G01*
X165646856Y-70151061D02*
X165646856Y-70151061D01*
G75*
G02*
X166848938Y-70151061I601041J-601041D01*
G01*
X166848938Y-70151061D01*
G75*
G02*
X166848938Y-71353143I-601041J-601041D01*
G01*
X166848938Y-71353143D01*
G75*
G02*
X165646856Y-71353143I-601041J601041D01*
G01*
X165646856Y-71353143D01*
G75*
G02*
X165646856Y-70151061I601041J601041D01*
G01*
G37*
G36*
G01*
X167442908Y-71947112D02*
X167442908Y-71947112D01*
G75*
G02*
X168644990Y-71947112I601041J-601041D01*
G01*
X168644990Y-71947112D01*
G75*
G02*
X168644990Y-73149194I-601041J-601041D01*
G01*
X168644990Y-73149194D01*
G75*
G02*
X167442908Y-73149194I-601041J601041D01*
G01*
X167442908Y-73149194D01*
G75*
G02*
X167442908Y-71947112I601041J601041D01*
G01*
G37*
G36*
G01*
X167442908Y-68355010D02*
X167442908Y-68355010D01*
G75*
G02*
X168644990Y-68355010I601041J-601041D01*
G01*
X168644990Y-68355010D01*
G75*
G02*
X168644990Y-69557092I-601041J-601041D01*
G01*
X168644990Y-69557092D01*
G75*
G02*
X167442908Y-69557092I-601041J601041D01*
G01*
X167442908Y-69557092D01*
G75*
G02*
X167442908Y-68355010I601041J601041D01*
G01*
G37*
G36*
G01*
X169238959Y-70151061D02*
X169238959Y-70151061D01*
G75*
G02*
X170441041Y-70151061I601041J-601041D01*
G01*
X170441041Y-70151061D01*
G75*
G02*
X170441041Y-71353143I-601041J-601041D01*
G01*
X170441041Y-71353143D01*
G75*
G02*
X169238959Y-71353143I-601041J601041D01*
G01*
X169238959Y-71353143D01*
G75*
G02*
X169238959Y-70151061I601041J601041D01*
G01*
G37*
G36*
G01*
X169238959Y-66558959D02*
X169238959Y-66558959D01*
G75*
G02*
X170441041Y-66558959I601041J-601041D01*
G01*
X170441041Y-66558959D01*
G75*
G02*
X170441041Y-67761041I-601041J-601041D01*
G01*
X170441041Y-67761041D01*
G75*
G02*
X169238959Y-67761041I-601041J601041D01*
G01*
X169238959Y-67761041D01*
G75*
G02*
X169238959Y-66558959I601041J601041D01*
G01*
G37*
G36*
X170433969Y-68956051D02*
G01*
X171636051Y-67753969D01*
X172838133Y-68956051D01*
X171636051Y-70158133D01*
X170433969Y-68956051D01*
G37*
%TD*%
%TO.C,JP-1*%
G36*
G01*
X156972703Y-49897297D02*
X156972703Y-49897297D01*
G75*
G02*
X156972703Y-48942703I477297J477297D01*
G01*
X156972703Y-48942703D01*
G75*
G02*
X157927297Y-48942703I477297J-477297D01*
G01*
X157927297Y-48942703D01*
G75*
G02*
X157927297Y-49897297I-477297J-477297D01*
G01*
X157927297Y-49897297D01*
G75*
G02*
X156972703Y-49897297I-477297J477297D01*
G01*
G37*
G36*
G01*
X155558490Y-48483084D02*
X155558490Y-48483084D01*
G75*
G02*
X155558490Y-47528490I477297J477297D01*
G01*
X155558490Y-47528490D01*
G75*
G02*
X156513084Y-47528490I477297J-477297D01*
G01*
X156513084Y-47528490D01*
G75*
G02*
X156513084Y-48483084I-477297J-477297D01*
G01*
X156513084Y-48483084D01*
G75*
G02*
X155558490Y-48483084I-477297J477297D01*
G01*
G37*
G36*
X154621573Y-47546167D02*
G01*
X153666979Y-46591573D01*
X154621573Y-45636979D01*
X155576167Y-46591573D01*
X154621573Y-47546167D01*
G37*
%TD*%
%TO.C,JP-2*%
G36*
G01*
X160097297Y-51192703D02*
X160097297Y-51192703D01*
G75*
G02*
X160097297Y-52147297I-477297J-477297D01*
G01*
X160097297Y-52147297D01*
G75*
G02*
X159142703Y-52147297I-477297J477297D01*
G01*
X159142703Y-52147297D01*
G75*
G02*
X159142703Y-51192703I477297J477297D01*
G01*
X159142703Y-51192703D01*
G75*
G02*
X160097297Y-51192703I477297J-477297D01*
G01*
G37*
G36*
G01*
X161511510Y-52606916D02*
X161511510Y-52606916D01*
G75*
G02*
X161511510Y-53561510I-477297J-477297D01*
G01*
X161511510Y-53561510D01*
G75*
G02*
X160556916Y-53561510I-477297J477297D01*
G01*
X160556916Y-53561510D01*
G75*
G02*
X160556916Y-52606916I477297J477297D01*
G01*
X160556916Y-52606916D01*
G75*
G02*
X161511510Y-52606916I477297J-477297D01*
G01*
G37*
G36*
X162448427Y-53543833D02*
G01*
X163403021Y-54498427D01*
X162448427Y-55453021D01*
X161493833Y-54498427D01*
X162448427Y-53543833D01*
G37*
%TD*%
%TO.C,JP+2*%
G36*
G01*
X160097297Y-75692703D02*
X160097297Y-75692703D01*
G75*
G02*
X160097297Y-76647297I-477297J-477297D01*
G01*
X160097297Y-76647297D01*
G75*
G02*
X159142703Y-76647297I-477297J477297D01*
G01*
X159142703Y-76647297D01*
G75*
G02*
X159142703Y-75692703I477297J477297D01*
G01*
X159142703Y-75692703D01*
G75*
G02*
X160097297Y-75692703I477297J-477297D01*
G01*
G37*
G36*
G01*
X161511510Y-77106916D02*
X161511510Y-77106916D01*
G75*
G02*
X161511510Y-78061510I-477297J-477297D01*
G01*
X161511510Y-78061510D01*
G75*
G02*
X160556916Y-78061510I-477297J477297D01*
G01*
X160556916Y-78061510D01*
G75*
G02*
X160556916Y-77106916I477297J477297D01*
G01*
X160556916Y-77106916D01*
G75*
G02*
X161511510Y-77106916I477297J-477297D01*
G01*
G37*
G36*
X162448427Y-78043833D02*
G01*
X163403021Y-78998427D01*
X162448427Y-79953021D01*
X161493833Y-78998427D01*
X162448427Y-78043833D01*
G37*
%TD*%
%TO.C,JP+1*%
G36*
G01*
X156972703Y-74397297D02*
X156972703Y-74397297D01*
G75*
G02*
X156972703Y-73442703I477297J477297D01*
G01*
X156972703Y-73442703D01*
G75*
G02*
X157927297Y-73442703I477297J-477297D01*
G01*
X157927297Y-73442703D01*
G75*
G02*
X157927297Y-74397297I-477297J-477297D01*
G01*
X157927297Y-74397297D01*
G75*
G02*
X156972703Y-74397297I-477297J477297D01*
G01*
G37*
G36*
G01*
X155558490Y-72983084D02*
X155558490Y-72983084D01*
G75*
G02*
X155558490Y-72028490I477297J477297D01*
G01*
X155558490Y-72028490D01*
G75*
G02*
X156513084Y-72028490I477297J-477297D01*
G01*
X156513084Y-72028490D01*
G75*
G02*
X156513084Y-72983084I-477297J-477297D01*
G01*
X156513084Y-72983084D01*
G75*
G02*
X155558490Y-72983084I-477297J477297D01*
G01*
G37*
G36*
X154621573Y-72046167D02*
G01*
X153666979Y-71091573D01*
X154621573Y-70136979D01*
X155576167Y-71091573D01*
X154621573Y-72046167D01*
G37*
%TD*%
D13*
%TO.C,J-1*%
X168600000Y-59180000D03*
D12*
X168600000Y-56640000D03*
%TD*%
D13*
%TO.C,J+1*%
X171140000Y-83680000D03*
D12*
X171140000Y-81140000D03*
%TD*%
D11*
%TO.C,REF\u002A\u002A*%
X187670000Y-60520000D03*
X187670000Y-59720000D03*
X187670000Y-58920000D03*
X187670000Y-58120000D03*
X190070000Y-60520000D03*
X190070000Y-59720000D03*
X190070000Y-58920000D03*
X190070000Y-58120000D03*
%TD*%
%TO.C,REF\u002A\u002A*%
X190070000Y-41320000D03*
X190070000Y-42120000D03*
X190070000Y-42920000D03*
X190070000Y-43720000D03*
X187670000Y-41320000D03*
X187670000Y-42120000D03*
X187670000Y-42920000D03*
X187670000Y-43720000D03*
%TD*%
%TO.C,REF\u002A\u002A*%
X178470000Y-64120000D03*
X177670000Y-64120000D03*
X176870000Y-64120000D03*
X176070000Y-64120000D03*
X178470000Y-61720000D03*
X177670000Y-61720000D03*
X176870000Y-61720000D03*
X176070000Y-61720000D03*
%TD*%
%TO.C,REF\u002A\u002A*%
X140970000Y-64120000D03*
X140170000Y-64120000D03*
X139370000Y-64120000D03*
X138570000Y-64120000D03*
X140970000Y-61720000D03*
X140170000Y-61720000D03*
X139370000Y-61720000D03*
X138570000Y-61720000D03*
%TD*%
%TO.C,REF\u002A\u002A*%
X100970000Y-64120000D03*
X100170000Y-64120000D03*
X99370000Y-64120000D03*
X98570000Y-64120000D03*
X100970000Y-61720000D03*
X100170000Y-61720000D03*
X99370000Y-61720000D03*
X98570000Y-61720000D03*
%TD*%
%TO.C,REF\u002A\u002A*%
X65970000Y-64120000D03*
X65170000Y-64120000D03*
X64370000Y-64120000D03*
X63570000Y-64120000D03*
X65970000Y-61720000D03*
X65170000Y-61720000D03*
X64370000Y-61720000D03*
X63570000Y-61720000D03*
%TD*%
D12*
%TO.C,J2*%
X208920000Y-137240000D03*
D13*
X208920000Y-134700000D03*
X211460000Y-137240000D03*
X211460000Y-134700000D03*
%TD*%
D12*
%TO.C,J3*%
X208920000Y-111840000D03*
D13*
X208920000Y-109300000D03*
X211460000Y-111840000D03*
X211460000Y-109300000D03*
%TD*%
D12*
%TO.C,J4*%
X236860000Y-50880000D03*
D13*
X236860000Y-48340000D03*
X234320000Y-50880000D03*
X234320000Y-48340000D03*
X231780000Y-50880000D03*
X231780000Y-48340000D03*
X229240000Y-50880000D03*
X229240000Y-48340000D03*
X226700000Y-50880000D03*
X226700000Y-48340000D03*
%TD*%
%TO.C,J5*%
X226700000Y-142320000D03*
X226700000Y-139780000D03*
X229240000Y-142320000D03*
X229240000Y-139780000D03*
X231780000Y-142320000D03*
X231780000Y-139780000D03*
X234320000Y-142320000D03*
X234320000Y-139780000D03*
X236860000Y-142320000D03*
D12*
X236860000Y-139780000D03*
%TD*%
D13*
%TO.C,J6*%
X202570000Y-135970000D03*
X202570000Y-133430000D03*
X200030000Y-135970000D03*
X200030000Y-133430000D03*
X197490000Y-135970000D03*
X197490000Y-133430000D03*
X194950000Y-135970000D03*
X194950000Y-133430000D03*
X192410000Y-135970000D03*
D12*
X192410000Y-133430000D03*
%TD*%
%TO.C,J7*%
X192410000Y-44530000D03*
D13*
X192410000Y-41990000D03*
X194950000Y-44530000D03*
X194950000Y-41990000D03*
X197490000Y-44530000D03*
X197490000Y-41990000D03*
X200030000Y-44530000D03*
X200030000Y-41990000D03*
X202570000Y-44530000D03*
X202570000Y-41990000D03*
%TD*%
D14*
%TO.C,JHA1*%
G36*
X213170082Y-46308000D02*
G01*
X211968000Y-47510082D01*
X210765918Y-46308000D01*
X211968000Y-45105918D01*
X213170082Y-46308000D01*
G37*
G36*
G01*
X210772990Y-45112990D02*
X210772990Y-45112990D01*
G75*
G02*
X209570908Y-45112990I-601041J601041D01*
G01*
X209570908Y-45112990D01*
G75*
G02*
X209570908Y-43910908I601041J601041D01*
G01*
X209570908Y-43910908D01*
G75*
G02*
X210772990Y-43910908I601041J-601041D01*
G01*
X210772990Y-43910908D01*
G75*
G02*
X210772990Y-45112990I-601041J-601041D01*
G01*
G37*
G36*
G01*
X210772990Y-48705092D02*
X210772990Y-48705092D01*
G75*
G02*
X209570908Y-48705092I-601041J601041D01*
G01*
X209570908Y-48705092D01*
G75*
G02*
X209570908Y-47503010I601041J601041D01*
G01*
X209570908Y-47503010D01*
G75*
G02*
X210772990Y-47503010I601041J-601041D01*
G01*
X210772990Y-47503010D01*
G75*
G02*
X210772990Y-48705092I-601041J-601041D01*
G01*
G37*
G36*
G01*
X208976939Y-46909041D02*
X208976939Y-46909041D01*
G75*
G02*
X207774857Y-46909041I-601041J601041D01*
G01*
X207774857Y-46909041D01*
G75*
G02*
X207774857Y-45706959I601041J601041D01*
G01*
X207774857Y-45706959D01*
G75*
G02*
X208976939Y-45706959I601041J-601041D01*
G01*
X208976939Y-45706959D01*
G75*
G02*
X208976939Y-46909041I-601041J-601041D01*
G01*
G37*
G36*
G01*
X208976939Y-50501143D02*
X208976939Y-50501143D01*
G75*
G02*
X207774857Y-50501143I-601041J601041D01*
G01*
X207774857Y-50501143D01*
G75*
G02*
X207774857Y-49299061I601041J601041D01*
G01*
X207774857Y-49299061D01*
G75*
G02*
X208976939Y-49299061I601041J-601041D01*
G01*
X208976939Y-49299061D01*
G75*
G02*
X208976939Y-50501143I-601041J-601041D01*
G01*
G37*
G36*
G01*
X207180887Y-48705092D02*
X207180887Y-48705092D01*
G75*
G02*
X205978805Y-48705092I-601041J601041D01*
G01*
X205978805Y-48705092D01*
G75*
G02*
X205978805Y-47503010I601041J601041D01*
G01*
X205978805Y-47503010D01*
G75*
G02*
X207180887Y-47503010I601041J-601041D01*
G01*
X207180887Y-47503010D01*
G75*
G02*
X207180887Y-48705092I-601041J-601041D01*
G01*
G37*
G36*
G01*
X207180887Y-52297195D02*
X207180887Y-52297195D01*
G75*
G02*
X205978805Y-52297195I-601041J601041D01*
G01*
X205978805Y-52297195D01*
G75*
G02*
X205978805Y-51095113I601041J601041D01*
G01*
X205978805Y-51095113D01*
G75*
G02*
X207180887Y-51095113I601041J-601041D01*
G01*
X207180887Y-51095113D01*
G75*
G02*
X207180887Y-52297195I-601041J-601041D01*
G01*
G37*
G36*
G01*
X205384836Y-50501143D02*
X205384836Y-50501143D01*
G75*
G02*
X204182754Y-50501143I-601041J601041D01*
G01*
X204182754Y-50501143D01*
G75*
G02*
X204182754Y-49299061I601041J601041D01*
G01*
X204182754Y-49299061D01*
G75*
G02*
X205384836Y-49299061I601041J-601041D01*
G01*
X205384836Y-49299061D01*
G75*
G02*
X205384836Y-50501143I-601041J-601041D01*
G01*
G37*
G36*
G01*
X205384836Y-54093246D02*
X205384836Y-54093246D01*
G75*
G02*
X204182754Y-54093246I-601041J601041D01*
G01*
X204182754Y-54093246D01*
G75*
G02*
X204182754Y-52891164I601041J601041D01*
G01*
X204182754Y-52891164D01*
G75*
G02*
X205384836Y-52891164I601041J-601041D01*
G01*
X205384836Y-52891164D01*
G75*
G02*
X205384836Y-54093246I-601041J-601041D01*
G01*
G37*
G36*
G01*
X203588785Y-52297195D02*
X203588785Y-52297195D01*
G75*
G02*
X202386703Y-52297195I-601041J601041D01*
G01*
X202386703Y-52297195D01*
G75*
G02*
X202386703Y-51095113I601041J601041D01*
G01*
X202386703Y-51095113D01*
G75*
G02*
X203588785Y-51095113I601041J-601041D01*
G01*
X203588785Y-51095113D01*
G75*
G02*
X203588785Y-52297195I-601041J-601041D01*
G01*
G37*
%TD*%
%TO.C,JHA2*%
G36*
X213170082Y-71708000D02*
G01*
X211968000Y-72910082D01*
X210765918Y-71708000D01*
X211968000Y-70505918D01*
X213170082Y-71708000D01*
G37*
G36*
G01*
X210772990Y-70512990D02*
X210772990Y-70512990D01*
G75*
G02*
X209570908Y-70512990I-601041J601041D01*
G01*
X209570908Y-70512990D01*
G75*
G02*
X209570908Y-69310908I601041J601041D01*
G01*
X209570908Y-69310908D01*
G75*
G02*
X210772990Y-69310908I601041J-601041D01*
G01*
X210772990Y-69310908D01*
G75*
G02*
X210772990Y-70512990I-601041J-601041D01*
G01*
G37*
G36*
G01*
X210772990Y-74105092D02*
X210772990Y-74105092D01*
G75*
G02*
X209570908Y-74105092I-601041J601041D01*
G01*
X209570908Y-74105092D01*
G75*
G02*
X209570908Y-72903010I601041J601041D01*
G01*
X209570908Y-72903010D01*
G75*
G02*
X210772990Y-72903010I601041J-601041D01*
G01*
X210772990Y-72903010D01*
G75*
G02*
X210772990Y-74105092I-601041J-601041D01*
G01*
G37*
G36*
G01*
X208976939Y-72309041D02*
X208976939Y-72309041D01*
G75*
G02*
X207774857Y-72309041I-601041J601041D01*
G01*
X207774857Y-72309041D01*
G75*
G02*
X207774857Y-71106959I601041J601041D01*
G01*
X207774857Y-71106959D01*
G75*
G02*
X208976939Y-71106959I601041J-601041D01*
G01*
X208976939Y-71106959D01*
G75*
G02*
X208976939Y-72309041I-601041J-601041D01*
G01*
G37*
G36*
G01*
X208976939Y-75901143D02*
X208976939Y-75901143D01*
G75*
G02*
X207774857Y-75901143I-601041J601041D01*
G01*
X207774857Y-75901143D01*
G75*
G02*
X207774857Y-74699061I601041J601041D01*
G01*
X207774857Y-74699061D01*
G75*
G02*
X208976939Y-74699061I601041J-601041D01*
G01*
X208976939Y-74699061D01*
G75*
G02*
X208976939Y-75901143I-601041J-601041D01*
G01*
G37*
G36*
G01*
X207180887Y-74105092D02*
X207180887Y-74105092D01*
G75*
G02*
X205978805Y-74105092I-601041J601041D01*
G01*
X205978805Y-74105092D01*
G75*
G02*
X205978805Y-72903010I601041J601041D01*
G01*
X205978805Y-72903010D01*
G75*
G02*
X207180887Y-72903010I601041J-601041D01*
G01*
X207180887Y-72903010D01*
G75*
G02*
X207180887Y-74105092I-601041J-601041D01*
G01*
G37*
G36*
G01*
X207180887Y-77697195D02*
X207180887Y-77697195D01*
G75*
G02*
X205978805Y-77697195I-601041J601041D01*
G01*
X205978805Y-77697195D01*
G75*
G02*
X205978805Y-76495113I601041J601041D01*
G01*
X205978805Y-76495113D01*
G75*
G02*
X207180887Y-76495113I601041J-601041D01*
G01*
X207180887Y-76495113D01*
G75*
G02*
X207180887Y-77697195I-601041J-601041D01*
G01*
G37*
G36*
G01*
X205384836Y-75901143D02*
X205384836Y-75901143D01*
G75*
G02*
X204182754Y-75901143I-601041J601041D01*
G01*
X204182754Y-75901143D01*
G75*
G02*
X204182754Y-74699061I601041J601041D01*
G01*
X204182754Y-74699061D01*
G75*
G02*
X205384836Y-74699061I601041J-601041D01*
G01*
X205384836Y-74699061D01*
G75*
G02*
X205384836Y-75901143I-601041J-601041D01*
G01*
G37*
G36*
G01*
X205384836Y-79493246D02*
X205384836Y-79493246D01*
G75*
G02*
X204182754Y-79493246I-601041J601041D01*
G01*
X204182754Y-79493246D01*
G75*
G02*
X204182754Y-78291164I601041J601041D01*
G01*
X204182754Y-78291164D01*
G75*
G02*
X205384836Y-78291164I601041J-601041D01*
G01*
X205384836Y-78291164D01*
G75*
G02*
X205384836Y-79493246I-601041J-601041D01*
G01*
G37*
G36*
G01*
X203588785Y-77697195D02*
X203588785Y-77697195D01*
G75*
G02*
X202386703Y-77697195I-601041J601041D01*
G01*
X202386703Y-77697195D01*
G75*
G02*
X202386703Y-76495113I601041J601041D01*
G01*
X202386703Y-76495113D01*
G75*
G02*
X203588785Y-76495113I601041J-601041D01*
G01*
X203588785Y-76495113D01*
G75*
G02*
X203588785Y-77697195I-601041J-601041D01*
G01*
G37*
%TD*%
%TO.C,JHA3*%
G36*
G01*
X203588785Y-103097195D02*
X203588785Y-103097195D01*
G75*
G02*
X202386703Y-103097195I-601041J601041D01*
G01*
X202386703Y-103097195D01*
G75*
G02*
X202386703Y-101895113I601041J601041D01*
G01*
X202386703Y-101895113D01*
G75*
G02*
X203588785Y-101895113I601041J-601041D01*
G01*
X203588785Y-101895113D01*
G75*
G02*
X203588785Y-103097195I-601041J-601041D01*
G01*
G37*
G36*
G01*
X205384836Y-104893246D02*
X205384836Y-104893246D01*
G75*
G02*
X204182754Y-104893246I-601041J601041D01*
G01*
X204182754Y-104893246D01*
G75*
G02*
X204182754Y-103691164I601041J601041D01*
G01*
X204182754Y-103691164D01*
G75*
G02*
X205384836Y-103691164I601041J-601041D01*
G01*
X205384836Y-103691164D01*
G75*
G02*
X205384836Y-104893246I-601041J-601041D01*
G01*
G37*
G36*
G01*
X205384836Y-101301143D02*
X205384836Y-101301143D01*
G75*
G02*
X204182754Y-101301143I-601041J601041D01*
G01*
X204182754Y-101301143D01*
G75*
G02*
X204182754Y-100099061I601041J601041D01*
G01*
X204182754Y-100099061D01*
G75*
G02*
X205384836Y-100099061I601041J-601041D01*
G01*
X205384836Y-100099061D01*
G75*
G02*
X205384836Y-101301143I-601041J-601041D01*
G01*
G37*
G36*
G01*
X207180887Y-103097195D02*
X207180887Y-103097195D01*
G75*
G02*
X205978805Y-103097195I-601041J601041D01*
G01*
X205978805Y-103097195D01*
G75*
G02*
X205978805Y-101895113I601041J601041D01*
G01*
X205978805Y-101895113D01*
G75*
G02*
X207180887Y-101895113I601041J-601041D01*
G01*
X207180887Y-101895113D01*
G75*
G02*
X207180887Y-103097195I-601041J-601041D01*
G01*
G37*
G36*
G01*
X207180887Y-99505092D02*
X207180887Y-99505092D01*
G75*
G02*
X205978805Y-99505092I-601041J601041D01*
G01*
X205978805Y-99505092D01*
G75*
G02*
X205978805Y-98303010I601041J601041D01*
G01*
X205978805Y-98303010D01*
G75*
G02*
X207180887Y-98303010I601041J-601041D01*
G01*
X207180887Y-98303010D01*
G75*
G02*
X207180887Y-99505092I-601041J-601041D01*
G01*
G37*
G36*
G01*
X208976939Y-101301143D02*
X208976939Y-101301143D01*
G75*
G02*
X207774857Y-101301143I-601041J601041D01*
G01*
X207774857Y-101301143D01*
G75*
G02*
X207774857Y-100099061I601041J601041D01*
G01*
X207774857Y-100099061D01*
G75*
G02*
X208976939Y-100099061I601041J-601041D01*
G01*
X208976939Y-100099061D01*
G75*
G02*
X208976939Y-101301143I-601041J-601041D01*
G01*
G37*
G36*
G01*
X208976939Y-97709041D02*
X208976939Y-97709041D01*
G75*
G02*
X207774857Y-97709041I-601041J601041D01*
G01*
X207774857Y-97709041D01*
G75*
G02*
X207774857Y-96506959I601041J601041D01*
G01*
X207774857Y-96506959D01*
G75*
G02*
X208976939Y-96506959I601041J-601041D01*
G01*
X208976939Y-96506959D01*
G75*
G02*
X208976939Y-97709041I-601041J-601041D01*
G01*
G37*
G36*
G01*
X210772990Y-99505092D02*
X210772990Y-99505092D01*
G75*
G02*
X209570908Y-99505092I-601041J601041D01*
G01*
X209570908Y-99505092D01*
G75*
G02*
X209570908Y-98303010I601041J601041D01*
G01*
X209570908Y-98303010D01*
G75*
G02*
X210772990Y-98303010I601041J-601041D01*
G01*
X210772990Y-98303010D01*
G75*
G02*
X210772990Y-99505092I-601041J-601041D01*
G01*
G37*
G36*
G01*
X210772990Y-95912990D02*
X210772990Y-95912990D01*
G75*
G02*
X209570908Y-95912990I-601041J601041D01*
G01*
X209570908Y-95912990D01*
G75*
G02*
X209570908Y-94710908I601041J601041D01*
G01*
X209570908Y-94710908D01*
G75*
G02*
X210772990Y-94710908I601041J-601041D01*
G01*
X210772990Y-94710908D01*
G75*
G02*
X210772990Y-95912990I-601041J-601041D01*
G01*
G37*
G36*
X213170082Y-97108000D02*
G01*
X211968000Y-98310082D01*
X210765918Y-97108000D01*
X211968000Y-95905918D01*
X213170082Y-97108000D01*
G37*
%TD*%
%TO.C,JHA4*%
G36*
G01*
X203588785Y-128497195D02*
X203588785Y-128497195D01*
G75*
G02*
X202386703Y-128497195I-601041J601041D01*
G01*
X202386703Y-128497195D01*
G75*
G02*
X202386703Y-127295113I601041J601041D01*
G01*
X202386703Y-127295113D01*
G75*
G02*
X203588785Y-127295113I601041J-601041D01*
G01*
X203588785Y-127295113D01*
G75*
G02*
X203588785Y-128497195I-601041J-601041D01*
G01*
G37*
G36*
G01*
X205384836Y-130293246D02*
X205384836Y-130293246D01*
G75*
G02*
X204182754Y-130293246I-601041J601041D01*
G01*
X204182754Y-130293246D01*
G75*
G02*
X204182754Y-129091164I601041J601041D01*
G01*
X204182754Y-129091164D01*
G75*
G02*
X205384836Y-129091164I601041J-601041D01*
G01*
X205384836Y-129091164D01*
G75*
G02*
X205384836Y-130293246I-601041J-601041D01*
G01*
G37*
G36*
G01*
X205384836Y-126701143D02*
X205384836Y-126701143D01*
G75*
G02*
X204182754Y-126701143I-601041J601041D01*
G01*
X204182754Y-126701143D01*
G75*
G02*
X204182754Y-125499061I601041J601041D01*
G01*
X204182754Y-125499061D01*
G75*
G02*
X205384836Y-125499061I601041J-601041D01*
G01*
X205384836Y-125499061D01*
G75*
G02*
X205384836Y-126701143I-601041J-601041D01*
G01*
G37*
G36*
G01*
X207180887Y-128497195D02*
X207180887Y-128497195D01*
G75*
G02*
X205978805Y-128497195I-601041J601041D01*
G01*
X205978805Y-128497195D01*
G75*
G02*
X205978805Y-127295113I601041J601041D01*
G01*
X205978805Y-127295113D01*
G75*
G02*
X207180887Y-127295113I601041J-601041D01*
G01*
X207180887Y-127295113D01*
G75*
G02*
X207180887Y-128497195I-601041J-601041D01*
G01*
G37*
G36*
G01*
X207180887Y-124905092D02*
X207180887Y-124905092D01*
G75*
G02*
X205978805Y-124905092I-601041J601041D01*
G01*
X205978805Y-124905092D01*
G75*
G02*
X205978805Y-123703010I601041J601041D01*
G01*
X205978805Y-123703010D01*
G75*
G02*
X207180887Y-123703010I601041J-601041D01*
G01*
X207180887Y-123703010D01*
G75*
G02*
X207180887Y-124905092I-601041J-601041D01*
G01*
G37*
G36*
G01*
X208976939Y-126701143D02*
X208976939Y-126701143D01*
G75*
G02*
X207774857Y-126701143I-601041J601041D01*
G01*
X207774857Y-126701143D01*
G75*
G02*
X207774857Y-125499061I601041J601041D01*
G01*
X207774857Y-125499061D01*
G75*
G02*
X208976939Y-125499061I601041J-601041D01*
G01*
X208976939Y-125499061D01*
G75*
G02*
X208976939Y-126701143I-601041J-601041D01*
G01*
G37*
G36*
G01*
X208976939Y-123109041D02*
X208976939Y-123109041D01*
G75*
G02*
X207774857Y-123109041I-601041J601041D01*
G01*
X207774857Y-123109041D01*
G75*
G02*
X207774857Y-121906959I601041J601041D01*
G01*
X207774857Y-121906959D01*
G75*
G02*
X208976939Y-121906959I601041J-601041D01*
G01*
X208976939Y-121906959D01*
G75*
G02*
X208976939Y-123109041I-601041J-601041D01*
G01*
G37*
G36*
G01*
X210772990Y-124905092D02*
X210772990Y-124905092D01*
G75*
G02*
X209570908Y-124905092I-601041J601041D01*
G01*
X209570908Y-124905092D01*
G75*
G02*
X209570908Y-123703010I601041J601041D01*
G01*
X209570908Y-123703010D01*
G75*
G02*
X210772990Y-123703010I601041J-601041D01*
G01*
X210772990Y-123703010D01*
G75*
G02*
X210772990Y-124905092I-601041J-601041D01*
G01*
G37*
G36*
G01*
X210772990Y-121312990D02*
X210772990Y-121312990D01*
G75*
G02*
X209570908Y-121312990I-601041J601041D01*
G01*
X209570908Y-121312990D01*
G75*
G02*
X209570908Y-120110908I601041J601041D01*
G01*
X209570908Y-120110908D01*
G75*
G02*
X210772990Y-120110908I601041J-601041D01*
G01*
X210772990Y-120110908D01*
G75*
G02*
X210772990Y-121312990I-601041J-601041D01*
G01*
G37*
G36*
X213170082Y-122508000D02*
G01*
X211968000Y-123710082D01*
X210765918Y-122508000D01*
X211968000Y-121305918D01*
X213170082Y-122508000D01*
G37*
%TD*%
%TO.C,JHB1*%
G36*
G01*
X224307195Y-58751215D02*
X224307195Y-58751215D01*
G75*
G02*
X224307195Y-59953297I-601041J-601041D01*
G01*
X224307195Y-59953297D01*
G75*
G02*
X223105113Y-59953297I-601041J601041D01*
G01*
X223105113Y-59953297D01*
G75*
G02*
X223105113Y-58751215I601041J601041D01*
G01*
X223105113Y-58751215D01*
G75*
G02*
X224307195Y-58751215I601041J-601041D01*
G01*
G37*
G36*
G01*
X226103246Y-56955164D02*
X226103246Y-56955164D01*
G75*
G02*
X226103246Y-58157246I-601041J-601041D01*
G01*
X226103246Y-58157246D01*
G75*
G02*
X224901164Y-58157246I-601041J601041D01*
G01*
X224901164Y-58157246D01*
G75*
G02*
X224901164Y-56955164I601041J601041D01*
G01*
X224901164Y-56955164D01*
G75*
G02*
X226103246Y-56955164I601041J-601041D01*
G01*
G37*
G36*
G01*
X222511143Y-56955164D02*
X222511143Y-56955164D01*
G75*
G02*
X222511143Y-58157246I-601041J-601041D01*
G01*
X222511143Y-58157246D01*
G75*
G02*
X221309061Y-58157246I-601041J601041D01*
G01*
X221309061Y-58157246D01*
G75*
G02*
X221309061Y-56955164I601041J601041D01*
G01*
X221309061Y-56955164D01*
G75*
G02*
X222511143Y-56955164I601041J-601041D01*
G01*
G37*
G36*
G01*
X224307195Y-55159113D02*
X224307195Y-55159113D01*
G75*
G02*
X224307195Y-56361195I-601041J-601041D01*
G01*
X224307195Y-56361195D01*
G75*
G02*
X223105113Y-56361195I-601041J601041D01*
G01*
X223105113Y-56361195D01*
G75*
G02*
X223105113Y-55159113I601041J601041D01*
G01*
X223105113Y-55159113D01*
G75*
G02*
X224307195Y-55159113I601041J-601041D01*
G01*
G37*
G36*
G01*
X220715092Y-55159113D02*
X220715092Y-55159113D01*
G75*
G02*
X220715092Y-56361195I-601041J-601041D01*
G01*
X220715092Y-56361195D01*
G75*
G02*
X219513010Y-56361195I-601041J601041D01*
G01*
X219513010Y-56361195D01*
G75*
G02*
X219513010Y-55159113I601041J601041D01*
G01*
X219513010Y-55159113D01*
G75*
G02*
X220715092Y-55159113I601041J-601041D01*
G01*
G37*
G36*
G01*
X222511143Y-53363061D02*
X222511143Y-53363061D01*
G75*
G02*
X222511143Y-54565143I-601041J-601041D01*
G01*
X222511143Y-54565143D01*
G75*
G02*
X221309061Y-54565143I-601041J601041D01*
G01*
X221309061Y-54565143D01*
G75*
G02*
X221309061Y-53363061I601041J601041D01*
G01*
X221309061Y-53363061D01*
G75*
G02*
X222511143Y-53363061I601041J-601041D01*
G01*
G37*
G36*
G01*
X218919041Y-53363061D02*
X218919041Y-53363061D01*
G75*
G02*
X218919041Y-54565143I-601041J-601041D01*
G01*
X218919041Y-54565143D01*
G75*
G02*
X217716959Y-54565143I-601041J601041D01*
G01*
X217716959Y-54565143D01*
G75*
G02*
X217716959Y-53363061I601041J601041D01*
G01*
X217716959Y-53363061D01*
G75*
G02*
X218919041Y-53363061I601041J-601041D01*
G01*
G37*
G36*
G01*
X220715092Y-51567010D02*
X220715092Y-51567010D01*
G75*
G02*
X220715092Y-52769092I-601041J-601041D01*
G01*
X220715092Y-52769092D01*
G75*
G02*
X219513010Y-52769092I-601041J601041D01*
G01*
X219513010Y-52769092D01*
G75*
G02*
X219513010Y-51567010I601041J601041D01*
G01*
X219513010Y-51567010D01*
G75*
G02*
X220715092Y-51567010I601041J-601041D01*
G01*
G37*
G36*
G01*
X217122990Y-51567010D02*
X217122990Y-51567010D01*
G75*
G02*
X217122990Y-52769092I-601041J-601041D01*
G01*
X217122990Y-52769092D01*
G75*
G02*
X215920908Y-52769092I-601041J601041D01*
G01*
X215920908Y-52769092D01*
G75*
G02*
X215920908Y-51567010I601041J601041D01*
G01*
X215920908Y-51567010D01*
G75*
G02*
X217122990Y-51567010I601041J-601041D01*
G01*
G37*
G36*
X218318000Y-49169918D02*
G01*
X219520082Y-50372000D01*
X218318000Y-51574082D01*
X217115918Y-50372000D01*
X218318000Y-49169918D01*
G37*
%TD*%
%TO.C,JHB2*%
G36*
G01*
X224307195Y-84151215D02*
X224307195Y-84151215D01*
G75*
G02*
X224307195Y-85353297I-601041J-601041D01*
G01*
X224307195Y-85353297D01*
G75*
G02*
X223105113Y-85353297I-601041J601041D01*
G01*
X223105113Y-85353297D01*
G75*
G02*
X223105113Y-84151215I601041J601041D01*
G01*
X223105113Y-84151215D01*
G75*
G02*
X224307195Y-84151215I601041J-601041D01*
G01*
G37*
G36*
G01*
X226103246Y-82355164D02*
X226103246Y-82355164D01*
G75*
G02*
X226103246Y-83557246I-601041J-601041D01*
G01*
X226103246Y-83557246D01*
G75*
G02*
X224901164Y-83557246I-601041J601041D01*
G01*
X224901164Y-83557246D01*
G75*
G02*
X224901164Y-82355164I601041J601041D01*
G01*
X224901164Y-82355164D01*
G75*
G02*
X226103246Y-82355164I601041J-601041D01*
G01*
G37*
G36*
G01*
X222511143Y-82355164D02*
X222511143Y-82355164D01*
G75*
G02*
X222511143Y-83557246I-601041J-601041D01*
G01*
X222511143Y-83557246D01*
G75*
G02*
X221309061Y-83557246I-601041J601041D01*
G01*
X221309061Y-83557246D01*
G75*
G02*
X221309061Y-82355164I601041J601041D01*
G01*
X221309061Y-82355164D01*
G75*
G02*
X222511143Y-82355164I601041J-601041D01*
G01*
G37*
G36*
G01*
X224307195Y-80559113D02*
X224307195Y-80559113D01*
G75*
G02*
X224307195Y-81761195I-601041J-601041D01*
G01*
X224307195Y-81761195D01*
G75*
G02*
X223105113Y-81761195I-601041J601041D01*
G01*
X223105113Y-81761195D01*
G75*
G02*
X223105113Y-80559113I601041J601041D01*
G01*
X223105113Y-80559113D01*
G75*
G02*
X224307195Y-80559113I601041J-601041D01*
G01*
G37*
G36*
G01*
X220715092Y-80559113D02*
X220715092Y-80559113D01*
G75*
G02*
X220715092Y-81761195I-601041J-601041D01*
G01*
X220715092Y-81761195D01*
G75*
G02*
X219513010Y-81761195I-601041J601041D01*
G01*
X219513010Y-81761195D01*
G75*
G02*
X219513010Y-80559113I601041J601041D01*
G01*
X219513010Y-80559113D01*
G75*
G02*
X220715092Y-80559113I601041J-601041D01*
G01*
G37*
G36*
G01*
X222511143Y-78763061D02*
X222511143Y-78763061D01*
G75*
G02*
X222511143Y-79965143I-601041J-601041D01*
G01*
X222511143Y-79965143D01*
G75*
G02*
X221309061Y-79965143I-601041J601041D01*
G01*
X221309061Y-79965143D01*
G75*
G02*
X221309061Y-78763061I601041J601041D01*
G01*
X221309061Y-78763061D01*
G75*
G02*
X222511143Y-78763061I601041J-601041D01*
G01*
G37*
G36*
G01*
X218919041Y-78763061D02*
X218919041Y-78763061D01*
G75*
G02*
X218919041Y-79965143I-601041J-601041D01*
G01*
X218919041Y-79965143D01*
G75*
G02*
X217716959Y-79965143I-601041J601041D01*
G01*
X217716959Y-79965143D01*
G75*
G02*
X217716959Y-78763061I601041J601041D01*
G01*
X217716959Y-78763061D01*
G75*
G02*
X218919041Y-78763061I601041J-601041D01*
G01*
G37*
G36*
G01*
X220715092Y-76967010D02*
X220715092Y-76967010D01*
G75*
G02*
X220715092Y-78169092I-601041J-601041D01*
G01*
X220715092Y-78169092D01*
G75*
G02*
X219513010Y-78169092I-601041J601041D01*
G01*
X219513010Y-78169092D01*
G75*
G02*
X219513010Y-76967010I601041J601041D01*
G01*
X219513010Y-76967010D01*
G75*
G02*
X220715092Y-76967010I601041J-601041D01*
G01*
G37*
G36*
G01*
X217122990Y-76967010D02*
X217122990Y-76967010D01*
G75*
G02*
X217122990Y-78169092I-601041J-601041D01*
G01*
X217122990Y-78169092D01*
G75*
G02*
X215920908Y-78169092I-601041J601041D01*
G01*
X215920908Y-78169092D01*
G75*
G02*
X215920908Y-76967010I601041J601041D01*
G01*
X215920908Y-76967010D01*
G75*
G02*
X217122990Y-76967010I601041J-601041D01*
G01*
G37*
G36*
X218318000Y-74569918D02*
G01*
X219520082Y-75772000D01*
X218318000Y-76974082D01*
X217115918Y-75772000D01*
X218318000Y-74569918D01*
G37*
%TD*%
%TO.C,JHB3*%
G36*
G01*
X224307195Y-109551215D02*
X224307195Y-109551215D01*
G75*
G02*
X224307195Y-110753297I-601041J-601041D01*
G01*
X224307195Y-110753297D01*
G75*
G02*
X223105113Y-110753297I-601041J601041D01*
G01*
X223105113Y-110753297D01*
G75*
G02*
X223105113Y-109551215I601041J601041D01*
G01*
X223105113Y-109551215D01*
G75*
G02*
X224307195Y-109551215I601041J-601041D01*
G01*
G37*
G36*
G01*
X226103246Y-107755164D02*
X226103246Y-107755164D01*
G75*
G02*
X226103246Y-108957246I-601041J-601041D01*
G01*
X226103246Y-108957246D01*
G75*
G02*
X224901164Y-108957246I-601041J601041D01*
G01*
X224901164Y-108957246D01*
G75*
G02*
X224901164Y-107755164I601041J601041D01*
G01*
X224901164Y-107755164D01*
G75*
G02*
X226103246Y-107755164I601041J-601041D01*
G01*
G37*
G36*
G01*
X222511143Y-107755164D02*
X222511143Y-107755164D01*
G75*
G02*
X222511143Y-108957246I-601041J-601041D01*
G01*
X222511143Y-108957246D01*
G75*
G02*
X221309061Y-108957246I-601041J601041D01*
G01*
X221309061Y-108957246D01*
G75*
G02*
X221309061Y-107755164I601041J601041D01*
G01*
X221309061Y-107755164D01*
G75*
G02*
X222511143Y-107755164I601041J-601041D01*
G01*
G37*
G36*
G01*
X224307195Y-105959113D02*
X224307195Y-105959113D01*
G75*
G02*
X224307195Y-107161195I-601041J-601041D01*
G01*
X224307195Y-107161195D01*
G75*
G02*
X223105113Y-107161195I-601041J601041D01*
G01*
X223105113Y-107161195D01*
G75*
G02*
X223105113Y-105959113I601041J601041D01*
G01*
X223105113Y-105959113D01*
G75*
G02*
X224307195Y-105959113I601041J-601041D01*
G01*
G37*
G36*
G01*
X220715092Y-105959113D02*
X220715092Y-105959113D01*
G75*
G02*
X220715092Y-107161195I-601041J-601041D01*
G01*
X220715092Y-107161195D01*
G75*
G02*
X219513010Y-107161195I-601041J601041D01*
G01*
X219513010Y-107161195D01*
G75*
G02*
X219513010Y-105959113I601041J601041D01*
G01*
X219513010Y-105959113D01*
G75*
G02*
X220715092Y-105959113I601041J-601041D01*
G01*
G37*
G36*
G01*
X222511143Y-104163061D02*
X222511143Y-104163061D01*
G75*
G02*
X222511143Y-105365143I-601041J-601041D01*
G01*
X222511143Y-105365143D01*
G75*
G02*
X221309061Y-105365143I-601041J601041D01*
G01*
X221309061Y-105365143D01*
G75*
G02*
X221309061Y-104163061I601041J601041D01*
G01*
X221309061Y-104163061D01*
G75*
G02*
X222511143Y-104163061I601041J-601041D01*
G01*
G37*
G36*
G01*
X218919041Y-104163061D02*
X218919041Y-104163061D01*
G75*
G02*
X218919041Y-105365143I-601041J-601041D01*
G01*
X218919041Y-105365143D01*
G75*
G02*
X217716959Y-105365143I-601041J601041D01*
G01*
X217716959Y-105365143D01*
G75*
G02*
X217716959Y-104163061I601041J601041D01*
G01*
X217716959Y-104163061D01*
G75*
G02*
X218919041Y-104163061I601041J-601041D01*
G01*
G37*
G36*
G01*
X220715092Y-102367010D02*
X220715092Y-102367010D01*
G75*
G02*
X220715092Y-103569092I-601041J-601041D01*
G01*
X220715092Y-103569092D01*
G75*
G02*
X219513010Y-103569092I-601041J601041D01*
G01*
X219513010Y-103569092D01*
G75*
G02*
X219513010Y-102367010I601041J601041D01*
G01*
X219513010Y-102367010D01*
G75*
G02*
X220715092Y-102367010I601041J-601041D01*
G01*
G37*
G36*
G01*
X217122990Y-102367010D02*
X217122990Y-102367010D01*
G75*
G02*
X217122990Y-103569092I-601041J-601041D01*
G01*
X217122990Y-103569092D01*
G75*
G02*
X215920908Y-103569092I-601041J601041D01*
G01*
X215920908Y-103569092D01*
G75*
G02*
X215920908Y-102367010I601041J601041D01*
G01*
X215920908Y-102367010D01*
G75*
G02*
X217122990Y-102367010I601041J-601041D01*
G01*
G37*
G36*
X218318000Y-99969918D02*
G01*
X219520082Y-101172000D01*
X218318000Y-102374082D01*
X217115918Y-101172000D01*
X218318000Y-99969918D01*
G37*
%TD*%
%TO.C,JHB4*%
G36*
G01*
X224307195Y-134951215D02*
X224307195Y-134951215D01*
G75*
G02*
X224307195Y-136153297I-601041J-601041D01*
G01*
X224307195Y-136153297D01*
G75*
G02*
X223105113Y-136153297I-601041J601041D01*
G01*
X223105113Y-136153297D01*
G75*
G02*
X223105113Y-134951215I601041J601041D01*
G01*
X223105113Y-134951215D01*
G75*
G02*
X224307195Y-134951215I601041J-601041D01*
G01*
G37*
G36*
G01*
X226103246Y-133155164D02*
X226103246Y-133155164D01*
G75*
G02*
X226103246Y-134357246I-601041J-601041D01*
G01*
X226103246Y-134357246D01*
G75*
G02*
X224901164Y-134357246I-601041J601041D01*
G01*
X224901164Y-134357246D01*
G75*
G02*
X224901164Y-133155164I601041J601041D01*
G01*
X224901164Y-133155164D01*
G75*
G02*
X226103246Y-133155164I601041J-601041D01*
G01*
G37*
G36*
G01*
X222511143Y-133155164D02*
X222511143Y-133155164D01*
G75*
G02*
X222511143Y-134357246I-601041J-601041D01*
G01*
X222511143Y-134357246D01*
G75*
G02*
X221309061Y-134357246I-601041J601041D01*
G01*
X221309061Y-134357246D01*
G75*
G02*
X221309061Y-133155164I601041J601041D01*
G01*
X221309061Y-133155164D01*
G75*
G02*
X222511143Y-133155164I601041J-601041D01*
G01*
G37*
G36*
G01*
X224307195Y-131359113D02*
X224307195Y-131359113D01*
G75*
G02*
X224307195Y-132561195I-601041J-601041D01*
G01*
X224307195Y-132561195D01*
G75*
G02*
X223105113Y-132561195I-601041J601041D01*
G01*
X223105113Y-132561195D01*
G75*
G02*
X223105113Y-131359113I601041J601041D01*
G01*
X223105113Y-131359113D01*
G75*
G02*
X224307195Y-131359113I601041J-601041D01*
G01*
G37*
G36*
G01*
X220715092Y-131359113D02*
X220715092Y-131359113D01*
G75*
G02*
X220715092Y-132561195I-601041J-601041D01*
G01*
X220715092Y-132561195D01*
G75*
G02*
X219513010Y-132561195I-601041J601041D01*
G01*
X219513010Y-132561195D01*
G75*
G02*
X219513010Y-131359113I601041J601041D01*
G01*
X219513010Y-131359113D01*
G75*
G02*
X220715092Y-131359113I601041J-601041D01*
G01*
G37*
G36*
G01*
X222511143Y-129563061D02*
X222511143Y-129563061D01*
G75*
G02*
X222511143Y-130765143I-601041J-601041D01*
G01*
X222511143Y-130765143D01*
G75*
G02*
X221309061Y-130765143I-601041J601041D01*
G01*
X221309061Y-130765143D01*
G75*
G02*
X221309061Y-129563061I601041J601041D01*
G01*
X221309061Y-129563061D01*
G75*
G02*
X222511143Y-129563061I601041J-601041D01*
G01*
G37*
G36*
G01*
X218919041Y-129563061D02*
X218919041Y-129563061D01*
G75*
G02*
X218919041Y-130765143I-601041J-601041D01*
G01*
X218919041Y-130765143D01*
G75*
G02*
X217716959Y-130765143I-601041J601041D01*
G01*
X217716959Y-130765143D01*
G75*
G02*
X217716959Y-129563061I601041J601041D01*
G01*
X217716959Y-129563061D01*
G75*
G02*
X218919041Y-129563061I601041J-601041D01*
G01*
G37*
G36*
G01*
X220715092Y-127767010D02*
X220715092Y-127767010D01*
G75*
G02*
X220715092Y-128969092I-601041J-601041D01*
G01*
X220715092Y-128969092D01*
G75*
G02*
X219513010Y-128969092I-601041J601041D01*
G01*
X219513010Y-128969092D01*
G75*
G02*
X219513010Y-127767010I601041J601041D01*
G01*
X219513010Y-127767010D01*
G75*
G02*
X220715092Y-127767010I601041J-601041D01*
G01*
G37*
G36*
G01*
X217122990Y-127767010D02*
X217122990Y-127767010D01*
G75*
G02*
X217122990Y-128969092I-601041J-601041D01*
G01*
X217122990Y-128969092D01*
G75*
G02*
X215920908Y-128969092I-601041J601041D01*
G01*
X215920908Y-128969092D01*
G75*
G02*
X215920908Y-127767010I601041J601041D01*
G01*
X215920908Y-127767010D01*
G75*
G02*
X217122990Y-127767010I601041J-601041D01*
G01*
G37*
G36*
X218318000Y-125369918D02*
G01*
X219520082Y-126572000D01*
X218318000Y-127774082D01*
X217115918Y-126572000D01*
X218318000Y-125369918D01*
G37*
%TD*%
D19*
%TO.C,SW1*%
X236327500Y-63869500D03*
X231827500Y-63869500D03*
X236327500Y-57369500D03*
X231827500Y-57369500D03*
%TD*%
D20*
%TO.C,PS1*%
X236507500Y-85919500D03*
X236507500Y-88459500D03*
X236507500Y-83379500D03*
D21*
X236507500Y-80839500D03*
%TD*%
M02*
