%TF.GenerationSoftware,KiCad,Pcbnew,(5.1.10)-1*%
%TF.CreationDate,2021-11-13T17:44:38+00:00*%
%TF.ProjectId,voltmitten,766f6c74-6d69-4747-9465-6e2e6b696361,01*%
%TF.SameCoordinates,Original*%
%TF.FileFunction,Profile,NP*%
%FSLAX46Y46*%
G04 Gerber Fmt 4.6, Leading zero omitted, Abs format (unit mm)*
G04 Created by KiCad (PCBNEW (5.1.10)-1) date 2021-11-13 17:44:38*
%MOMM*%
%LPD*%
G01*
G04 APERTURE LIST*
%TA.AperFunction,Profile*%
%ADD10C,0.050000*%
%TD*%
G04 APERTURE END LIST*
D10*
X189870000Y-134720000D02*
X189870000Y-146420000D01*
X189870000Y-114120000D02*
X189870000Y-110220000D01*
X57870000Y-112920000D02*
X57870000Y-135420000D01*
X187870000Y-130920000D02*
X187870000Y-117920000D01*
X137870000Y-112920000D02*
X101670000Y-112920000D01*
X57870000Y-112920000D02*
X62870000Y-112920000D01*
X187870000Y-114120000D02*
X187870000Y-112920000D01*
X189870000Y-117920000D02*
X189870000Y-130920000D01*
X187870000Y-135420000D02*
X187870000Y-134720000D01*
X97870000Y-112920000D02*
X66670000Y-112920000D01*
X179170000Y-112920000D02*
X187870000Y-112920000D01*
X57870000Y-135420000D02*
X187870000Y-135420000D01*
X175370000Y-112920000D02*
X141670000Y-112920000D01*
X57870000Y-88420000D02*
X62870000Y-88420000D01*
X175370000Y-88420000D02*
X141670000Y-88420000D01*
X179170000Y-88420000D02*
X187870000Y-88420000D01*
X187870000Y-89620000D02*
X187870000Y-88420000D01*
X175370000Y-110920000D02*
X141670000Y-110920000D01*
X97870000Y-110920000D02*
X66670000Y-110920000D01*
X57870000Y-110920000D02*
X62870000Y-110920000D01*
X97870000Y-88420000D02*
X66670000Y-88420000D01*
X179170000Y-110920000D02*
X187870000Y-110920000D01*
X189870000Y-89620000D02*
X189870000Y-85720000D01*
X189870000Y-93420000D02*
X189870000Y-106420000D01*
X187870000Y-106420000D02*
X187870000Y-93420000D01*
X187870000Y-110920000D02*
X187870000Y-110220000D01*
X137870000Y-110920000D02*
X101670000Y-110920000D01*
X57870000Y-88420000D02*
X57870000Y-110920000D01*
X137870000Y-88420000D02*
X101670000Y-88420000D01*
X189870000Y-65120000D02*
X189870000Y-61220000D01*
X189870000Y-68920000D02*
X189870000Y-81920000D01*
X187870000Y-81920000D02*
X187870000Y-68920000D01*
X187870000Y-86420000D02*
X187870000Y-85720000D01*
X179170000Y-86420000D02*
X187870000Y-86420000D01*
X175370000Y-86420000D02*
X141670000Y-86420000D01*
X137870000Y-86420000D02*
X101670000Y-86420000D01*
X57870000Y-86420000D02*
X62870000Y-86420000D01*
X97870000Y-86420000D02*
X66670000Y-86420000D01*
X57870000Y-63920000D02*
X57870000Y-86420000D01*
X187870000Y-65120000D02*
X187870000Y-63920000D01*
X179170000Y-63920000D02*
X187870000Y-63920000D01*
X175370000Y-63920000D02*
X141670000Y-63920000D01*
X137870000Y-63920000D02*
X101670000Y-63920000D01*
X97870000Y-63920000D02*
X66670000Y-63920000D01*
X57870000Y-63920000D02*
X62870000Y-63920000D01*
X97870000Y-61920000D02*
X66670000Y-61920000D01*
X137870000Y-61920000D02*
X101670000Y-61920000D01*
X175370000Y-61920000D02*
X141670000Y-61920000D01*
X57870000Y-61920000D02*
X62870000Y-61920000D01*
X179170000Y-61920000D02*
X187870000Y-61920000D01*
X187870000Y-40620000D02*
X187870000Y-39420000D01*
X189870000Y-44420000D02*
X189870000Y-57420000D01*
X187870000Y-57420000D02*
X187870000Y-44420000D01*
X187870000Y-61920000D02*
X187870000Y-61220000D01*
X189870000Y-146420000D02*
X239870000Y-146420000D01*
X189870000Y-39419500D02*
X239870000Y-39419500D01*
X57870000Y-39420000D02*
X187870000Y-39420000D01*
X189870000Y-39419500D02*
X189870000Y-40620000D01*
X239870000Y-39419500D02*
X239870000Y-146420000D01*
X57870000Y-39420000D02*
X57870000Y-61920000D01*
%TO.C,REF\u002A\u002A*%
X179170000Y-112920000D02*
G75*
G02*
X179170000Y-110920000I600000J1000000D01*
G01*
X175370000Y-112920000D02*
G75*
G03*
X175370000Y-110920000I-600000J1000000D01*
G01*
X101670000Y-112920000D02*
G75*
G02*
X101670000Y-110920000I600000J1000000D01*
G01*
X97870000Y-112920000D02*
G75*
G03*
X97870000Y-110920000I-600000J1000000D01*
G01*
X141670000Y-112920000D02*
G75*
G02*
X141670000Y-110920000I600000J1000000D01*
G01*
X137870000Y-112920000D02*
G75*
G03*
X137870000Y-110920000I-600000J1000000D01*
G01*
X66670000Y-112920000D02*
G75*
G02*
X66670000Y-110920000I600000J1000000D01*
G01*
X62870000Y-112920000D02*
G75*
G03*
X62870000Y-110920000I-600000J1000000D01*
G01*
X189870000Y-114120000D02*
G75*
G02*
X187870000Y-114120000I-1000000J600000D01*
G01*
X189870000Y-117920000D02*
G75*
G03*
X187870000Y-117920000I-1000000J-600000D01*
G01*
X187870000Y-134720000D02*
G75*
G02*
X189870000Y-134720000I1000000J-600000D01*
G01*
X187870000Y-130920000D02*
G75*
G03*
X189870000Y-130920000I1000000J600000D01*
G01*
X187870000Y-106420000D02*
G75*
G03*
X189870000Y-106420000I1000000J600000D01*
G01*
X187870000Y-110220000D02*
G75*
G02*
X189870000Y-110220000I1000000J-600000D01*
G01*
X189870000Y-93420000D02*
G75*
G03*
X187870000Y-93420000I-1000000J-600000D01*
G01*
X189870000Y-89620000D02*
G75*
G02*
X187870000Y-89620000I-1000000J600000D01*
G01*
X179170000Y-88420000D02*
G75*
G02*
X179170000Y-86420000I600000J1000000D01*
G01*
X175370000Y-88420000D02*
G75*
G03*
X175370000Y-86420000I-600000J1000000D01*
G01*
X141670000Y-88420000D02*
G75*
G02*
X141670000Y-86420000I600000J1000000D01*
G01*
X137870000Y-88420000D02*
G75*
G03*
X137870000Y-86420000I-600000J1000000D01*
G01*
X101670000Y-88420000D02*
G75*
G02*
X101670000Y-86420000I600000J1000000D01*
G01*
X97870000Y-88420000D02*
G75*
G03*
X97870000Y-86420000I-600000J1000000D01*
G01*
X66670000Y-88420000D02*
G75*
G02*
X66670000Y-86420000I600000J1000000D01*
G01*
X62870000Y-88420000D02*
G75*
G03*
X62870000Y-86420000I-600000J1000000D01*
G01*
X187870000Y-85720000D02*
G75*
G02*
X189870000Y-85720000I1000000J-600000D01*
G01*
X187870000Y-81920000D02*
G75*
G03*
X189870000Y-81920000I1000000J600000D01*
G01*
X189870000Y-65120000D02*
G75*
G02*
X187870000Y-65120000I-1000000J600000D01*
G01*
X189870000Y-68920000D02*
G75*
G03*
X187870000Y-68920000I-1000000J-600000D01*
G01*
X187870000Y-57420000D02*
G75*
G03*
X189870000Y-57420000I1000000J600000D01*
G01*
X187870000Y-61220000D02*
G75*
G02*
X189870000Y-61220000I1000000J-600000D01*
G01*
X189870000Y-44420000D02*
G75*
G03*
X187870000Y-44420000I-1000000J-600000D01*
G01*
X189870000Y-40620000D02*
G75*
G02*
X187870000Y-40620000I-1000000J600000D01*
G01*
X175370000Y-63920000D02*
G75*
G03*
X175370000Y-61920000I-600000J1000000D01*
G01*
X179170000Y-63920000D02*
G75*
G02*
X179170000Y-61920000I600000J1000000D01*
G01*
X137870000Y-63920000D02*
G75*
G03*
X137870000Y-61920000I-600000J1000000D01*
G01*
X141670000Y-63920000D02*
G75*
G02*
X141670000Y-61920000I600000J1000000D01*
G01*
X97870000Y-63920000D02*
G75*
G03*
X97870000Y-61920000I-600000J1000000D01*
G01*
X101670000Y-63920000D02*
G75*
G02*
X101670000Y-61920000I600000J1000000D01*
G01*
X62870000Y-63920000D02*
G75*
G03*
X62870000Y-61920000I-600000J1000000D01*
G01*
X66670000Y-63920000D02*
G75*
G02*
X66670000Y-61920000I600000J1000000D01*
G01*
%TD*%
M02*
