M48
; DRILL file {KiCad (5.1.10)-1} date 11/13/21 17:44:17
; FORMAT={-:-/ absolute / inch / decimal}
; #@! TF.CreationDate,2021-11-13T17:44:17+00:00
; #@! TF.GenerationSoftware,Kicad,Pcbnew,(5.1.10)-1
; #@! TF.FileFunction,Plated,1,2,PTH
FMAT,2
INCH
T1C0.0157
T2C0.0256
T3C0.0276
T4C0.0315
T5C0.0394
T6C0.0433
T7C0.0551
%
G90
G05
T1
X2.8197Y-1.9949
X2.8197Y-2.9594
X2.8197Y-3.924
X2.8197Y-4.8886
X2.8787Y-1.9949
X2.8787Y-2.9594
X2.8787Y-3.924
X2.8787Y-4.8886
X2.9378Y-1.9949
X2.9378Y-2.9594
X2.9378Y-3.924
X2.9378Y-4.8886
X2.9969Y-1.9949
X2.9969Y-2.9594
X2.9969Y-3.924
X2.9969Y-4.8886
X5.6445Y-1.8079
X5.6445Y-1.8669
X5.6445Y-1.9457
X5.6445Y-2.0244
X5.6445Y-2.1031
X5.6445Y-2.1819
X5.6445Y-2.2606
X5.6445Y-2.3394
X5.6445Y-2.8315
X5.6445Y-2.9102
X5.6445Y-2.989
X5.6445Y-3.0677
X5.6445Y-3.1465
X5.6445Y-3.2252
X5.6445Y-3.3039
X5.6445Y-3.737
X5.6445Y-3.7961
X5.6445Y-3.8748
X5.6445Y-3.9535
X5.6445Y-4.0323
X5.6445Y-4.111
X5.6445Y-4.1898
X5.6445Y-4.2685
X5.6445Y-4.7606
X5.6445Y-4.8394
X5.6445Y-4.9181
X5.6445Y-4.9969
X5.6445Y-5.0756
X5.6445Y-5.1543
X5.6445Y-5.2331
X5.674Y-2.7823
X5.674Y-4.7114
X5.6839Y-1.9063
X5.6839Y-2.0638
X5.6839Y-2.3
X5.6839Y-2.3787
X5.6839Y-3.1071
X5.6839Y-3.1858
X5.6839Y-3.2646
X5.6839Y-3.3433
X5.6839Y-3.8354
X5.6839Y-3.9929
X5.6839Y-4.2291
X5.6839Y-4.3079
X5.6839Y-5.0362
X5.6839Y-5.115
X5.6839Y-5.1937
X5.6839Y-5.2724
X5.6937Y-1.8276
X5.6937Y-2.6346
X5.6937Y-2.7232
X5.6937Y-3.7567
X5.6937Y-4.5638
X5.6937Y-4.6524
X5.7035Y-1.6701
X5.7035Y-1.7488
X5.7035Y-3.5992
X5.7035Y-3.678
X5.7232Y-2.1031
X5.7232Y-3.1465
X5.7232Y-4.0323
X5.7232Y-5.0756
X5.7331Y-2.6839
X5.7331Y-4.613
X5.7528Y-2.6346
X5.7528Y-4.5638
X5.7626Y-2.0638
X5.7626Y-3.1071
X5.7626Y-3.9929
X5.7626Y-5.0362
X5.802Y-2.1031
X5.802Y-3.1465
X5.802Y-4.0323
X5.802Y-5.0756
X5.8303Y-1.8213
X5.8303Y-3.7504
X5.8413Y-2.0638
X5.8413Y-2.9496
X5.8413Y-3.0283
X5.8413Y-3.1071
X5.8413Y-3.9929
X5.8413Y-4.8787
X5.8413Y-4.9575
X5.8413Y-5.0362
X5.8443Y-2.7104
X5.8443Y-4.6396
X6.2941Y-2.1425
X6.2941Y-3.1071
X6.2941Y-4.0717
X6.2941Y-5.0362
X6.3965Y-1.8748
X6.3965Y-3.8039
X6.6878Y-2.1425
X6.6878Y-4.0717
X6.7827Y-2.2409
X6.7827Y-4.1701
X6.8453Y-2.1425
X6.8453Y-2.2606
X6.8453Y-4.0717
X6.8453Y-4.1898
X7.7311Y-3.5981
X7.9083Y-2.3886
X7.9083Y-2.4378
X7.9083Y-2.487
X7.9083Y-4.2783
X7.9083Y-4.3276
X7.9083Y-4.3768
X7.9909Y-3.6316
X8.0707Y-3.2852
X8.0756Y-2.3886
X8.0756Y-2.4378
X8.0756Y-2.487
X8.0756Y-4.2783
X8.0756Y-4.3276
X8.0756Y-4.3768
X8.115Y-4.5244
X8.115Y-4.5736
X8.115Y-4.6228
X8.1552Y-3.6316
X8.1802Y-3.5981
X8.2134Y-2.3886
X8.2134Y-2.4378
X8.2134Y-2.487
X8.2352Y-3.4081
X8.3315Y-2.3886
X8.3315Y-2.4378
X8.3315Y-2.487
X8.3807Y-4.5244
X8.3807Y-4.5736
X8.3807Y-4.6228
X8.5393Y-3.3354
X8.5874Y-4.6524
X8.6465Y-2.7724
X8.6858Y-2.7331
X8.7252Y-2.6937
X8.735Y-2.861
X8.7744Y-2.8217
X8.8138Y-2.7823
X8.8728Y-4.4555
X8.8728Y-4.5047
X8.8728Y-4.5539
X8.8925Y-2.9201
X8.8925Y-2.9693
X8.8925Y-3.0185
X8.8925Y-3.0677
X8.9952Y-3.8889
X9.0106Y-4.4555
X9.0106Y-4.5047
X9.0106Y-4.5539
X9.019Y-3.5981
X9.05Y-2.9201
X9.05Y-2.9693
X9.05Y-3.0185
X9.05Y-3.0677
X9.0648Y-4.6691
X9.0648Y-4.8167
X9.0648Y-4.9604
X9.0648Y-5.1278
X9.0741Y-4.4009
X9.1287Y-4.0126
X9.1799Y-3.8157
X9.1802Y-3.7156
X9.1878Y-4.8394
X9.1878Y-4.8886
X9.1878Y-4.9378
X9.1957Y-4.1071
X9.1976Y-4.5441
X9.2862Y-4.3374
X9.2862Y-4.7016
X9.2961Y-4.8394
X9.2961Y-4.8886
X9.2961Y-4.9378
T4
X5.8906Y-2.6346
X5.8906Y-4.5638
X5.9004Y-1.6701
X5.9004Y-1.7587
X5.9004Y-3.5992
X5.9004Y-3.6878
X5.9594Y-2.2803
X5.9594Y-3.2449
X5.9594Y-4.2094
X5.9594Y-5.174
X6.0185Y-1.9161
X6.0185Y-2.0047
X6.0185Y-2.1031
X6.0185Y-2.8807
X6.0185Y-2.9693
X6.0185Y-3.0677
X6.0185Y-3.8453
X6.0185Y-3.9339
X6.0185Y-4.0323
X6.0185Y-4.8098
X6.0185Y-4.8984
X6.0185Y-4.9969
X6.0283Y-2.7134
X6.0283Y-4.6425
X6.0875Y-1.8343
X6.0875Y-2.7989
X6.0875Y-3.7634
X6.0875Y-4.728
X6.1431Y-1.89
X6.1431Y-2.8546
X6.1431Y-3.8191
X6.1431Y-4.7837
X6.1988Y-1.9457
X6.1988Y-2.9102
X6.1988Y-3.8748
X6.1988Y-4.8394
X6.2843Y-2.0343
X6.2843Y-2.9988
X6.2843Y-3.9634
X6.2843Y-4.928
X6.3399Y-2.0899
X6.3399Y-3.0545
X6.3399Y-4.0191
X6.3399Y-4.9836
X6.3956Y-2.1456
X6.3956Y-3.1102
X6.3956Y-4.0747
X6.3956Y-5.0393
T5
X5.2902Y-1.6701
X5.2902Y-2.6346
X5.2902Y-3.5992
X5.2902Y-4.5638
X5.3902Y-1.6701
X5.3902Y-2.6346
X5.3902Y-3.5992
X5.3902Y-4.5638
X5.4902Y-1.6701
X5.4902Y-2.6346
X5.4902Y-3.5992
X5.4902Y-4.5638
X6.4038Y-1.9624
X6.4038Y-2.9269
X6.4038Y-3.8915
X6.4038Y-4.8561
X6.4745Y-1.8917
X6.4745Y-2.0331
X6.4745Y-2.8562
X6.4745Y-2.9976
X6.4745Y-3.8208
X6.4745Y-3.9622
X6.4745Y-4.7854
X6.4745Y-4.9268
X6.5452Y-1.8209
X6.5452Y-1.9624
X6.5452Y-2.7855
X6.5452Y-2.9269
X6.5452Y-3.7501
X6.5452Y-3.8915
X6.5452Y-4.7146
X6.5452Y-4.8561
X6.6159Y-1.7502
X6.6159Y-1.8917
X6.6159Y-2.7148
X6.6159Y-2.8562
X6.6159Y-3.6794
X6.6159Y-3.8208
X6.6159Y-4.6439
X6.6159Y-4.7854
X6.6378Y-2.2299
X6.6378Y-2.3299
X6.6378Y-4.1591
X6.6378Y-4.2591
X6.6866Y-1.6795
X6.6866Y-1.8209
X6.6866Y-2.6441
X6.6866Y-2.7855
X6.6866Y-3.6087
X6.6866Y-3.7501
X6.6866Y-4.5732
X6.6866Y-4.7146
X6.7378Y-3.1945
X6.7378Y-3.2945
X6.7378Y-5.1236
X6.7378Y-5.2236
X6.7573Y-1.7502
X6.7573Y-2.7148
X6.7573Y-3.6794
X6.7573Y-4.6439
X6.9366Y-1.9811
X6.9366Y-2.9457
X6.9366Y-3.9102
X6.9366Y-4.8748
X7.0073Y-1.9104
X7.0073Y-2.0518
X7.0073Y-2.875
X7.0073Y-3.0164
X7.0073Y-3.8395
X7.0073Y-3.9809
X7.0073Y-4.8041
X7.0073Y-4.9455
X7.078Y-1.9811
X7.078Y-2.1225
X7.078Y-2.9457
X7.078Y-3.0871
X7.078Y-3.9102
X7.078Y-4.0517
X7.078Y-4.8748
X7.078Y-5.0162
X7.1487Y-2.0518
X7.1487Y-2.1932
X7.1487Y-3.0164
X7.1487Y-3.1578
X7.1487Y-3.9809
X7.1487Y-4.1224
X7.1487Y-4.9455
X7.1487Y-5.0869
X7.2195Y-2.1225
X7.2195Y-2.2639
X7.2195Y-3.0871
X7.2195Y-3.2285
X7.2195Y-4.0517
X7.2195Y-4.1931
X7.2195Y-5.0162
X7.2195Y-5.1576
X7.2902Y-2.1932
X7.2902Y-3.1578
X7.2902Y-4.1224
X7.2902Y-5.0869
X7.5752Y-1.6531
X7.5752Y-1.7531
X7.5752Y-5.2531
X7.5752Y-5.3531
X7.6752Y-1.6531
X7.6752Y-1.7531
X7.6752Y-5.2531
X7.6752Y-5.3531
X7.7752Y-1.6531
X7.7752Y-1.7531
X7.7752Y-5.2531
X7.7752Y-5.3531
X7.8752Y-1.6531
X7.8752Y-1.7531
X7.8752Y-5.2531
X7.8752Y-5.3531
X7.9752Y-1.6531
X7.9752Y-1.7531
X7.9752Y-5.2531
X7.9752Y-5.3531
X7.9916Y-2.0353
X7.9916Y-3.0353
X7.9916Y-4.0353
X7.9916Y-5.0353
X8.0624Y-1.9646
X8.0624Y-2.106
X8.0624Y-2.9646
X8.0624Y-3.106
X8.0624Y-3.9646
X8.0624Y-4.106
X8.0624Y-4.9646
X8.0624Y-5.106
X8.1331Y-1.8939
X8.1331Y-2.0353
X8.1331Y-2.8939
X8.1331Y-3.0353
X8.1331Y-3.8939
X8.1331Y-4.0353
X8.1331Y-4.8939
X8.1331Y-5.0353
X8.2038Y-1.8231
X8.2038Y-1.9646
X8.2038Y-2.8231
X8.2038Y-2.9646
X8.2038Y-3.8231
X8.2038Y-3.9646
X8.2038Y-4.8231
X8.2038Y-4.9646
X8.2252Y-4.3031
X8.2252Y-4.4031
X8.2252Y-5.3031
X8.2252Y-5.4031
X8.2745Y-1.7524
X8.2745Y-1.8939
X8.2745Y-2.7524
X8.2745Y-2.8939
X8.2745Y-3.7524
X8.2745Y-3.8939
X8.2745Y-4.7524
X8.2745Y-4.8939
X8.3252Y-4.3031
X8.3252Y-4.4031
X8.3252Y-5.3031
X8.3252Y-5.4031
X8.3452Y-1.8231
X8.3452Y-2.8231
X8.3452Y-3.8231
X8.3452Y-4.8231
X8.5245Y-2.0539
X8.5245Y-3.0539
X8.5245Y-4.0539
X8.5245Y-5.0539
X8.5952Y-1.9831
X8.5952Y-2.1246
X8.5952Y-2.9831
X8.5952Y-3.1246
X8.5952Y-3.9831
X8.5952Y-4.1246
X8.5952Y-4.9831
X8.5952Y-5.1246
X8.6659Y-2.0539
X8.6659Y-2.1953
X8.6659Y-3.0539
X8.6659Y-3.1953
X8.6659Y-4.0539
X8.6659Y-4.1953
X8.6659Y-5.0539
X8.6659Y-5.1953
X8.7366Y-2.1246
X8.7366Y-2.266
X8.7366Y-3.1246
X8.7366Y-3.266
X8.7366Y-4.1246
X8.7366Y-4.266
X8.7366Y-5.1246
X8.7366Y-5.266
X8.8073Y-2.1953
X8.8073Y-2.3367
X8.8073Y-3.1953
X8.8073Y-3.3367
X8.8073Y-4.1953
X8.8073Y-4.3367
X8.8073Y-5.1953
X8.8073Y-5.3367
X8.878Y-2.266
X8.878Y-3.266
X8.878Y-4.266
X8.878Y-5.266
X8.9252Y-1.9031
X8.9252Y-2.0031
X8.9252Y-5.5031
X8.9252Y-5.6031
X9.0252Y-1.9031
X9.0252Y-2.0031
X9.0252Y-5.5031
X9.0252Y-5.6031
X9.1252Y-1.9031
X9.1252Y-2.0031
X9.1252Y-5.5031
X9.1252Y-5.6031
X9.2252Y-1.9031
X9.2252Y-2.0031
X9.2252Y-5.5031
X9.2252Y-5.6031
X9.3113Y-3.1827
X9.3113Y-3.2827
X9.3113Y-3.3827
X9.3113Y-3.4827
X9.3252Y-1.9031
X9.3252Y-2.0031
X9.3252Y-5.5031
X9.3252Y-5.6031
T6
X9.1271Y-2.2586
X9.1271Y-2.5145
X9.3042Y-2.2586
X9.3042Y-2.5145
T7
X2.4752Y-1.7488
X2.4752Y-1.9118
X2.4752Y-2.0748
X2.4752Y-2.2378
X2.4752Y-2.7134
X2.4752Y-2.8764
X2.4752Y-3.0394
X2.4752Y-3.2024
X2.4752Y-3.678
X2.4752Y-3.8409
X2.4752Y-4.0039
X2.4752Y-4.1669
X2.4752Y-4.6425
X2.4752Y-4.8055
X2.4752Y-4.9685
X2.4752Y-5.1315
X2.6382Y-1.7488
X2.6382Y-1.9118
X2.6382Y-2.0748
X2.6382Y-2.2378
X2.6382Y-2.7134
X2.6382Y-2.8764
X2.6382Y-3.0394
X2.6382Y-3.2024
X2.6382Y-3.678
X2.6382Y-3.8409
X2.6382Y-4.0039
X2.6382Y-4.1669
X2.6382Y-4.6425
X2.6382Y-4.8055
X2.6382Y-4.9685
X2.6382Y-5.1315
X3.1839Y-1.7488
X3.1839Y-1.9118
X3.1839Y-2.0748
X3.1839Y-2.2378
X3.1839Y-2.7134
X3.1839Y-2.8764
X3.1839Y-3.0394
X3.1839Y-3.2024
X3.1839Y-3.678
X3.1839Y-3.8409
X3.1839Y-4.0039
X3.1839Y-4.1669
X3.1839Y-4.6425
X3.1839Y-4.8055
X3.1839Y-4.9685
X3.1839Y-5.1315
X3.3469Y-1.7488
X3.3469Y-1.9118
X3.3469Y-2.0748
X3.3469Y-2.2378
X3.3469Y-2.7134
X3.3469Y-2.8764
X3.3469Y-3.0394
X3.3469Y-3.2024
X3.3469Y-3.678
X3.3469Y-3.8409
X3.3469Y-4.0039
X3.3469Y-4.1669
X3.3469Y-4.6425
X3.3469Y-4.8055
X3.3469Y-4.9685
X3.3469Y-5.1315
T2
G00X9.2642Y-2.7343
M15
G01X9.2484Y-2.7343
M16
G05
G00X9.2642Y-2.9248
M15
G01X9.2484Y-2.9248
M16
G05
T3
G00X9.3843Y-2.722
M15
G01X9.3646Y-2.722
M16
G05
G00X9.3843Y-2.937
M15
G01X9.3646Y-2.937
M16
G05
T0
M30
